<svg width="513" height="513" fill="none" xmlns="http://www.w3.org/2000/svg"><path fill-rule="evenodd" clip-rule="evenodd" d="M275.149 375.451a328.644 328.644 0 0 0 27.468 28.034C348.262 444.754 406.742 474.399 472 487v-37.069c-54.219-11.966-102.79-37.313-141.144-71.989-12.579-11.38-24.08-23.785-34.297-37.021l-21.41 34.53Z" fill="#E22B36"/><path fill-rule="evenodd" clip-rule="evenodd" d="M133.611 336.865c42.718-38.632 69.263-91.964 69.263-150.572V24h39.945v162.293c0 28.522 5.032 61.977 14.171 87.911 9.191-25.934 14.171-59.389 14.171-87.911V24h39.945v162.293c0 58.608 26.545 111.891 69.263 150.572 25.518 23.052 56.735 40.879 91.597 51.526v37.85c-45.85-11.77-86.976-34.09-119.836-63.833-24.696-22.368-44.772-48.888-58.737-78.289-10.423 25.494-21.924 49.62-36.3 67.984l-.103.146-.103-.146c-14.376-18.364-25.877-42.539-36.3-67.984-13.965 29.401-34.04 55.969-58.737 78.289-32.86 29.743-73.986 52.063-119.836 63.833v-37.85c34.811-10.647 66.08-28.474 91.597-51.526Z" fill="#E22B36"/><path fill-rule="evenodd" clip-rule="evenodd" d="M375.007 182.92c0 42.686 19.305 81.562 50.47 109.694 13.504 12.21 29.164 22.368 46.466 30.036v39.364c-28.29-9.719-53.705-24.81-74.705-43.808-38.353-34.676-62.177-82.588-62.177-135.286v-36.58h39.946v36.58Zm-236.07-36.58h39.945v36.58c0 52.698-23.823 100.561-62.177 135.286-21.05 19.047-46.466 34.089-74.705 43.808V322.65c17.303-7.668 32.963-17.826 46.466-30.036 31.114-28.181 50.471-67.008 50.471-109.694v-36.58Zm78.504 194.581a280.608 280.608 0 0 1-34.297 37.021C144.79 412.569 96.219 437.965 42 449.931V487c65.258-12.601 123.738-42.246 169.383-83.515 9.755-8.84 18.945-18.169 27.468-28.034l-21.41-34.53Z" fill="#E22B36"/></svg>