<svg width="24" height="24" viewBox="0 0 24 24" fill="none" xmlns="http://www.w3.org/2000/svg">
<path d="M13.1123 8.60359L10.514 6.00561C10.5103 6.00185 10.5082 5.9968 10.5082 5.99153C10.5082 5.98626 10.5103 5.98121 10.514 5.97745L13.112 3.37982C13.1157 3.37613 13.1208 3.37406 13.126 3.37406C13.1313 3.37406 13.1364 3.37613 13.1401 3.37982L14.238 4.47736C14.2418 4.48106 14.2468 4.48313 14.2521 4.48313C14.2573 4.48313 14.2624 4.48106 14.2662 4.47736L15.7377 3.00577C15.7415 3.00207 15.7466 3 15.7518 3C15.7571 3 15.7621 3.00207 15.7659 3.00577L20.9942 8.23375C20.9979 8.23751 21 8.24256 21 8.24783C21 8.2531 20.9979 8.25815 20.9942 8.2619L19.5226 9.73385C19.5189 9.7376 19.5169 9.74266 19.5169 9.74792C19.5169 9.75319 19.5189 9.75825 19.5226 9.762L20.6205 10.8599C20.6242 10.8636 20.6263 10.8687 20.6263 10.874C20.6263 10.8792 20.6242 10.8843 20.6205 10.888L18.0222 13.486C18.0184 13.4897 18.0134 13.4918 18.0081 13.4918C18.0029 13.4918 17.9978 13.4897 17.994 13.486L15.395 10.8863C15.3913 10.8826 15.3862 10.8805 15.3809 10.8805C15.3757 10.8805 15.3706 10.8826 15.3669 10.8863L10.8884 15.3605C10.8847 15.3643 10.8826 15.3693 10.8826 15.3746C10.8826 15.3799 10.8847 15.3849 10.8884 15.3887L13.4902 17.9898C13.4939 17.9936 13.496 17.9986 13.496 18.0039C13.496 18.0092 13.4939 18.0142 13.4902 18.018L10.888 20.6202C10.8843 20.6239 10.8792 20.6259 10.874 20.6259C10.8687 20.6259 10.8636 20.6239 10.8599 20.6202L9.762 19.5223C9.75825 19.5186 9.75319 19.5165 9.74792 19.5165C9.74266 19.5165 9.7376 19.5186 9.73385 19.5223L8.26226 20.9942C8.2585 20.9979 8.25345 21 8.24818 21C8.24291 21 8.23786 20.9979 8.23411 20.9942L3.00577 15.7659C3.00207 15.7621 3 15.7571 3 15.7518C3 15.7466 3.00207 15.7415 3.00577 15.7377L4.47771 14.2662C4.48141 14.2624 4.48348 14.2573 4.48348 14.2521C4.48348 14.2468 4.48141 14.2418 4.47771 14.238L3.37982 13.1401C3.37613 13.1364 3.37406 13.1313 3.37406 13.126C3.37406 13.1208 3.37613 13.1157 3.37982 13.112L5.97675 10.5147C5.9805 10.511 5.98556 10.5089 5.99083 10.5089C5.99609 10.5089 6.00115 10.511 6.0049 10.5147L8.60887 13.107C8.61262 13.1107 8.61767 13.1128 8.62294 13.1128C8.62821 13.1128 8.63326 13.1107 8.63702 13.107L13.1123 8.63174C13.116 8.62799 13.1181 8.62293 13.1181 8.61766C13.1181 8.61239 13.116 8.60734 13.1123 8.60359ZM15.7713 4.50671C15.7673 4.50275 15.7619 4.50052 15.7563 4.50052C15.7507 4.50052 15.7454 4.50275 15.7414 4.50671L15.0193 5.22879C15.0154 5.23275 15.0131 5.23812 15.0131 5.24372C15.0131 5.24932 15.0154 5.25469 15.0193 5.25865L18.7417 8.98102C18.7457 8.98498 18.751 8.9872 18.7566 8.9872C18.7622 8.9872 18.7676 8.98498 18.7716 8.98102L19.4936 8.25894C19.4976 8.25498 19.4998 8.24961 19.4998 8.24401C19.4998 8.23841 19.4976 8.23304 19.4936 8.22908L15.7713 4.50671ZM13.1429 4.88684C13.1384 4.88228 13.1322 4.87973 13.1258 4.87973C13.1193 4.87973 13.1132 4.88228 13.1086 4.88684L12.0168 5.97866C12.0122 5.98322 12.0097 5.98939 12.0097 5.99583C12.0097 6.00227 12.0122 6.00845 12.0168 6.013L17.987 11.9832C17.9916 11.9878 17.9977 11.9903 18.0042 11.9903C18.0106 11.9903 18.0168 11.9878 18.0213 11.9832L19.1132 10.8914C19.1177 10.8868 19.1203 10.8807 19.1203 10.8742C19.1203 10.8678 19.1177 10.8616 19.1132 10.8571L13.1429 4.88684ZM13.8882 9.38627C13.8847 9.38278 13.8799 9.38081 13.875 9.38081C13.87 9.38081 13.8653 9.38278 13.8618 9.38627L9.38698 13.8611C9.38348 13.8646 9.38152 13.8693 9.38152 13.8743C9.38152 13.8792 9.38348 13.884 9.38698 13.8875L10.1125 14.613C10.116 14.6165 10.1208 14.6185 10.1257 14.6185C10.1307 14.6185 10.1354 14.6165 10.1389 14.613L14.6137 10.1382C14.6172 10.1347 14.6192 10.13 14.6192 10.125C14.6192 10.1201 14.6172 10.1153 14.6137 10.1118L13.8882 9.38627ZM6.00852 12.0123C6.00522 12.009 6.00075 12.0071 5.99608 12.0071C5.99141 12.0071 5.98694 12.009 5.98364 12.0123L4.88236 13.1136C4.87906 13.1169 4.8772 13.1213 4.8772 13.126C4.8772 13.1307 4.87906 13.1352 4.88236 13.1385L10.8615 19.1176C10.8648 19.1209 10.8693 19.1228 10.874 19.1228C10.8787 19.1228 10.8831 19.1209 10.8864 19.1176L11.9877 18.0164C11.991 18.0131 11.9929 18.0086 11.9929 18.0039C11.9929 17.9993 11.991 17.9948 11.9877 17.9915L6.00852 12.0123ZM5.26076 15.0209C5.25854 15.0186 5.2559 15.0169 5.253 15.0157C5.25009 15.0145 5.24698 15.0138 5.24384 15.0138C5.2407 15.0138 5.23758 15.0145 5.23468 15.0157C5.23178 15.0169 5.22914 15.0186 5.22692 15.0209L4.5128 15.735C4.51058 15.7372 4.50882 15.7398 4.50761 15.7427C4.50641 15.7456 4.50579 15.7487 4.50579 15.7519C4.50579 15.755 4.50641 15.7581 4.50761 15.761C4.50882 15.7639 4.51058 15.7666 4.5128 15.7688L8.23119 19.4872C8.23341 19.4894 8.23605 19.4912 8.23895 19.4924C8.24186 19.4936 8.24497 19.4942 8.24811 19.4942C8.25125 19.4942 8.25437 19.4936 8.25727 19.4924C8.26017 19.4912 8.26281 19.4894 8.26503 19.4872L8.97915 18.7731C8.98137 18.7709 8.98313 18.7682 8.98434 18.7653C8.98554 18.7624 8.98616 18.7593 8.98616 18.7562C8.98616 18.753 8.98554 18.7499 8.98434 18.747C8.98313 18.7441 8.98137 18.7415 8.97915 18.7392L5.26076 15.0209Z" fill="black"/>
</svg>
