<svg width="24" height="24" viewBox="0 0 24 24" fill="none" xmlns="http://www.w3.org/2000/svg">
<path d="M12.4764 6.037L13.4021 5.20255C13.4021 5.20255 13.4021 5.20256 13.4021 5.198L13.6757 4.95176C13.8033 4.8332 13.9721 4.77848 14.1453 4.78304C14.3186 4.79216 14.4782 4.86968 14.5922 4.99735C14.7016 5.11591 14.7609 5.27095 14.7609 5.43054C14.7609 5.6175 14.6834 5.78621 14.5466 5.91389L14.2867 6.14644C14.1408 6.04612 14.0085 5.93213 13.8854 5.80901L12.9689 6.63435C13.3975 7.0721 13.9128 7.40952 14.4782 7.63295L15.3719 6.82586C15.7686 6.47019 15.9921 5.95948 15.9921 5.43054C15.9921 4.96544 15.8188 4.51858 15.5087 4.17203C15.1713 3.79812 14.7108 3.57924 14.2092 3.55188C13.7076 3.52452 13.2242 3.6978 12.8503 4.03523L11.9019 4.89248L12.0706 5.29375C12.1664 5.52174 12.2849 5.74062 12.4171 5.95037C12.4217 5.95949 12.4308 5.9686 12.4354 5.97772C12.4491 5.99596 12.4673 6.01877 12.4764 6.037Z" fill="black"/>
<path d="M18.5776 12.936L18.988 14.2447C20.0641 14.5365 20.8529 15.5214 20.8529 16.6842C20.8529 18.0795 19.7175 19.2149 18.3222 19.2149C16.9269 19.2149 15.7915 18.0795 15.7915 16.6842C15.7915 16.0914 15.9967 15.5442 16.3433 15.1111L15.9283 13.7887C15.0938 14.4772 14.5603 15.5214 14.5603 16.6888C14.5603 18.7635 16.2475 20.4507 18.3222 20.4507C20.397 20.4507 22.0841 18.7635 22.0841 16.6888C22.0887 14.7007 20.5383 13.0637 18.5776 12.936Z" fill="black"/>
<path d="M6.09707 11.5589L4.83854 10.8978H3.09667V12.1289H7.04094C6.76279 11.9328 6.44817 11.7413 6.09707 11.5589Z" fill="black"/>
<path d="M7.78898 18.0796C7.33756 18.7636 6.55783 19.2195 5.67778 19.2195C4.28246 19.2195 3.14706 18.0841 3.14706 16.6888C3.14706 15.2935 4.28246 14.1581 5.67778 14.1581C6.55783 14.1581 7.33756 14.6141 7.78898 15.2981H9.17063C8.61433 13.9119 7.26005 12.9269 5.67778 12.9269C3.60304 12.9269 1.91589 14.6141 1.91589 16.6888C1.91589 18.7636 3.60304 20.4507 5.67778 20.4507C7.26005 20.4507 8.61889 19.4658 9.17063 18.0796H7.78898Z" fill="black"/>
<path d="M9.32555 17.3045C9.33923 16.8667 9.33011 16.4563 9.29363 16.0733H5.44967V17.3045H9.32555Z" fill="black"/>
<path d="M9.2759 13.3784C9.8778 14.4134 10.1468 15.6993 10.1012 17.3044H11.3324C11.419 14.035 10.3247 11.8098 7.79851 10.2229L10.995 7.41407C11.492 8.07524 12.1121 8.63155 12.8235 9.05561C13.6443 9.54352 14.5699 9.83992 15.5275 9.91743L15.8375 10.8978H9.88238C10.2563 11.2808 10.5846 11.6912 10.8627 12.129H14.041L13.5257 13.3145L13.4299 13.538H11.5604C11.7063 13.9301 11.8203 14.3405 11.9069 14.7691H12.8964V14.7737H14.237L14.3465 14.5274L14.6611 13.807L15.874 11.0072L17.6341 16.6022H18.9246L16.444 8.71819L15.9971 8.71362C15.1034 8.7045 14.2234 8.45828 13.4573 8.00229C12.714 7.55999 12.0893 6.93072 11.6562 6.1829L11.2777 5.53541L5.66905 10.4601L6.46248 10.875C7.77572 11.5635 8.6968 12.3843 9.2759 13.3784Z" fill="black"/>
<path d="M12.5539 15.5488L11.7925 17.3044H13.1331L13.8991 15.5488H12.5539Z" fill="black"/>
</svg>
