<svg width="24" height="24" viewBox="0 0 24 24" fill="none" xmlns="http://www.w3.org/2000/svg">
<path d="M6.64159 10.7832C7.07921 11.2744 7.71778 11.587 8.4278 11.587C9.74513 11.587 10.8168 10.5152 10.8168 9.19791C10.8168 8.55934 10.5668 7.96097 10.1158 7.50996C9.78084 7.17504 9.37002 6.95623 8.91901 6.86246C8.98152 6.64811 9.01726 6.42036 9.01726 6.18369C9.01726 5.54512 8.76718 4.94675 8.31616 4.49574C7.86514 4.04472 7.26678 3.79464 6.62821 3.79464C6.10574 3.79464 5.62348 3.96434 5.23051 4.25013L6.10573 5.12536C6.26203 5.04498 6.44066 5.0048 6.62821 5.0048C6.94526 5.0048 7.23999 5.12983 7.46327 5.3531C7.68654 5.57638 7.81157 5.87558 7.81157 6.19263C7.81157 6.51415 7.68209 6.80886 7.47221 7.0232C7.31591 7.09018 7.16853 7.17504 7.0301 7.27774L7.90533 8.15299C8.06162 8.07261 8.24025 8.03241 8.4278 8.03241C8.74485 8.03241 9.03958 8.15746 9.26286 8.38073C9.48613 8.60401 9.61116 8.90319 9.61116 9.22024C9.61116 9.8722 9.07976 10.4036 8.4278 10.4036C7.77583 10.4036 7.24444 9.8722 7.24444 9.22024C7.24444 9.03269 7.2891 8.85406 7.36502 8.69777L5.86013 7.1929L5.95393 7.09912C5.89142 7.06786 5.82886 7.03661 5.76188 7.00981C5.5654 6.79993 5.4404 6.51414 5.4404 6.20155C5.4404 6.014 5.48502 5.83539 5.56093 5.6791L4.68571 4.80385C4.39992 5.19682 4.23022 5.67909 4.23022 6.20155C4.23022 6.43822 4.26593 6.67042 4.33292 6.88923C4.00693 6.96068 3.70775 7.09913 3.44875 7.28668L4.32402 8.1619C4.48031 8.08153 4.6589 8.04135 4.84645 8.04135C5.1635 8.04135 5.45823 8.16638 5.68151 8.38965C5.90479 8.61293 6.02981 8.91213 6.02981 9.22918C6.02981 9.88114 5.49841 10.4125 4.84645 10.4125C4.19449 10.4125 3.66309 9.88114 3.66309 9.22918C3.66309 9.04163 3.70775 8.863 3.78367 8.70671L2.90844 7.83146C2.62265 8.22443 2.45295 8.70671 2.45295 9.22918C2.45295 10.5465 3.52468 11.6182 4.842 11.6182C5.56542 11.587 6.20397 11.2744 6.64159 10.7832Z" fill="black"/>
<path d="M19.4751 3.73212L6.20802 17.8476L7.08773 18.6737L10.812 14.7083L11.5354 15.3603L7.98083 19.482L8.89626 20.2679L13.2189 15.2531L12.3258 14.4449L11.6381 13.8286L19.5465 5.4156L19.8636 5.70141L12.8215 13.8733L13.7146 14.6771L21.547 5.59422L19.4751 3.73212Z" fill="black"/>
</svg>
