<svg width="24" height="24" viewBox="0 0 24 24" fill="none" xmlns="http://www.w3.org/2000/svg">
<path d="M9.17743 15.5505C9.70705 16.6183 9.56299 17.9614 8.7961 19.1943H10.0968C10.7705 17.7877 10.8214 16.2878 10.1985 15.0421C9.73247 14.1015 8.94014 13.4109 7.93598 13.0338C7.75379 13.377 7.56315 13.7159 7.35977 14.0464C8.18174 14.3091 8.81728 14.8303 9.17743 15.5505Z" fill="black"/>
<path d="M9.46141 8.97894C9.9529 9.62296 10.5545 10.178 11.2409 10.6186C12.3383 11.322 14.9102 11.7075 14.9102 11.7075V10.5636C13.8213 10.5509 12.7662 10.2373 11.8553 9.65262C10.9655 9.08486 10.2537 8.28831 9.78342 7.34771L9.69444 7.84343C9.63512 8.229 9.55462 8.60608 9.46141 8.97894Z" fill="black"/>
<path d="M4.84286 16.1904C6.99101 13.8643 8.42312 10.9366 8.99087 7.72493L9.0968 7.13175L7.98844 7.03435L7.74097 8.16134C7.14355 10.9069 5.85974 13.4025 4.00395 15.4108C2.85573 16.6565 1.50414 17.6988 1.52588e-05 18.5123V19.8003C1.82615 18.8936 3.47008 17.6733 4.84286 16.1904Z" fill="black"/>
<path d="M9.78375 6.14871C10.3218 6.14871 10.7583 5.7123 10.7583 5.17421C10.7583 4.63611 10.3218 4.19971 9.78375 4.19971C9.24566 4.19971 8.80925 4.63611 8.80925 5.17421C8.80925 5.7123 9.24566 6.14871 9.78375 6.14871Z" fill="black"/>
<path d="M14.7779 15.5505C14.2457 16.6183 14.3905 17.9614 15.1611 19.1943H13.854C13.1771 17.7877 13.126 16.2878 13.7518 15.0421C14.2202 14.1015 15.0163 13.4109 16.0254 13.0338C16.2085 13.377 16.4 13.7159 16.6044 14.0464C15.7784 14.3091 15.1398 14.8303 14.7779 15.5505Z" fill="black"/>
<path d="M14.4929 8.97894C13.999 9.62296 13.3944 10.178 12.7047 10.6186C11.602 11.322 10.329 11.6948 9.01766 11.7075V10.5636C10.1119 10.5509 11.172 10.2373 12.0874 9.65262C12.9815 9.08486 13.6967 8.28831 14.1693 7.34771L14.2587 7.84343C14.3183 8.229 14.3992 8.60609 14.4929 8.97894Z" fill="black"/>
<path d="M19.1336 16.1904C16.975 13.8643 15.5359 10.9366 14.9654 7.72493L14.859 7.13175L15.9727 7.03435L16.2214 8.16134C16.8217 10.9069 18.1118 13.4025 19.9766 15.4108C21.1304 16.6565 22.4886 17.6988 24 18.5123V19.8003C22.165 18.8936 20.5131 17.6733 19.1336 16.1904Z" fill="black"/>
<path d="M14.1692 6.14871C13.6285 6.14871 13.1899 5.7123 13.1899 5.17421C13.1899 4.63611 13.6285 4.19971 14.1692 4.19971C14.7099 4.19971 15.1484 4.63611 15.1484 5.17421C15.1484 5.7123 14.7099 6.14871 14.1692 6.14871Z" fill="black"/>
</svg>
