<svg width="24" height="24" viewBox="0 0 24 24" fill="none" xmlns="http://www.w3.org/2000/svg">
<path d="M16.3932 13.6093H13.9443C13.9008 14.0095 13.8138 14.401 13.6833 14.7837H16.3932V13.6093Z" fill="black"/>
<path d="M18.7419 7.75911H18.4374V6.88918C18.4374 5.3407 17.1804 4.08365 15.6319 4.08365H13.5658C12.474 4.08365 11.5301 4.71001 11.0647 5.61909C11.4649 5.69304 11.839 5.83222 12.1826 6.0236C12.4697 5.56254 12.9829 5.25372 13.5658 5.25372H15.6319C16.5323 5.25372 17.263 5.98447 17.263 6.88485V11.2997H18.4374V8.92919H18.7419C18.9942 8.92919 19.1986 9.13362 19.1986 9.3859V11.2171C19.1986 11.7129 18.9637 12.1827 18.5679 12.4828L17.1325 13.5703V16.5193H13.0569L13.0438 16.5541V17.6937H18.3069V14.1531L19.2769 13.418C19.9641 12.9004 20.373 12.074 20.373 11.2171V9.3859C20.373 8.48987 19.6423 7.75911 18.7419 7.75911Z" fill="black"/>
<path d="M12.3046 16.541L12.2698 16.528L12.944 14.6576C13.1397 14.1183 13.2397 13.5528 13.2397 12.9787V9.10745C13.2397 7.55898 11.9827 6.30192 10.4342 6.30192H8.36812C6.81964 6.30192 5.56259 7.55898 5.56259 9.10745V9.97739H5.25811C5.10588 9.97739 4.96234 9.99915 4.82315 10.0383C4.1359 10.2297 3.62699 10.8604 3.62699 11.6085V13.4397C3.62699 14.301 4.03586 15.123 4.7231 15.6407L5.69308 16.3757V19.9164H10.3907V18.742H6.86749V15.7929L5.4321 14.7055C5.03628 14.4053 4.8014 13.9356 4.8014 13.4397V11.6085C4.8014 11.5607 4.8101 11.5128 4.82315 11.4693C4.88404 11.2866 5.05368 11.1518 5.25811 11.1518H5.56259V13.5224H6.737V9.10745C6.737 8.20707 7.46774 7.47633 8.36812 7.47633H10.4342C11.3346 7.47633 12.0653 8.20707 12.0653 9.10745V12.9787C12.0653 13.418 11.9914 13.8443 11.8435 14.2575L11.2737 15.8277H7.60693V17.0021H11.1302V19.9164H12.3046V16.541Z" fill="black"/>
</svg>
