<svg width="24" height="24" viewBox="0 0 24 24" fill="none" xmlns="http://www.w3.org/2000/svg">
<path d="M17.976 8.76796C17.4495 8.76796 17.026 8.34439 17.026 7.81789C17.026 7.29138 17.4495 6.86781 17.976 6.86781C18.5025 6.86781 18.9261 7.29138 18.9261 7.81789C18.9261 8.34043 18.5025 8.76796 17.976 8.76796Z" fill="black"/>
<path d="M15.7378 10.4606L15.3235 11.4666L16.6254 13.4786L17.6367 12.1175L17.6367 15.474L13.3472 15.474L14.4727 20.1881L15.2606 19.7378L14.4727 16.3607L17.6367 16.3607L17.6367 22L18.7164 22C18.7164 22 18.7165 22 18.7162 22L18.7164 15.4912L18.6064 9.35112L16.6254 11.8216L15.7378 10.4606Z" fill="black"/>
<path d="M14.6058 8.74668C14.6672 8.29455 14.7548 8.09486 14.9437 7.78985C14.4723 7.50266 14.9183 7.75235 14.4723 7.50266C13.1336 6.75884 11.9527 5.83226 11.3329 5.03184L11.1638 6.33652C12.1819 7.3344 13.2583 8.1209 14.6058 8.74668Z" fill="black"/>
<path d="M10.2604 3.5539C10.5939 3.9593 11.1929 4.01783 11.5981 3.68458C12.0033 3.35133 12.0615 2.75227 11.7281 2.34686C11.3947 1.94146 10.7956 1.88294 10.3904 2.21619C9.98523 2.54943 9.92702 3.1485 10.2604 3.5539Z" fill="black"/>
<path d="M5.63636 7.3082L5.0739 8.01163L8.93956 8.47383L9.05766 7.47596L7.09866 7.24231C7.94264 6.52411 9.05371 5.96677 9.91113 5.84442L9.28874 10.6721L5.9123 19.1715L7.01669 19.3218L10.1567 11.7288L13.733 11.2768L11.6289 15.7179L12.836 15.5072L15.3371 10.1162L10.2922 10.7331L11.0423 4.89004L10.535 4.8352C9.79268 4.75211 8.8474 4.99006 7.87752 5.50835C6.99125 5.98195 6.17196 6.63651 5.63636 7.3082Z" fill="black"/>
</svg>
