<svg width="24" height="24" viewBox="0 0 24 24" fill="none" xmlns="http://www.w3.org/2000/svg">
<path d="M19.1387 8.13913C18.5098 8.13913 18.0038 7.63314 18.0038 7.0042C18.0038 6.37527 18.5098 5.86928 19.1387 5.86928C19.7677 5.86928 20.2737 6.37527 20.2737 7.0042C20.2737 7.62841 19.7677 8.13913 19.1387 8.13913Z" fill="black"/>
<path d="M16.465 10.1611L15.9701 11.3628L17.5253 13.7662L18.7333 12.1404V16.1499H13.6092L14.9538 21.7811L15.895 21.2433L14.9538 17.2092H18.7333V23.9456H20.0231C20.0231 23.9456 20.0232 23.9456 20.0228 23.9456L20.0232 16.1705L19.8917 8.83575L17.5253 11.7869L16.465 10.1611Z" fill="black"/>
<path d="M15.1128 8.1137C15.1862 7.57361 15.2908 7.33507 15.5164 6.97071C14.9533 6.62765 15.4861 6.92591 14.9533 6.62765C13.3541 5.73911 11.9435 4.63225 11.2031 3.6761L11.0011 5.23463C12.2173 6.42665 13.5031 7.36617 15.1128 8.1137Z" fill="black"/>
<path d="M9.92198 1.91061C10.3203 2.39489 11.0358 2.4648 11.5199 2.06671C12.0039 1.66863 12.0735 0.953013 11.6752 0.468733C11.2769 -0.0155463 10.5613 -0.0854534 10.0773 0.31263C9.59323 0.710714 9.52369 1.42633 9.92198 1.91061Z" fill="black"/>
<path d="M4.39823 6.39536L3.72634 7.23564L8.34411 7.78777L8.48518 6.59576L6.14504 6.31664C7.15322 5.45871 8.48047 4.79293 9.50471 4.64678L8.76123 10.4137L4.72787 20.5668L6.04712 20.7463L9.79805 11.676L14.0701 11.1361L11.5567 16.4412L12.9986 16.1895L15.9864 9.7497L9.95988 10.4866L10.8559 3.50671L10.25 3.4412C9.36321 3.34194 8.23402 3.62619 7.07544 4.24532C6.01674 4.81107 5.03804 5.59297 4.39823 6.39536Z" fill="black"/>
</svg>
