<svg width="24" height="24" viewBox="0 0 24 24" fill="none" xmlns="http://www.w3.org/2000/svg">
<path d="M14.6585 4.56949L14.1515 3.15949C13.7285 3.62149 13.2715 4.07449 12.7575 4.52149C11.2255 5.86549 9.53452 6.92949 8.25352 7.34649L9.81252 8.14349C11.5195 7.31549 13.2695 5.97749 14.6585 4.56949ZM5.30052 8.68949C5.44584 8.64262 5.58024 8.567 5.69575 8.46714C5.81126 8.36728 5.90551 8.24522 5.9729 8.1082C6.04029 7.97119 6.07944 7.82203 6.08804 7.66958C6.09663 7.51713 6.07448 7.36451 6.0229 7.22079C5.97133 7.07708 5.89139 6.9452 5.78783 6.83299C5.68427 6.72079 5.55921 6.63055 5.42008 6.56765C5.28095 6.50474 5.1306 6.47045 4.97795 6.46682C4.8253 6.46319 4.67349 6.49028 4.53152 6.54649C4.39074 6.59705 4.2613 6.67484 4.15059 6.77543C4.03988 6.87601 3.95006 6.99742 3.88627 7.13271C3.82247 7.26801 3.78595 7.41454 3.77879 7.56395C3.77163 7.71336 3.79396 7.86272 3.84452 8.00349C3.89508 8.14427 3.97287 8.27371 4.07345 8.38442C4.17404 8.49514 4.29544 8.58495 4.43074 8.64875C4.70398 8.77758 5.01721 8.7926 5.30152 8.69049L5.30052 8.68949Z" fill="black"/>
<path d="M8.03152 15.7435L8.66052 16.7635L10.9735 12.1275L9.77652 11.5325L8.60452 13.8825C8.08352 12.5025 7.88452 10.8605 8.11452 9.73049L13.8845 12.6765L9.41352 21.3265H11.0225L20.2225 3.29449L19.1195 2.67349L14.4115 11.4465L7.42652 7.88549L7.13052 8.49549C6.69352 9.38949 6.56752 10.6805 6.78152 12.1285C6.97752 13.4515 7.42952 14.7715 8.03152 15.7435Z" fill="black"/>
</svg>
