<svg width="24" height="24" viewBox="0 0 24 24" fill="none" xmlns="http://www.w3.org/2000/svg">
<path d="M18.2234 6.16403C18.4376 6.16403 18.6113 5.99036 18.6113 5.77614C18.6113 5.56191 18.4376 5.38825 18.2234 5.38825C18.0092 5.38825 17.8355 5.56191 17.8355 5.77614C17.8355 5.99036 18.0092 6.16403 18.2234 6.16403Z" fill="black"/>
<path d="M11.1531 2H12.8523C14.6586 2.07005 16.1867 2.73815 17.4367 4.0043C17.8727 4.4457 17.3219 4.98594 16.9184 4.58438C16.2824 3.95156 15.5961 3.46797 14.7551 3.1457C14.7531 3.14489 14.7509 3.1448 14.7489 3.14544C14.7469 3.14608 14.7451 3.14742 14.744 3.14923C14.7428 3.15104 14.7422 3.15322 14.7424 3.15542C14.7426 3.15762 14.7435 3.1597 14.7449 3.16133C15.5324 3.9832 15.8383 4.92109 15.8289 6.04258C15.8112 8.1405 15.5316 10.2025 14.9902 12.2285C14.9897 12.2306 14.9898 12.2329 14.9904 12.235C14.991 12.2371 14.9921 12.239 14.9937 12.2404C14.9952 12.2419 14.9972 12.243 14.9992 12.2434C15.0013 12.2438 15.0035 12.2437 15.0055 12.243C15.1875 12.1813 15.3745 12.1479 15.5664 12.143C15.5771 12.1427 15.585 12.1379 15.5902 12.1285C16.11 11.147 16.9352 10.6594 18.0656 10.6656C18.0776 10.6659 18.0858 10.6604 18.0902 10.6492C18.4634 9.68281 18.5736 8.68789 18.4207 7.66445C18.3991 7.51966 18.393 7.42109 18.4023 7.36875C18.4586 7.05664 18.8594 6.94609 19.0703 7.18438C19.1211 7.24141 19.1569 7.33425 19.1777 7.46289C19.3658 8.61107 19.2591 9.73346 18.8578 10.8301C18.8529 10.8434 18.8569 10.8527 18.8699 10.8582C19.3603 11.0639 19.7516 11.3891 20.0438 11.8336C20.0473 11.8389 20.0519 11.8433 20.0574 11.8465C20.0629 11.8497 20.0691 11.8516 20.0754 11.852C21.1469 11.9262 21.9375 12.6684 22 13.7605V13.8883C21.9242 14.6854 21.5568 15.246 20.8977 15.5699C20.3016 15.8633 19.6473 15.8387 19.0652 15.5195C19.0599 15.5166 19.0539 15.515 19.0478 15.5148C19.0417 15.5146 19.0357 15.5158 19.0301 15.5184C18.2319 15.8819 17.444 15.8624 16.6664 15.4598C16.6598 15.4562 16.6523 15.4546 16.6447 15.455C16.6371 15.4554 16.6298 15.4579 16.6234 15.4621C16.1971 15.7439 15.7306 15.8353 15.2238 15.7363C15.215 15.7347 15.206 15.7353 15.1976 15.7383C15.1892 15.7413 15.1818 15.7464 15.1762 15.7531L13.5277 17.684C13.5192 17.6941 13.5144 17.7068 13.5145 17.7199L13.5121 18.702C13.5121 18.7059 13.5137 18.7097 13.5164 18.7126C13.5192 18.7154 13.523 18.7171 13.527 18.7172C13.8965 18.727 13.9531 18.9605 13.9539 19.2898C13.9547 19.7148 13.9536 19.9859 13.9508 20.1031C13.9246 21.1395 13.0973 21.9391 12.0559 22H11.9488C10.8492 21.9262 10.0648 21.1277 10.0527 20.0176C10.0501 19.7736 10.0482 19.5297 10.0469 19.2859C10.0453 18.977 10.1012 18.7293 10.4504 18.7199C10.4602 18.7197 10.4695 18.7157 10.4764 18.7087C10.4833 18.7017 10.4871 18.6922 10.4871 18.6824L10.4859 17.7031C10.4859 17.6917 10.4822 17.6815 10.4746 17.6727C9.21784 16.2036 7.9625 14.7335 6.70859 13.2621C6.37265 12.8681 6.20377 12.6698 6.20195 12.6672C3.54687 9.37695 4.65078 4.50352 8.4289 2.6582C9.27292 2.2457 10.181 2.0263 11.1531 2ZM11.6105 2.82266C11.6106 2.82079 11.6102 2.81893 11.6094 2.81723C11.6086 2.81552 11.6075 2.814 11.6061 2.81277C11.6047 2.81155 11.603 2.81064 11.6012 2.81012C11.5994 2.8096 11.5976 2.80948 11.5957 2.80977C10.3027 3.00508 9.25195 3.9668 9.01055 5.26484C8.97487 5.45625 8.95859 5.71563 8.96172 6.04297C8.98594 8.66719 9.42851 11.2204 10.2895 13.7027C10.2931 13.7134 10.3006 13.7188 10.3121 13.7188H11.5844C11.6021 13.7188 11.6126 13.71 11.616 13.6926C11.6246 13.6496 11.6102 13.5738 11.6102 13.543C11.6081 9.9888 11.6082 6.41536 11.6105 2.82266ZM13.7211 13.702C14.5785 11.2461 15.025 8.64844 15.0469 6.0625C15.0497 5.73151 15.0345 5.47201 15.0012 5.28398C14.7711 3.98125 13.716 3.00859 12.4207 2.81055C12.4182 2.81008 12.4156 2.81019 12.4132 2.81087C12.4107 2.81154 12.4084 2.81276 12.4065 2.81444C12.4046 2.81613 12.403 2.81822 12.4019 2.82059C12.4009 2.82295 12.4004 2.82553 12.4004 2.82813V13.7078C12.4004 13.7107 12.4015 13.7135 12.4036 13.7155C12.4056 13.7176 12.4084 13.7188 12.4113 13.7188H13.6977C13.7094 13.7188 13.7172 13.7132 13.7211 13.702ZM9.24805 3.15352C5.53984 4.57031 4.32383 9.19649 6.87461 12.2434C7.28372 12.7322 7.69557 13.219 8.11015 13.7039C8.11875 13.7138 8.12956 13.7188 8.14258 13.7188H9.44648C9.44912 13.7188 9.45173 13.7182 9.45408 13.717C9.45643 13.7158 9.45846 13.714 9.45999 13.7119C9.46152 13.7097 9.46252 13.7072 9.46289 13.7046C9.46325 13.702 9.46299 13.6994 9.46211 13.6969C8.6293 11.2081 8.20221 8.65352 8.18086 6.0332C8.17148 4.88008 8.48359 4.02383 9.25742 3.16719C9.27305 3.14974 9.26992 3.14518 9.24805 3.15352ZM14.7473 13.3789C14.1383 14.2965 15.1383 15.3508 16.0949 14.8699C16.3762 14.7289 16.4969 14.4121 16.8738 14.668C17.4 15.0242 18.0703 15.1098 18.6559 14.8254C18.8273 14.7426 19.0824 14.5652 19.2727 14.7156C19.8813 15.1984 20.8086 15.0285 21.1184 14.2922C21.4383 13.5324 20.9371 12.7086 20.1191 12.6406C19.7473 12.6098 19.6621 12.7199 19.4434 12.3453C18.7102 11.091 16.9309 11.1848 16.302 12.468C16.1801 12.7172 16.1645 12.9426 15.8203 12.9348C15.7482 12.9329 15.6762 12.9309 15.6043 12.9285C15.257 12.9176 14.9285 13.1059 14.7473 13.3789ZM14.4594 15.3703C14.182 15.1424 13.9866 14.8574 13.873 14.5152C13.8716 14.5108 13.8687 14.5069 13.865 14.5042C13.8612 14.5015 13.8566 14.5 13.852 14.5H8.82109C8.81844 14.5001 8.81586 14.5008 8.81365 14.5023C8.81144 14.5038 8.80968 14.5058 8.80857 14.5082C8.80747 14.5106 8.80707 14.5133 8.80742 14.5159C8.80777 14.5185 8.80885 14.521 8.81055 14.523L11.0473 17.1418C11.0512 17.1463 11.056 17.15 11.0614 17.1525C11.0668 17.1549 11.0726 17.1562 11.0785 17.1563H12.9316C12.9447 17.1563 12.9552 17.1514 12.9633 17.1418L14.4609 15.3879C14.462 15.3866 14.4628 15.3851 14.4633 15.3835C14.4638 15.382 14.464 15.3803 14.4639 15.3787C14.4637 15.377 14.4632 15.3754 14.4625 15.374C14.4617 15.3726 14.4606 15.3713 14.4594 15.3703ZM12.7324 17.9605C12.7324 17.9544 12.73 17.9486 12.7257 17.9443C12.7213 17.9399 12.7155 17.9375 12.7094 17.9375H11.2906C11.2845 17.9375 11.2786 17.9399 11.2743 17.9443C11.27 17.9486 11.2676 17.9544 11.2676 17.9605V18.6957C11.2676 18.7018 11.27 18.7077 11.2743 18.712C11.2786 18.7163 11.2845 18.7188 11.2906 18.7188H12.7094C12.7155 18.7188 12.7213 18.7163 12.7257 18.712C12.73 18.7077 12.7324 18.7018 12.7324 18.6957V17.9605ZM13.1457 19.5H10.8551C10.8514 19.5 10.8477 19.5007 10.8443 19.5021C10.8409 19.5036 10.8378 19.5056 10.8352 19.5082C10.8326 19.5108 10.8305 19.514 10.8291 19.5174C10.8277 19.5208 10.827 19.5244 10.827 19.5281V20.0227C10.827 20.3393 10.9499 20.6429 11.1687 20.8668C11.3875 21.0906 11.6843 21.2164 11.9937 21.2164H12.007C12.3165 21.2164 12.6133 21.0906 12.8321 20.8668C13.0509 20.6429 13.1738 20.3393 13.1738 20.0227V19.5281C13.1738 19.5244 13.1731 19.5208 13.1717 19.5174C13.1703 19.514 13.1682 19.5108 13.1656 19.5082C13.163 19.5056 13.1599 19.5036 13.1565 19.5021C13.1531 19.5007 13.1494 19.5 13.1457 19.5Z" fill="black"/>
<path d="M2 18.7067V18.5508C2.05977 17.6692 2.70938 17.0508 3.58008 16.9727C3.59119 16.9717 3.60187 16.9679 3.6111 16.9617C3.62032 16.9555 3.6278 16.947 3.63281 16.9371C4.4293 15.3653 6.59961 15.2531 7.58828 16.7016C7.59583 16.7125 7.60612 16.7186 7.61914 16.7199C8.28685 16.7804 8.77526 17.0749 9.08438 17.6035C9.99922 19.1676 8.29102 20.8817 6.69961 20.0535C6.68841 20.0475 6.67695 20.0472 6.66523 20.0524C5.96576 20.3628 5.27578 20.3465 4.59531 20.0035C4.58411 19.9981 4.57318 19.9985 4.5625 20.0047C3.43359 20.6602 2.10703 20.009 2 18.7067ZM2.78164 18.6403C2.79258 19.2477 3.41094 19.6481 3.97148 19.4278C4.16641 19.3512 4.3418 19.107 4.54883 19.1164C4.67969 19.1223 4.79805 19.2113 4.91172 19.2789C5.29805 19.5098 5.74453 19.5492 6.16992 19.4102C6.41367 19.3305 6.65274 19.0789 6.91406 19.2621C7.28854 19.5244 7.65508 19.5621 8.01367 19.3754C8.96836 18.8778 8.55781 17.45 7.49297 17.5086C7.0957 17.5305 7.10547 17.3598 6.91563 17.0977C6.16836 16.0653 4.65313 16.3485 4.23164 17.5024C4.15078 17.7246 3.98477 17.7934 3.74844 17.7633C3.2375 17.6981 2.77227 18.125 2.78164 18.6403Z" fill="black"/>
</svg>
