<svg width="24" height="24" viewBox="0 0 24 24" fill="none" xmlns="http://www.w3.org/2000/svg">
<path d="M8.06251 19.3989C8.1114 18.1162 8.42917 16.9109 9.19511 15.563C9.19511 15.563 9.1951 15.559 9.19103 15.559C9.4151 15.2169 9.68807 14.8871 10.0099 14.5695C10.0181 14.5817 10.0262 14.5939 10.0344 14.602C11.277 16.3204 13.42 17.0086 15.3552 16.4996C15.5915 16.862 15.8237 17.2285 16.0518 17.595C14.2796 18.1854 12.3281 17.9411 10.7596 16.9597C10.5355 16.8213 10.3196 16.6625 10.1118 16.4955C9.60252 17.4932 9.36623 18.3483 9.30511 19.2197C8.88548 19.2523 8.46992 19.3174 8.06251 19.3989Z" fill="black"/>
<path d="M9.59393 13.8772C9.25985 14.1989 8.96653 14.5287 8.71394 14.8707C8.70986 14.8626 8.70578 14.8585 8.7017 14.8504C7.42651 12.7003 7.5854 10.0332 8.98281 8.06232C9.27207 8.38401 9.5532 8.71384 9.83024 9.04775C8.93801 10.4852 8.828 12.3176 9.59393 13.8772Z" fill="black"/>
<path d="M12.4295 13.8202C12.3399 13.3112 11.8551 12.9691 11.3458 13.0587C10.8365 13.1483 10.4943 13.6329 10.584 14.1419C10.6736 14.6509 11.1584 14.9929 11.6677 14.9034C12.1769 14.8178 12.5192 14.3333 12.4295 13.8202Z" fill="black"/>
<path d="M8.4819 4.07181C8.43709 3.95779 8.39227 3.85192 8.35968 3.75827C7.94005 2.65068 7.3819 2.14575 6.90116 2.03988C6.73412 2.00323 6.58337 2.02359 6.46522 2.08467C6.35522 2.14167 6.26967 2.24348 6.22078 2.37378C6.10263 2.69547 6.20448 3.18004 6.66893 3.74605C6.84411 3.95779 7.66708 4.77627 8.42079 5.30156C8.63265 5.45222 8.83228 5.57031 8.99524 5.63546C8.97895 5.29748 8.68153 4.55638 8.4819 4.07181ZM9.35783 3.38364C9.38635 3.46101 9.42709 3.56281 9.4719 3.67275C9.78968 4.45865 10.303 5.73319 9.84673 6.38878C9.80191 6.45394 9.75302 6.50687 9.69598 6.55166C9.41486 6.7797 9.06043 6.78785 8.66524 6.64126C8.40042 6.54353 8.10709 6.3725 7.81375 6.1689C6.97856 5.5866 6.04558 4.65818 5.84595 4.41386C5.10854 3.51394 4.9904 2.63847 5.2267 1.99916C5.36929 1.61639 5.63411 1.31505 5.97633 1.13588C6.31041 0.960787 6.71374 0.899707 7.13337 0.993363C7.9156 1.16846 8.78746 1.88107 9.35783 3.38364Z" fill="black"/>
<path d="M13.0206 20.5186C11.9735 20.2092 11.0365 20.0544 10.0994 20.0544C9.16239 20.0544 8.22534 20.2092 7.1783 20.5186C5.38162 21.0521 3.76012 21.0521 1.95937 20.5186L1.70679 20.4454V21.5937C3.77236 22.1963 5.41422 22.1882 7.49201 21.5774C8.4372 21.2964 9.26832 21.158 10.0994 21.158C10.9306 21.158 11.7617 21.2964 12.7069 21.5774C14.4913 22.1067 15.9539 22.1841 17.6447 21.8135C17.4858 21.5244 17.3473 21.2272 17.2373 20.9299C17.2169 20.8811 17.2006 20.8281 17.1802 20.7793C15.7869 21.0317 14.4628 20.9462 13.0206 20.5186Z" fill="black"/>
<path d="M18.9282 19.9282C18.973 20.0422 19.0178 20.1481 19.0504 20.2417C19.4701 21.3493 20.0282 21.8543 20.509 21.9601C20.676 21.9968 20.8267 21.9764 20.9449 21.9153C21.0549 21.8583 21.1404 21.7565 21.1893 21.6262C21.3075 21.3045 21.2056 20.82 20.7412 20.254C20.566 20.0422 19.743 19.2237 18.9893 18.6984C18.7775 18.5478 18.5778 18.4297 18.4149 18.3645C18.4312 18.7025 18.7326 19.4436 18.9282 19.9282ZM18.0523 20.6164C18.0237 20.539 17.983 20.4372 17.9382 20.3272C17.6204 19.5414 17.1071 18.2668 17.5634 17.6112C17.6082 17.5461 17.6571 17.4931 17.7141 17.4483C17.9952 17.2203 18.3497 17.2122 18.7449 17.3588C19.0097 17.4565 19.303 17.6275 19.5963 17.8311C20.4315 18.4134 21.3645 19.3418 21.5642 19.5861C22.3016 20.4861 22.4197 21.3615 22.1834 22.0009C22.0408 22.3836 21.776 22.6849 21.4338 22.8641C21.0997 23.0392 20.6964 23.1003 20.2767 23.0066C19.4986 22.8315 18.6226 22.1189 18.0523 20.6164Z" fill="black"/>
<path d="M18.4307 18.3728L18.4144 18.3809C18.4144 18.3768 18.4144 18.3687 18.4144 18.3646C18.4185 18.3687 18.4266 18.3728 18.4307 18.3728ZM9.99324 6.03862C11.407 7.48825 13.2281 9.82152 14.5644 11.6132C15.9577 13.4782 17.2737 15.449 18.3859 17.2652C18.1374 17.2367 17.9092 17.2896 17.7177 17.4443C17.6607 17.4932 17.6077 17.5461 17.567 17.6072C17.5263 17.6642 17.4937 17.7294 17.4692 17.7945C16.3814 16.0191 15.0899 14.089 13.7129 12.2484C12.3929 10.4812 10.5758 8.15199 9.18656 6.739C9.37396 6.73493 9.54524 6.67383 9.69598 6.55166C9.75302 6.5028 9.80599 6.44986 9.84673 6.38878C9.91599 6.28698 9.96472 6.16892 9.99324 6.03862Z" fill="black"/>
<path d="M17.833 2.55943H18.9474V10.9798H17.833V2.55943Z" fill="black"/>
<path d="M2.84969 2.55943H3.96416V18.0381H2.84969V2.55943Z" fill="black"/>
</svg>
