<svg width="24" height="24" viewBox="0 0 24 24" fill="none" xmlns="http://www.w3.org/2000/svg">
<path d="M14.1621 4.4015V2.88129C13.6002 3.1773 13.0082 3.45325 12.366 3.70411C10.4444 4.4617 8.4676 4.8982 7.10293 4.85806L8.31708 6.1525C10.2286 5.94679 12.3559 5.26947 14.1621 4.4015Z" fill="black"/>
<path d="M3.82696 5.12898C4.46414 5.12898 4.98091 4.61221 4.98091 3.97503C4.98091 3.33785 4.46414 2.82108 3.82696 2.82108C3.18977 2.82108 2.673 3.33785 2.673 3.97503C2.673 4.61221 3.18977 5.12898 3.82696 5.12898Z" fill="black"/>
<path d="M4.01771 12.7952L4.26857 13.9843L8.06157 10.3518L7.12335 9.37347L5.20177 11.2148C5.17669 9.71966 5.54796 8.08405 6.15504 7.08563L10.6504 11.872C9.60184 13.0862 8.71882 14.4208 8.00136 15.8607C7.16349 17.5515 6.58651 19.3326 6.28548 21.1789H7.6602C8.35759 17.2454 10.3695 13.6732 13.45 10.9639C15.7329 8.95704 18.4271 7.56728 21.327 6.86989V5.48514C20.5544 5.65573 19.7918 5.87649 19.0442 6.1424C16.646 6.9903 14.4635 8.26968 12.557 9.95044C12.2158 10.2515 11.8897 10.5575 11.5736 10.8786L6.12996 5.08879L5.63827 5.57044C4.91579 6.27284 4.35386 7.46192 4.06286 8.9169C3.79695 10.2465 3.77689 11.6613 4.01771 12.7952Z" fill="black"/>
</svg>
