<svg width="26" height="24" viewBox="0 0 26 24" fill="none" xmlns="http://www.w3.org/2000/svg">
<path d="M10.9218 15.2085C11.4594 15.6069 11.4592 15.6916 11.4581 16.2643L11.4581 16.2811L14.7737 14.3463C14.7737 14.3463 15.4681 13.9387 15.6058 13.5479L16.9923 9.66602C17.0767 9.43062 17.2145 9.22186 17.41 9.06197C17.6144 8.89763 17.8633 8.80437 18.121 8.76884C18.4143 8.72442 18.7165 8.75551 18.992 8.8621C19.2853 8.97314 19.543 9.15969 19.7518 9.39065C20.134 9.81259 20.5162 10.2434 20.8762 10.6876C21.1339 11.0074 21.3872 11.3405 21.6005 11.6869L21.6671 11.7979V11.8068C21.8671 12.1533 22.0138 12.5264 22.0138 12.935V16.2528C22.0138 16.5504 22.0537 16.8701 22.1826 17.1411L23.5557 20.0813H25L23.3202 16.4882V12.9394C23.3202 12.2821 23.1203 11.7313 22.8003 11.1761L22.707 11.0207C22.4759 10.6432 22.2093 10.2834 21.9338 9.93695C21.5472 9.45283 21.1339 8.98203 20.7162 8.52455C20.3651 8.13814 19.9385 7.83168 19.4497 7.64958C18.9653 7.46748 18.4498 7.40973 17.9388 7.48524C17.4455 7.5563 16.9834 7.74285 16.5923 8.05375C16.2057 8.36466 15.9302 8.76439 15.7613 9.23075L14.3408 13.1302L10.9218 15.2085Z" fill="black"/>
<path d="M1.00003 20.1213H2.43983L3.67077 17.5541C3.81741 17.2476 3.87075 17.0877 3.87963 16.7324L3.98626 12.2776L5.0972 8.66663C5.41271 7.66285 6.89248 7.66285 7.64348 8.27134C7.96788 8.53783 8.75446 10.2345 9.0122 10.7097C9.27883 11.2027 10.452 11.9151 12.5455 13.4684L13.5585 12.793L10.1542 10.0835C9.83871 9.49719 9.10107 7.97375 8.73668 7.52072C7.64795 6.16606 4.51065 6.30819 3.94629 8.04482L2.68867 12.0688L2.57315 16.839L1.00003 20.1213Z" fill="black"/>
<path d="M10.3675 20.0946H11.6696L11.1096 16.195C11.0963 15.893 11.043 15.6887 10.803 15.4844L6.75471 12.5929C6.71472 12.5574 6.67031 12.5263 6.62587 12.4997L5.94151 13.6056L9.81649 16.3505L10.3675 20.0946Z" fill="black"/>
<path d="M16.1707 16.2927L16.1663 20.0858H17.4639L17.4683 16.7102L19.5613 13.5124L18.5659 12.6507L16.1707 16.2927Z" fill="black"/>
<path d="M16.1176 7.13877C16.7086 7.13877 17.1841 6.66353 17.1841 6.07281C17.1841 5.48209 16.7086 5.00685 16.1176 5.00685C15.5266 5.00685 15.0511 5.48209 15.0511 6.07281C15.0511 6.65909 15.5266 7.13877 16.1176 7.13877Z" fill="black"/>
<path d="M8.30106 6.01066C8.89208 6.01066 9.36757 5.53542 9.36757 4.9447C9.36757 4.35398 8.89208 3.87874 8.30106 3.87874C7.71004 3.87874 7.23455 4.35398 7.23455 4.9447C7.23455 5.53542 7.71004 6.01066 8.30106 6.01066Z" fill="black"/>
<path d="M11.4581 16.2811L14.7737 14.3463C14.7737 14.3463 15.4681 13.9387 15.6058 13.5479L16.9923 9.66602C17.0767 9.43062 17.2145 9.22186 17.41 9.06197C17.6144 8.89763 17.8633 8.80437 18.121 8.76884C18.4143 8.72442 18.7165 8.75551 18.992 8.8621C19.2853 8.97314 19.543 9.15969 19.7518 9.39065C20.134 9.81259 20.5162 10.2434 20.8762 10.6876C21.1339 11.0074 21.3872 11.3405 21.6005 11.6869L21.6671 11.7979V11.8068C21.8671 12.1533 22.0138 12.5264 22.0138 12.935V16.2528C22.0138 16.5504 22.0537 16.8701 22.1826 17.1411L23.5557 20.0813H25L23.3202 16.4882V12.9394C23.3202 12.2821 23.1203 11.7313 22.8003 11.1761L22.707 11.0207C22.4759 10.6432 22.2093 10.2834 21.9338 9.93695C21.5472 9.45283 21.1339 8.98203 20.7162 8.52455C20.3651 8.13814 19.9385 7.83168 19.4497 7.64958C18.9653 7.46748 18.4498 7.40973 17.9388 7.48524C17.4455 7.5563 16.9834 7.74285 16.5923 8.05375C16.2057 8.36466 15.9302 8.76439 15.7613 9.23075L14.3408 13.1302L10.9218 15.2085C11.4594 15.6069 11.4592 15.6916 11.4581 16.2643M11.4581 16.2811L11.4581 16.2643M11.4581 16.2811C11.4581 16.2755 11.4581 16.2699 11.4581 16.2643M8.30106 6.01066C8.89208 6.01066 9.36757 5.53542 9.36757 4.9447C9.36757 4.35398 8.89208 3.87874 8.30106 3.87874C7.71004 3.87874 7.23455 4.35398 7.23455 4.9447C7.23455 5.53542 7.71004 6.01066 8.30106 6.01066ZM16.1176 7.13877C16.7086 7.13877 17.1841 6.66353 17.1841 6.07281C17.1841 5.48209 16.7086 5.00685 16.1176 5.00685C15.5266 5.00685 15.0511 5.48209 15.0511 6.07281C15.0511 6.65909 15.5266 7.13877 16.1176 7.13877ZM10.3675 20.0946H11.6696L11.1096 16.195C11.0963 15.893 11.043 15.6887 10.803 15.4844L6.75471 12.5929C6.71472 12.5574 6.67031 12.5263 6.62587 12.4997L5.94151 13.6056L9.81649 16.3505L10.3675 20.0946ZM1.00003 20.1213H2.43983L3.67077 17.5541C3.81741 17.2476 3.87075 17.0877 3.87963 16.7324L3.98626 12.2776L5.0972 8.66663C5.41271 7.66285 6.89248 7.66285 7.64348 8.27134C7.96788 8.53783 8.75446 10.2345 9.0122 10.7097C9.27883 11.2027 10.452 11.9151 12.5455 13.4684L13.5585 12.793L10.1542 10.0835C9.83871 9.49719 9.10107 7.97375 8.73668 7.52072C7.64795 6.16606 4.51065 6.30819 3.94629 8.04482L2.68867 12.0688L2.57315 16.839L1.00003 20.1213ZM16.1707 16.2927L16.1663 20.0858H17.4639L17.4683 16.7102L19.5613 13.5124L18.5659 12.6507L16.1707 16.2927Z" stroke="black" stroke-width="0.0321876" stroke-miterlimit="22.926"/>
</svg>
