<svg width="24" height="24" viewBox="0 0 24 24" fill="none" xmlns="http://www.w3.org/2000/svg">
<path d="M15.1152 6.21793L15.0788 6.57935C15.0212 7.14891 14.9228 7.70978 14.7864 8.25924C16.1293 9.71793 18.0902 10.5685 20.1978 10.5685C20.3 10.5685 20.4027 10.5663 20.506 10.562V9.09293C18.2315 9.20217 16.1364 8.09348 15.1158 6.21793" fill="black"/>
<path d="M15.006 4.5C15.6962 4.5 16.256 3.94022 16.256 3.25C16.256 2.55978 15.6962 2 15.006 2C14.3158 2 13.756 2.55978 13.756 3.25C13.756 3.94022 14.3158 4.5 15.006 4.5Z" fill="black"/>
<path d="M11.5913 12.5114C11.2859 12.1293 10.9315 11.7853 10.5353 11.4875C10.2516 11.8283 9.94348 12.1511 9.61141 12.4527C7.92608 13.9853 5.76467 14.8603 3.49402 14.9364V16.4049C6.13043 16.3283 8.64239 15.3174 10.5984 13.5386C10.9533 13.2163 11.2837 12.8728 11.5908 12.5114" fill="black"/>
<path d="M9.90761 7.93098C10.7293 7.43533 11.6435 7.16087 12.5875 7.12228C12.3456 8.42663 11.8342 9.65978 11.0918 10.7495C11.8777 11.3408 12.5206 12.0886 12.9837 12.9478C13.7163 14.181 14.0043 15.6451 13.7321 17.0538H15.2206C15.5315 15 14.9109 12.8826 13.5875 11.263C13.3831 11.013 13.1625 10.7745 12.925 10.55C13.5913 9.29837 14.0147 7.92065 14.1592 6.48641L14.2337 5.75163L13.4984 5.68207C11.9685 5.5375 10.4652 5.88043 9.14945 6.67446C7.87391 7.44402 6.8913 8.56848 6.29837 9.93152H7.93913C8.41413 9.11196 9.08369 8.42826 9.90761 7.93098Z" fill="black"/>
<path d="M17.0299 17.9783H11.8516C11.5587 17.9783 11.2973 17.8179 11.1614 17.5707H9.62174L9.66358 17.7375C9.91521 18.7435 10.8147 19.4457 11.8516 19.4457H17.0299C18.0668 19.4457 18.9663 18.7429 19.2179 17.7375L19.2598 17.5707H17.7201C17.5842 17.8179 17.3228 17.9783 17.0299 17.9783Z" fill="black"/>
<path d="M11.7603 20.3674C11.6364 20.2995 11.494 20.2609 11.3429 20.2609C11.2706 20.2609 11.2005 20.2707 11.1331 20.2875C10.7543 20.3815 10.4734 20.7228 10.4734 21.1304C10.4734 21.6109 10.8625 22 11.3429 22C11.8234 22 12.2125 21.6109 12.2125 21.1304C12.2125 20.8016 12.0299 20.5152 11.7603 20.3674Z" fill="black"/>
<path d="M17.7484 20.2875C17.681 20.2707 17.6114 20.2609 17.5386 20.2609C17.3875 20.2609 17.2451 20.2995 17.1212 20.3674C16.8516 20.5152 16.669 20.8011 16.669 21.1304C16.669 21.6109 17.0581 22 17.5386 22C18.019 22 18.4081 21.6109 18.4081 21.1304C18.4081 20.7228 18.1272 20.3815 17.7484 20.2875Z" fill="black"/>
</svg>
