<svg width="24" height="24" viewBox="0 0 24 24" fill="none" xmlns="http://www.w3.org/2000/svg">
<path d="M5.43867 4.78631L5.49838 4.78728C5.64741 4.80233 5.77119 4.86932 5.87993 4.96884L7.93767 7.03434C9.2396 6.55814 10.6202 6.36882 12.0007 6.35328C13.6182 6.35328 15.106 6.64309 16.4633 7.18143C17.6138 7.63773 18.64 8.25957 19.5448 9.00519C20.2492 9.5848 20.8404 10.2062 21.3254 10.8294C21.4967 11.0493 21.6424 11.2542 21.7637 11.4401C21.8069 11.5066 21.8443 11.5663 21.8763 11.6183C21.8962 11.6518 21.9108 11.6765 21.9195 11.6921C22.0268 11.8828 22.0268 12.1163 21.9195 12.3071C21.9108 12.3226 21.8962 12.3474 21.8763 12.3809C21.8448 12.4333 21.8069 12.493 21.7637 12.559C21.6424 12.7445 21.4962 12.9498 21.3254 13.1697C20.8404 13.7925 20.2487 14.4144 19.5448 14.994C18.8584 15.5619 18.106 16.0469 17.3079 16.4401L19.004 18.1429C19.2482 18.3881 19.2482 18.7852 19.004 19.0303C18.7604 19.2755 18.3642 19.2755 18.1206 19.0303L16.0628 16.9648C14.7609 17.441 13.3803 17.6303 11.9998 17.6454C10.3828 17.6454 8.89446 17.3556 7.53671 16.8172C6.38623 16.3609 5.36003 15.7391 4.45519 14.9935C3.7518 14.4139 3.15957 13.7925 2.67463 13.1692C2.50327 12.9493 2.35764 12.7445 2.23677 12.5585C2.19308 12.492 2.1557 12.4323 2.12415 12.3804C2.10376 12.3469 2.0892 12.3221 2.08046 12.3066C1.97318 12.1154 1.97318 11.8823 2.08046 11.6916C2.0892 11.676 2.10376 11.6513 2.12415 11.6178C2.15522 11.5654 2.19308 11.5056 2.23677 11.4396C2.35764 11.2542 2.50327 11.0489 2.67463 10.829C3.15957 10.2062 3.7518 9.58431 4.45519 9.00471C5.14159 8.43675 5.89401 7.95229 6.69206 7.55861L4.99693 5.85572C4.75276 5.61057 4.75276 5.21301 4.99693 4.96835C5.10081 4.86641 5.23382 4.80088 5.37848 4.7868L5.43819 4.78583L5.43867 4.78631ZM5.61343 9.69014C5.34984 9.89111 5.47071 9.79596 5.24887 9.97509C4.95276 10.2261 5.09207 10.1028 4.82946 10.3445L10.7896 16.3274C11.1915 16.3755 11.5964 16.3867 12.0002 16.3915C12.2765 16.3886 12.1813 16.3925 12.2847 16.3876L5.61343 9.69014ZM7.63379 8.50277C7.30758 8.64598 6.98526 8.80228 6.67846 8.98529L13.9007 16.2347C14.2958 16.1731 14.6852 16.0784 15.0696 15.9672L7.63379 8.50277ZM3.95811 11.2435C3.7683 11.461 3.8683 11.3421 3.66054 11.6018C3.48918 11.8265 3.58772 11.6945 3.36879 11.9998C3.58772 12.3052 3.48918 12.1731 3.66054 12.3979C4.09112 12.9513 4.61975 13.5061 5.24887 14.0246C6.05711 14.6901 6.97215 15.2449 7.99738 15.6512C8.33087 15.7789 8.14883 15.7124 8.54349 15.8473L3.95762 11.2435H3.95811ZM16.4356 8.53287C17.2075 9.52121 17.59 10.7557 17.6259 12.0013C17.6094 13.2561 17.2012 14.4789 16.4303 15.4687C17.2696 15.1022 18.0419 14.5988 18.7531 14.0241C19.3822 13.5056 19.9108 12.9508 20.3414 12.3974C20.5128 12.1726 20.4142 12.3047 20.6331 11.9993C20.4142 11.6945 20.5128 11.8265 20.3414 11.6013C19.9108 11.0479 19.3822 10.493 18.7531 9.9746C18.0473 9.39548 17.2696 8.90277 16.4361 8.53238L16.4356 8.53287ZM12.0085 7.60812C11.0847 7.64502 10.1202 7.89307 9.38765 8.48918L10.2799 9.3848C10.7808 9.03578 11.3847 8.8916 11.9857 8.86296C11.991 8.86296 11.9959 8.86296 12.0012 8.86296C13.7274 8.86296 15.1259 10.2673 15.1259 12.0018C15.122 12.6149 14.9424 13.2153 14.6036 13.725L15.4997 14.6255C16.0866 13.8833 16.3502 12.9333 16.3759 11.9998C16.3444 9.53626 14.4434 7.67026 12.0085 7.60812ZM12.0085 10.1178C11.7328 10.1304 11.4454 10.1761 11.1973 10.3057L13.691 12.809C13.8182 12.559 13.8687 12.278 13.8759 11.9998C13.873 10.9605 13.0289 10.1435 12.0085 10.1178Z" fill="black"/>
</svg>
