<svg width="24" height="24" viewBox="0 0 24 24" fill="none" xmlns="http://www.w3.org/2000/svg">
<path d="M10.7191 6.89175C11.9633 6.95437 13.1157 7.43155 14.073 8.23301C15.1308 9.16214 15.74 10.4558 15.74 11.9238C15.74 12.6311 15.6172 13.2228 15.3779 13.749C15.1949 14.151 14.9953 14.4413 14.623 14.901C14.6051 14.9223 14.5395 15.0039 14.5245 15.0223C14.1201 15.5214 13.9594 15.7845 13.8618 16.1733C13.7468 16.6306 13.7293 16.8932 13.7667 17.2286C13.772 17.2723 13.7774 17.318 13.7856 17.3772C13.789 17.4073 13.8051 17.5204 13.8089 17.5461C13.858 17.9078 13.8808 18.1772 13.8808 18.5364C13.8808 20.383 12.3021 22 10.4725 22H10.4633C8.92253 21.9762 7.48224 20.8214 7.15797 19.2995C7.08515 18.9592 7.29777 18.6248 7.63224 18.5505C7.9667 18.4772 8.2968 18.6927 8.36913 19.033C8.59389 20.0087 9.50748 20.7029 10.4774 20.7408C11.6381 20.7209 12.6094 19.7053 12.6415 18.5364C12.6415 18.2432 12.6235 18.0282 12.5818 17.7194C12.5784 17.6951 12.5628 17.5816 12.558 17.5495C12.5487 17.4816 12.5419 17.4262 12.5356 17.3723C12.4808 16.885 12.5085 16.4675 12.6609 15.8617C12.7468 15.5199 12.8793 15.2136 13.0604 14.916C13.1958 14.6942 13.3303 14.5141 13.5672 14.2218C13.5827 14.2024 13.6487 14.1214 13.6657 14.1005C13.9754 13.7184 14.1254 13.501 14.2521 13.2214C14.4148 12.8636 14.5002 12.4524 14.5002 11.9243C14.5002 10.8301 14.0531 9.88058 13.2623 9.18641C12.5085 8.52427 11.4919 8.14563 10.472 8.14563C9.45214 8.14563 8.43612 8.52379 7.68175 9.18641C6.89098 9.88058 6.44389 10.8301 6.44389 11.9243C6.44389 12.2723 6.1667 12.5539 5.82399 12.5539C5.48127 12.5539 5.20408 12.2718 5.20408 11.9243C5.20408 10.4558 5.81331 9.16214 6.87107 8.23349C7.85166 7.37233 9.15651 6.88641 10.4716 6.88641L10.7177 6.89223L10.7191 6.89175Z" fill="black"/>
<path d="M4.54437 17.5728L4.60797 17.5743C4.76573 17.5898 4.8968 17.6602 5.01234 17.765C5.27107 18.0233 5.27107 18.4427 5.01234 18.701L4.35068 19.3631C4.09243 19.6218 3.6735 19.6218 3.41573 19.3631C3.157 19.1049 3.157 18.6854 3.41573 18.4272L4.07738 17.765C4.18709 17.6578 4.32835 17.5883 4.48175 17.5743L4.54534 17.5728H4.54437Z" fill="black"/>
<path d="M7.9235 14.2141L7.98515 14.2155C8.13806 14.2296 8.26525 14.2951 8.3769 14.3917C8.62738 14.6301 8.62738 15.017 8.3769 15.2553L7.86865 15.7403L8.05602 15.9194C8.30651 16.1578 8.30651 16.5447 8.05602 16.783C7.80602 17.0218 7.39971 17.0218 7.14971 16.783L6.96136 16.6044L6.45263 17.0888C6.20263 17.3277 5.79632 17.3277 5.54632 17.0888C5.29583 16.8505 5.29583 16.4636 5.54632 16.2252L6.05457 15.7403L5.86719 15.5612C5.6167 15.3228 5.6167 14.9359 5.86719 14.6976C5.9735 14.5981 6.11039 14.5345 6.25894 14.5214L6.32059 14.5199L6.38224 14.5214C6.53515 14.5354 6.66234 14.601 6.77399 14.6976L6.96234 14.8762L7.47107 14.3917C7.57738 14.2922 7.71428 14.2286 7.86282 14.2155L7.92447 14.2141H7.9235Z" fill="black"/>
<path d="M10.0915 11.9243L10.1502 11.9257C10.2958 11.9413 10.4167 12.0116 10.5235 12.1165C10.7623 12.3748 10.7623 12.7942 10.5235 13.0524L9.91282 13.7146C9.67447 13.9733 9.28758 13.9733 9.04971 13.7146C8.81088 13.4563 8.81088 13.0369 9.04971 12.7786L9.66039 12.1165C9.76185 12.0087 9.89195 11.9398 10.0337 11.9257L10.0924 11.9243H10.0915Z" fill="black"/>
<path d="M10.4143 2.00049L10.6575 2.0034C13.1992 2.07184 15.6235 3.05583 17.5284 4.72864C19.5934 6.58544 20.7784 9.15243 20.7784 12.0602C20.7784 12.4068 20.4973 12.6874 20.1502 12.6874C19.8031 12.6874 19.522 12.4068 19.522 12.0602C19.522 9.51408 18.4919 7.28398 16.6871 5.66019C14.9832 4.12767 12.7012 3.25437 10.4143 3.25437C10.0672 3.25437 9.78612 2.97379 9.78612 2.62718C9.78612 2.28058 10.0672 2 10.4143 2V2.00049Z" fill="black"/>
<path d="M10.4191 4.4432C12.4007 4.4432 14.3701 5.18883 15.8478 6.50291C17.4274 7.90874 18.3356 9.85388 18.3356 12.0553C18.3356 12.4049 18.0521 12.6874 17.7021 12.6874C17.3521 12.6874 17.0686 12.4044 17.0686 12.0553C17.0686 10.2209 16.3196 8.6165 15.0046 7.44709C13.7594 6.33981 12.091 5.70777 10.4191 5.70777C10.0691 5.70777 9.78564 5.42476 9.78564 5.07573C9.78564 4.7267 10.0691 4.44369 10.4191 4.44369V4.4432Z" fill="black"/>
<path d="M10.4497 9.48155L10.5813 9.48495C11.9385 9.5801 13.1177 10.5383 13.2944 11.8626C13.3298 12.1981 13.0764 12.4976 12.7279 12.532C12.3798 12.566 12.0691 12.3218 12.0337 11.9859C11.939 11.2398 11.2041 10.7422 10.4623 10.7039C10.0415 10.7316 9.64195 10.8782 9.32593 11.149C9.07059 11.3791 8.66913 11.3665 8.4303 11.1194C8.19098 10.8738 8.20505 10.4869 8.46039 10.2563C8.97932 9.78932 9.64971 9.53544 10.4002 9.48301C10.4327 9.48155 10.4172 9.48204 10.4497 9.48155Z" fill="black"/>
</svg>
