<svg width="24" height="24" viewBox="0 0 24 24" fill="none" xmlns="http://www.w3.org/2000/svg">
<path d="M14.2007 16.1973C13.6849 17.3032 13.8252 18.6944 14.5721 19.9716H13.3052C12.649 18.5145 12.5995 16.9609 13.2061 15.6706C13.6601 14.6963 14.4318 13.9809 15.4099 13.5903C15.5873 13.9458 15.773 14.2969 15.9711 14.6393C15.1705 14.9114 14.5515 15.4512 14.2007 16.1973Z" fill="black"/>
<path d="M13.9455 9.67487C13.4751 10.2882 12.8993 10.8169 12.2424 11.2366C11.1922 11.9064 9.97971 12.2616 8.73077 12.2737V11.1841C9.77291 11.172 10.7826 10.8734 11.6544 10.3165C12.506 9.77575 13.1872 9.0171 13.6373 8.12124L13.7225 8.59338C13.7793 8.9606 13.8563 9.31975 13.9455 9.67487Z" fill="black"/>
<path d="M18.3651 16.5432C16.3092 14.3277 14.9386 11.5393 14.3952 8.48044L14.2939 7.91548L15.3546 7.82271L15.5915 8.89608C16.1632 11.511 17.3919 13.8879 19.168 15.8007C20.2669 16.9871 21.5605 17.9798 23 18.7546V19.9813C21.2523 19.1177 19.6789 17.9556 18.3651 16.5432Z" fill="black"/>
<path d="M13.637 6.97926C13.1221 6.97926 12.7044 6.56361 12.7044 6.05112C12.7044 5.53862 13.1221 5.12298 13.637 5.12298C14.152 5.12298 14.5697 5.53862 14.5697 6.05112C14.5697 6.56361 14.152 6.97926 13.637 6.97926Z" fill="black"/>
<path d="M5.90797 7.07452L6.1665 6.10468L13.0395 7.93685C12.8518 8.38928 12.7036 8.582 12.412 8.8658L5.90797 7.07452Z" fill="black"/>
<path d="M4.24761 5.95577C4.78438 5.95577 5.21622 5.52393 5.21622 4.98716C5.21622 4.45039 4.78438 4.01855 4.24761 4.01855C3.71084 4.01855 3.279 4.45039 3.279 4.98716C3.279 5.5199 3.71084 5.95577 4.24761 5.95577Z" fill="black"/>
<path d="M8.79246 8.43632L9.8969 8.74311L7.32444 11.0837L4.63672 8.91856L4.60673 13.4283C5.84771 14.2827 6.9612 15.954 7.47109 17.3479C7.77103 18.1686 7.94727 19.0417 8.00726 19.9785H6.89747C6.84123 19.1729 6.68754 18.4234 6.43259 17.7264C6.00894 16.5685 5.60401 15.8153 4.63672 14.8935C4.55049 15.7666 4.26178 16.6622 3.85312 17.5353C3.45196 18.3859 2.9346 19.2178 2.38347 19.9785H1C1.68985 19.1092 2.36472 18.1011 2.85212 17.0669C3.23828 16.2462 3.50446 15.4106 3.54945 14.6312C3.5757 14.219 3.5382 13.8218 3.42947 13.447L3.54945 6.75344L7.32444 9.77322L8.79246 8.43632Z" fill="black"/>
</svg>
