<svg width="24" height="24" viewBox="0 0 24 24" fill="none" xmlns="http://www.w3.org/2000/svg">
<path d="M13.1179 16.0728C13.1028 16.091 13.0877 16.1091 13.0727 16.1273L14.8738 23.69H16.1616L14.0577 14.7628C13.7846 15.2255 13.4706 15.6591 13.1179 16.0728Z" fill="black"/>
<path d="M11.5402 14.7223C10.6481 15.764 9.43133 16.563 8.03051 17.0372C6.77683 17.457 5.40948 17.6033 4.10839 17.4573L4.41987 18.7652C5.4597 18.8327 6.52534 18.7438 7.54463 18.5011C7.84766 18.4289 8.14281 18.3441 8.43469 18.2455C10.0561 17.6993 11.4644 16.7674 12.505 15.5546C13.4655 14.4336 14.0939 13.12 14.3889 11.6289L14.3935 11.6278C14.4452 11.213 14.4535 10.7795 14.4209 10.3168C14.4072 10.3201 14.3934 10.3234 14.3796 10.3267C11.9921 10.8953 9.58587 9.67409 8.58661 7.53589L7.32397 7.8366C8.19009 9.90466 10.0891 11.3388 12.249 11.6682C12.5152 11.7066 12.7885 11.7337 13.061 11.7367C12.7861 12.8641 12.2768 13.8632 11.5402 14.7223Z" fill="black"/>
<path d="M14.2717 9.46908C14.9028 9.31877 15.2928 8.68527 15.1426 8.05446C14.9924 7.42366 14.3587 7.03396 13.7276 7.18427C13.0964 7.33458 12.7064 7.96808 12.8566 8.59888C13.0019 9.23087 13.6356 9.62057 14.2717 9.46908Z" fill="black"/>
<path d="M15.2066 10.052C15.3324 10.6086 15.1849 11.8209 15.2066 11.7365L15.2068 11.7365L19.5597 4.92241L18.8971 4.13339L15.2066 10.052Z" fill="black"/>
<path d="M2.3956 0.836116C2.4386 0.799283 2.47085 0.758766 2.51027 0.747716C2.89371 0.633531 3.25923 0.640897 3.61042 0.884C4.09419 1.21919 4.47046 1.66119 4.83957 2.11056C5.28034 2.64833 5.69603 3.20452 6.15114 3.72387C6.39123 3.99644 6.6815 4.23955 6.97535 4.44581C7.30503 4.67787 7.40537 4.63367 7.59888 4.26533C7.81031 3.85648 7.90707 3.41447 7.96799 2.96142C8.03966 2.43838 8.08624 1.91534 8.17583 1.39599C8.26542 0.876633 8.57002 0.559864 9.08246 0.416213C9.63433 0.265195 10.1109 0.353595 10.5625 0.699831C11.0534 1.07922 11.4368 1.55806 11.7343 2.09951C12.2145 2.97247 12.6588 3.86384 13.139 4.7368C13.3684 5.16039 13.63 5.56924 13.8987 5.96336C14.0134 6.12911 14.189 6.25435 14.3431 6.39063C14.4578 6.49377 14.5545 6.45693 14.6513 6.34643C14.8842 6.07386 15.0024 5.74236 15.1171 5.41086C15.3895 4.61525 15.6582 3.81964 15.9234 3.02035C16.0202 2.72937 16.2101 2.54151 16.4824 2.41996C17.1633 2.11793 17.8263 2.15844 18.4821 2.50468C19.0913 2.82513 19.5786 3.28187 19.9836 3.84174C20.0086 3.87858 20.0373 3.93751 20.0266 3.97434C19.9764 4.16588 19.9119 4.35005 19.8474 4.55263C19.6897 4.34268 19.5535 4.14378 19.3994 3.95961C19.0626 3.55444 18.6935 3.17874 18.2563 2.88407C17.8944 2.63728 17.5002 2.4789 17.0809 2.37576C16.9304 2.33893 16.8193 2.37576 16.7476 2.50836C16.6437 2.70358 16.5326 2.90248 16.4609 3.11244C16.1922 3.90436 15.9413 4.69997 15.6797 5.49557C15.5436 5.91179 15.3286 6.28013 14.92 6.45325C14.6477 6.56743 14.3502 6.63373 14.0564 6.67425C13.8056 6.71108 13.5977 6.5527 13.4257 6.3759C13.0028 5.94494 12.7018 5.42927 12.4259 4.8915C12.021 4.11063 11.6375 3.3187 11.2147 2.54888C10.8886 1.95586 10.5015 1.39967 9.97476 0.965034C9.79558 0.817699 9.58774 0.696149 9.38348 0.581964C9.21864 0.48988 9.16488 0.51198 9.06813 0.681414C8.90687 0.957667 8.8352 1.26707 8.7922 1.58016C8.71336 2.13634 8.64885 2.69253 8.55568 3.24872C8.51626 3.48814 8.42309 3.72019 8.34067 3.94856C8.22958 4.25428 8.03249 4.47896 7.72789 4.60052C7.0506 4.8694 6.41632 4.87677 5.8537 4.32795C5.73903 4.21376 5.61361 4.11063 5.51327 3.98539C5.05816 3.43289 4.61022 2.8767 4.16228 2.3242C3.82184 1.90429 3.47782 1.4807 3.04063 1.15657C2.90088 1.05343 2.74679 0.968717 2.59269 0.884C2.54611 0.858216 2.48519 0.858216 2.3956 0.836116Z" fill="black"/>
</svg>
