<svg width="24" height="24" viewBox="0 0 24 24" fill="none" xmlns="http://www.w3.org/2000/svg">
<path d="M13.7801 12.3554C13.1571 11.1511 12.2684 10.1824 11.2469 9.57004C11.324 10.1471 11.3514 10.6949 11.3354 11.2158C11.8451 11.6729 12.2953 12.261 12.6474 12.9406C13.2152 14.0353 13.4619 15.2559 13.3288 16.2922L13.4045 16.2991C13.7938 15.9707 14.1991 15.6661 14.6251 15.3728C14.569 14.3764 14.2785 13.321 13.7801 12.3554Z" fill="black"/>
<path d="M15.2769 4.02314C15.8216 3.77414 16.0614 3.13014 15.8123 2.58507C15.5632 2.04001 14.9193 1.79988 14.3745 2.04888C13.8297 2.29787 13.5899 2.94187 13.8391 3.48694C14.0882 4.03201 14.7321 4.27213 15.2769 4.02314Z" fill="black"/>
<path d="M17.0258 8.05434C15.4957 7.44099 14.1298 6.23377 12.9609 4.45917L12.55 3.8324L12.0004 4.34304C10.4628 5.76697 9.48144 7.52296 9.16408 9.42688L9.14792 9.52765L9.16337 9.62954C9.50461 11.8966 9.05607 13.4454 7.56912 14.9914L8.13405 16.2275C10.1402 14.3196 10.8348 12.3107 10.4413 9.54358C10.6919 8.16307 11.3351 6.90404 12.3507 5.80169C13.6147 7.51208 15.0789 8.68475 16.7249 9.30217C16.7628 9.12403 16.8007 8.94589 16.8428 8.76578C16.8891 8.52671 16.9565 8.28838 17.0258 8.05434Z" fill="black"/>
<path d="M18.4812 15.6177L18.9718 15.409L18.8485 14.8895C17.9793 11.1724 18.8645 7.32266 21.0994 4.90554L20.5325 3.66519C19.1236 5.03031 18.1124 6.85703 17.6089 8.95499C17.1669 10.8017 17.1303 12.7641 17.4969 14.6667C14.0278 16.2782 11.4891 18.8134 10.0633 22.0592L10.8029 23.6773C12.0333 20.0382 14.6819 17.2556 18.4812 15.6177Z" fill="black"/>
<path fill-rule="evenodd" clip-rule="evenodd" d="M4.29733 0.573761L2.41384 4.27159L1.78586 3.65544C1.78586 3.65544 0.358445 6.70113 0.532728 6.70113L1.95225 5.02001L2.7411 6.23914L3.74509 4.58972L4.93621 6.81285L6.01743 4.80487L8.06383 6.70113V6.70018L6.48297 3.33766L6.01743 3.6275L4.29733 0.573761ZM3.16023 3.63271L4.32101 1.38266L5.40317 3.3154L4.93621 3.63271L4.30159 3.02272L3.16023 3.63271Z" fill="black"/>
</svg>
