<svg width="24" height="24" viewBox="0 0 24 24" fill="none" xmlns="http://www.w3.org/2000/svg">
<path fill-rule="evenodd" clip-rule="evenodd" d="M8.88611 3.86153C9.40461 3.86153 9.82334 4.28208 9.82334 4.80334C9.82334 5.0637 9.7652 5.51264 9.69318 6.00497C9.60677 6.6998 9.50594 7.46749 9.50594 8.10447H8.25134C8.26627 7.46749 8.16492 6.6998 8.06464 6.00497C8.0065 5.51264 7.94886 5.0637 7.94886 4.80334C7.94886 4.28208 8.36655 3.86153 8.88611 3.86153ZM5.85836 18.2549C6.00239 18.6893 6.10322 18.9647 6.11763 19.0081C6.27605 19.3992 6.70866 19.7029 7.14127 19.7029H10.1402C10.4 19.7029 10.6011 19.5004 10.6011 19.2395C10.6011 18.9792 10.4 18.7761 10.1402 18.7761H7.14127C7.08366 18.7761 6.99723 18.7033 6.98283 18.6599C6.98283 18.6599 6.91135 18.5013 6.83828 18.2549H5.85836ZM14.8978 4.0935C15.4606 4.0935 15.9359 4.5569 15.9359 5.13602C15.9359 5.41138 15.8644 5.90372 15.8063 6.42498C15.706 7.17767 15.5902 8.01769 15.6046 8.6986H14.1916C14.1916 8.01769 14.0908 7.17767 13.9899 6.42498C13.9179 5.90372 13.8464 5.41138 13.8464 5.13602C13.8464 4.5569 14.3212 4.0935 14.8978 4.0935ZM11.3799 18.4724C11.6397 19.5149 11.9426 20.2821 11.957 20.3399C12.1155 20.7455 12.5769 21.0648 13.0239 21.0648H16.7579C17.2049 21.0648 17.6669 20.7455 17.8248 20.3399C17.8541 20.2821 18.1421 19.5149 18.4019 18.4724H17.4498C17.2199 19.3552 16.9745 19.9928 16.9596 19.9928C16.9457 20.0651 16.8299 20.1374 16.7579 20.1374H13.0239C12.9519 20.1374 12.8511 20.0651 12.8217 19.9928C12.8217 19.9928 12.5769 19.3552 12.3321 18.4724H11.3799ZM16.5563 9.10414C16.4549 8.4661 16.6 7.39464 16.7147 6.54069C16.7867 5.97604 16.8592 5.48371 16.8592 5.13602C16.8592 4.05011 15.9796 3.1667 14.8978 3.1667C13.8022 3.1667 12.9231 4.05011 12.9231 5.13602C12.9231 5.48371 12.9951 5.97604 13.0671 6.54069C13.1823 7.39464 13.3263 8.4661 13.2399 9.10414C13.0815 10.219 12.5769 11.2026 12.0867 12.1589C11.5383 13.2448 10.9622 14.3891 10.9622 15.6341C10.9622 16.3729 11.0774 17.1545 11.2364 17.8643H12.1875C12.0147 17.1545 11.885 16.3584 11.885 15.6341C11.885 14.606 12.3897 13.6214 12.9087 12.5789C13.3845 11.6665 13.8598 10.7258 14.0764 9.63987H15.706C15.9215 10.7258 16.4122 11.6665 16.8731 12.5789C17.3927 13.6214 17.8968 14.606 17.8968 15.6341C17.8968 16.3584 17.7677 17.1545 17.6093 17.8643H18.546C18.7049 17.1545 18.8201 16.3729 18.8201 15.6341C18.8201 14.3891 18.2435 13.2448 17.6951 12.1589C17.2049 11.2026 16.7008 10.219 16.5563 9.10414ZM8.15103 9.03128H9.62171C9.80841 9.94362 10.1834 10.7397 10.5579 11.4929C10.6736 11.7244 10.9622 11.8117 11.1926 11.6949C11.4092 11.5797 11.51 11.3049 11.3948 11.0724C10.991 10.2908 10.5872 9.43682 10.4576 8.50948C10.385 7.91644 10.5147 6.91678 10.6166 6.12069C10.6886 5.58497 10.7462 5.12156 10.7462 4.80334C10.7462 3.77475 9.90976 2.93526 8.88611 2.93526C7.86246 2.93526 7.02604 3.77475 7.02604 4.80334C7.02604 5.12156 7.08365 5.58497 7.1562 6.12069C7.25648 6.91678 7.38663 7.91644 7.29969 8.50948C7.15619 9.53754 6.69425 10.4499 6.24723 11.3483C5.72821 12.3619 5.17986 13.4339 5.17986 14.606C5.17986 15.6775 5.45456 16.8652 5.6994 17.7341H6.66598C6.4206 16.9086 6.11763 15.6775 6.11763 14.606C6.11763 13.6503 6.57903 12.738 7.06925 11.7678C7.50186 10.9133 7.93393 10.0443 8.15103 9.03128Z" fill="black"/>
</svg>
