<svg width="24" height="24" viewBox="0 0 24 24" fill="none" xmlns="http://www.w3.org/2000/svg">
<path d="M14.8821 14.6104L9.97958 14.6025C10.0042 14.4675 10.0175 14.3279 10.0175 14.1859C10.0175 13.9934 9.99375 13.8059 9.94917 13.6271L14.9104 13.6321C14.8667 13.8096 14.8433 13.995 14.8433 14.1859C14.8433 14.3309 14.8563 14.4729 14.8821 14.6104ZM21.7529 13.6384L21.3696 14.6192L19.41 14.6175C19.4367 14.4779 19.4504 14.3334 19.4504 14.1863C19.4504 13.9971 19.4275 13.8138 19.3846 13.6379C20.2329 13.6388 20.8879 13.6375 21.7529 13.6384ZM5.45083 14.6188L3.13625 14.5917L2.7025 13.3884L5.55083 13.3909C5.45958 13.6388 5.41 13.9063 5.41 14.1859C5.41 14.3338 5.42417 14.4788 5.45083 14.6188ZM20.6408 12.4554L20.765 12.8621L22.0004 12.8634L21.6642 11.7359L16.5087 10.2084L13.7275 8.08002L7.21708 8.08335L5.39583 10.3729L2.66917 10.2504L2 11.2163L2.47958 12.4575L3.65 12.4588L3.03917 11.0613L6.09875 11.0671L7.70167 9.06668L13.3913 9.06168L16.0533 11.0963L20.6408 12.4554Z" fill="black"/>
<path d="M15.6171 11.2954L6.62625 11.2146L7.13875 10.475L10.7129 10.6092L10.3683 9.34002L11.2204 9.33793L11.5783 10.6484L14.7779 10.7025L15.6171 11.2954Z" fill="black"/>
<path d="M18.8946 14.1717C18.8946 13.3134 18.2725 12.5984 17.4558 12.4517V13.4729C17.7238 13.5921 17.9112 13.86 17.9112 14.1717C17.9112 14.5933 17.5679 14.9367 17.1462 14.9367C16.7246 14.9367 16.3812 14.5933 16.3812 14.1717C16.3812 13.86 16.5687 13.5921 16.8367 13.4729V12.4517C16.02 12.5984 15.3979 13.3138 15.3979 14.1717C15.3979 15.1358 16.1821 15.92 17.1462 15.92C18.1104 15.92 18.8946 15.1358 18.8946 14.1717Z" fill="black"/>
<path d="M9.46167 14.1717C9.46167 13.3134 8.83958 12.5984 8.02292 12.4517V13.4729C8.29083 13.5921 8.47833 13.86 8.47833 14.1717C8.47833 14.5933 8.135 14.9367 7.71333 14.9367C7.29167 14.9367 6.94833 14.5933 6.94833 14.1717C6.94833 13.86 7.13583 13.5921 7.40375 13.4729V12.4517C6.58708 12.5984 5.965 13.3138 5.965 14.1717C5.965 15.1358 6.74917 15.92 7.71333 15.92C8.6775 15.92 9.46167 15.1358 9.46167 14.1717Z" fill="black"/>
</svg>
