<svg width="24" height="24" viewBox="0 0 24 24" fill="none" xmlns="http://www.w3.org/2000/svg">
<path d="M17.0843 10.4546L18.1176 9.36814C17.5155 9.19841 16.9056 8.99391 16.2769 8.73744C14.3911 7.97503 12.6841 6.94569 11.7378 5.99104L11.7242 7.73995C13.2277 8.88998 15.2057 9.84934 17.0843 10.4546Z" fill="black"/>
<path d="M9.21618 3.96179C9.67076 4.39414 10.3907 4.37546 10.8238 3.9201C11.2569 3.46473 11.2395 2.74477 10.7849 2.31243C10.3303 1.88008 9.61038 1.89876 9.17728 2.35413C8.74418 2.80949 8.7616 3.52945 9.21618 3.96179Z" fill="black"/>
<path d="M4.14151 9.57008L3.51225 10.5901L8.68723 10.5678L8.68288 9.23196L6.06045 9.24403C7.0588 8.15851 8.4354 7.24153 9.54714 6.93991L9.50087 13.4108L4.32428 16.7194L8.77114 22L9.81372 21.1525L6.08448 16.9802L10.0093 14.6006L10.7519 14.6006L20.4878 14.6275L20.4716 13.3617L10.8347 13.3272L10.8865 5.49583L10.2083 5.50643C9.21549 5.51819 8.00638 5.98669 6.80982 6.82906C5.7164 7.59881 4.74041 8.59633 4.14151 9.57008Z" fill="black"/>
</svg>
