<svg width="24" height="24" viewBox="0 0 24 24" fill="none" xmlns="http://www.w3.org/2000/svg">
<path d="M2.48269 19.6336L2.18736 19.5479V20.8905C3.38298 21.238 4.45951 21.4142 5.53605 21.4142C6.63163 21.4142 7.72721 21.2333 8.95141 20.8714C10.0565 20.5429 11.0283 20.381 12 20.381C12.9717 20.381 13.9435 20.5429 15.0486 20.8714C16.2728 21.2333 17.3684 21.4142 18.4639 21.4142C19.5405 21.4142 20.6123 21.238 21.8126 20.8905V19.5479L21.5173 19.6336C20.4646 19.943 19.4643 20.1001 18.4687 20.1001C17.4684 20.1001 16.4681 19.943 15.4201 19.6336C14.1959 19.2717 13.1004 19.0908 12.0048 19.0908C10.9092 19.0908 9.8136 19.2717 8.5894 19.6336C7.53668 19.943 6.53637 20.1001 5.54081 20.1001C4.53573 20.1001 3.53541 19.943 2.48269 19.6336Z" fill="black"/>
<path d="M4.17498 13.2036C3.96706 12.8358 4.13513 12.3692 4.52981 12.2185L11.6895 9.48434C11.8478 9.42391 12.0227 9.42374 12.181 9.48384L19.3833 12.2176C19.7805 12.3683 19.9487 12.8385 19.7372 13.207L16.3609 19.0908C16.0218 19.0722 15.6182 19 15.29 18.8737L18.7647 13.0824L11.9352 10.6212L5.37253 13.0824L8.84727 18.8013C8.48531 18.946 7.99827 19.0959 7.54424 19.1632L4.17498 13.2036Z" fill="black"/>
<path d="M17.5321 7.50838C17.7905 7.50838 18.0095 7.69892 18.0451 7.95491L18.5476 11.5622L17.481 11.1476L17.1673 8.52185H12.5247V9.15526L11.96 8.9019L11.3954 9.15526V8.52185H6.79525L6.4281 11.1476L5.37253 11.5622L5.78558 8.52185L5.87116 7.94974C5.9091 7.69608 6.12696 7.50838 6.38344 7.50838H17.5321Z" fill="black"/>
<path d="M11.0258 3.54058C11.0258 4.06776 11.4534 4.49532 11.9805 4.49532C12.5077 4.49532 12.9353 4.06776 12.9353 3.54058C12.9353 3.0134 12.5077 2.58585 11.9805 2.58585C11.4534 2.58585 11.0258 3.0134 11.0258 3.54058Z" fill="black"/>
<path d="M11.4534 6.24909C11.8263 6.19206 12.0656 6.18952 12.4669 6.24909V7.68273H11.4534V6.24909Z" fill="black"/>
<path d="M8.55781 5.77102H9.55669V7.26258H8.55781V5.77102Z" fill="black"/>
<path d="M14.4938 5.77102H15.4927V7.26258H14.4938V5.77102Z" fill="black"/>
<path d="M8.55781 6.49492V5.48491C11.3034 4.512 12.899 4.51821 15.5073 5.48491V6.49492C12.8051 5.55334 11.2623 5.57186 8.55781 6.49492Z" fill="black"/>
</svg>
