<svg width="24" height="24" viewBox="0 0 24 24" fill="none" xmlns="http://www.w3.org/2000/svg">
<path d="M2 11.2106V10.802C2.50466 9.31674 3.44659 8.83645 4.8258 9.36118C4.97782 9.42037 5.11173 9.52154 5.2129 9.65366L5.6215 10.1956C5.71899 10.3218 5.84659 10.3848 6.0043 10.3848H9.66451C9.84802 10.3848 9.99856 10.316 10.1161 10.1784C10.9591 9.18627 12.0444 8.65151 13.372 8.57409C13.4375 8.56972 13.4988 8.54061 13.5435 8.49268C13.5882 8.44475 13.613 8.38159 13.6129 8.31602V6.13968C13.6129 5.95904 13.7018 5.86871 13.8796 5.86871H14.6279C14.8029 5.86871 14.8917 5.95617 14.8946 6.13108L14.9204 8.35473C14.9233 8.53251 15.0136 8.63 15.1914 8.64721C16.8315 8.7791 18.2437 9.32964 19.4279 10.2988C21.8236 12.2515 21.5441 15.2924 18.2279 15.8988C15.2688 16.4407 9.14408 17.3182 9.83225 12.5311C9.85232 12.3762 9.94121 12.3017 10.0989 12.3074L10.9118 12.3504C11.0839 12.359 11.1484 12.4479 11.1054 12.6171C10.7011 14.1741 11.5054 14.8149 12.9677 14.8967C14.3398 14.9741 18.3742 15.1289 19.286 14.0063C19.4122 13.8515 19.3763 13.7856 19.1785 13.8085C16.2193 14.1569 13.8538 14.2171 14.9935 10.2085C15.0086 10.1563 15.0116 10.1013 15.0022 10.0478C14.9928 9.99423 14.9714 9.94354 14.9394 9.89957C14.9075 9.85559 14.8659 9.81949 14.8179 9.79402C14.7699 9.76855 14.7167 9.75437 14.6624 9.75258C13.4236 9.72677 11.286 10.0192 10.972 11.4687C10.9405 11.6063 10.8545 11.6752 10.714 11.6752H5.97849C5.91259 11.6751 5.84751 11.6897 5.78798 11.718C5.72846 11.7463 5.67599 11.7875 5.6344 11.8386C4.35269 13.4085 2.65376 13.301 2 11.2106ZM19.3892 12.2902C19.071 11.2149 17.4064 10.5096 16.5935 10.2515C16.5548 10.2392 16.5139 10.2354 16.4736 10.2404C16.4332 10.2453 16.3944 10.2588 16.3598 10.28C16.3251 10.3012 16.2954 10.3296 16.2727 10.3633C16.2499 10.3969 16.2347 10.4351 16.2279 10.4752L15.9613 12.0924C15.9477 12.1722 15.9522 12.254 15.9744 12.3319C15.9966 12.4097 16.0359 12.4816 16.0896 12.5423C16.1432 12.6029 16.2097 12.6508 16.2843 12.6823C16.3589 12.7139 16.4395 12.7283 16.5204 12.7246L19.1613 12.6085C19.1989 12.6067 19.2356 12.5964 19.2687 12.5784C19.3018 12.5604 19.3304 12.5352 19.3523 12.5046C19.3743 12.4739 19.389 12.4387 19.3954 12.4016C19.4018 12.3645 19.3997 12.3264 19.3892 12.2902ZM4.46314 11.3508C4.54678 11.2174 4.57095 11.0544 4.53034 10.8975C4.48973 10.7406 4.38766 10.6028 4.24658 10.5143C4.1055 10.4258 3.93696 10.3939 3.77805 10.4256C3.61914 10.4573 3.48288 10.5501 3.39922 10.6834C3.31558 10.8168 3.29141 10.9798 3.33202 11.1367C3.37264 11.2935 3.47471 11.4314 3.61578 11.5199C3.75687 11.6084 3.9254 11.6403 4.08431 11.6086C4.24322 11.5769 4.37949 11.4841 4.46314 11.3508Z" fill="black"/>
<path d="M12.7526 6.51385H6.73971C6.61857 6.51385 6.52036 6.61206 6.52036 6.7332V7.58482C6.52036 7.70596 6.61857 7.80417 6.73971 7.80417H12.7526C12.8738 7.80417 12.972 7.70596 12.972 7.58482V6.7332C12.972 6.61206 12.8738 6.51385 12.7526 6.51385Z" fill="black"/>
<path d="M21.7419 6.51385H15.8065C15.6639 6.51385 15.5484 6.62939 15.5484 6.77191V7.54611C15.5484 7.68863 15.6639 7.80417 15.8065 7.80417H21.7419C21.8845 7.80417 22 7.68863 22 7.54611V6.77191C22 6.62939 21.8845 6.51385 21.7419 6.51385Z" fill="black"/>
<path d="M21.3118 16.7116C20.6409 17.7912 20.2366 18.1094 18.8731 18.1137C15.7018 18.1338 12.5233 18.1367 9.33765 18.1223C9.27337 18.1212 9.21212 18.0949 9.16707 18.049C9.12201 18.0032 9.09678 17.9415 9.09679 17.8772V17.0858C9.09679 16.9223 9.17851 16.8406 9.34195 16.8406C10.7742 16.8363 19.2946 17.1245 19.8839 16.5396C19.9871 16.4421 20.1018 16.3618 20.228 16.2987C20.5979 16.1238 20.9276 16.1266 21.2172 16.3073C21.2833 16.3493 21.3304 16.4154 21.3481 16.4912C21.3658 16.5669 21.3528 16.6461 21.3118 16.7116Z" fill="black"/>
</svg>
