<svg width="24" height="24" viewBox="0 0 24 24" fill="none" xmlns="http://www.w3.org/2000/svg">
<path d="M17.3313 9.99407C17.8119 9.02542 18.1093 7.88136 18.1093 7.00424C18.1093 4.79237 16.3093 3 14.0974 3H9.8949C7.68304 3 5.89066 4.8 5.89066 7.00424C5.89066 7.88136 6.18812 9.02542 6.66863 9.99407C5.75338 11.1534 5.20422 12.6178 5.20422 14.2042C5.20422 17.9568 8.24744 21 12 21C15.7525 21 18.7958 17.9568 18.7958 14.2042C18.7958 12.6178 18.2466 11.1534 17.3313 9.99407ZM9.90253 5.03644H14.1051C15.1957 5.03644 16.0729 5.92119 16.0729 7.00424C16.0729 7.40847 15.9508 7.98051 15.7449 8.53729C14.6695 7.82797 13.3881 7.4161 12 7.4161C10.6195 7.4161 9.33049 7.82797 8.25507 8.53729C8.04914 7.98051 7.9271 7.40847 7.9271 7.00424C7.9271 5.92119 8.81185 5.03644 9.90253 5.03644Z" fill="black"/>
</svg>
