<svg width="24" height="24" viewBox="0 0 24 24" fill="none" xmlns="http://www.w3.org/2000/svg">
<path d="M12.0351 3.36698C12.0277 3.51112 12.0239 3.65623 12.0239 3.80221C12.0239 4.06305 12.0359 4.32108 12.0594 4.57578C16.1325 4.60771 19.4245 7.91941 19.4245 12L19.4244 12.026C19.7259 11.9929 20.0323 11.9759 20.3426 11.9759C20.4399 11.9759 20.5367 11.9775 20.6331 11.9808C20.6228 7.23343 16.7805 3.38588 12.0351 3.36698Z" fill="black"/>
<path d="M20.6323 12.116C20.5362 12.1193 20.4396 12.1209 20.3426 12.1209C20.0322 12.1209 19.7257 12.1039 19.4241 12.0708C19.3863 16.1157 16.114 19.3874 12.0689 19.4242C12.0392 19.7102 12.0239 20.0006 12.0239 20.2946C12.0239 20.4079 12.0262 20.5208 12.0307 20.633C16.7458 20.6166 20.5704 16.8203 20.6323 12.116Z" fill="black"/>
<path d="M12.0169 20.6331C12.0214 20.5208 12.0237 20.408 12.0237 20.2946C12.0237 20.0007 12.0084 19.7104 11.9787 19.4244C7.91338 19.413 4.61656 16.1343 4.57592 12.0759C4.28966 12.1057 3.99908 12.1209 3.70494 12.1209C3.59197 12.1209 3.47952 12.1187 3.36765 12.1142C3.42879 16.8295 7.2702 20.6331 12 20.6331L12.0169 20.6331Z" fill="black"/>
<path d="M12.0112 3.36692L12 3.36691C7.23788 3.36691 3.37632 7.22268 3.36692 11.9826C3.47904 11.9781 3.59172 11.9759 3.70494 11.9759C3.99896 11.9759 4.28942 11.9911 4.57557 12.0209L4.57554 12C4.57554 7.90353 7.8932 4.58193 11.9882 4.57556C12.0117 4.32092 12.0237 4.06297 12.0237 3.80221C12.0237 3.65621 12.0199 3.51108 12.0125 3.36692L12.0112 3.36692Z" fill="black"/>
<path fill-rule="evenodd" clip-rule="evenodd" d="M12.026 4.76949L11.9601 4.83532C11.4963 8.58016 8.54346 11.5534 4.80836 12.0484C8.56329 12.546 11.5276 15.5483 11.9673 19.3212L12.026 19.3798L12.0797 19.3261C12.5174 15.5509 15.4827 12.5462 19.2392 12.0484C15.5025 11.5532 12.5487 8.57753 12.0868 4.83036L12.026 4.76949ZM11.9998 13.4751C12.8145 13.4751 13.4749 12.8147 13.4749 12C13.4749 11.1853 12.8145 10.5249 11.9998 10.5249C11.1851 10.5249 10.5247 11.1853 10.5247 12C10.5247 12.8147 11.1851 13.4751 11.9998 13.4751Z" fill="black"/>
<path fill-rule="evenodd" clip-rule="evenodd" d="M12.0125 3.36692C12.0199 3.51108 12.0237 3.65621 12.0237 3.80221C12.0237 4.06297 12.0117 4.32092 11.9882 4.57556C11.9802 4.66254 11.9708 4.74914 11.9601 4.83532L12.026 4.76949L12.0868 4.83036C12.0764 4.74589 12.0673 4.66102 12.0594 4.57578C12.0359 4.32108 12.0239 4.06305 12.0239 3.80221C12.0239 3.65623 12.0277 3.51112 12.0351 3.36698L12.0125 3.36692ZM19.4243 12.049L19.4244 12.026C19.7259 11.9929 20.0323 11.9759 20.3426 11.9759C20.4399 11.9759 20.5367 11.9775 20.6331 11.9808L20.6331 12C20.6331 12.0387 20.6328 12.0774 20.6323 12.116C20.5362 12.1193 20.4396 12.1209 20.3426 12.1209C20.0322 12.1209 19.7257 12.1039 19.4241 12.0708L19.4243 12.049ZM12.026 19.3798L12.0797 19.3261C12.0759 19.3587 12.0723 19.3914 12.0689 19.4242C12.0392 19.7102 12.0239 20.0006 12.0239 20.2946C12.0239 20.4079 12.0262 20.5208 12.0307 20.633L12.0169 20.6331C12.0214 20.5208 12.0237 20.408 12.0237 20.2946C12.0237 20.0007 12.0084 19.7104 11.9787 19.4244C11.9751 19.39 11.9713 19.3555 11.9673 19.3212L12.026 19.3798ZM3.70494 11.9759C3.99896 11.9759 4.28942 11.9911 4.57557 12.0209C4.57562 12.0392 4.57574 12.0576 4.57592 12.0759C4.28966 12.1057 3.99908 12.1209 3.70494 12.1209C3.59197 12.1209 3.47952 12.1187 3.36765 12.1142C3.36715 12.0762 3.36691 12.0381 3.36691 12L3.36692 11.9826C3.47904 11.9781 3.59172 11.9759 3.70494 11.9759Z" fill="black"/>
</svg>
