<svg width="24" height="24" viewBox="0 0 24 24" fill="none" xmlns="http://www.w3.org/2000/svg">
<g clip-path="url(#clip0_3506_34315)">
<path d="M10.8986 18.003C9.77974 20.1372 8.44245 22.7258 8.18836 23.4653L6.99815 23.0555C7.27453 22.2579 8.5539 19.7629 9.66831 17.6422C10.0249 17.8115 10.4528 17.9318 10.8986 18.003Z" fill="black"/>
<path d="M13.3194 17.9006C13.6269 19.9144 13.7339 21.9505 13.8944 23.9822L12.624 24L12.0668 18.0743C12.517 18.061 12.9494 18.0031 13.3194 17.9006ZM17.5274 12.4026C17.2778 12.3759 16.9033 12.3403 16.4665 12.3046C15.5081 12.22 14.2555 12.113 12.9583 11.9125C12.4947 11.8413 12.0266 11.7566 11.5675 11.663C11.8037 12.2289 12.0801 12.9106 12.2674 13.4185C12.1827 13.5343 11.407 13.5388 10.8944 13.365C10.618 12.6611 10.3951 11.9972 10.1633 11.3111L10.1188 11.2977C8.18413 10.616 5.83941 9.69377 6.23615 7.10965C6.30301 6.66856 6.7978 5.87551 7.49319 4.74829C7.72053 4.3785 7.97017 3.97307 8.19306 3.60772L9.26736 4.2582C8.99098 4.71711 8.76363 5.078 8.56303 5.40769C7.94788 6.40124 7.51104 7.10073 7.48429 7.29677C7.12322 9.64921 11.5051 10.4155 13.1455 10.6695C14.3981 10.8611 15.6329 10.968 16.5735 11.0527C16.988 11.0883 17.3491 11.1195 17.6701 11.1551L17.5274 12.4026Z" fill="black"/>
<path d="M10.7246 8.98538C11.2907 8.98538 11.7498 8.52647 11.7498 7.96064C11.7498 7.39481 11.2907 6.9359 10.7246 6.9359C10.1584 6.9359 9.6993 7.39481 9.6993 7.96064C9.6993 8.52647 10.1584 8.98538 10.7246 8.98538Z" fill="black"/>
<path d="M11.821 6.84231C12.2579 6.50815 12.8151 6.25419 13.2742 6.20518C13.5149 6.17845 13.7333 6.20964 13.9161 6.30766C14.1212 6.41904 14.2683 6.60171 14.3218 6.87349C14.3797 7.16309 14.3218 7.56854 14.0989 8.10764C14.0944 8.12101 14.0899 8.13437 14.0855 8.14773C14.0498 8.25466 14.0677 8.34377 14.1167 8.4106C14.1791 8.4997 14.2861 8.57545 14.4064 8.62446C14.4287 8.63337 14.4555 8.64228 14.4822 8.65119L14.2905 9.25267C14.2504 9.2393 14.2103 9.22594 14.1702 9.20812C13.9429 9.11455 13.7333 8.96752 13.5996 8.76703C13.448 8.54426 13.3901 8.27248 13.4882 7.95615C13.4971 7.92942 13.506 7.89823 13.5194 7.86704C13.6888 7.45269 13.7378 7.17201 13.7021 6.99379C13.6888 6.92251 13.6576 6.88241 13.6174 6.86013C13.555 6.82449 13.457 6.81557 13.3366 6.82894C12.9934 6.86458 12.5565 7.06953 12.2044 7.33686L11.821 6.84231Z" fill="black"/>
<path d="M14.3766 15.0714C14.7288 15.2006 15.1121 15.3031 15.5089 15.3699L16.0928 15.4679L15.6872 15.8957C15.13 16.4838 14.497 16.8892 13.8461 17.1432C12.3127 17.7491 9.12993 17.4194 8.8491 15.8511C8.8491 15.8511 9.09874 15.6061 9.41969 15.2897C9.44198 15.312 9.46428 15.3343 9.49102 15.3566C9.51331 15.3788 9.54004 15.3967 9.56679 15.4189C10.8149 16.4303 13.3915 16.4749 14.3766 15.0714ZM12.4464 13.9843C12.7139 14.2249 13.1329 14.51 13.65 14.764C13.0349 15.7486 10.2042 15.4724 9.95908 14.764C10.3959 14.3407 10.8105 13.9397 10.8863 13.8818C11.1671 14.0422 12.0497 14.1269 12.4464 13.9843Z" fill="black"/>
<path d="M17.7378 13.6742C17.7323 13.5065 17.6995 13.4928 17.5544 13.5725C17.5024 13.4708 17.4312 13.4213 17.308 13.4708C17.2889 13.4791 17.204 13.3856 17.1876 13.3279C17.1711 13.2812 17.2122 13.2152 17.2204 13.1575C17.2259 13.1218 17.2122 13.0861 17.2095 13.0476C17.1739 13.0668 17.1328 13.0806 17.1027 13.1081C17.0781 13.1301 17.0644 13.1685 17.0397 13.207C16.9877 13.1465 16.9412 13.0916 16.8974 13.0394C16.9877 12.9322 17.1711 12.9322 17.2122 12.7206C17.1082 12.7673 17.0343 12.803 16.9603 12.8333C16.922 12.847 16.8645 12.869 16.8426 12.8525C16.807 12.825 16.7851 12.77 16.7687 12.7206C16.755 12.6794 16.7687 12.6271 16.7496 12.5942C16.6811 12.4733 16.5744 12.3688 16.6702 12.2012C16.4512 12.1435 16.3115 12.3001 16.1227 12.3496C16.2404 12.0143 16.3471 11.69 16.4676 11.374C16.4868 11.3246 16.5689 11.2943 16.6291 11.2613C16.7058 11.2201 16.7742 11.1871 16.7058 11.0772C16.662 11.0058 16.6729 10.9316 16.7715 10.8904C16.8153 10.8739 16.8481 10.8299 16.8399 10.7914C16.8235 10.6513 16.807 10.5111 16.7906 10.371C16.807 10.3655 16.8235 10.3572 16.8399 10.3517C16.8892 10.3847 16.9384 10.4204 17.0069 10.4671C17.0206 10.4149 17.0425 10.3682 17.0397 10.3242C17.0233 10.0604 17.0863 10.0082 17.3299 10.0824C17.3463 10.0879 17.3655 10.0934 17.3956 10.1016C17.4148 10.0522 17.4394 10.0027 17.4531 9.95325C17.475 9.86531 17.5079 9.81035 17.6146 9.8076C17.6612 9.8076 17.705 9.7389 17.7542 9.69768C17.809 9.67844 17.8747 9.65371 17.9431 9.62898C17.9897 9.68669 18.0472 9.75264 18.1265 9.85157C18.132 9.77462 18.1348 9.7444 18.1348 9.71417C18.1348 9.65371 18.1129 9.59325 18.2114 9.57401C18.2662 9.56302 18.2552 9.43661 18.3565 9.4476C18.3948 9.4531 18.4386 9.42562 18.4797 9.42012C18.5892 9.40638 18.6987 9.39539 18.8055 9.3844C18.8 9.42837 18.7863 9.50806 18.7836 9.58775C18.7836 9.61798 18.8027 9.6647 18.8274 9.67844C18.8465 9.68943 18.8931 9.6647 18.9177 9.64272C18.967 9.596 19.008 9.54104 19.0573 9.48058C19.1887 9.53279 19.3256 9.58501 19.4652 9.63997C19.4816 9.64546 19.5035 9.64546 19.5145 9.65646C19.6678 9.79661 19.6678 9.79661 19.8375 9.67844C19.8539 9.66745 19.8758 9.6592 19.9278 9.63447C19.8539 9.83233 19.9552 9.90379 20.1085 9.92852C20.0866 9.98623 20.0675 10.0302 20.0401 10.0989C20.125 10.1099 20.1961 10.1209 20.2947 10.1319C20.2919 10.1896 20.2865 10.2693 20.2783 10.371C20.396 10.4671 20.4398 10.6485 20.5219 10.8107C20.5739 10.9096 20.5876 10.9646 20.5356 11.0525C20.5274 11.0635 20.5712 11.1102 20.5931 11.1349C20.6369 11.1844 20.6834 11.2284 20.7546 11.3053C20.6615 11.3053 20.6068 11.2971 20.5575 11.3081C20.5137 11.3163 20.4726 11.3438 20.4288 11.363C20.4644 11.3905 20.4945 11.4372 20.5328 11.4455C20.708 11.4922 20.8121 11.6021 20.8258 11.778C20.8312 11.8522 20.8066 11.9291 20.7847 12.0033C20.7573 12.0995 20.7272 12.1957 20.6834 12.2864C20.6642 12.3249 20.6122 12.3496 20.5766 12.3798C20.5027 12.443 20.4233 12.5007 20.3549 12.5722C20.344 12.5832 20.3905 12.6574 20.4233 12.6931C20.4945 12.77 20.489 12.8113 20.3905 12.8388C20.3604 12.847 20.3275 12.847 20.2947 12.8442C20.2016 12.836 20.1688 12.869 20.1907 12.9652C20.1989 12.9954 20.177 13.0586 20.1633 13.0613C19.9087 13.0916 19.8402 13.2565 19.8512 13.4791C19.7472 13.512 19.7472 13.512 19.4707 13.4351C19.4679 13.512 19.4652 13.5862 19.4597 13.6824C19.3639 13.6714 19.2763 13.6632 19.1887 13.6467C19.1066 13.633 19.0299 13.5807 18.9478 13.6604C18.9286 13.6769 18.8465 13.6302 18.7918 13.611C18.7534 13.6907 18.7151 13.7786 18.6658 13.8583C18.6303 13.9188 18.581 13.9462 18.5098 13.8885C18.4769 13.8638 18.4195 13.8583 18.3757 13.861C18.2579 13.8665 18.1649 13.8391 18.1183 13.7154C18.0992 13.6604 18.0745 13.6302 17.9951 13.6577C17.924 13.6934 17.8336 13.6742 17.7378 13.6742Z" fill="black"/>
<path d="M8.37434 0.532901C8.50353 0.643386 8.53664 0.627809 8.57789 0.463002C8.6901 0.493 8.77657 0.472719 8.82521 0.345236C8.83236 0.325029 8.96124 0.324415 9.01582 0.351396C9.06219 0.37086 9.08297 0.447185 9.12043 0.492897C9.14334 0.521492 9.17958 0.53552 9.21026 0.559751C9.22061 0.519539 9.23888 0.478925 9.23926 0.437237C9.23994 0.403471 9.22068 0.366752 9.20903 0.321709C9.2904 0.323515 9.36386 0.325724 9.43336 0.328135C9.45073 0.470113 9.32323 0.609552 9.45296 0.785489C9.49033 0.674453 9.51499 0.593828 9.54376 0.516962C9.56012 0.478428 9.58364 0.419687 9.6112 0.414315C9.65649 0.406054 9.71282 0.426994 9.76124 0.448338C9.80159 0.466124 9.83113 0.512239 9.86911 0.520225C10.0071 0.550892 10.1595 0.541146 10.2182 0.728635C10.4136 0.601609 10.3935 0.388339 10.4878 0.210907C10.6568 0.529693 10.8251 0.832636 10.9777 1.14035C11.0014 1.18875 10.9669 1.27185 10.9497 1.34019C10.9273 1.42666 10.9044 1.50124 11.0342 1.52439C11.1181 1.53996 11.166 1.59903 11.1283 1.70214C11.1102 1.74672 11.1202 1.80177 11.1547 1.82183C11.271 1.9052 11.3872 1.98857 11.5034 2.07193C11.4961 2.08818 11.4909 2.1063 11.4836 2.12255C11.4247 2.13746 11.3637 2.15049 11.2812 2.17056C11.3107 2.21668 11.3304 2.26528 11.3652 2.29327C11.574 2.46121 11.5692 2.54479 11.3444 2.67927C11.3289 2.688 11.3114 2.69881 11.2843 2.71606C11.308 2.76446 11.3279 2.81702 11.3554 2.86126C11.4059 2.93805 11.4242 3.00061 11.352 3.08366C11.3197 3.11904 11.3406 3.19932 11.3372 3.26498C11.3135 3.31976 11.2863 3.38662 11.2573 3.45557C11.1818 3.45148 11.0925 3.45007 10.9633 3.44277C11.017 3.49956 11.0377 3.52231 11.0603 3.54299C11.1056 3.58433 11.166 3.60903 11.1119 3.69711C11.0821 3.74625 11.1842 3.82438 11.1056 3.89387C11.0748 3.91925 11.0649 3.97134 11.0405 4.00632C10.9747 4.09896 10.9068 4.18973 10.8408 4.27841C10.8117 4.24418 10.7616 4.17927 10.7039 4.12268C10.6813 4.10201 10.633 4.08462 10.6056 4.09396C10.5841 4.10101 10.5702 4.1533 10.5695 4.18707C10.5702 4.25648 10.5828 4.32529 10.5938 4.4041C10.4634 4.46828 10.3292 4.53663 10.191 4.60519C10.1755 4.61391 10.1602 4.63056 10.1444 4.63137C9.93301 4.65206 9.93301 4.65206 9.90341 4.86191C9.90022 4.88192 9.89116 4.90421 9.8735 4.96066C9.77689 4.76915 9.65304 4.79729 9.52797 4.89692C9.50003 4.8408 9.48046 4.79616 9.44811 4.72836C9.38089 4.78536 9.32319 4.83195 9.24646 4.89936C9.2052 4.85781 9.1494 4.79914 9.07906 4.72336C8.92529 4.74707 8.75918 4.65632 8.58082 4.60787C8.47066 4.57975 8.42004 4.55257 8.39042 4.45288C8.38791 4.43912 8.32251 4.44047 8.28879 4.4402C8.22135 4.43967 8.15611 4.44498 8.04908 4.44646C8.11378 4.3757 8.158 4.33972 8.18404 4.29474C8.20832 4.2558 8.21631 4.20579 8.23237 4.15934C8.18707 4.1676 8.1312 4.15854 8.09839 4.18204C7.94166 4.28328 7.78712 4.28719 7.64606 4.17731C7.58675 4.13072 7.54633 4.05937 7.50605 3.99197C7.45314 3.90538 7.40213 3.81671 7.36475 3.72138C7.34929 3.6805 7.36695 3.62405 7.36908 3.57632C7.37318 3.4769 7.38521 3.37707 7.37934 3.27618C7.37873 3.26034 7.29088 3.24497 7.24132 3.24551C7.13429 3.247 7.10727 3.21464 7.15522 3.12092C7.16998 3.09239 7.19282 3.06742 7.21771 3.04432C7.28858 2.9792 7.28675 2.93167 7.19958 2.88254C7.17126 2.86811 7.13921 2.80824 7.14667 2.79595C7.30104 2.58173 7.22528 2.41693 7.05118 2.27302C7.09883 2.17138 7.09883 2.17138 7.34858 2.0138C7.29293 1.9591 7.23934 1.90627 7.1712 1.83633C7.24603 1.771 7.31309 1.71004 7.38631 1.65472C7.45368 1.60168 7.54602 1.57912 7.5435 1.46218C7.54449 1.43634 7.63652 1.40585 7.68897 1.37738C7.656 1.29374 7.61687 1.20446 7.59151 1.1125C7.57103 1.04409 7.58473 0.987838 7.67737 0.973196C7.71871 0.965137 7.76278 0.925191 7.79117 0.890013C7.86889 0.796763 7.95414 0.744797 8.07899 0.793993C8.13342 0.817014 8.17316 0.818958 8.20779 0.739809C8.23055 0.661265 8.30773 0.605742 8.37434 0.532901Z" fill="black"/>
</g>
<defs>
<clipPath id="clip0_3506_34315">
<rect width="24" height="24" fill="white"/>
</clipPath>
</defs>
</svg>
