<svg width="24" height="24" viewBox="0 0 24 24" fill="none" xmlns="http://www.w3.org/2000/svg">
<path d="M16.8834 5.43559C16.9922 5.43559 17.0992 5.4066 17.1933 5.3524C17.489 5.18173 17.5908 4.80189 17.4201 4.50571C17.3098 4.3146 17.1039 4.19575 16.8834 4.19575C16.775 4.19575 16.6675 4.22427 16.5734 4.27895C16.2777 4.44961 16.176 4.82946 16.3466 5.12563C16.4569 5.31674 16.6628 5.43559 16.8834 5.43559Z" fill="black"/>
<path d="M21.1962 5.16319L19.6873 4.59461C19.1125 3.45032 18.2544 2.7049 17.1348 2.3783C14.6357 1.64856 11.6183 3.25588 10.8063 3.73033C9.84791 3.24162 8.76447 3.31911 7.65441 3.96043C6.78871 4.46007 6.21157 5.12944 6.1878 5.15796C6.08321 5.28014 6.05897 5.45223 6.12647 5.59866C6.19351 5.74508 6.33993 5.83921 6.50061 5.83921C6.50822 5.83921 7.15286 5.85442 7.74141 6.28133C7.35681 6.82234 6.59902 8.00323 6.0718 9.5654C5.55457 11.0971 5.39769 12.5989 5.59688 14.0251C4.50726 14.075 3.42668 13.9296 2.28049 13.5901L2 13.5084V14.7858C3.3896 15.1913 4.60662 15.3482 5.8631 15.2583C5.95723 15.5764 6.0699 15.8896 6.20206 16.1977C4.9047 16.3418 3.6387 16.212 2.28049 15.8098L2 15.728V17.0054C3.73379 17.5117 5.19944 17.6306 6.8082 17.3658C6.83007 17.4019 6.85241 17.438 6.87523 17.4737C6.4583 17.7917 6.12125 18.1526 5.87166 18.55C5.07251 19.8198 5.37915 21.41 5.39246 21.477C5.41955 21.6101 5.50988 21.7219 5.63491 21.7756C5.6872 21.7979 5.74283 21.8089 5.79797 21.8089C5.87499 21.8089 5.95153 21.7875 6.01856 21.7452C6.11839 21.6819 8.32092 20.2819 9.1795 19.0691C10.6475 19.2949 13.1876 18.6817 13.3022 18.6536C13.4343 18.6213 13.5422 18.5262 13.5903 18.3993C13.6388 18.2719 13.6216 18.1293 13.5441 18.0175C13.5109 17.9695 12.8368 17.0092 11.7376 16.5314C12.5282 16.5695 13.3331 16.7206 14.2301 16.9873C16.5358 17.6714 18.3609 17.6757 20.6623 17.0054V15.728L20.3814 15.8098C18.3837 16.3983 16.581 16.3983 14.5786 15.8098C13.4148 15.4656 12.3728 15.293 11.3312 15.293C10.7821 15.293 10.2335 15.341 9.66631 15.4366C9.63113 15.1033 9.62637 14.7801 9.64776 14.4677C10.2268 14.3565 10.7787 14.3013 11.3312 14.3013C12.2549 14.3013 13.179 14.4554 14.2301 14.7677C16.5358 15.4518 18.3609 15.4561 20.6623 14.7858V13.5084L20.3814 13.5901C18.3837 14.1792 16.581 14.1792 14.5786 13.5901C13.4148 13.2459 12.3728 13.0739 11.3312 13.0739C10.8529 13.0739 10.3751 13.1105 9.88499 13.1822C10.3547 11.6305 11.3915 10.4392 12.1498 9.73131L11.586 9.12708C10.6851 9.96759 9.43193 11.428 8.9784 13.3543C8.88047 13.7689 8.81962 14.2048 8.80821 14.6612C8.79965 14.9664 8.81344 15.2807 8.85194 15.6035C8.88522 15.8835 8.93799 16.1701 9.01168 16.4625L9.0963 16.8072L9.1001 16.8224C9.14432 17.0011 9.3012 17.1295 9.48565 17.1366L9.53605 17.1385C9.56647 17.1395 9.5969 17.1376 9.62685 17.1319C10.0671 17.0506 10.5325 17.0525 10.9371 17.1376C11.5698 17.2697 12.0913 17.6676 12.4317 17.9976C11.4267 18.1953 9.87976 18.4193 9.10343 18.211C9.02451 18.1896 8.94037 18.1925 8.8624 18.2191L8.84386 18.2258C8.74688 18.2586 8.66559 18.3265 8.61615 18.4164C8.22727 19.1186 6.9917 20.0765 6.1512 20.6627C6.15024 20.1887 6.22678 19.5369 6.57097 18.9902C6.81153 18.6075 7.16095 18.2628 7.60972 17.9652C7.61971 17.9586 7.63017 17.951 7.63967 17.9434L7.67295 17.9168C7.82983 17.7908 7.87357 17.5707 7.77659 17.3943L7.66487 17.1922L7.60022 17.0758C7.59641 17.0677 7.59166 17.0606 7.5869 17.053C7.38106 16.7306 7.2004 16.4021 7.04542 16.0674C6.90756 15.7713 6.78966 15.4699 6.69173 15.1647C6.56479 14.7682 6.47162 14.3641 6.41124 13.9529C6.22251 12.655 6.36703 11.2854 6.84623 9.85444C7.51369 7.86204 8.61424 6.49289 8.62518 6.47957C8.76447 6.30843 8.7445 6.05742 8.57954 5.91052L8.55007 5.8839C8.16261 5.50738 7.73 5.29345 7.36252 5.17222C8.07371 4.58035 9.37203 3.79309 10.6133 4.56989L10.6185 4.56181C10.706 4.61173 10.8101 4.62837 10.9095 4.60697C10.9565 4.59699 11.0022 4.57892 11.0445 4.55183C11.0778 4.53091 14.4113 2.44247 16.9052 3.17221C17.8346 3.44414 18.5439 4.09164 19.0127 5.09759C19.0583 5.19552 19.1406 5.27158 19.2413 5.30961L20.9233 5.94332C20.9385 5.94903 20.9542 5.95378 20.9699 5.95806C21.0079 5.96709 21.1952 6.02747 21.1705 6.29654C21.1686 6.31841 21.1672 6.31984 21.1686 6.33838C21.1662 6.36358 21.1515 6.46531 21.0617 6.54756C20.9338 6.6645 20.6956 6.71727 20.3718 6.70159C20.1303 6.67544 17.4362 6.40684 15.6901 7.20836C15.6307 7.03342 15.5784 6.93025 15.5727 6.91932C15.4676 6.7168 15.218 6.63788 15.0155 6.74295C14.813 6.84801 14.7341 7.09759 14.8391 7.30011C14.842 7.30534 15.1035 7.83351 15.0331 8.57657C14.9556 9.39378 14.5235 10.1459 13.7448 10.8205C13.7833 9.81498 13.6735 8.26375 12.7664 7.39662C12.6014 7.23879 12.34 7.24497 12.1821 7.40993C12.0243 7.5749 12.0305 7.83637 12.1954 7.9942C13.0844 8.84326 12.9623 10.9122 12.8401 11.6372C12.8125 11.7988 12.8833 11.9619 13.0207 12.0517C13.0897 12.0969 13.1686 12.1197 13.2475 12.1197C13.3264 12.1197 13.4044 12.0974 13.4728 12.0527C15.2889 10.8708 15.7714 9.55256 15.856 8.65453C15.8765 8.4368 15.8755 8.23285 15.8608 8.04649C17.3935 7.21169 20.2635 7.52118 20.2929 7.5245C20.301 7.52545 20.3091 7.52593 20.3172 7.52641C20.8986 7.55731 21.3455 7.42514 21.6464 7.13277C21.9554 6.83232 21.992 6.46959 21.9953 6.35549C22.0557 5.60626 21.5157 5.25399 21.1967 5.16319H21.1962Z" fill="black"/>
</svg>
