<svg width="24" height="24" viewBox="0 0 24 24" fill="none" xmlns="http://www.w3.org/2000/svg">
<path d="M6.97721 6.39961C6.97721 7.05962 7.51258 7.59498 8.17258 7.59498C8.83258 7.59498 9.36795 7.05962 9.36795 6.39961C9.36795 5.73961 8.83258 5.20425 8.17258 5.20425C7.51258 5.20425 6.97721 5.73961 6.97721 6.39961Z" fill="black"/>
<path fill-rule="evenodd" clip-rule="evenodd" d="M11.2211 9.00284C10.9751 9.31582 10.7538 9.64802 10.5556 9.9934C10.2608 10.5079 10.0164 11.0559 9.83357 11.6198L12.6784 11.7642L11.818 13.3165L7.8596 13.1155L8.03476 12.2161C8.23847 11.1668 8.63985 10.1268 9.17082 9.20052C9.59362 8.46364 10.112 7.77728 10.7187 7.18152L10.772 7.13594L10.8499 7.16559L10.8752 7.17548L10.9252 7.19524L10.9801 7.21721L11.0289 7.23697L11.0838 7.25949L11.1311 7.27925L11.1602 7.29133L11.2316 7.32153L11.2859 7.34515L11.3282 7.36381L11.3584 7.37699L11.3864 7.38962L11.4281 7.40829L11.483 7.43355L11.5511 7.4654L11.6049 7.49065L11.6456 7.50987L11.6736 7.52305L11.7751 7.57302L11.885 7.62847L12.0036 7.68997L12.0178 7.69766C14.0237 8.76015 15.1729 10.168 16.2403 12.3336C16.9003 13.6723 17.3759 15.1147 17.7465 16.5578C18.1995 18.3192 18.5092 20.1285 18.7519 21.93L18.7612 22.0009H17.154L17.1463 21.9471C16.9152 20.2668 16.6231 18.5789 16.1992 16.9355C15.856 15.6062 15.4184 14.273 14.8105 13.0392C13.9847 11.3639 12.8601 9.933 11.2217 9.00394" fill="black"/>
<path fill-rule="evenodd" clip-rule="evenodd" d="M5.2992 2.30341C5.90539 2.15516 6.52641 2.05083 7.14963 2.0135C7.68115 1.9822 8.2187 1.99977 8.74418 2.08817C9.62327 2.23588 10.4502 2.57741 11.1173 3.17866C11.7548 3.75356 12.165 4.49318 12.3682 5.32505C12.5049 5.88567 12.5422 6.46715 12.5065 7.04205L12.5005 7.13869L12.4148 7.09311C12.2869 7.02503 12.1573 6.95859 12.0272 6.89489C11.6785 6.72413 11.3227 6.57148 10.9587 6.4364L10.9208 6.42213L10.9186 6.38149C10.9059 6.15252 10.8746 5.92355 10.8203 5.70008C10.6945 5.18503 10.4458 4.72105 10.0505 4.36469C9.61394 3.971 9.05606 3.7574 8.48282 3.66131C8.06166 3.59048 7.62953 3.5795 7.20454 3.60695C6.68949 3.6399 6.17609 3.7294 5.67478 3.85129L5.61438 3.86612L5.2388 2.31824L5.2992 2.30341Z" fill="black"/>
<path fill-rule="evenodd" clip-rule="evenodd" d="M15.1927 12.0124L9.65567 21.9992H7.83434L13.8007 11.2382L15.1927 12.0124Z" fill="black"/>
</svg>
