<svg width="24" height="24" viewBox="0 0 24 24" fill="none" xmlns="http://www.w3.org/2000/svg">
<path d="M10.721 8.97168C11.6683 10.6884 13.212 12.2486 14.5527 13.0264L15.8384 11.1762C16.0583 10.8541 16.3797 10.624 16.735 10.5273L17.2848 10.3754C17.9107 10.2051 18.469 9.80012 18.8581 9.23862L19.0442 8.96708C19.6659 8.06961 19.4967 6.79013 18.672 6.11357C17.8473 5.43701 16.6716 5.62111 16.0498 6.51859L15.8638 6.79013C15.4747 7.35162 15.2759 8.04659 15.297 8.75077L15.3182 9.36749C15.3309 9.7679 15.2167 10.1683 14.9925 10.4859L14.3497 11.4248C13.7237 10.9415 13.0894 10.3064 12.5438 9.59761C11.9559 8.83821 11.5076 8.0558 11.237 7.32861L10.721 8.97168ZM16.7139 7.4851L16.8999 7.21355C17.0606 6.98343 17.3059 6.85916 17.5512 6.85916C17.7204 6.85916 17.8938 6.919 18.0376 7.03866C18.3971 7.33322 18.469 7.89011 18.1983 8.28132L18.0122 8.55286C17.7669 8.90725 17.4159 9.16038 17.0268 9.26624L16.477 9.41812C16.4432 9.42732 16.4093 9.43653 16.3755 9.45034C16.3755 9.41352 16.3755 9.37209 16.3755 9.33527L16.3544 8.71855C16.3417 8.27671 16.4686 7.83948 16.7139 7.4851Z" fill="black"/>
<path d="M8.1832 14.8674C8.04363 14.8352 7.89983 14.803 7.75604 14.7799L7.05821 14.6557C6.77062 16.0226 6.21235 17.1042 5.40456 17.882C4.54602 18.7012 3.40412 19.1799 2 19.2995V20.5468C3.69594 20.4133 5.09161 19.8334 6.15738 18.8163C7.16395 17.8498 7.84486 16.5243 8.1832 14.8674Z" fill="black"/>
<path d="M19.0968 13.7758C19.0968 13.3322 18.7339 12.9693 18.2903 12.9693C17.8468 12.9693 17.4839 13.3322 17.4839 13.7758C17.4839 14.2193 17.8468 14.5822 18.2903 14.5822C18.7339 14.5822 19.0968 14.2193 19.0968 13.7758Z" fill="black"/>
<path d="M6.5212 8.96249C7.29092 8.37798 8.16214 8.04201 9.07144 7.97757L7.20632 13.8871L7.87456 14.0068C9.51552 14.3013 10.7843 14.9917 11.6344 16.0594C12.5014 17.1456 12.9412 18.6276 12.9412 20.4594H14.0831C14.0831 16.4507 12.1842 13.7997 8.71618 12.9252L10.6447 6.81315L9.9342 6.74872C8.48779 6.61985 7.06677 7.02947 5.86566 7.94536C4.74913 8.79681 3.88211 10.0164 3.35346 11.4892H4.59688C5.04518 10.4445 5.70495 9.57922 6.5212 8.96249Z" fill="black"/>
<path d="M10.871 5.71125C11.4944 5.71125 12 5.20564 12 4.58222C12 3.9588 11.4944 3.45319 10.871 3.45319C10.2475 3.45319 9.74194 3.9588 9.74194 4.58222C9.74194 5.20564 10.2475 5.71125 10.871 5.71125Z" fill="black"/>
<path d="M20.871 3.45319H22V20.0661H20.871V3.45319Z" fill="black"/>
</svg>
