<svg width="24" height="24" viewBox="0 0 24 24" fill="none" xmlns="http://www.w3.org/2000/svg">
<path d="M12.8083 10.8774C13.4266 10.8774 13.9281 10.3759 13.9281 9.75758C13.9281 9.13923 13.4266 8.63773 12.8083 8.63773C12.1899 8.63773 11.6884 9.13923 11.6884 9.75758C11.6884 10.3759 12.1899 10.8774 12.8083 10.8774Z" fill="black"/>
<path d="M10.3787 10.6388C9.44388 9.87434 8.77681 8.8616 8.4019 7.65897C7.618 7.4983 7.63749 7.52264 6.92662 7.20129C7.33561 9.05149 8.13898 10.5024 9.5461 11.6564C9.82363 11.8852 10.1207 12.0946 10.4274 12.2796C9.89669 12.7957 9.39032 13.3654 8.91804 13.974C9.58021 13.8133 10.2472 13.7062 10.9192 13.6526C11.1675 13.3897 11.4255 13.1365 11.6836 12.8979C13.154 13.4725 14.8581 13.6721 16.684 13.4725L16.9274 12.1141C14.3226 12.489 12.0001 11.968 10.3787 10.6388Z" fill="black"/>
<path d="M15.491 14.9429C14.2397 14.5729 13.1199 14.3879 12 14.3879C10.8802 14.3879 9.76029 14.5729 8.50897 14.9429C6.36177 15.5808 4.42395 15.5808 2.27188 14.9429L1.97 14.8553V16.2284C4.43855 16.949 6.40073 16.9392 8.88389 16.2089C10.0135 15.8729 11.0067 15.7074 12 15.7074C12.9933 15.7074 13.9865 15.8729 15.1161 16.2089C17.5944 16.9441 19.5566 16.949 22.03 16.2284V14.8553L21.7281 14.9429C19.5761 15.5808 17.6431 15.5808 15.491 14.9429Z" fill="black"/>
<path d="M15.491 17.3287C14.2397 16.9587 13.1199 16.7737 12 16.7737C10.8802 16.7737 9.76029 16.9587 8.50897 17.3287C6.36177 17.9665 4.42395 17.9665 2.27188 17.3287L1.97 17.2411V18.6141C4.43855 19.3347 6.40073 19.325 8.88389 18.5946C10.0135 18.2587 11.0067 18.0931 12 18.0931C12.9933 18.0931 13.9865 18.2587 15.1161 18.5946C17.5944 19.3298 19.5566 19.3347 22.03 18.6141V17.2411L21.7281 17.3287C19.5761 17.9665 17.6431 17.9665 15.491 17.3287Z" fill="black"/>
<path d="M8.04135 7.08937C8.6597 7.08937 9.1612 6.58786 9.1612 5.96951C9.1612 5.35116 8.6597 4.84966 8.04135 4.84966C7.42299 4.84966 6.92149 5.35116 6.92149 5.96951C6.92149 6.58786 7.42299 7.08937 8.04135 7.08937Z" fill="black"/>
</svg>
