<svg width="24" height="24" viewBox="0 0 24 24" fill="none" xmlns="http://www.w3.org/2000/svg">
<path d="M9.89574 5.81899C10.5333 5.81899 11.0463 5.3063 11.0463 4.66904C11.0463 4.03178 10.5333 3.5191 9.89574 3.5191C9.25815 3.5191 8.74521 4.03178 8.74521 4.66904C8.74521 5.30151 9.25815 5.81899 9.89574 5.81899Z" fill="black"/>
<path d="M9.89574 5.81899C10.5333 5.81899 11.0463 5.3063 11.0463 4.66904C11.0463 4.03178 10.5333 3.5191 9.89574 3.5191C9.25815 3.5191 8.74521 4.03178 8.74521 4.66904C8.74521 5.30151 9.25815 5.81899 9.89574 5.81899Z" fill="black"/>
<path fill-rule="evenodd" clip-rule="evenodd" d="M8.72797 4.66904C8.72797 4.02225 9.24864 3.50186 9.89574 3.50186C10.5428 3.50186 11.0635 4.02225 11.0635 4.66904C11.0635 5.31583 10.5428 5.83623 9.89574 5.83623C9.24859 5.83623 8.72797 5.31099 8.72797 4.66904ZM9.89574 3.53633C9.26766 3.53633 8.76244 4.04131 8.76244 4.66904C8.76244 5.29203 9.26771 5.80175 9.89574 5.80175C10.5238 5.80175 11.029 5.29678 11.029 4.66904C11.029 4.04131 10.5238 3.53633 9.89574 3.53633Z" fill="black"/>
<path d="M11.7467 16.5183C12.3843 16.5183 12.8972 16.0056 12.8972 15.3683C12.8972 14.7311 12.3843 14.2184 11.7467 14.2184C11.1091 14.2184 10.5962 14.7311 10.5962 15.3683C10.5962 16.0008 11.1139 16.5183 11.7467 16.5183Z" fill="black"/>
<path d="M11.7467 16.5183C12.3843 16.5183 12.8972 16.0056 12.8972 15.3683C12.8972 14.7311 12.3843 14.2184 11.7467 14.2184C11.1091 14.2184 10.5962 14.7311 10.5962 15.3683C10.5962 16.0008 11.1139 16.5183 11.7467 16.5183Z" fill="black"/>
<path fill-rule="evenodd" clip-rule="evenodd" d="M10.5789 15.3683C10.5789 14.7215 11.0996 14.2011 11.7467 14.2011C12.3938 14.2011 12.9145 14.7215 12.9145 15.3683C12.9145 16.0151 12.3938 16.5355 11.7467 16.5355C11.1044 16.5355 10.5789 16.0103 10.5789 15.3683ZM11.7467 14.2356C11.1186 14.2356 10.6134 14.7406 10.6134 15.3683C10.6134 15.9913 11.1234 16.501 11.7467 16.501C12.3748 16.501 12.88 15.9961 12.88 15.3683C12.88 14.7406 12.3748 14.2356 11.7467 14.2356Z" fill="black"/>
<path d="M15.0826 11.9472L13.8361 12.6659C11.9138 11.6166 9.77568 10.1361 8.33272 8.46863L6.61174 12.9582C8.19852 14.0507 9.62228 16.1876 10.2742 17.97C10.6578 19.0194 10.8831 20.1358 10.9598 21.3336H9.54079C9.46888 20.3035 9.27236 19.3452 8.94637 18.454C8.40466 16.9734 7.8869 16.0103 6.65008 14.8317C6.53982 15.9481 6.17067 17.0932 5.64814 18.2096C5.13519 19.2973 4.47367 20.361 3.76897 21.3336H2C2.88208 20.222 3.745 18.9331 4.3682 17.6107C4.86197 16.5614 5.20232 15.4929 5.25985 14.4963C5.29341 13.9692 5.24546 13.4613 5.10644 12.9822L8.08825 5.5171C9.26275 8.17155 12.6089 10.596 15.0826 11.9472Z" fill="black"/>
<path d="M15.6912 6.25982C15.207 5.07154 14.9242 3.78744 14.8331 2.38354H16.2521C16.3384 3.60057 16.5877 4.70739 17.0048 5.72318C17.58 7.12707 18.1169 8.05661 19.3058 9.13468C19.2483 7.82183 19.3634 6.44189 19.627 5.13383C19.8236 4.17075 20.1016 3.23642 20.4564 2.38354H22C21.5733 3.27475 21.2378 4.31449 21.0173 5.41173C20.5906 7.51038 20.5858 9.77673 21.1179 11.5783H21.1131L21.1994 11.77L15.3221 14.4436C15.8974 15.6846 16.8801 16.801 18.0258 17.7737C19.2339 18.8038 20.6146 19.6759 21.8897 20.3754L21.2138 21.6164C19.8619 20.8785 18.395 19.949 17.1054 18.8517C15.7823 17.7257 14.6414 16.4081 13.9798 14.9179L13.9846 14.9132L13.4477 13.7393L19.4017 11.0321C17.8245 9.97319 16.3863 7.96557 15.6912 6.25982Z" fill="black"/>
</svg>
