<svg width="24" height="24" viewBox="0 0 24 24" fill="none" xmlns="http://www.w3.org/2000/svg">
<path d="M11.015 21.0375H12.5713C13.7779 18.9099 14.4133 16.5114 14.4133 14.039C14.4133 13.9355 14.4133 13.8272 14.4083 13.7238C14.0488 14.6842 13.5317 15.5657 12.8766 16.3341C12.5762 18.0086 11.9458 19.5994 11.015 21.0375Z" fill="black"/>
<path d="M16.8461 4.09526C16.8461 4.72075 17.3534 5.22803 17.9788 5.22803C18.6043 5.22803 19.1116 4.72075 19.1116 4.09526C19.1116 3.46978 18.6043 2.96249 17.9788 2.96249C17.3534 2.96249 16.8461 3.46978 16.8461 4.09526Z" fill="black"/>
<path d="M6.87274 5.76982H5.53311C5.68579 7.30152 6.56738 8.61651 7.82327 9.37498C8.54234 9.80838 9.37961 10.0546 10.276 10.0546C10.8276 10.0546 11.3693 9.96106 11.8766 9.77883C11.8422 9.5572 11.7929 9.33558 11.7338 9.1238L11.5516 8.48354C11.1477 8.64607 10.7143 8.72979 10.271 8.72979C8.54234 8.72487 7.10915 7.43942 6.87274 5.76982Z" fill="black"/>
<path d="M12.5417 8.8923C12.7043 9.46853 12.788 10.0694 12.788 10.6801C12.788 14.3148 9.83294 17.2699 6.19823 17.2699C5.53334 17.2699 4.89802 17.1714 4.29224 16.9891V18.3682C4.90295 18.5208 5.54319 18.5996 6.19823 18.5996C10.5668 18.5996 14.1178 15.0486 14.1178 10.6801C14.1178 10.1679 14.0685 9.66061 13.9749 9.16318L19.7077 7.39508V6.00128L12.3694 8.26681L12.5417 8.8923Z" fill="black"/>
<path d="M12.3151 7.2473C12.9405 7.2473 13.4478 6.74002 13.4478 6.11454C13.4478 5.48905 12.9405 4.98177 12.3151 4.98177C11.6896 4.98177 11.1823 5.48905 11.1823 6.11454C11.1823 6.74002 11.6896 7.2473 12.3151 7.2473Z" fill="black"/>
</svg>
