<svg width="24" height="24" viewBox="0 0 24 24" fill="none" xmlns="http://www.w3.org/2000/svg">
<path d="M9.41263 15.2547C9.89812 16.2334 9.76607 17.4646 9.06308 18.5948H10.2554C10.873 17.3054 10.9196 15.9305 10.3487 14.7886C9.92143 13.9264 9.19512 13.2933 8.27464 12.9476C8.10764 13.2622 7.93288 13.573 7.74645 13.8759C8.49992 14.1167 9.0825 14.5944 9.41263 15.2547Z" fill="black"/>
<path d="M9.67295 9.2307C10.1235 9.82105 10.675 10.3298 11.3042 10.7338C12.3101 11.3785 14.6676 11.7319 14.6676 11.7319V10.6833C13.6695 10.6716 12.7024 10.3842 11.8673 9.84824C11.0517 9.32779 10.3992 8.59762 9.96813 7.7354L9.88657 8.18981C9.83219 8.54325 9.7584 8.88891 9.67295 9.2307Z" fill="black"/>
<path d="M5.43928 15.8412C7.40841 13.7089 8.72118 11.0252 9.24162 8.08119L9.33872 7.53744L8.32273 7.44816L8.09588 8.48123C7.54825 10.998 6.37142 13.2856 4.67028 15.1266C3.61774 16.2684 2.37878 17.2239 1 17.9696V19.1503C2.67396 18.3191 4.1809 17.2006 5.43928 15.8412Z" fill="black"/>
<path d="M9.96843 6.63632C10.4617 6.63632 10.8617 6.23628 10.8617 5.74303C10.8617 5.24977 10.4617 4.84973 9.96843 4.84973C9.47518 4.84973 9.07514 5.24977 9.07514 5.74303C9.07514 6.23628 9.47518 6.63632 9.96843 6.63632Z" fill="black"/>
<path d="M14.5464 15.2547C14.0586 16.2334 14.1913 17.4646 14.8977 18.5948H13.6995C13.079 17.3054 13.0321 15.9305 13.6058 14.7886C14.0351 13.9264 14.765 13.2933 15.6899 12.9476C15.8578 13.2622 16.0334 13.573 16.2207 13.8759C15.4636 14.1167 14.8781 14.5944 14.5464 15.2547Z" fill="black"/>
<path d="M14.2852 9.2307C13.8324 9.82105 13.2782 10.3298 12.646 10.7338C11.6352 11.3785 10.4682 11.7203 9.26618 11.7319V10.6833C10.2692 10.6716 11.241 10.3842 12.0801 9.84824C12.8997 9.32779 13.5553 8.59762 13.9885 7.7354L14.0705 8.18981C14.1251 8.54325 14.1993 8.88891 14.2852 9.2307Z" fill="black"/>
<path d="M18.5391 15.8412C16.5604 13.7089 15.2413 11.0252 14.7183 8.08119L14.6207 7.53744L15.6417 7.44816L15.8696 8.48123C16.4199 10.998 17.6025 13.2856 19.3119 15.1266C20.3695 16.2684 21.6145 17.2239 23 17.9696V19.1503C21.3179 18.3191 19.8036 17.2006 18.5391 15.8412Z" fill="black"/>
<path d="M13.9884 6.63632C13.4928 6.63632 13.0908 6.23628 13.0908 5.74303C13.0908 5.24977 13.4928 4.84973 13.9884 4.84973C14.4841 4.84973 14.8861 5.24977 14.8861 5.74303C14.8861 6.23628 14.4841 6.63632 13.9884 6.63632Z" fill="black"/>
</svg>
