<svg width="24" height="24" viewBox="0 0 24 24" fill="none" xmlns="http://www.w3.org/2000/svg">
<path d="M13.8454 5.32285C14.4646 5.32285 14.9668 4.82066 14.9668 4.20146C14.9668 3.58225 14.4646 3.08006 13.8454 3.08006C13.2262 3.08006 12.724 3.58225 12.724 4.20146C12.724 4.82066 13.2262 5.32285 13.8454 5.32285Z" fill="black"/>
<path d="M13.792 8.54564C15.5179 10.1448 17.8729 11.1492 20.3302 11.3004V9.98395C18.0191 9.82306 15.83 8.80893 14.3185 7.2146L13.792 8.54564Z" fill="black"/>
<path d="M9.26269 13.7235L5.03551 20.9199H6.56157L10.2524 14.6304C9.95502 14.3037 9.62348 14.0014 9.26269 13.7235Z" fill="black"/>
<path d="M6.01025 6.05422C6.62945 6.55153 7.36566 6.97084 8.19452 7.29263C9.24765 7.70218 10.4324 7.95084 11.6611 8.02397L9.74498 12.8898L9.67673 13.002C9.6816 13.0069 9.68647 13.0117 9.69623 13.0166L9.67673 13.0605L10.0716 13.3628C10.2569 13.5042 10.4373 13.6553 10.608 13.8113C10.6323 13.8357 10.6616 13.865 10.686 13.8893L10.6908 13.8845C11.5636 14.7036 12.2023 15.6787 12.5923 16.805L9.2623 17.98V19.311L9.2818 19.3647L14.1964 17.6338L14.0404 17.0488C13.5772 15.2887 12.646 13.8065 11.2662 12.6314L12.802 8.73094L13.1384 7.87282C13.1433 7.8777 13.1482 7.88745 13.1579 7.89233L13.4602 7.12685L13.4212 7.16098L13.5967 6.7173L12.6167 6.73193C10.213 6.76118 8.05802 6.08347 6.7026 4.9182C6.62459 5.2985 6.4393 5.64466 6.15652 5.92257C6.10776 5.97133 6.059 6.01521 6.01025 6.05422Z" fill="black"/>
<path d="M4.77187 5.65435C4.77674 5.65435 4.78649 5.65435 4.79137 5.65435C5.40082 5.65435 5.90301 5.16679 5.91276 4.55246C5.92251 3.93326 5.43007 3.42132 4.81086 3.41156C4.80599 3.41156 4.79624 3.41156 4.79137 3.41156C4.18191 3.41156 3.67972 3.89913 3.66997 4.51346C3.66022 5.13266 4.15266 5.6446 4.77187 5.65435Z" fill="black"/>
</svg>
