<svg width="24" height="24" viewBox="0 0 24 24" fill="none" xmlns="http://www.w3.org/2000/svg">
<path d="M15.0734 20.7905H16.4506L16.4557 20.6885C16.5373 18.6839 16.0425 16.7098 15.0326 14.9807C14.5174 14.1033 13.8849 13.3076 13.1555 12.6241C12.88 12.9914 12.5893 13.3484 12.2781 13.6902C12.8851 14.2717 13.4156 14.9399 13.8492 15.6795C14.7265 17.1842 15.155 18.8981 15.0887 20.6375L15.0734 20.7905Z" fill="black"/>
<path d="M14.9254 6.47765L15.0529 5.77884L14.349 5.67682C12.6913 5.43708 11.0437 5.73293 9.57468 6.53885C8.10565 7.34478 6.96818 8.57407 6.27957 10.0992L6.14695 10.39H7.66699C8.23828 9.26778 9.12072 8.35984 10.2327 7.74774C11.2171 7.20706 12.3036 6.94692 13.4105 6.97752C12.7882 9.49222 11.3345 11.7723 9.26354 13.4657C7.21812 15.1388 4.66772 16.1386 2 16.3477V17.73C4.98397 17.5209 7.84041 16.4089 10.1358 14.5369C12.6607 12.4609 14.3643 9.60443 14.9254 6.47765Z" fill="black"/>
<path d="M15.0064 21.055C15.0064 21.5095 15.375 21.8782 15.8296 21.8782C16.2841 21.8782 16.6528 21.5095 16.6528 21.055C16.6528 20.6004 16.2841 20.2318 15.8296 20.2318C15.375 20.2318 15.0064 20.6004 15.0064 21.055Z" fill="black"/>
<path d="M2.87586 15.9636C2.42137 15.9566 2.04715 16.3196 2.04021 16.7741C2.03328 17.2286 2.39627 17.6028 2.85076 17.6097C3.30525 17.6167 3.67947 17.2537 3.6864 16.7992C3.69333 16.3447 3.33035 15.9705 2.87586 15.9636Z" fill="black"/>
<path d="M15.114 4.46798C15.7618 4.46798 16.2871 3.9426 16.2871 3.2948C16.2871 2.64699 15.7618 2.12161 15.114 2.12161C14.4662 2.12161 13.9408 2.64699 13.9408 3.2948C13.9408 3.9426 14.4662 4.46798 15.114 4.46798Z" fill="black"/>
<path d="M13.1954 21.055C13.1954 21.5095 13.564 21.8782 14.0186 21.8782C14.4731 21.8782 14.8417 21.5095 14.8417 21.055C14.8417 20.6004 14.4731 20.2318 14.0186 20.2318C13.564 20.2318 13.1954 20.6004 13.1954 21.055Z" fill="black"/>
<path d="M16.8174 21.055C16.8174 21.5095 17.186 21.8782 17.6406 21.8782C18.0951 21.8782 18.4638 21.5095 18.4638 21.055C18.4638 20.6004 18.0951 20.2318 17.6406 20.2318C17.186 20.2318 16.8174 20.6004 16.8174 21.055Z" fill="black"/>
<path d="M2.90343 14.1527C2.44894 14.1458 2.07472 14.5088 2.06779 14.9632C2.06086 15.4177 2.42384 15.792 2.87833 15.7989C3.33282 15.8058 3.70704 15.4428 3.71398 14.9883C3.72091 14.5339 3.35792 14.1596 2.90343 14.1527Z" fill="black"/>
<path d="M2.84821 17.7743C2.39371 17.7674 2.01949 18.1304 2.01256 18.5849C2.00563 19.0394 2.36861 19.4136 2.8231 19.4205C3.27759 19.4275 3.65182 19.0645 3.65875 18.61C3.66568 18.1555 3.3027 17.7813 2.84821 17.7743Z" fill="black"/>
<path d="M15.777 6.63066C15.6546 7.25806 15.5169 7.81915 15.3435 8.38024C15.8892 9.02804 16.5268 9.59422 17.2461 10.0533C18.5876 10.9102 20.1433 11.3693 21.745 11.3693C21.8317 11.3693 21.9133 11.3693 22 11.3642V9.98698C21.9133 9.99208 21.8317 9.99209 21.745 9.99209C20.4085 9.99209 19.1078 9.61463 17.9908 8.89542C17.0879 8.31393 16.3279 7.5386 15.777 6.63066Z" fill="black"/>
</svg>
