<svg width="24" height="24" viewBox="0 0 24 24" fill="none" xmlns="http://www.w3.org/2000/svg">
<path d="M20.633 8.40355V6.93226L12.5869 9.93102C13.343 10.1609 14.1348 10.355 14.9675 10.5185L20.633 8.40355Z" fill="black"/>
<path d="M8.29565 8.04083C10.5894 5.89011 12.7146 3.3358 13.2357 2.70233H11.4323C10.4617 3.83644 8.78096 5.72663 7.0798 7.28987L8.17304 7.97442C8.21391 7.99485 8.25478 8.0204 8.29565 8.04083Z" fill="black"/>
<path d="M8.0404 15.8059V10.4879C11.3457 12.2606 15.4836 13.2056 20.6331 13.3742V11.9949C15.1925 11.811 10.9676 10.7382 7.71345 8.71008L6.66107 8.05106V15.8059C6.67129 15.8059 6.6764 15.8059 6.68662 15.8059H8.0404Z" fill="black"/>
<path d="M8.27032 16.6744H6.68665C5.74155 16.6744 4.97526 17.4407 4.97526 18.3858V19.0499H6.35459V18.3858C6.35459 18.2019 6.50274 18.0537 6.68665 18.0537H8.27032C8.45423 18.0537 8.60238 18.2019 8.60238 18.3858V19.0499H9.9817V18.3858C9.9817 17.4407 9.21541 16.6744 8.27032 16.6744Z" fill="black"/>
<path d="M17.6703 16.6744H16.0867C15.1416 16.6744 14.3753 17.4407 14.3753 18.3858V19.0499H15.7546V18.3858C15.7546 18.2019 15.9028 18.0537 16.0867 18.0537H17.6703C17.8542 18.0537 18.0024 18.2019 18.0024 18.3858V19.0499H19.3817V18.3858C19.3817 17.4407 18.6154 16.6744 17.6703 16.6744Z" fill="black"/>
<path d="M20.6335 19.9184H3.72395V21.2977H20.6335V19.9184Z" fill="black"/>
<path d="M5.71648 6.94248C5.71648 6.29369 5.19029 5.7675 4.5415 5.7675C3.8927 5.7675 3.36652 6.29369 3.36652 6.94248C3.36652 7.59128 3.8927 8.11746 4.5415 8.11746C5.19029 8.11746 5.71648 7.59128 5.71648 6.94248Z" fill="black"/>
</svg>
