<svg width="24" height="24" viewBox="0 0 24 24" fill="none" xmlns="http://www.w3.org/2000/svg">
<path fill-rule="evenodd" clip-rule="evenodd" d="M9.36727 20.1066H10.6693L10.1093 16.205C10.096 15.9029 10.0427 15.6985 9.80275 15.4941L5.75452 12.6012C5.71453 12.5657 5.67012 12.5346 5.62568 12.5079L4.94133 13.6144L8.81624 16.3606L9.36727 20.1066Z" fill="black"/>
<path fill-rule="evenodd" clip-rule="evenodd" d="M1.52588e-05 20.1333H1.43979L2.6707 17.5649C2.81734 17.2582 2.87067 17.0983 2.87956 16.7428L2.98618 12.2858L4.0971 8.67303C4.41261 7.66876 5.89235 7.66876 6.64333 8.27755C6.96772 8.54417 7.75429 10.2417 8.01202 10.7171C8.27864 11.2104 8.55412 11.3792 9.09625 11.3881L12.4423 11.4415L12.4646 10.1439L9.15401 10.0906C8.83851 9.504 8.10089 7.97982 7.7365 7.52656C6.6478 6.17123 3.51056 6.31343 2.94622 8.05092L1.68862 12.0769L1.5731 16.8494L1.52588e-05 20.1333Z" fill="black"/>
<path d="M7.30105 6.0157C7.89206 6.0157 8.36753 5.54022 8.36753 4.94921C8.36753 4.3582 7.89206 3.88273 7.30105 3.88273C6.71004 3.88273 6.23456 4.3582 6.23456 4.94921C6.23456 5.54022 6.71004 6.0157 7.30105 6.0157Z" fill="black"/>
<path fill-rule="evenodd" clip-rule="evenodd" d="M15.1704 16.3029L15.166 20.0978H16.4635L16.468 16.7206L18.5609 13.5211L17.5656 12.659L15.1704 16.3029Z" fill="black"/>
<path fill-rule="evenodd" clip-rule="evenodd" d="M9.53578 12.8279V14.1343H13.7617C14.1794 14.1343 14.4683 13.9477 14.606 13.5566L15.9925 9.67285C16.0769 9.43733 16.2147 9.22847 16.4102 9.0685C16.6146 8.90408 16.8634 8.81077 17.1212 8.77522C17.4144 8.73079 17.7166 8.76189 17.9921 8.86853C18.2854 8.97963 18.5431 9.16627 18.752 9.39734C19.1341 9.81949 19.5163 10.2505 19.8763 10.6949C20.134 11.0148 20.3873 11.3481 20.6006 11.6947L20.6672 11.8058V11.8147C20.8672 12.1613 21.0138 12.5346 21.0138 12.9434V16.2628C21.0138 16.5606 21.0538 16.8805 21.1827 17.1516L22.5558 20.0933H24L22.3203 16.4984V12.9478C22.3203 12.2902 22.1203 11.7392 21.8004 11.1837L21.707 11.0282C21.4759 10.6505 21.2094 10.2905 20.9338 9.94392C20.5472 9.45955 20.134 8.98852 19.7163 8.53082C19.3652 8.14422 18.9386 7.83761 18.4498 7.65542C17.9654 7.47322 17.45 7.41545 16.9389 7.49099C16.4457 7.56209 15.9836 7.74873 15.5925 8.05978C15.2059 8.37084 14.9304 8.77077 14.7615 9.23736L13.4818 12.8279H9.53578Z" fill="black"/>
<path d="M15.1171 7.14434C15.7081 7.14434 16.1836 6.66887 16.1836 6.07786C16.1836 5.48685 15.7081 5.01137 15.1171 5.01137C14.5261 5.01137 14.0506 5.48685 14.0506 6.07786C14.0506 6.66442 14.5261 7.14434 15.1171 7.14434Z" fill="black"/>
<path fill-rule="evenodd" clip-rule="evenodd" d="M6.21795 4.94925C6.21795 4.34935 6.70063 3.86667 7.30053 3.86667C7.90043 3.86667 8.38311 4.34935 8.38311 4.94925C8.38311 5.54915 7.90043 6.03183 7.30053 6.03183C6.70063 6.03183 6.21795 5.54915 6.21795 4.94925ZM7.30053 3.89886C6.71841 3.89886 6.25014 4.36713 6.25014 4.94925C6.25014 5.53137 6.71841 5.99964 7.30053 5.99964C7.88265 5.99964 8.35092 5.53137 8.35092 4.94925C8.35092 4.36713 7.88265 3.89886 7.30053 3.89886ZM14.0344 6.07789C14.0344 5.47799 14.5171 4.99531 15.117 4.99531C15.7169 4.99531 16.1996 5.47799 16.1996 6.07789C16.1996 6.67779 15.7169 7.16047 15.117 7.16047C14.5171 7.16047 14.0344 6.67331 14.0344 6.07789ZM15.117 5.0275C14.5349 5.0275 14.0666 5.49577 14.0666 6.07789C14.0666 6.65562 14.5349 7.12829 15.117 7.12829C15.6991 7.12829 16.1674 6.66002 16.1674 6.07789C16.1674 5.49577 15.6991 5.0275 15.117 5.0275Z" fill="black"/>
</svg>
