<svg width="24" height="24" viewBox="0 0 24 24" fill="none" xmlns="http://www.w3.org/2000/svg">
<path d="M12.6325 10.058C10.1129 9.38645 7.71301 8.35049 5.49534 6.97616V8.61599C7.39026 9.70921 9.4049 10.5786 11.5028 11.2033C11.9141 10.8545 12.2889 10.4745 12.6325 10.058Z" fill="black"/>
<path d="M10.5814 14.4725C11.9297 13.8373 13.1479 12.9315 14.1214 11.8383C15.7352 12.1559 17.3854 12.3277 19.0408 12.3589C19.2178 12.3641 19.3896 12.3641 19.5666 12.3641C20.0195 12.3641 20.462 12.3537 20.8889 12.3329L21.3314 12.312L22.7109 8.97513L22.6485 8.74607C22.4194 7.8767 21.9665 6.59087 21.118 5.40915C19.931 3.75892 18.3537 2.80105 16.4327 2.55638C13.9912 2.24923 12.0026 2.91558 10.2534 3.50383C9.11338 3.88906 8.12948 4.21702 7.21326 4.21702C6.80721 4.21702 6.2606 4.13373 5.97428 3.7433C5.76085 3.45177 5.70878 3.03531 5.82852 2.5772H4.39692C4.2876 3.32163 4.44378 4.02962 4.84462 4.57623C5.19862 5.05516 5.89619 5.62259 7.21847 5.62259C8.36374 5.62259 9.49861 5.24257 10.7064 4.83652C12.393 4.26908 14.1422 3.68083 16.2609 3.95153C17.781 4.14414 19.0356 4.9094 19.9831 6.23167C20.639 7.14789 21.0243 8.1422 21.2377 8.88142L20.3839 10.9481C19.9623 10.9585 19.5198 10.9637 19.0721 10.9533C17.224 10.9221 15.3812 10.6982 13.5956 10.2922C13.5123 10.3963 13.4238 10.5056 13.3301 10.615H13.3249C13.2364 10.7243 13.1427 10.8336 13.049 10.9377C13.0281 10.9637 13.0021 10.9898 12.9813 11.0106L12.9761 11.021C11.128 13.0304 8.47307 14.1705 5.60988 14.1705C4.05855 14.1705 2.59051 13.8321 1.28906 13.2231V14.7588C2.63736 15.295 4.10019 15.5761 5.60988 15.5761C7.34861 15.5761 9.02488 15.2065 10.5814 14.4725Z" fill="black"/>
<path d="M11.5394 14.9826C11.3468 15.0867 11.1542 15.1856 10.9564 15.2741C10.7273 15.3834 10.4931 15.4824 10.2588 15.5761L13.8716 21.5211H15.5167L11.5394 14.9826Z" fill="black"/>
<path d="M16.2197 7.98612C16.2197 7.32499 15.6835 6.78879 15.0224 6.78879C14.3612 6.78879 13.825 7.32499 13.825 7.98612C13.825 8.64726 14.3612 9.18346 15.0224 9.18346C15.6835 9.18346 16.2197 8.64726 16.2197 7.98612Z" fill="black"/>
</svg>
