<svg width="24" height="24" viewBox="0 0 24 24" fill="none" xmlns="http://www.w3.org/2000/svg">
<path d="M11.9209 2H12.1028C13.2482 2.03235 14.2542 2.41062 15.1209 3.1348C15.4351 3.39755 15.064 3.83088 14.7385 3.56373C12.9508 2.09706 10.3155 2.30931 8.81354 4.02941C6.94835 6.16569 7.38904 9.77451 8.55276 12.1039C9.21305 13.426 10.3694 14.7814 11.9483 14.8172C13.0052 14.8417 13.94 14.2289 14.5856 13.4426C16.3812 11.2549 17.0792 7.54804 15.816 4.95147C15.7292 4.77353 15.4425 4.41127 15.4655 4.22059C15.4881 4.03431 15.7273 3.91029 15.8881 4.00637C15.9358 4.03448 15.9899 4.09624 16.0503 4.19167C17.0189 5.71961 17.1787 7.51863 16.9376 9.275C16.9098 9.47761 16.8952 9.67141 16.8939 9.85637C16.8877 10.707 16.889 11.3368 16.8979 11.7456C16.9067 12.1642 16.9987 12.5719 17.1738 12.9686C17.2479 13.1363 17.4993 13.4662 17.5037 13.6412C17.5091 13.8348 17.2797 13.9804 17.117 13.9093C17.0477 13.8789 16.9773 13.8087 16.9057 13.6985C16.5191 13.1034 16.3217 12.449 16.3135 11.7353C16.3136 11.7294 16.3116 11.7236 16.3079 11.719C16.3041 11.7145 16.2988 11.7114 16.293 11.7103C16.2872 11.7093 16.2812 11.7103 16.2761 11.7133C16.2709 11.7162 16.267 11.7209 16.265 11.7265C15.9304 12.5853 15.455 13.3593 14.839 14.0485C14.8165 14.0735 14.7518 14.1245 14.7233 14.1706C14.7149 14.1846 14.7124 14.1995 14.716 14.2152C15.1974 16.2358 16.8356 17.7176 18.8797 18.0127C19.3488 18.0804 19.9037 18.0716 20.4077 18.0632C20.4181 18.0631 20.4281 18.0589 20.4354 18.0516C20.4428 18.0442 20.4469 18.0343 20.4469 18.024V15.4446C20.4469 15.4376 20.4455 15.4307 20.4427 15.4243C20.4399 15.4179 20.4358 15.4121 20.4306 15.4073C20.4255 15.4025 20.4194 15.3988 20.4127 15.3965C20.4061 15.3941 20.399 15.3932 20.392 15.3936C19.5371 15.4574 18.7506 15.2668 18.0327 14.8221C17.8493 14.7083 17.7067 14.575 17.8219 14.3578C17.9189 14.174 18.1263 14.1882 18.2856 14.2892C18.8323 14.6369 19.4343 14.8124 20.0915 14.8157C20.466 14.8176 20.8408 14.819 21.216 14.8196C21.7204 14.8206 21.9175 15.0647 21.9175 15.5613C21.9175 16.3557 21.9175 17.1502 21.9175 17.9446C21.9175 18.3873 21.718 18.6402 21.2577 18.6412C20.365 18.6441 19.4003 18.7137 18.5229 18.5456C18.5026 18.5417 18.4753 18.5415 18.441 18.5451C18.4256 18.5467 18.4124 18.5529 18.4013 18.5637C17.3763 19.55 16.0547 20.1431 14.6111 20.0417C14.5931 20.0404 14.5809 20.048 14.5743 20.0647C14.5302 20.175 14.4964 20.3029 14.4528 20.3946C13.9809 21.3832 13.1884 21.9183 12.0753 22H11.9248C10.6758 21.8958 9.84459 21.2539 9.43119 20.0745C9.42237 20.0487 9.40439 20.0369 9.37727 20.0392C7.93119 20.1618 6.62384 19.5206 5.591 18.5549C5.57858 18.5431 5.56403 18.5384 5.54737 18.5407C5.28854 18.5735 5.02776 18.6304 4.77384 18.6343C4.09149 18.6444 3.40897 18.6466 2.72629 18.6407C2.30178 18.6373 2.08854 18.3843 2.09002 17.9716C2.09263 17.1863 2.09018 16.4008 2.08266 15.6152C2.07678 15.023 2.30178 14.8186 2.88315 14.8186C3.57188 14.8196 4.26551 14.8667 4.93364 14.6647C5.11256 14.6108 5.3008 14.5152 5.48462 14.4382C5.92825 14.252 6.10913 14.7784 5.74639 14.9632C5.0807 15.3028 4.366 15.4448 3.60227 15.3892C3.59831 15.3889 3.59434 15.3895 3.59061 15.3909C3.58687 15.3922 3.58345 15.3943 3.58055 15.3971C3.57766 15.3999 3.57535 15.4032 3.57377 15.4069C3.57219 15.4106 3.57138 15.4146 3.57139 15.4186V18.0451C3.57138 18.0501 3.57328 18.0549 3.57666 18.0584C3.58005 18.062 3.58467 18.0641 3.58952 18.0642C4.16551 18.0745 4.78903 18.0804 5.32629 17.9799C7.29639 17.6113 8.83119 16.1603 9.29394 14.2113C9.29546 14.2053 9.2954 14.1989 9.29378 14.1929C9.29215 14.1868 9.289 14.1811 9.28462 14.1765C8.61436 13.4542 8.10325 12.6435 7.75129 11.7441C7.74573 11.7294 7.73593 11.7209 7.72188 11.7186C7.71888 11.7181 7.7158 11.7181 7.71284 11.7189C7.70988 11.7196 7.70712 11.721 7.70474 11.7229C7.70236 11.7248 7.70043 11.7272 7.69907 11.73C7.69772 11.7327 7.69697 11.7357 7.69688 11.7387C7.67204 12.6358 7.37351 13.4232 6.80129 14.101C6.58462 14.3574 6.11109 14.0456 6.41747 13.6554C6.96992 12.9515 7.10913 12.2794 7.11256 11.3598C7.1142 10.8605 7.11452 10.3613 7.11354 9.86225C7.11305 9.51176 7.05325 9.16618 7.016 8.81373C6.85619 7.30441 7.06403 5.72402 7.83217 4.40049C8.69933 2.90637 10.1743 2.06422 11.9209 2ZM6.31452 18.4113C7.15619 19.1324 8.17629 19.524 9.29639 19.4603C9.30527 19.4598 9.31363 19.4559 9.31974 19.4494C9.32585 19.443 9.32924 19.4344 9.32923 19.4255C9.3325 19.1905 9.35341 18.9538 9.39198 18.7152C9.60145 17.4155 9.8106 16.1152 10.0194 14.8142C10.0224 14.7953 10.0162 14.7801 10.0008 14.7686L9.81747 14.6338C9.80341 14.6234 9.79377 14.6265 9.78855 14.6431C9.2258 16.4275 8.01894 17.6863 6.26894 18.3515C6.26683 18.3522 6.26494 18.3535 6.26342 18.3551C6.26189 18.3568 6.26077 18.3587 6.26015 18.3609C6.25953 18.363 6.25942 18.3653 6.25984 18.3675C6.26026 18.3697 6.26119 18.3718 6.26256 18.3735C6.27727 18.3931 6.29884 18.3975 6.31452 18.4113ZM17.7263 18.3431C15.9743 17.6771 14.8052 16.4533 14.2189 14.6716C14.2171 14.6658 14.2139 14.6606 14.2096 14.6563C14.2054 14.652 14.2001 14.6488 14.1944 14.647C14.1886 14.6452 14.1825 14.6448 14.1765 14.6458C14.1706 14.6468 14.1649 14.6493 14.1601 14.6529L14.0033 14.7691C13.9889 14.7799 13.9832 14.794 13.9861 14.8113C14.208 16.1861 14.4284 17.5613 14.6474 18.9368C14.6608 19.0211 14.6711 19.1851 14.6783 19.4289C14.6784 19.4364 14.6813 19.4435 14.6865 19.4489C14.6917 19.4543 14.6987 19.4575 14.7062 19.4578C15.8459 19.5348 16.8797 19.1093 17.7327 18.3814C17.7519 18.365 17.7498 18.3523 17.7263 18.3431ZM9.93119 19.552C10.0371 20.5868 10.9469 21.4211 11.991 21.4123C13.0866 21.4029 13.9787 20.598 14.0792 19.5191C14.0956 19.3404 14.0784 19.092 14.0278 18.774C13.834 17.5567 13.639 16.3415 13.443 15.1284C13.4423 15.124 13.4406 15.1198 13.438 15.1161C13.4354 15.1124 13.4321 15.1094 13.4281 15.1072C13.4242 15.105 13.4198 15.1038 13.4154 15.1035C13.4109 15.1033 13.4064 15.1041 13.4023 15.1059C12.4653 15.5118 11.5299 15.5105 10.5959 15.102C10.5786 15.0944 10.5684 15.1 10.5655 15.1186C10.3769 16.2794 10.1908 17.4374 10.0072 18.5926C9.93658 19.0374 9.91126 19.3572 9.93119 19.552ZM2.98364 15.4358C2.98364 15.4268 2.98008 15.4182 2.97374 15.4119C2.96739 15.4055 2.95879 15.402 2.94982 15.402H2.69884C2.68987 15.402 2.68126 15.4055 2.67492 15.4119C2.66858 15.4182 2.66502 15.4268 2.66502 15.4358V18.0319C2.66502 18.0408 2.66858 18.0494 2.67492 18.0558C2.68126 18.0621 2.68987 18.0657 2.69884 18.0657H2.94982C2.95879 18.0657 2.96739 18.0621 2.97374 18.0558C2.98008 18.0494 2.98364 18.0408 2.98364 18.0319V15.4358ZM21.3415 15.4387C21.3415 15.4287 21.3375 15.4191 21.3304 15.412C21.3234 15.405 21.3138 15.401 21.3037 15.401H21.0606C21.0506 15.401 21.041 15.405 21.0339 15.412C21.0268 15.4191 21.0229 15.4287 21.0229 15.4387V18.0279C21.0229 18.038 21.0268 18.0476 21.0339 18.0546C21.041 18.0617 21.0506 18.0657 21.0606 18.0657H21.3037C21.3138 18.0657 21.3234 18.0617 21.3304 18.0546C21.3375 18.0476 21.3415 18.038 21.3415 18.0279V15.4387Z" fill="black"/>
<path d="M12.0028 3.10391C14.4489 3.08871 15.8675 5.13724 15.9984 7.39558C16.0879 8.94067 15.7943 10.4103 15.1175 11.8044C14.4812 13.1162 13.1861 14.5966 11.542 14.2583C10.239 13.9907 9.32434 12.7549 8.80228 11.623C8.02287 9.93332 7.71258 7.83479 8.25424 6.00783C8.76356 4.29116 10.1812 3.11567 12.0028 3.10391ZM13.9489 4.31371C12.7376 3.47009 11.2498 3.48773 10.0611 4.31126C10.0582 4.31329 10.0559 4.31623 10.0548 4.31962C10.0536 4.32302 10.0536 4.32669 10.0547 4.33011C10.0558 4.33352 10.058 4.33649 10.0609 4.33857C10.0638 4.34065 10.0673 4.34173 10.0709 4.34165L13.94 4.34116C13.9432 4.34113 13.9463 4.34009 13.9489 4.3382C13.9514 4.33631 13.9534 4.33366 13.9543 4.33062C13.9553 4.32758 13.9553 4.32431 13.9543 4.32128C13.9533 4.31825 13.9514 4.3156 13.9489 4.31371ZM14.9895 5.70097C14.9938 5.7009 14.998 5.69973 15.0017 5.69758C15.0054 5.69542 15.0085 5.69235 15.0106 5.68868C15.0128 5.68501 15.0139 5.68086 15.0139 5.67665C15.0139 5.67244 15.0128 5.66832 15.0106 5.66469L14.5935 4.95293C14.5891 4.94561 14.583 4.93955 14.5756 4.93534C14.5682 4.93113 14.5598 4.92891 14.5513 4.92891H9.47336C9.45441 4.92891 9.43954 4.93659 9.42875 4.95195C9.26307 5.18561 9.11829 5.43169 8.99444 5.69018C8.99384 5.6914 8.99358 5.69275 8.99366 5.69411C8.99374 5.69546 8.99418 5.69677 8.99492 5.6979C8.99566 5.69904 8.99668 5.69996 8.99789 5.70059C8.99909 5.70121 9.00044 5.70151 9.00179 5.70146L14.9895 5.70097ZM8.62581 6.99607C8.62421 7.00397 8.62439 7.01214 8.62634 7.01997C8.62828 7.0278 8.63195 7.0351 8.63706 7.04134C8.64217 7.04758 8.64861 7.0526 8.65591 7.05605C8.6632 7.0595 8.67117 7.06128 8.67924 7.06126H15.3248C15.3329 7.0612 15.3408 7.05937 15.348 7.05589C15.3552 7.05242 15.3616 7.04738 15.3667 7.04115C15.3717 7.03492 15.3754 7.02765 15.3773 7.01985C15.3792 7.01206 15.3794 7.00393 15.3778 6.99607L15.2454 6.33283C15.2429 6.3205 15.2362 6.30942 15.2265 6.30147C15.2168 6.29351 15.2046 6.28918 15.192 6.2892H8.81552C8.80294 6.28918 8.79075 6.29351 8.781 6.30147C8.77126 6.30942 8.76458 6.3205 8.76209 6.33283L8.62581 6.99607ZM15.4405 7.69606C15.4405 7.68371 15.4356 7.67187 15.4269 7.66314C15.4181 7.6544 15.4063 7.6495 15.3939 7.6495H8.61552C8.60317 7.6495 8.59132 7.6544 8.58259 7.66314C8.57385 7.67187 8.56895 7.68371 8.56895 7.69606V8.36273C8.56895 8.37508 8.57385 8.38693 8.58259 8.39566C8.59132 8.40439 8.60317 8.4093 8.61552 8.4093H15.3939C15.4063 8.4093 15.4181 8.40439 15.4269 8.39566C15.4356 8.38693 15.4405 8.37508 15.4405 8.36273V7.69606ZM15.2003 9.76959C15.2078 9.76961 15.215 9.76702 15.2207 9.76227C15.2264 9.75753 15.2303 9.75093 15.2317 9.74361L15.3631 9.03528C15.3639 9.03067 15.3638 9.02593 15.3626 9.0214C15.3614 9.01686 15.3593 9.01264 15.3563 9.00903C15.3533 9.00543 15.3495 9.00253 15.3453 9.00054C15.341 8.99855 15.3364 8.99753 15.3317 8.99754H8.67777C8.67308 8.99753 8.66845 8.99855 8.66421 9.00054C8.65996 9.00253 8.65621 9.00543 8.65321 9.00903C8.65021 9.01264 8.64805 9.01686 8.64687 9.0214C8.6457 9.02593 8.64553 9.03067 8.6464 9.03528L8.77434 9.74361C8.77571 9.75093 8.7796 9.75753 8.78533 9.76227C8.79106 9.76702 8.79827 9.76961 8.80571 9.76959H15.2003ZM14.7778 11.1299C14.7824 11.1299 14.7868 11.1285 14.7906 11.1258C14.7944 11.1232 14.7973 11.1195 14.7989 11.1152L15.064 10.3877C15.0653 10.3843 15.0657 10.3807 15.0653 10.3771C15.0648 10.3735 15.0635 10.37 15.0614 10.367C15.0594 10.3641 15.0566 10.3616 15.0534 10.3599C15.0502 10.3582 15.0466 10.3574 15.043 10.3573L8.96552 10.3578C8.96184 10.3578 8.95821 10.3586 8.95493 10.3602C8.95165 10.3619 8.94883 10.3643 8.9467 10.3673C8.94457 10.3703 8.94321 10.3738 8.94273 10.3774C8.94225 10.3811 8.94267 10.3848 8.94395 10.3882L9.20718 11.1152C9.20878 11.1195 9.21166 11.1232 9.21542 11.1258C9.21919 11.1285 9.22367 11.1299 9.22826 11.1299H14.7778ZM9.58316 11.7093C9.56584 11.7021 9.5495 11.7016 9.53414 11.7078C9.52849 11.7102 9.52343 11.7139 9.51932 11.7185C9.51521 11.723 9.51214 11.7285 9.51032 11.7344C9.50851 11.7403 9.50799 11.7466 9.5088 11.7527C9.50961 11.7589 9.51174 11.7648 9.51503 11.7701L9.9464 12.4421C9.95345 12.4531 9.96316 12.4621 9.97463 12.4684C9.98611 12.4746 9.99898 12.4779 10.0121 12.4779H14.0072C14.0274 12.4779 14.043 12.4694 14.0538 12.4524L14.4935 11.7627C14.4964 11.7582 14.498 11.7529 14.4982 11.7475C14.4984 11.7421 14.4971 11.7368 14.4945 11.7321C14.4919 11.7274 14.488 11.7234 14.4833 11.7207C14.4787 11.718 14.4734 11.7166 14.468 11.7167L9.62826 11.7186C9.6129 11.7186 9.59787 11.7155 9.58316 11.7093ZM10.6136 13.0573C10.6018 13.0505 10.5904 13.0493 10.5792 13.0539C10.5734 13.0563 10.5683 13.0602 10.5644 13.0652C10.5605 13.0702 10.558 13.0761 10.557 13.0824C10.5561 13.0887 10.5568 13.0951 10.559 13.101C10.5613 13.1069 10.5651 13.1121 10.5699 13.1162C11.5317 13.925 12.4969 13.9142 13.4523 13.1059C13.4559 13.1028 13.4585 13.0988 13.4597 13.0942C13.4609 13.0897 13.4607 13.0848 13.4591 13.0804C13.4575 13.076 13.4546 13.0721 13.4507 13.0694C13.4469 13.0667 13.4423 13.0652 13.4376 13.0652L10.6469 13.0667C10.635 13.0667 10.6235 13.0634 10.6136 13.0573Z" fill="black"/>
<path d="M12.4293 17.701H11.5773C11.4236 17.701 11.2989 17.8257 11.2989 17.9795V18.003C11.2989 18.1568 11.4236 18.2814 11.5773 18.2814H12.4293C12.5831 18.2814 12.7077 18.1568 12.7077 18.003V17.9795C12.7077 17.8257 12.5831 17.701 12.4293 17.701Z" fill="black"/>
<path d="M12.7738 18.6432H11.2336C11.0766 18.6432 10.9493 18.7705 10.9493 18.9275V18.9461C10.9493 19.1031 11.0766 19.2304 11.2336 19.2304H12.7738C12.9308 19.2304 13.0581 19.1031 13.0581 18.9461V18.9275C13.0581 18.7705 12.9308 18.6432 12.7738 18.6432Z" fill="black"/>
<path d="M12.7724 19.5878L11.2263 19.5905C11.0698 19.5908 10.9432 19.7179 10.9435 19.8744L10.9435 19.892C10.9438 20.0485 11.0708 20.1751 11.2273 20.1749L12.7734 20.1722C12.9299 20.1719 13.0565 20.0448 13.0562 19.8883L13.0562 19.8707C13.0559 19.7142 12.9288 19.5876 12.7724 19.5878Z" fill="black"/>
</svg>
