<svg width="24" height="24" viewBox="0 0 24 24" fill="none" xmlns="http://www.w3.org/2000/svg">
<path d="M11.8191 15.7481C11.6673 15.036 11.5416 14.3134 11.4421 13.5961C9.79277 16.2508 8.58323 19.073 7.8397 22H9.30057C9.87654 19.8427 10.7196 17.7483 11.8191 15.7481Z" fill="black"/>
<path d="M19.9665 9.89942C19.9665 9.43864 19.5895 9.06164 19.1287 9.06164C18.668 9.06164 18.291 9.43864 18.291 9.89942C18.291 10.3602 18.668 10.7372 19.1287 10.7372C19.5895 10.7372 19.9665 10.3602 19.9665 9.89942Z" fill="black"/>
<path d="M11.6774 4.03495C11.6774 4.69993 12.2167 5.23925 12.8817 5.23925C13.5467 5.23925 14.086 4.69993 14.086 4.03495C14.086 3.36996 13.5467 2.83064 12.8817 2.83064C12.2167 2.83064 11.6774 3.36996 11.6774 4.03495Z" fill="black"/>
<path d="M6.11177 10.5592V9.66383C8.17479 9.79473 10.2483 9.43868 12.0966 8.64279C11.9291 12.6903 12.6464 16.675 14.2382 20.4921L14.8613 21.9896H16.3902L15.542 19.9475C13.8821 15.9524 13.2224 11.774 13.5837 7.5275L13.6989 6.19754L12.5365 6.85205C10.6358 7.92021 8.36329 8.40717 6.11177 8.24485V7.64837L6.69157 7.23305V2H4.03351V7.23305L4.69802 7.64837V11.7583L5.33159 11.8211C6.00181 11.8892 6.64062 11.9258 7.24801 11.9258C8.70364 11.9258 10.0022 11.7269 11.2222 11.3132C11.196 10.8524 11.1855 10.3916 11.1803 9.93087C9.5676 10.444 7.83444 10.6587 6.11177 10.5592Z" fill="black"/>
</svg>
