<svg width="24" height="24" viewBox="0 0 24 24" fill="none" xmlns="http://www.w3.org/2000/svg">
<path d="M9.19681 15.0436C9.05814 14.3933 8.94338 13.7334 8.85253 13.0783C7.34628 15.5027 6.24169 18.08 5.56269 20.753H6.89679C7.42279 18.7829 8.19264 16.8702 9.19681 15.0436Z" fill="black"/>
<path d="M9.06735 4.34679C9.06735 4.95408 9.55987 5.4466 10.1671 5.4466C10.7744 5.4466 11.2669 4.95408 11.2669 4.34679C11.2669 3.73951 10.7744 3.24699 10.1671 3.24699C9.55987 3.24699 9.06735 3.73951 9.06735 4.34679Z" fill="black"/>
<path d="M3.98467 10.3049V9.48724C5.86868 9.60678 7.76225 9.28163 9.45021 8.5548C9.29719 12.2511 9.95229 15.89 11.4059 19.3759L11.975 20.7435H13.3712L12.5966 18.8786C11.0808 15.2301 10.4783 11.4143 10.8082 7.53629L10.9134 6.32173L9.85188 6.91945C8.1161 7.89492 6.04082 8.33962 3.98467 8.19139V3.3427H2.6936V11.3999L3.27219 11.4573C3.88426 11.5195 4.46763 11.553 5.02232 11.553C6.35164 11.553 7.53751 11.3712 8.65165 10.9935C8.62775 10.5727 8.61819 10.1519 8.6134 9.73111C7.14063 10.1997 5.55787 10.3958 3.98467 10.3049Z" fill="black"/>
<path d="M21.3064 15.8978H17.5256V16.9157H21.3064V15.8978Z" fill="black"/>
<path d="M17.5256 17.4974V20.6964H18.5435V17.4974H17.5256Z" fill="black"/>
<path d="M20.2885 17.4974V20.6964H21.3064V17.4974H20.2885Z" fill="black"/>
</svg>
