<svg width="24" height="24" viewBox="0 0 24 24" fill="none" xmlns="http://www.w3.org/2000/svg">
<path d="M14.3181 3.85319V2.22329C13.7157 2.54066 13.0809 2.83652 12.3924 3.10548C10.3321 3.91774 8.21274 4.38573 6.74959 4.3427L8.05136 5.73053C10.1008 5.50999 12.3816 4.78379 14.3181 3.85319Z" fill="black"/>
<path d="M3.23722 4.63319C3.92038 4.63319 4.47443 4.07913 4.47443 3.39597C4.47443 2.71281 3.92038 2.15875 3.23722 2.15875C2.55406 2.15875 2 2.71281 2 3.39597C2 4.07913 2.55406 4.63319 3.23722 4.63319Z" fill="black"/>
<path d="M3.44174 12.8526L3.7107 14.1274L7.77738 10.2329L6.77146 9.18394L4.71124 11.1581C4.68434 9.55511 5.0824 7.80149 5.73329 6.73102L10.553 11.8628C9.42879 13.1646 8.48205 14.5954 7.71282 16.1393C6.81449 17.952 6.19589 19.8617 5.87314 21.8412H7.34705C8.09476 17.6239 10.2518 13.7939 13.5546 10.8892C16.0022 8.73747 18.8908 7.24743 22 6.49972V5.01506C21.1716 5.19795 20.354 5.43464 19.5525 5.71973C16.9812 6.62882 14.6412 8.00051 12.5971 9.80255C12.2314 10.1253 11.8817 10.4534 11.5428 10.7977L5.70639 4.5901L5.17922 5.1065C4.40462 5.85959 3.80214 7.13446 3.49015 8.69443C3.20505 10.1199 3.18354 11.6369 3.44174 12.8526Z" fill="black"/>
</svg>
