<svg width="24" height="24" viewBox="0 0 24 24" fill="none" xmlns="http://www.w3.org/2000/svg">
<path d="M17.6039 16.5924C18.6626 16.5924 19.7163 16.1898 20.5165 15.4045L19.4827 14.5347C19.0304 14.9373 18.4687 15.1858 17.8524 15.2405C17.1069 15.3051 16.3763 15.0765 15.8047 14.5944L11.4806 10.9711L9.3683 9.19672L8.50349 10.2206L14.9399 15.6182C15.7152 16.2743 16.6596 16.5924 17.6039 16.5924Z" fill="black"/>
<path d="M10.1434 3.31209C9.73584 3.79419 9.80046 4.51488 10.2826 4.92244C10.7647 5.32999 11.4854 5.26538 11.8929 4.78327C12.3005 4.30116 12.2359 3.58047 11.7537 3.17292C11.2716 2.76536 10.551 2.82998 10.1434 3.31209Z" fill="black"/>
<path d="M11.6942 6.57751C11.2369 7.11926 11.0182 7.81012 11.0829 8.52086C11.1425 9.22663 11.4805 9.86779 12.0222 10.325L15.4318 13.1829L16.2469 12.2137L16.2966 12.159L12.887 9.30118C12.6187 9.07752 12.4546 8.75943 12.4198 8.40655C12.395 8.13816 12.4546 7.87971 12.5789 7.65108L22.5938 16.0557L23.4587 15.0318L12.4 5.75246L11.6942 6.57751Z" fill="black"/>
<path d="M17.9867 21.0955H20.0643L2.61886 6.33401H0.541321L17.9867 21.0955Z" fill="black"/>
</svg>
