<svg width="24" height="24" viewBox="0 0 24 24" fill="none" xmlns="http://www.w3.org/2000/svg">
<path d="M6.15885 7.6284C7.339 9.18868 8.89928 10.1589 10.7886 10.6298C10.5617 11.0327 10.2723 11.3334 10.0454 11.6795C9.99999 11.7475 9.94893 11.7305 9.88652 11.7078C8.60992 11.2766 7.34467 10.8284 6.31205 9.90925C6.29502 9.89223 6.27233 9.88088 6.24396 9.86386C5.99999 10.2894 5.82978 10.749 5.68226 11.2085C5.26807 12.5192 5.00141 13.8582 4.85956 15.2256C4.84822 15.3504 4.80283 15.3901 4.68368 15.4071C4.32056 15.4582 3.95744 15.4525 3.59431 15.4071C3.46949 15.3901 3.42978 15.3561 3.44112 15.2256C3.5319 13.9263 3.77587 12.661 4.13332 11.4071C4.38297 10.5447 4.68935 9.70499 5.12623 8.92202C5.3929 8.45109 5.76169 8.04826 6.15885 7.6284Z" fill="black"/>
<path d="M13.5064 14.0227C13.5858 12.5475 14.017 11.1858 14.6865 9.88655C15.0043 9.27378 15.3957 8.71775 15.861 8.21279C15.9518 8.11066 16.0028 8.09364 16.105 8.21279C16.6553 8.8369 17.234 9.43832 17.9319 9.90924C18.7035 10.4256 19.566 10.7433 20.4397 11.0213C20.6099 11.078 20.6213 11.1234 20.5191 11.2539C20.3092 11.5263 20.1106 11.81 19.9064 12.088C19.861 12.1504 19.8269 12.1787 19.7418 12.1504C18.9248 11.861 18.0964 11.5887 17.3305 11.1688C16.922 10.9475 16.5532 10.6695 16.1957 10.3745C16.122 10.3121 16.0766 10.2894 16.0199 10.4029C15.4752 11.4809 15.0043 12.5816 14.7773 13.7731C14.7489 13.9206 14.7262 14.0624 14.7149 14.21C14.7035 14.3121 14.6695 14.3461 14.5617 14.3234C14.2837 14.2553 14 14.2326 13.7163 14.244C13.5291 14.2553 13.4553 14.2043 13.5064 14.0227Z" fill="black"/>
<path d="M9.26242 16.7007C9.57447 16.2298 9.86951 15.7873 10.1589 15.3447C10.2043 15.271 10.2723 15.2596 10.3461 15.2483C12.3092 14.8965 14.2553 15.0156 16.1844 15.4922C16.627 15.6 17.0638 15.7305 17.5064 15.8383C17.6255 15.8667 17.6255 15.9007 17.5631 15.9915C17.3872 16.2582 17.2057 16.5249 17.0411 16.8029C16.9674 16.922 16.8993 16.9334 16.7688 16.8993C15.9575 16.6667 15.1348 16.4681 14.295 16.3546C12.8539 16.1561 11.4241 16.2298 10.0057 16.5362C9.77305 16.5873 9.53476 16.6383 9.26242 16.7007Z" fill="black"/>
<path d="M6.65249 18.1532C6.88511 17.7844 7.10071 17.4497 7.31632 17.1149C8.73476 14.9135 10.1532 12.7178 11.566 10.5163C11.5716 10.5107 11.5716 10.505 11.5773 10.4993C11.6511 10.3234 11.7418 10.3178 11.8894 10.4369C12.0426 10.5617 12.2184 10.6582 12.3887 10.7603C12.4851 10.8171 12.5078 10.8624 12.434 10.9702C11.1631 12.888 9.89788 14.8114 8.62695 16.7291C8.4 17.0695 8.17873 17.41 7.95178 17.7504C7.90071 17.8298 7.84397 17.8695 7.74752 17.8922C7.39575 17.9717 7.04398 18.0624 6.65249 18.1532Z" fill="black"/>
<path d="M16.5021 18.5901C16.8369 18.0681 17.1603 17.5688 17.478 17.0695C18.7773 15.0553 20.0766 13.0355 21.3759 11.0213C21.5461 10.7546 21.5461 10.7546 21.8128 10.9305C21.9489 11.0156 22.0794 11.1121 22.2213 11.1858C22.3348 11.2483 22.3575 11.2993 22.278 11.4185C21.1603 13.1036 20.0426 14.7944 18.9305 16.4795C18.5674 17.0241 18.2043 17.5688 17.8525 18.1192C17.7674 18.2497 17.6709 18.3178 17.5177 18.3461C17.1887 18.4199 16.8596 18.505 16.5021 18.5901Z" fill="black"/>
<path d="M7.41845 15.9745C7.33902 16.1674 7.20285 16.3263 7.09504 16.5022C6.94753 16.7404 6.79434 16.9674 6.64682 17.2C6.59575 17.2795 6.54469 17.3192 6.44256 17.3305C4.95604 17.5518 3.48086 17.5007 2.00568 17.2284C1.55746 17.1433 1.1149 17.0412 0.672349 16.9334C0.547526 16.905 0.502136 16.8596 0.502136 16.7234C0.513484 16.417 0.50781 16.105 0.502136 15.7986C0.502136 15.6738 0.524832 15.6397 0.655328 15.6795C1.81277 16.0085 2.98724 16.2128 4.19008 16.2412C5.21703 16.2695 6.23831 16.1731 7.24256 15.9631C7.2993 15.9575 7.35604 15.9404 7.41845 15.9745Z" fill="black"/>
<path d="M18.9759 17.3532C19.2198 16.9787 19.4525 16.6326 19.6794 16.2809C19.7362 16.1958 19.8042 16.2128 19.8723 16.2185C20.5135 16.2695 21.1546 16.2695 21.7957 16.2128C22.1532 16.1844 22.505 16.1334 22.8624 16.0936C22.9191 16.088 22.9702 16.0596 22.9986 16.139C23.1404 16.4965 23.305 16.8483 23.4979 17.2057C21.9943 17.5064 20.5021 17.5631 18.9759 17.3532Z" fill="black"/>
<path d="M9.42128 6.55038C9.42696 7.19719 8.90497 7.71918 8.26383 7.71918C7.63972 7.7135 7.12341 7.19719 7.11774 6.57308C7.11206 5.92627 7.63405 5.40428 8.28086 5.40996C8.90497 5.40996 9.42128 5.92627 9.42128 6.55038Z" fill="black"/>
<path d="M16.9674 6.99294C16.9674 6.36882 17.495 5.84117 18.1248 5.84117C18.7489 5.84117 19.2766 6.3745 19.2766 7.00429C19.2766 7.63407 18.7546 8.15606 18.1191 8.15606C17.4894 8.15606 16.9674 7.6284 16.9674 6.99294Z" fill="black"/>
</svg>
