<svg width="24" height="24" viewBox="0 0 24 24" fill="none" xmlns="http://www.w3.org/2000/svg">
<path fill-rule="evenodd" clip-rule="evenodd" d="M13.2148 6.3047H10.8097V7.80747H13.2148V6.3047ZM16.6265 7.80747H17.7952V20.5262H6.23428V7.80747H7.37351V6.3047H5.54267C5.21078 6.3047 4.76154 6.5689 4.76154 6.93736V21.3673C4.76154 21.6763 5.08523 22 5.39419 22H18.5168C18.9448 22 19.2385 21.7063 19.2385 21.2784V6.89205C19.1566 6.49521 18.7428 6.30525 18.3683 6.30525H16.6259V7.80802L16.6265 7.80747ZM15.6767 5.50938C15.6745 3.67308 14.002 2 12.164 2C11.3365 2 10.6771 2.16867 9.98493 2.62993C9.8108 2.7462 9.61975 2.87994 9.47182 3.02841L9.46963 3.0306L9.4669 3.03278C8.86809 3.57482 8.35497 4.57813 8.35497 5.39365V5.91004H8.3577V10.0635H9.82827V5.69115C9.82827 5.05904 10.0641 4.47387 10.5384 4.04973C10.9577 3.67472 11.5205 3.47056 12.0821 3.48585C12.6488 3.50113 13.1717 3.73531 13.5516 4.15836C13.9627 4.61688 14.1439 5.21788 14.1908 5.82216C14.2907 7.10058 14.2039 8.77202 14.2039 10.0646H15.645C15.645 8.54166 15.6368 7.13988 15.6778 5.50992" fill="black"/>
</svg>
