<svg width="24" height="24" viewBox="0 0 24 24" fill="none" xmlns="http://www.w3.org/2000/svg">
<path d="M18.1652 8.52291C17.0467 8.11502 15.7867 8.45826 15.0298 9.37812L14.8858 9.55316L16.3307 10.0788C16.705 9.77866 17.2164 9.6872 17.679 9.85593L22.0003 11.4323V9.92163L18.1652 8.52291Z" fill="black"/>
<path d="M1.99974 15.6947L18.478 21.6686V20.159L1.99974 14.1851V15.6947Z" fill="black"/>
<path d="M16.7812 11.1942L11.3687 9.22411C11.5343 9.88694 11.835 10.5119 12.2549 11.057L16.2955 12.5277C16.8101 12.7149 17.2206 13.0918 17.4524 13.588C17.6837 14.0842 17.7079 14.6408 17.5208 15.1554C17.1339 16.2177 15.9554 16.7675 14.8931 16.3807L7.58306 13.7199C7.06846 13.5328 6.65794 13.1564 6.42614 12.6597C6.19485 12.1635 6.17068 11.6068 6.3578 11.0922C6.54493 10.5776 6.92129 10.1666 7.41801 9.9353C7.66717 9.81913 7.93156 9.75501 8.19806 9.74397C8.09819 9.28246 8.03827 8.81096 8.01934 8.33526C6.7042 8.43776 5.50364 9.28824 5.02373 10.6065C4.70677 11.4775 4.74777 12.4195 5.13937 13.2594C5.53097 14.0994 6.22639 14.7365 7.09685 15.0534L14.4069 17.7142C14.7943 17.8551 15.1954 17.9255 15.5954 17.9255C16.0952 17.9255 16.593 17.8162 17.0593 17.5986C17.8992 17.207 18.5363 16.5116 18.8533 15.6411C19.1702 14.7701 19.1292 13.8282 18.7376 12.9887C18.346 12.1488 17.6506 11.5117 16.7802 11.1947" fill="black"/>
<path d="M12.4925 14.2949V12.5714C10.617 11.0491 9.83858 8.48612 10.6375 6.13757L10.6743 6.02928L10.6207 6.01089H9.19047C8.27533 9.18784 9.62674 12.6087 12.4925 14.2949Z" fill="black"/>
<path d="M9.61834 4.48654C9.82491 4.65106 10.0862 4.74936 10.3705 4.74936C10.6549 4.74936 10.9161 4.65106 11.1227 4.48654C11.4008 4.26524 11.5795 3.92358 11.5795 3.54039C11.5795 2.87283 11.0381 2.33142 10.3705 2.33142C9.70296 2.33142 9.16156 2.87283 9.16156 3.54039C9.16156 3.92358 9.34027 4.26524 9.61834 4.48654Z" fill="black"/>
</svg>
