<svg width="24" height="24" viewBox="0 0 24 24" fill="none" xmlns="http://www.w3.org/2000/svg">
<path d="M8.64258 7.44206C8.64258 8.08152 9.18059 8.59545 9.82876 8.55548C10.3842 8.52115 10.8366 8.06922 10.871 7.5138C10.9114 6.86563 10.3975 6.32711 9.75754 6.32711C9.11756 6.32711 8.64207 6.82669 8.64207 7.44257" fill="black"/>
<path fill-rule="evenodd" clip-rule="evenodd" d="M12.6028 9.87078C12.3733 10.1628 12.1668 10.4728 11.9818 10.7951C11.7067 11.2752 11.4786 11.7866 11.308 12.3128L13.9627 12.4476L13.1598 13.8961L9.46599 13.7086L9.62944 12.8693C9.81954 11.8901 10.1941 10.9196 10.6896 10.0552C11.0841 9.36761 11.5678 8.72713 12.134 8.17119L12.1837 8.12866L12.2564 8.15633L12.28 8.16555L12.3266 8.184L12.3779 8.20449L12.4235 8.22294L12.4747 8.24395L12.5188 8.26239L12.5459 8.27367L12.6126 8.30185L12.6633 8.32388L12.7027 8.3413L12.7309 8.3536L12.757 8.36538L12.796 8.3828L12.8472 8.40637L12.9108 8.43609L12.961 8.45966L12.9989 8.4776L13.025 8.48989L13.1198 8.53652L13.2223 8.58827L13.333 8.64566L13.3463 8.65283C15.218 9.6443 16.2905 10.9581 17.2866 12.9789C17.9024 14.2281 18.3462 15.5736 18.692 16.9207C19.1147 18.5644 19.4037 20.2528 19.6302 21.9339L19.6389 22H18.1392L18.132 21.9498C17.9163 20.3819 17.6437 18.8068 17.2481 17.2732C16.9279 16.0327 16.5195 14.7887 15.9523 13.6373C15.9251 13.582 15.8975 13.5277 15.8698 13.4729L11.142 22H9.44242L14.9777 12.0161C14.3439 11.1548 13.5692 10.4201 12.6028 9.8718" fill="black"/>
<path fill-rule="evenodd" clip-rule="evenodd" d="M7.07673 3.61914C7.6424 3.4808 8.22191 3.38344 8.80347 3.3486C9.29946 3.31888 9.80109 3.33579 10.2914 3.41829C11.1118 3.55612 11.8834 3.87482 12.506 4.43589C13.1009 4.97236 13.4836 5.66254 13.6732 6.43881C13.8008 6.96144 13.8356 7.50457 13.8023 8.04104L13.7967 8.13122L13.7168 8.08869C13.5974 8.02516 13.4764 7.96316 13.355 7.90372C13.0296 7.74488 12.6976 7.60193 12.3579 7.47588L12.3225 7.46256L12.3205 7.42464C12.3087 7.21098 12.2795 6.99731 12.2288 6.78877C12.1114 6.30815 11.8793 5.87518 11.5104 5.54264C11.1031 5.17526 10.5825 4.97594 10.0475 4.88628C9.65455 4.82018 9.2513 4.80993 8.85471 4.83555C8.37409 4.86629 7.89501 4.94981 7.4272 5.06356L7.37084 5.0774L7.02139 3.63247L7.07775 3.61863L7.07673 3.61914Z" fill="black"/>
<path fill-rule="evenodd" clip-rule="evenodd" d="M6.26664 3.42649L6.77954 5.64768L7.605 5.45656L7.8904 6.69244L5.44529 7.2576L5.15938 6.02173L5.98483 5.83112L5.47193 3.60992L4.64648 3.80104L4.36108 2.56516L6.80619 2L7.09159 3.23588L6.26664 3.42649Z" fill="black"/>
</svg>
