<svg width="24" height="24" viewBox="0 0 24 24" fill="none" xmlns="http://www.w3.org/2000/svg">
<path d="M20.0577 5.26473C20.0581 5.26774 20.0593 5.27059 20.0612 5.27302C20.063 5.27546 20.0654 5.2774 20.0681 5.27867C20.0708 5.27994 20.0738 5.2805 20.0768 5.2803C20.0798 5.2801 20.0827 5.27914 20.0852 5.27752L20.4927 5.01953C20.5008 5.01437 20.5106 5.01251 20.5201 5.01433C20.5296 5.01615 20.538 5.02151 20.5437 5.02934C20.6865 5.22422 20.8204 5.42499 20.9454 5.63167C20.9468 5.63381 20.9472 5.63637 20.9467 5.63883C20.9462 5.64129 20.9447 5.64346 20.9427 5.64489L20.5276 5.93059C20.5244 5.9328 20.5218 5.93583 20.5201 5.93937C20.5184 5.94291 20.5176 5.94685 20.5179 5.95079C20.5182 5.95473 20.5195 5.95854 20.5217 5.96184C20.5239 5.96514 20.5269 5.96782 20.5304 5.96961C20.8536 6.13279 21.1819 6.29171 21.5155 6.44636C21.6683 6.51714 21.8599 6.59347 21.9903 6.69987C21.9935 6.70245 21.996 6.70575 21.9977 6.7095C21.9994 6.71326 22.0002 6.71735 22 6.72146C21.9998 6.72557 21.9986 6.72958 21.9966 6.73316C21.9946 6.73674 21.9918 6.7398 21.9884 6.74208C21.1533 7.30269 20.3106 7.85172 19.4603 8.38916C19.4469 8.39769 19.4327 8.39925 19.4177 8.39385C18.8839 8.20217 18.3635 7.94567 17.8509 7.70453C17.8456 7.70199 17.8396 7.70089 17.8336 7.70133C17.8277 7.70178 17.8219 7.70376 17.8168 7.70709C15.6008 9.16888 13.3699 10.6181 11.1742 12.1155C11.1682 12.1195 11.1639 12.1257 11.1622 12.1327C11.1604 12.1397 11.1613 12.1472 11.1646 12.1537C11.2231 12.2681 11.2968 12.3713 11.3855 12.4635C11.3903 12.4684 11.396 12.4699 11.4027 12.4677C11.4318 12.4586 11.4588 12.446 11.4839 12.4298C12.0103 12.0892 12.5334 11.7468 13.0532 11.4025C13.0555 11.401 13.0582 11.4 13.061 11.3997C13.0638 11.3994 13.0667 11.3997 13.0693 11.4007C13.0719 11.4017 13.0743 11.4033 13.0762 11.4054C13.0781 11.4075 13.0795 11.41 13.0803 11.4127C13.222 11.9107 13.1931 12.3865 12.9936 12.8402C12.5539 13.8395 11.4294 14.3517 10.3955 14.0046C9.88192 13.8321 9.46029 13.443 9.20485 12.9641C8.51082 11.6628 9.40072 10.0961 10.8174 9.91193C11.2487 9.85578 11.6592 9.93602 12.0488 10.1526C12.1518 10.2099 12.2532 10.264 12.353 10.3149C12.362 10.3194 12.372 10.3215 12.382 10.3211C12.3921 10.3206 12.4019 10.3176 12.4104 10.3123C12.7927 10.0757 13.166 9.82558 13.5303 9.56205C13.5343 9.55919 13.5375 9.5555 13.5399 9.55125C13.5423 9.54699 13.5437 9.54226 13.5441 9.5374C13.5445 9.53253 13.5438 9.52764 13.5421 9.52306C13.5405 9.51848 13.5378 9.51432 13.5344 9.51088C13.0345 9.01366 12.3172 8.60792 11.6068 8.5254C11.1106 8.46783 10.5416 8.4738 10.0615 8.6222C8.90701 8.97869 8.03365 9.87824 7.6896 11.0334C7.64636 11.1786 7.61527 11.3262 7.59633 11.4765C7.46533 12.5207 7.71695 13.4372 8.3512 14.2261C8.80505 14.7907 9.41959 15.1864 10.1162 15.3954C10.6097 15.5433 11.1845 15.5316 11.6844 15.4614C11.81 15.444 11.9413 15.4129 12.0783 15.3683C14.0533 14.7256 15.0674 12.6353 14.3248 10.6744C14.3142 10.6464 14.306 10.622 14.3003 10.6012C14.2981 10.5931 14.2984 10.5845 14.3013 10.5766C14.3041 10.5687 14.3093 10.5619 14.3161 10.5571C14.8751 10.1652 15.4425 9.78613 16.0184 9.41983C16.0355 9.40903 16.0481 9.41294 16.0563 9.43156C16.4182 10.2492 16.6448 11.0317 16.642 11.9132C16.6399 12.5664 16.5909 13.1236 16.3802 13.7412C15.7063 15.7165 14.1309 17.1008 12.1056 17.5268C11.9798 17.5534 11.8527 17.5716 11.7242 17.5814C11.153 17.6254 10.4895 17.6168 9.91605 17.5042C9.62238 17.4465 9.28893 17.3391 8.9157 17.1819C7.15414 16.4403 5.9433 14.9178 5.56682 13.0417C5.54802 12.9479 5.53234 12.8263 5.51976 12.6769C5.48033 12.2078 5.48231 11.7395 5.52569 11.272C5.53926 11.125 5.5606 10.9847 5.58971 10.8509C6.04123 8.77273 7.52871 7.18727 9.54508 6.59944C9.87648 6.50279 10.1984 6.44337 10.5109 6.4212C11.139 6.37642 11.7819 6.3873 12.3907 6.54593C13.5642 6.85168 14.5446 7.46573 15.3318 8.38809C15.3367 8.39378 15.3423 8.39456 15.3485 8.39044L16.4167 7.68598C16.4177 7.68529 16.4186 7.68438 16.4193 7.6833C16.42 7.68223 16.4204 7.68102 16.4206 7.67977C16.4207 7.67851 16.4206 7.67723 16.4202 7.67602C16.4199 7.67481 16.4192 7.6737 16.4184 7.67276C16.1201 7.34441 15.8369 7.02459 15.4956 6.73846C13.6266 5.17091 11.2151 4.68095 8.89323 5.4321C8.74866 5.47887 8.60671 5.53295 8.46736 5.59436C7.87763 5.85384 7.27158 6.16854 6.78932 6.58452C6.36111 6.9538 5.97008 7.35074 5.61621 7.77532C5.51644 7.895 5.42027 8.0306 5.3277 8.18213C5.09071 8.57046 4.87802 8.9804 4.68964 9.41194C4.39944 10.0763 4.25275 10.826 4.20039 11.5458C4.098 12.9509 4.47066 14.3506 5.18907 15.5695C5.56279 16.2036 6.05713 16.7505 6.60277 17.239C7.24805 17.8168 8.05781 18.2595 8.85571 18.5496C9.30384 18.7125 9.78165 18.807 10.2635 18.8673C11.8307 19.0635 13.4163 18.6748 14.748 17.8396C15.382 17.442 15.8899 16.9571 16.376 16.3923C17.2324 15.3975 17.8512 13.9393 17.9275 12.6185C17.9554 12.1318 17.9502 11.6459 17.9118 11.1607C17.9003 11.0157 17.8804 10.8752 17.852 10.739C17.7514 10.2574 17.6092 9.78798 17.4255 9.33071C17.3676 9.18658 17.2839 8.99582 17.1745 8.75844C17.1461 8.69725 17.1705 8.66037 17.2241 8.62604C17.3862 8.52242 17.5466 8.41922 17.7053 8.31645C17.7079 8.31482 17.7109 8.31387 17.7139 8.31368C17.7169 8.31349 17.72 8.31408 17.7227 8.31539L19.2286 9.03861C19.2325 9.04048 19.2369 9.04128 19.2412 9.0409C19.2455 9.04053 19.2497 9.039 19.2532 9.03647C19.3424 8.97294 19.4347 8.91039 19.5303 8.84885C19.5953 8.80706 19.6288 8.93285 19.6428 8.9772C19.7952 9.45736 19.9377 9.95223 20.0238 10.4492C20.6385 13.9945 19.0953 17.5396 16.168 19.5556C13.7955 21.1896 10.739 21.573 8.02369 20.5912C5.52379 19.6873 3.50148 17.6895 2.57194 15.1956C1.12262 11.3074 2.49733 6.86255 5.9079 4.50377C7.11902 3.66598 8.46206 3.14539 9.93703 2.94198C10.8649 2.81405 11.8184 2.87482 12.7634 3.05157C13.8061 3.24688 14.8035 3.66115 15.7163 4.19845C16.1475 4.45217 16.5535 4.74157 16.9345 5.06665C16.9735 5.09991 17.092 5.18627 17.0198 5.23701C16.8883 5.32954 16.7974 5.36728 16.7938 5.54894C16.7821 6.14125 16.7932 6.80754 16.84 7.36062C16.8403 7.36425 16.8416 7.36774 16.8436 7.37076C16.8457 7.37378 16.8485 7.37622 16.8517 7.37786C16.8549 7.37951 16.8585 7.38029 16.8622 7.38015C16.8658 7.38 16.8693 7.37893 16.8724 7.37703L17.4022 7.05295C17.4046 7.05145 17.4067 7.04935 17.4081 7.04684C17.4095 7.04434 17.4102 7.04153 17.4102 7.03866L17.3848 5.29245C17.3847 5.28727 17.386 5.28216 17.3884 5.27757C17.3909 5.27299 17.3944 5.26909 17.3988 5.26622L19.9705 3.56734C19.9711 3.567 19.9717 3.56681 19.9723 3.56678C19.9729 3.56675 19.9735 3.56688 19.9741 3.56716C19.9746 3.56744 19.9751 3.56786 19.9755 3.56837C19.9758 3.56889 19.976 3.56949 19.9761 3.57011C20.012 4.06391 20.0335 4.55864 20.0407 5.05429C20.0418 5.12848 20.0475 5.19863 20.0577 5.26473Z" fill="black"/>
</svg>
