<svg width="24" height="24" viewBox="0 0 24 24" fill="none" xmlns="http://www.w3.org/2000/svg">
<path d="M10.0395 20.7995C6.8507 20.7995 4.2564 18.2052 4.2564 15.0163C4.2564 11.8275 6.8507 9.23316 10.0395 9.23316V10.4416C7.51689 10.4416 5.46482 12.4938 5.46482 15.0163C5.46482 17.539 7.51689 19.591 10.0395 19.591C12.562 19.591 14.6143 17.539 14.6143 15.0163H15.8227C15.8227 18.2052 13.2284 20.7995 10.0395 20.7995Z" fill="black"/>
<path d="M13.9377 14.8241H8.67483V6.79627H10.0829V8.37931H14.4253V9.67404H10.0829V13.364H14.8086L17.0097 17.1835L19.0813 16.1477L19.7436 17.5046L16.4274 19.0672L13.9377 14.8241Z" fill="black"/>
<path d="M10.646 4.44728C10.646 5.1359 10.0877 5.69402 9.39924 5.69402C8.71062 5.69402 8.15249 5.1359 8.15249 4.44728C8.15249 3.75866 8.71062 3.20053 9.39924 3.20053C10.0877 3.20053 10.646 3.75866 10.646 4.44728Z" fill="black"/>
</svg>
