<svg width="24" height="24" viewBox="0 0 24 24" fill="none" xmlns="http://www.w3.org/2000/svg">
<path d="M14.9061 12.7684L13.9093 13.6187L16.5497 16.7335L17.0562 15.3076L14.9061 12.7684Z" fill="black"/>
<path d="M11.6995 16.7246C11.4842 17.3018 11.7754 17.9456 12.3525 18.1609C12.9297 18.3762 13.5735 18.085 13.7888 17.5079C14.0041 16.9307 13.7129 16.2869 13.1358 16.0716C12.5586 15.8563 11.9148 16.1475 11.6995 16.7246Z" fill="black"/>
<path d="M11.848 14.2916L16.0596 10.7078L14.6337 10.2013L10.9977 13.2948L10.9931 13.2932L10.0791 14.0699C8.51141 12.8904 7.83592 10.7205 8.50956 8.82387C8.64429 8.44455 8.80289 8.09944 8.98507 7.80388L12.0018 11.3663L12.9986 10.5161L8.97729 5.76819L8.47583 6.31061C7.98381 6.84094 7.58212 7.53718 7.27858 8.39179C6.82407 9.67142 6.83307 11.0951 7.30153 12.3989C7.76867 13.6919 8.654 14.7784 9.79733 15.4572L10.2007 15.6983L11.848 14.2916Z" fill="black"/>
</svg>
