<svg width="24" height="24" viewBox="0 0 24 24" fill="none" xmlns="http://www.w3.org/2000/svg">
<path d="M11.2978 9.29237C11.2879 8.15648 11.273 7.07515 11.2532 6.1079C11.2085 4.26766 10.9952 2.83417 10.7224 2.22406C10.6827 2.13974 10.4843 2.13477 10.4446 2.21909C10.3058 2.53159 10.0776 3.36987 9.96848 4.65457C9.9288 5.10595 9.90398 5.61684 9.90398 6.17734V8.27553L11.2978 9.29237ZM11.3077 11.6237C11.3077 11.2467 11.3077 10.8697 11.3028 10.4927L9.89902 9.46598V10.5919L11.3077 11.6237ZM9.88415 21.7078H11.268C11.268 20.0064 11.3028 16.45 11.3077 12.8141L9.89902 11.7874L9.88415 21.7078Z" fill="black"/>
<path d="M14.2148 9.24783C14.2048 8.13178 14.19 7.06533 14.1701 6.11793C14.1255 4.27769 13.9122 2.84417 13.6394 2.23406C13.5997 2.14974 13.4013 2.1448 13.3616 2.22912C13.1731 2.65074 12.821 4.02968 12.821 6.19233V8.23593L14.2148 9.24783ZM14.2247 11.5791C14.2247 11.2022 14.2247 10.8252 14.2197 10.4482L12.816 9.42144V10.5474L14.2247 11.5791ZM12.8061 21.7178H14.19C14.19 20.0115 14.2247 16.4253 14.2297 12.7696L12.821 11.7428L12.8061 21.7178Z" fill="black"/>
<path d="M7.96489 18.7119C8.23274 18.7516 8.4758 18.8359 8.66925 18.9549C8.9867 19.1484 9.18016 19.4261 9.1752 19.7436C9.17024 20.066 8.96686 20.3388 8.64445 20.5174C8.451 20.6265 8.203 20.7059 7.93515 20.7406L7.92025 21.6483L7.28039 21.6384L7.29526 20.7307C7.02741 20.691 6.78437 20.6067 6.59092 20.4876C6.27347 20.2942 6.08001 20.0164 6.08497 19.699C6.08993 19.3766 6.29331 19.1037 6.61572 18.9252C6.65541 18.9004 6.70003 18.8805 6.74963 18.8607V19.6444C6.73475 19.6692 6.7298 19.6891 6.7298 19.7139C6.7298 19.7883 6.8042 19.8726 6.92821 19.947C7.10182 20.0511 7.34984 20.1206 7.63257 20.1255C7.9153 20.1305 8.1633 20.071 8.34187 19.9718C8.46588 19.9023 8.54524 19.823 8.54524 19.7436C8.54524 19.6692 8.47084 19.5849 8.34684 19.5105C8.24267 19.446 8.1137 19.3964 7.96489 19.3666L7.95995 19.7337L7.33496 19.7238V18.7069L7.4788 8.03748H8.11866L7.96489 18.7119Z" fill="black"/>
<path d="M16.7047 18.9053C16.9726 18.945 17.2157 19.0293 17.4091 19.1483C17.7266 19.3418 17.92 19.6196 17.915 19.937C17.9101 20.2594 17.7067 20.5322 17.3843 20.7108C17.1909 20.8199 16.9428 20.8993 16.675 20.934L16.6601 21.8417L16.0202 21.8318L16.0351 20.9241C15.7673 20.8844 15.5242 20.8001 15.3308 20.681C15.0133 20.4876 14.8199 20.2098 14.8248 19.8924C14.8298 19.5699 15.0331 19.2971 15.3556 19.1186C15.3952 19.0938 15.4399 19.0739 15.4895 19.0541V19.8378C15.4746 19.8626 15.4697 19.8824 15.4697 19.9072C15.4697 19.9817 15.5441 20.066 15.6681 20.1404C15.8417 20.2445 16.0897 20.314 16.3724 20.3189C16.6551 20.3239 16.9032 20.2644 17.0817 20.1652C17.2057 20.0957 17.2851 20.0164 17.2851 19.937C17.2851 19.8626 17.2107 19.7783 17.0867 19.7039C16.9825 19.6394 16.8535 19.5898 16.7047 19.56L16.6998 19.9271L16.0748 19.9172V18.9003L16.2186 8.23089H16.8585L16.7047 18.9053Z" fill="black"/>
</svg>
