<svg width="24" height="24" viewBox="0 0 24 24" fill="none" xmlns="http://www.w3.org/2000/svg">
<path d="M18.6833 22H20.1729L21.4057 13.1448C20.9369 13.0295 20.4598 12.8825 19.98 12.6858L18.6833 22Z" fill="black"/>
<path d="M21.2112 10.612C19.0658 9.68798 17.2516 8.0918 16.2325 6.23333L16.144 7.01311C16.0904 7.48579 16.0265 7.96448 15.9522 8.44863C17.0352 9.79235 18.479 10.9366 20.1128 11.7311C20.5877 11.9432 21.0637 12.0984 21.5347 12.2191L21.7276 10.8344L21.2112 10.612Z" fill="black"/>
<path d="M14.2221 15.6858C14.7358 17.6645 15.1265 19.7536 15.4041 22H16.8904C16.4981 18.7404 15.8746 15.7973 14.9915 13.0372C14.7626 13.9098 14.5057 14.794 14.2221 15.6858Z" fill="black"/>
<path d="M16.0626 4.51366C16.7566 4.51366 17.3194 3.95082 17.3194 3.25683C17.3194 2.56284 16.7566 2 16.0626 2C15.3686 2 14.8057 2.56284 14.8057 3.25683C14.8057 3.95082 15.3686 4.51366 16.0626 4.51366Z" fill="black"/>
<path d="M15.338 5.8765C11.7194 6.49344 9.49098 8.71694 8.43688 12.2459H9.98715C10.5199 10.7066 11.6751 8.65246 13.6052 7.88907C12.9653 12.241 11.4456 17.0902 9.17841 22H10.7997C13.1724 16.724 14.6981 11.5213 15.221 6.90874L15.338 5.8765Z" fill="black"/>
<path d="M7.85163 13.1749L2.2724 19.9235H4.18661L9.76584 13.1749H7.85163Z" fill="black"/>
</svg>
