<svg width="24" height="24" viewBox="0 0 24 24" fill="none" xmlns="http://www.w3.org/2000/svg">
<path d="M12.4444 20.6893H13.7469L12.3733 13.8212C12.1839 14.7259 11.9233 15.5927 11.587 16.4264L12.4444 20.6893Z" fill="black"/>
<path d="M11.9469 10.1361C13.0837 9.84719 13.9931 9.20775 14.5947 8.2699C15.3762 7.05258 15.561 5.43739 15.0968 3.84588L14.9405 3.31064L5.98348 4.57532C5.12142 4.69848 4.48671 5.47054 4.53881 6.34209L4.60039 7.38888H5.87928L5.81297 6.2663C5.79876 6.05789 5.95033 5.87316 6.15874 5.84474L13.9884 4.73636C14.1779 5.79263 14.0121 6.80627 13.5147 7.57835C13.0221 8.34568 12.2264 8.82882 11.208 8.98039L10.6538 9.06565L10.6633 9.62458C10.7059 12.1587 10.2843 14.347 9.37018 16.308C8.67863 17.7905 7.68867 19.2068 6.2961 20.6894H8.01077C9.09546 19.4105 9.91489 18.16 10.5307 16.8479C11.4638 14.8443 11.928 12.6465 11.9469 10.1361Z" fill="black"/>
<path d="M17.9485 11.6424C17.9485 12.0592 18.2895 12.4002 18.7063 12.4002C19.1231 12.4002 19.4642 12.0592 19.4642 11.6424C19.4642 11.2255 19.1231 10.8845 18.7063 10.8845C18.2895 10.8845 17.9485 11.2255 17.9485 11.6424Z" fill="black"/>
<path d="M9.94812 6.11949C9.53129 6.27106 9.23289 6.67367 9.23289 7.1426C9.23289 7.74415 9.72076 8.23202 10.3223 8.23202C10.9239 8.23202 11.4117 7.74415 11.4117 7.1426C11.4117 6.56473 10.9618 6.09106 10.3934 6.05791C10.3697 6.05791 10.346 6.05317 10.3223 6.05317C10.1897 6.05317 10.0665 6.07686 9.94812 6.11949Z" fill="black"/>
</svg>
