<svg width="24" height="24" viewBox="0 0 24 24" fill="none" xmlns="http://www.w3.org/2000/svg">
<path d="M11.6581 9.63283C12.2749 9.63283 12.7745 9.1328 12.7745 8.51647C12.7745 7.90015 12.2744 7.40012 11.6581 7.40012C11.0418 7.40012 10.5413 7.90015 10.5413 8.51647C10.5413 9.1328 11.0413 9.63283 11.6581 9.63283Z" fill="black"/>
<path d="M15.4816 15.4118C14.2336 15.0425 13.1168 14.8583 12.0005 14.8583C10.8841 14.8583 9.76728 15.043 8.51929 15.4118C6.37588 16.0458 4.44505 16.0458 2.30165 15.4118L2.00023 15.3225V16.6896C4.46273 17.4073 6.41914 17.4004 8.89141 16.6687C10.0175 16.3352 11.0088 16.1686 12 16.1686C12.9912 16.1686 13.9825 16.3352 15.1086 16.6687C17.5809 17.4004 19.5373 17.4069 21.9998 16.6896V15.3225L21.6983 15.4118C19.5554 16.0458 17.625 16.0458 15.4816 15.4118Z" fill="black"/>
<path d="M15.4816 17.7901C14.2336 17.4208 13.1168 17.2362 12.0005 17.2362C10.8841 17.2362 9.76728 17.4208 8.51929 17.7901C6.37588 18.4241 4.44505 18.4241 2.30165 17.7901L2.00023 17.7008V19.0679C4.46273 19.7856 6.41914 19.7787 8.89141 19.047C10.0175 18.7135 11.0088 18.5469 12 18.5469C12.9912 18.5469 13.9825 18.7135 15.1086 19.047C17.5809 19.7787 19.5373 19.7856 21.9998 19.0679V17.7008L21.6983 17.7901C19.5554 18.4241 17.625 18.4241 15.4816 17.7901Z" fill="black"/>
<path d="M13.8248 10.5827C14.4476 10.1194 14.582 9.78773 15.0914 8.91278C15.6616 7.93364 16.1538 6.74426 16.5673 5.4237L17.8665 5.8721C17.4241 7.28569 16.9036 8.5295 16.2794 9.6012C15.6789 10.632 14.9895 11.472 14.2095 12.053C14.255 11.6599 14.0964 10.9618 13.8248 10.5827Z" fill="black"/>
<path d="M10.3008 12.4442C9.49703 12.2316 8.47045 11.9963 7.5248 11.3418C6.60985 10.7092 5.6442 9.75051 4.44319 7.94806L5.54327 7.12289C6.63451 8.76114 7.52154 9.67144 8.30392 10.2129C9.05514 10.7324 9.33423 10.8106 10.0213 10.9925C10.4906 11.452 10.4143 12.1544 10.3008 12.4442Z" fill="black"/>
<path d="M12.5098 10.4724C13.0187 10.9734 13.4713 12.8293 12.8833 14.0294L11.4972 13.9848C11.9051 12.92 11.5618 11.0664 11.2218 10.5399L12.5098 10.4724Z" fill="black"/>
<path d="M18.9229 5.889L18.3205 7.71905L19.6274 8.14925L20.2298 6.3192L18.9229 5.889Z" fill="black"/>
<path d="M14.4542 4.39896L13.8127 6.21565L15.1101 6.67381L15.7516 4.85711L14.4542 4.39896Z" fill="black"/>
<path d="M7.38473 5.56283L6.29843 6.40727L7.48088 7.92839L8.56718 7.08394L7.38473 5.56283Z" fill="black"/>
<path d="M3.49671 8.45222L2.3767 9.25141L3.49578 10.8197L4.61579 10.0205L3.49671 8.45222Z" fill="black"/>
</svg>
