<svg width="24" height="24" viewBox="0 0 24 24" fill="none" xmlns="http://www.w3.org/2000/svg">
<path fill-rule="evenodd" clip-rule="evenodd" d="M4.79178 13.7322C4.26812 13.9345 3.84693 13.8352 3.1768 14.0686C2.83019 14.1893 2.49056 14.3482 2.18796 14.5574L2.00017 14.6873L2.51793 15.4368L2.70572 15.307C2.94072 15.1444 3.20738 15.0226 3.47672 14.9287C4.40815 14.4995 5.30578 14.6164 6.44646 14.2822C5.90778 14.0933 5.33529 13.9093 4.79178 13.7322ZM10.0434 11.614C9.48917 12.2272 9.35074 12.3361 8.74392 12.5856C9.13988 12.7396 9.50097 12.9113 9.82075 13.1238C10.4201 12.752 10.647 12.5588 11.124 11.6966C10.9341 11.7449 10.7409 11.7631 10.5445 11.7438C10.3659 11.7261 10.1995 11.6821 10.0434 11.614ZM16.9792 12.7793L17.5571 13.4854L17.7336 13.3411C18.0067 13.1179 18.2514 13.1629 18.5191 13.3545C18.9204 13.6415 19.2687 14.1352 19.5568 14.5349C19.9463 15.0757 20.4989 15.4363 21.1138 14.9936C21.4819 14.7291 21.7072 14.2441 21.8859 13.8401L21.8998 13.8079C22.2057 13.1168 21.7378 12.0942 21.4636 11.4525C21.3697 11.233 21.2721 11.0146 21.1986 10.7877C20.8858 9.82139 20.7103 8.77406 20.6095 7.76484C20.5064 6.73576 20.4689 5.84779 20.6561 4.82568C20.0901 4.70335 18.1832 5.55859 17.5566 5.79091C16.821 6.06401 14.9656 6.5984 14.4677 7.04909L15.1003 7.57812C15.9936 7.10704 16.4449 7.1446 17.3961 6.81248C18.0013 6.60108 18.6087 6.3972 19.2129 6.18312L19.612 6.04148L19.6185 6.46534C19.6254 6.92945 19.6566 7.39302 19.7027 7.85444C19.81 8.92859 19.9983 10.0381 20.3315 11.0667C20.4136 11.3194 20.5209 11.5651 20.6256 11.8093C20.7774 12.165 21.1718 13.0379 21.08 13.3963L21.0736 13.421L21.0516 13.4715C20.9765 13.6415 20.8981 13.8143 20.8048 13.9753L20.5692 14.382L20.2945 14.0005C19.9442 13.5138 19.5412 12.9639 19.0503 12.6119C18.4172 12.1585 17.7701 12.1323 17.1563 12.6339L16.9798 12.7783L16.9792 12.7793Z" fill="black"/>
<path d="M8.82976 7.58885C7.80498 8.05242 6.47865 8.85347 5.57137 9.72696C5.17755 10.1058 4.87977 10.4819 4.75368 10.8204C4.67642 11.0275 4.68125 11.2191 4.80465 11.3768C4.97956 11.6005 5.33583 11.8152 5.92387 12.0121C6.19053 12.1011 6.52372 12.2052 6.8435 12.305C8.35922 12.7777 9.57984 13.1581 10.2747 14.2827C11.3917 16.0924 9.44195 18.4264 8.12314 20.006C7.92892 20.2383 7.75078 20.4513 7.59841 20.6455L6.40407 19.7066C6.55752 19.5113 6.7496 19.2816 6.95832 19.0311C7.99491 17.7901 9.52726 15.9556 8.98536 15.0784C8.591 14.4394 7.61021 14.1335 6.39227 13.7542C6.11273 13.6673 5.82086 13.5761 5.44313 13.4495C4.55516 13.1522 3.96497 12.7611 3.61086 12.3093C3.11939 11.6816 3.07324 10.9937 3.334 10.2919C3.54593 9.72159 3.97463 9.15876 4.51975 8.63403C5.43884 7.74928 6.74531 6.92676 7.85541 6.38057C8.07915 6.27058 9.23968 5.81291 9.28046 5.84135L10.4748 6.67996C10.382 6.87204 10.4029 6.93213 10.3686 7.28195C10.3144 7.83083 10.346 8.46556 10.4823 9.00531C10.588 9.42435 10.7372 9.75378 10.9244 9.84446C10.9405 9.85251 10.9577 9.85734 10.9743 9.85895C11.4481 9.90562 12.3387 8.74402 13.0319 7.83888C13.2385 7.56954 13.43 7.31897 13.5985 7.11884L14.7628 8.0932C14.6018 8.28528 14.4264 8.51384 14.2381 8.76011C13.319 9.95928 12.1397 11.4981 10.8257 11.3682C10.6245 11.3484 10.4372 11.2942 10.265 11.211C9.62062 10.8998 9.21661 10.1991 9.00897 9.37391C8.86839 8.81591 8.81259 8.1828 8.83084 7.58992" fill="black"/>
<path d="M11.1514 5.82257C11.8328 5.82257 12.3854 5.26993 12.3854 4.58853C12.3854 3.90713 11.8328 3.35449 11.1514 3.35449C10.47 3.35449 9.91733 3.90713 9.91733 4.58853C9.91733 5.26993 10.47 5.82257 11.1514 5.82257Z" fill="black"/>
</svg>
