<svg width="24" height="24" viewBox="0 0 24 24" fill="none" xmlns="http://www.w3.org/2000/svg">
<path d="M4.70595 15.8187C4.71791 15.2395 4.73667 14.4675 4.69963 14.2015C4.88008 11.9775 4.81182 9.8218 5.08006 7.59296L6.45539 7.76854C6.10016 8.64187 5.99306 11.0764 5.89552 12.9395L5.83292 15.8187H4.70595Z" fill="black"/>
<path d="M7.43054 6.13957C8.0792 6.13957 8.60105 5.61772 8.60105 4.96906C8.60105 4.3204 8.0792 3.79855 7.43054 3.79855C6.78188 3.79855 6.26003 4.32528 6.26003 4.96906C6.26003 5.61284 6.78188 6.13957 7.43054 6.13957Z" fill="black"/>
<path d="M5.18737 7.82692L5.08495 7.63671C5.08495 7.37823 5.27127 6.79048 5.89554 6.59539L6.30484 7.34577C6.68525 8.05295 7.15224 8.78754 7.60094 9.32403C7.79115 9.55325 8.09377 9.95334 8.22058 10.0558C8.29373 9.99235 8.71177 9.63597 8.82882 9.52867C9.19461 9.19703 9.69093 8.72918 10.0567 8.33901C10.1494 8.2366 10.6606 7.74075 10.9435 7.41398L11.2164 6.80004L12.0641 7.70987L11.513 8.33901C11.235 8.65603 10.9632 8.88046 10.8071 9.05116C10.3877 9.49986 9.87677 10.0156 9.51098 10.3473C9.11594 10.7033 8.72817 11.08 8.48919 11.1482L8.34287 11.1921L8.18192 11.1677C7.68445 11.0897 7.21648 10.6109 6.71413 10.0062C6.19228 9.38191 5.6068 8.60238 5.18737 7.82692Z" fill="black"/>
<path d="M11.6902 7.93406C12.1681 8.1613 12.7374 7.96196 12.9644 7.48754C13.1913 7.00913 12.9923 6.43902 12.5184 6.21177C12.0406 5.98453 11.4712 6.18386 11.2443 6.65829C11.0133 7.13271 11.2124 7.70681 11.6902 7.93406Z" fill="black"/>
<path d="M19.3088 14.2015C19.133 11.9775 19.1995 9.8218 18.9381 7.59296L17.5976 7.76854C17.9438 8.64187 18.0482 11.0764 18.1433 12.9395L18.2045 15.8317H19.3029C19.2913 15.2511 19.2725 14.4695 19.3088 14.2015Z" fill="black"/>
<path d="M16.647 6.13957C16.0148 6.13957 15.5062 5.61772 15.5062 4.96906C15.5062 4.3204 16.0148 3.79855 16.647 3.79855C17.2793 3.79855 17.7879 4.32528 17.7879 4.96906C17.7879 5.61284 17.2793 6.13957 16.647 6.13957Z" fill="black"/>
<path d="M18.8333 7.82692L18.9332 7.63671C18.9332 7.37823 18.7516 6.79048 18.1431 6.59539L17.7442 7.34577C17.3734 8.05295 16.9182 8.78754 16.4809 9.32403C16.2955 9.55325 16.0006 9.95334 15.877 10.0558C15.8057 9.99235 15.3982 9.63597 15.2841 9.52867C14.9276 9.19703 14.4439 8.72918 14.0873 8.33901C13.997 8.2366 13.4987 7.74075 13.223 7.41398L12.9571 6.80004L12.1308 7.70987L12.6679 8.33901C12.9389 8.65603 13.2039 8.88046 13.356 9.05116C13.7648 9.49986 14.2627 10.0156 14.6192 10.3473C15.0043 10.7033 15.3822 11.08 15.6152 11.1482L15.7578 11.1921L15.9146 11.1677C16.3995 11.0897 16.8556 10.6109 17.3452 10.0062C17.8539 9.38191 18.4245 8.60238 18.8333 7.82692Z" fill="black"/>
<path d="M12.4182 7.93406C11.9746 8.1613 11.4459 7.96196 11.2351 7.48754C11.0244 7.00913 11.2092 6.43902 11.6492 6.21177C12.0929 5.98453 12.6216 6.18386 12.8323 6.65829C13.0468 7.13271 12.8619 7.70681 12.4182 7.93406Z" fill="black"/>
<path d="M1.02567 16.9415H23.3171V18.23H1.02567V16.9415Z" fill="black"/>
</svg>
