<svg width="24" height="24" viewBox="0 0 24 24" fill="none" xmlns="http://www.w3.org/2000/svg">
<path d="M6.35034 7.04999V8.71601C7.89888 7.74951 9.62365 7.15146 11.4285 6.94854C11.5193 6.45728 11.6261 5.96067 11.7489 5.46941C9.84792 5.61892 8.0217 6.15291 6.35034 7.04999Z" fill="black"/>
<path d="M12.2507 3.24807C12.2507 3.85147 12.7419 4.34273 13.3507 4.34273C13.9594 4.34273 14.4507 3.85147 14.4507 3.24807C14.4507 2.64467 13.9594 2.15341 13.3507 2.15341C12.7419 2.15341 12.2507 2.64467 12.2507 3.24807Z" fill="black"/>
<path d="M12.0158 15.0971C12.4911 15.0064 12.9556 14.9316 13.4042 14.8782C13.1425 12.2137 13.2493 9.53841 13.7085 6.91122C15.4653 7.04472 17.1687 7.55201 18.7173 8.41172V6.78842C16.8751 5.90201 14.8566 5.4321 12.7954 5.4321C12.7581 5.4321 12.726 5.4321 12.6887 5.4321C11.8823 8.61997 11.6527 11.8666 12.0158 15.0971Z" fill="black"/>
<path d="M10.9477 12.7743C10.9317 11.9894 10.9424 11.2097 10.9905 10.4248C9.46329 11.9894 8.52348 13.8796 8.06425 16.2612C8.57688 16.0529 9.1162 15.8607 9.67154 15.6898C9.96523 14.6005 10.3817 13.634 10.9477 12.7743Z" fill="black"/>
<path d="M7.57317 19.0752C8.49696 18.5893 9.62365 18.1461 10.8358 17.799C12.379 17.3558 13.8955 17.1155 15.1023 17.1262C16.3572 17.1369 16.8004 17.4092 16.8591 17.4947C16.8484 17.6015 16.6241 18.066 15.5615 18.7388C15.5241 18.7602 15.4868 18.7816 15.4547 18.8083C15.663 18.8616 15.8712 18.9204 16.0848 18.9845C16.4853 19.1019 16.8805 19.1981 17.2649 19.2728C18.3062 18.3597 18.3916 17.6068 18.2474 17.0995C18.0712 16.4908 17.4198 15.7485 15.3105 15.6898C13.9329 15.6524 12.2028 15.9087 10.4353 16.416C8.67316 16.9233 7.06589 17.6228 5.91783 18.3811C5.33579 18.7655 4.92997 19.1286 4.6523 19.4651C4.68434 19.4651 4.71637 19.4651 4.74841 19.4651C5.66685 19.4651 6.59599 19.3369 7.57317 19.0752Z" fill="black"/>
<path d="M1.33107 19.8495L1 19.7534V21.2592C2.34029 21.649 3.54709 21.8466 4.75389 21.8466C5.98204 21.8466 7.21019 21.6437 8.58252 21.2379C9.82136 20.8694 10.9107 20.6879 12 20.6879C13.0893 20.6879 14.1786 20.8694 15.4175 21.2379C16.7898 21.6437 18.018 21.8466 19.2461 21.8466C20.4529 21.8466 21.6544 21.649 23 21.2592V19.7534L22.6689 19.8495C21.4888 20.1966 20.3675 20.3728 19.2515 20.3728C18.1301 20.3728 17.0087 20.1966 15.834 19.8495C14.4617 19.4437 13.2335 19.2408 12.0053 19.2408C10.7772 19.2408 9.54904 19.4437 8.17671 19.8495C6.99661 20.1966 5.87525 20.3728 4.75923 20.3728C3.63253 20.3728 2.51116 20.1966 1.33107 19.8495Z" fill="black"/>
</svg>
