<svg width="24" height="24" viewBox="0 0 24 24" fill="none" xmlns="http://www.w3.org/2000/svg">
<path d="M12.1329 12.8585C12.1113 12.8743 12.0892 12.8896 12.0676 12.9054V21.5802H13.4889V11.68C13.0757 12.109 12.6235 12.5022 12.1329 12.8585Z" fill="black"/>
<path d="M9.42307 2.4198H7.97815C8.38504 4.89118 10.0705 6.93671 12.3308 7.85157C12.6098 7.96474 12.8972 8.06054 13.192 8.13739C12.6019 9.2886 11.7918 10.2435 10.7711 10.9851C9.53361 11.8847 8.00973 12.4395 6.36425 12.5901C4.89564 12.7243 3.3728 12.5264 2.00052 12.0321V13.5302C3.11014 13.8734 4.28924 14.0524 5.4615 14.0524C5.80681 14.0524 6.15159 14.0371 6.49374 14.0055C8.39399 13.8318 10.1621 13.1849 11.607 12.1348C12.9372 11.1678 13.9616 9.90078 14.6632 8.36005C14.6648 8.36005 14.6669 8.36005 14.6685 8.36005C14.8322 7.92526 14.9543 7.45309 15.0354 6.94566C15.0196 6.94566 15.0043 6.94618 14.9885 6.94618C12.2503 6.94618 9.95893 5.00119 9.42307 2.4198Z" fill="black"/>
<path d="M14.9891 5.78866C15.6576 5.78866 16.1998 5.24649 16.1998 4.57798C16.1998 3.90947 15.6576 3.36729 14.9891 3.36729C14.3206 3.36729 13.7784 3.90947 13.7784 4.57798C13.7784 5.24649 14.3206 5.78866 14.9891 5.78866Z" fill="black"/>
<path d="M20.5551 2.4198C20.0829 4.69115 18.2511 6.47033 15.9524 6.8646C15.8813 7.38677 15.7702 7.87841 15.6218 8.33953C15.6307 8.339 15.6397 8.33795 15.6481 8.33742C18.8733 8.03896 21.4799 5.57706 21.9995 2.42033L20.5551 2.4198Z" fill="black"/>
</svg>
