<svg width="24" height="24" viewBox="0 0 24 24" fill="none" xmlns="http://www.w3.org/2000/svg">
<path d="M14.1621 4.40148V2.88127C13.6002 3.17728 13.0082 3.45323 12.366 3.70409C10.4444 4.46168 8.46762 4.89818 7.10294 4.85804L8.3171 6.15248C10.2287 5.94678 12.3559 5.26945 14.1621 4.40148Z" fill="black"/>
<path d="M3.82694 5.12898C4.46413 5.12898 4.9809 4.61221 4.9809 3.97503C4.9809 3.33785 4.46413 2.82108 3.82694 2.82108C3.18976 2.82108 2.67299 3.33785 2.67299 3.97503C2.67299 4.61221 3.18976 5.12898 3.82694 5.12898Z" fill="black"/>
<path d="M4.0177 12.7952L4.26856 13.9843L8.06156 10.3518L7.12334 9.37348L5.20176 11.2148C5.17668 9.71967 5.54795 8.08406 6.15503 7.08564L10.6504 11.872C9.60183 13.0862 8.7188 14.4208 8.00135 15.8607C7.16347 17.5515 6.5865 19.3326 6.28547 21.1789H7.66019C8.35758 17.2455 10.3695 13.6732 13.45 10.9639C15.7328 8.95705 18.4271 7.56729 21.327 6.8699V5.48515C20.5544 5.65574 19.7918 5.8765 19.0442 6.14241C16.646 6.99031 14.4635 8.26969 12.557 9.95045C12.2158 10.2515 11.8897 10.5575 11.5736 10.8786L6.12994 5.0888L5.63826 5.57045C4.91578 6.27285 4.35385 7.46193 4.06285 8.91691C3.79694 10.2465 3.77687 11.6613 4.0177 12.7952Z" fill="black"/>
</svg>
