<svg width="24" height="24" viewBox="0 0 24 24" fill="none" xmlns="http://www.w3.org/2000/svg">
<path d="M8.90945 22L13.1501 15.3431C12.7724 15.0656 12.379 14.8044 11.9693 14.5605L7.23028 22H8.90945Z" fill="black"/>
<path d="M5.72475 10.9388C5.72475 10.2474 5.14247 9.69134 4.44111 9.73488C3.84047 9.77212 3.35104 10.261 3.3138 10.8622C3.27026 11.5636 3.82578 12.1458 4.5177 12.1458C5.20962 12.1458 5.72475 11.605 5.72475 10.9388Z" fill="black"/>
<path d="M7.94266 15.0001C8.06646 14.3118 8.17242 13.6225 8.26055 12.9327C8.29885 12.6326 8.33347 12.3326 8.36494 12.0325C10.9994 12.8189 13.2467 14.0726 15.0538 15.7665C16.8017 17.4052 18.185 19.4999 19.1728 22H20.6883C18.5286 16.1122 14.4269 12.2775 8.48979 10.5931C8.48979 10.5915 8.48979 10.5899 8.48979 10.5884C8.03603 10.4609 7.57021 10.3413 7.09337 10.2317C7.00052 11.7393 6.81954 13.2464 6.54886 14.7483C6.22729 16.5334 5.78036 18.2944 5.21696 20.0061H6.70518C7.22242 18.3715 7.63683 16.6965 7.94266 15.0001Z" fill="black"/>
<path d="M8.26842 2.90542C8.23013 2.60326 8.18869 2.30111 8.14305 2L6.74243 2.21088C6.77705 2.44222 6.80957 2.67356 6.84 2.90542C7.12012 5.03363 7.21979 7.17967 7.13848 9.32833C7.6169 9.43587 8.08482 9.55233 8.54173 9.6777C8.64454 7.4131 8.55327 5.15008 8.26842 2.90542Z" fill="black"/>
</svg>
