<svg width="24" height="24" viewBox="0 0 24 24" fill="none" xmlns="http://www.w3.org/2000/svg">
<path d="M16.5288 4.445C16.5288 3.84905 16.0454 3.36572 15.4495 3.36572C14.8535 3.36572 14.3702 3.84905 14.3702 4.445C14.3702 5.04096 14.8535 5.52429 15.4495 5.52429C16.0454 5.52429 16.5288 5.04096 16.5288 4.445Z" fill="black"/>
<path d="M5.87649 20.6342C8.46207 20.6342 10.569 18.5273 10.569 15.9417C10.569 13.3561 8.46207 11.2491 5.87649 11.2491C3.29091 11.2491 1.18396 13.3561 1.18396 15.9417C1.18396 18.5273 3.29091 20.6342 5.87649 20.6342ZM5.87649 12.5161C7.76758 12.5161 9.30204 14.0506 9.30204 15.9417C9.30204 17.8328 7.76758 19.3672 5.87649 19.3672C3.9854 19.3672 2.45094 17.8328 2.45094 15.9417C2.45094 14.0506 3.99009 12.5161 5.87649 12.5161Z" fill="black"/>
<path d="M18.1236 20.6342C20.7091 20.6342 22.8161 18.5273 22.8161 15.9417C22.8161 13.3561 20.7091 11.2491 18.1236 11.2491C15.538 11.2491 13.431 13.3561 13.431 15.9417C13.431 18.5273 15.538 20.6342 18.1236 20.6342ZM18.1236 12.5161C20.0146 12.5161 21.5491 14.0506 21.5491 15.9417C21.5491 17.8328 20.0146 19.3672 18.1236 19.3672C16.2325 19.3672 14.698 17.8328 14.698 15.9417C14.698 14.0506 16.2372 12.5161 18.1236 12.5161Z" fill="black"/>
<path d="M18.781 10.5406V9.27358C16.4207 9.27358 14.7736 8.18023 13.8774 6.03105L13.5348 5.21454L8.45278 9.69591C8.44809 9.69121 8.43871 9.69122 8.43402 9.68652L7.34064 10.6485C9.65875 11.2914 11.3668 13.4218 11.3668 15.9417V17.1617H12.6338V15.9417C12.6338 13.6095 11.4466 11.5495 9.64468 10.3341L13.0843 7.30272C14.2527 9.42843 16.2048 10.5406 18.781 10.5406Z" fill="black"/>
</svg>
