<svg width="24" height="24" viewBox="0 0 24 24" fill="none" xmlns="http://www.w3.org/2000/svg">
<path d="M9.99384 13.7212L9.95971 13.7846C11.0373 14.0186 12.0124 14.5354 12.7877 15.3009C13.9335 16.4273 14.5869 18.0168 14.6552 19.8014H15.9716C15.9034 17.6609 15.1086 15.7349 13.7092 14.3599C12.8023 13.4676 11.6809 12.8533 10.4424 12.5461C10.2961 12.8776 10.1596 13.2287 10.0329 13.5993L9.99384 13.7212Z" fill="black"/>
<path d="M17.122 19.0456V19.3382C17.122 20.2109 17.8339 20.9228 18.7067 20.9228H21.8809C22.7536 20.9228 23.4655 20.2109 23.4655 19.3382V19.0456C23.4655 18.2167 22.8268 17.539 22.0174 17.4658L21.481 15.3156H18.2874V16.6321H20.4571L20.6619 17.461H20.657L20.9886 18.7774H21.8857C22.032 18.7774 22.1539 18.8993 22.1539 19.0456V19.3382C22.1539 19.4844 22.032 19.6063 21.8857 19.6063H18.7116C18.5653 19.6063 18.4434 19.4844 18.4434 19.3382V19.0456C18.4434 18.8993 18.5653 18.7774 18.7116 18.7774H20.1353L19.8086 17.461H18.7164C17.8339 17.461 17.122 18.1728 17.122 19.0456Z" fill="black"/>
<path d="M16.6245 4.19865C16.6245 4.81789 17.1267 5.3201 17.7459 5.3201C18.3652 5.3201 18.8674 4.81789 18.8674 4.19865C18.8674 3.57942 18.3652 3.07721 17.7459 3.07721C17.1267 3.07721 16.6245 3.57942 16.6245 4.19865Z" fill="black"/>
<path d="M5.43471 17.495C7.00474 16.5004 8.27246 15.1351 9.20374 13.4335L9.23301 13.3847L9.2525 13.3311C9.79372 11.7464 10.5056 10.4885 11.4369 9.47916C12.2219 8.62589 13.1873 7.92376 14.3624 7.35817C14.533 8.59176 14.8939 9.69857 15.4302 10.664C16.3956 12.39 17.8925 13.5944 19.8916 14.2477V12.8484C16.615 11.5758 15.7276 8.66489 15.5814 6.35374L15.5228 5.44684L14.6793 5.78815C11.2955 7.14851 9.23788 9.33288 8.02379 12.863C6.47327 15.6617 3.95733 17.417 0.53449 17.9924V19.3284C2.38731 19.0309 4.03535 18.3873 5.43471 17.495Z" fill="black"/>
</svg>
