<svg width="24" height="24" viewBox="0 0 24 24" fill="none" xmlns="http://www.w3.org/2000/svg">
<path d="M12.1698 7.41504V6.10635C12.6506 6.36118 13.1571 6.59873 13.7066 6.81468C15.3507 7.46687 17.042 7.84263 18.2096 7.80808L17.1708 8.92242C15.5353 8.74533 13.7152 8.16225 12.1698 7.41504Z" fill="black"/>
<path d="M21.0127 8.0414C20.4675 8.0414 20.0254 7.59653 20.0254 7.04801C20.0254 6.49948 20.4675 6.05461 21.0127 6.05461C21.5579 6.05461 22 6.49948 22 7.04801C22 7.59653 21.5579 8.0414 21.0127 8.0414Z" fill="black"/>
<path d="M20.8495 14.6411L20.6349 15.6647L17.3896 12.5376L18.1924 11.6954L19.8365 13.2805C19.8579 11.9934 19.5403 10.5854 19.0209 9.7259L15.1746 13.8463L21.4992 19.8693L19.953 19.9014L7.69774 8.42152H9.27385L14.3848 12.9912L19.0423 8.00689L19.463 8.42152C20.0811 9.0262 20.5619 10.0498 20.8109 11.3024C21.0384 12.4469 21.0556 13.6649 20.8495 14.6411Z" fill="black"/>
<path d="M5.23599 6.02849C5.77074 6.02849 6.20095 5.59828 6.20095 5.06353C6.20095 4.52878 5.77074 4.09857 5.23599 4.09857C4.70125 4.09857 4.27103 4.52878 4.27103 5.06353C4.27103 5.59426 4.70125 6.02849 5.23599 6.02849Z" fill="black"/>
<path d="M7.9293 9.53884L8.66282 10.2724L7.68479 11.0601L5.59314 9.10404V13.2826H10.2521L9.02958 18.4022L8.17381 17.9132L9.02958 14.2456H5.72874C5.64283 15.1154 5.2495 16.5043 4.84237 17.3741C4.44272 18.2215 3.92731 19.0503 3.37826 19.8081H2C2.68725 18.942 3.35958 17.9378 3.84514 16.9075C4.22985 16.0899 4.49503 15.2574 4.53985 14.4809C4.56599 14.0703 4.52864 13.6746 4.42032 13.3012L4.53985 6.63286L7.68479 9.71531L7.9293 9.53884Z" fill="black"/>
<path d="M6.08901 7.64392L5.17868 6.66589H11.6581V7.64392H6.08901Z" fill="black"/>
</svg>
