<svg width="24" height="24" viewBox="0 0 24 24" fill="none" xmlns="http://www.w3.org/2000/svg">
<path d="M15.1613 12.4307C14.4661 13.3519 13.9244 14.4024 13.5224 15.6008L14.7595 15.9253C15.1144 14.8881 15.5861 13.9839 16.1831 13.1972C17.0073 12.1096 17.689 11.4251 18.9733 10.7608C18.6214 11.8878 18.4046 13.1124 18.3338 14.3087C18.2838 15.19 18.3115 16.065 18.4248 16.8868L19.7705 17.2398C19.6034 16.3683 19.5498 15.3886 19.6097 14.3853C19.7201 12.4652 20.2367 10.4959 21.1147 9.05311L21.1105 9.05201L21.2298 8.90531L16.7204 5.23934C17.5071 4.2932 18.6204 3.54843 19.8428 2.96578C21.1328 2.34744 22.5369 1.90589 23.8093 1.59002L23.5052 0.357727C22.1571 0.68935 20.6646 1.1611 19.2881 1.81905C17.8759 2.49429 16.5784 3.37765 15.6592 4.52042L15.6622 4.52567L14.9243 5.42232L19.4929 9.13496C17.8746 9.69385 16.1593 11.1084 15.1613 12.4307Z" fill="black"/>
<path d="M10.7587 8.28369V6.88293C10.2418 7.15568 9.69727 7.40994 9.10656 7.64109C7.33904 8.33916 5.52077 8.74136 4.26551 8.70438L5.38232 9.8971C7.1406 9.70756 9.09733 9.08346 10.7587 8.28369Z" fill="black"/>
<path d="M1.25208 8.95412C1.83817 8.95412 2.31351 8.47795 2.31351 7.89084C2.31351 7.30372 1.83817 6.82755 1.25208 6.82755C0.66598 6.82755 0.190643 7.30372 0.190643 7.89084C0.190643 8.47795 0.66598 8.95412 1.25208 8.95412Z" fill="black"/>
<path d="M1.42759 16.0181L1.65834 17.1137L5.14723 13.7667L4.28423 12.8652L2.51672 14.5618C2.49365 13.1842 2.83515 11.6771 3.39356 10.7571L7.52852 15.1674V23.6423H8.74891V15.5293L9.14147 15.1674L15.7496 8.91717L14.9237 8.07068L8.37767 14.2521L3.37048 8.91717L2.91822 9.36097C2.25367 10.0082 1.73679 11.1038 1.46912 12.4445C1.22453 13.6696 1.20608 14.9733 1.42759 16.0181Z" fill="black"/>
<path fill-rule="evenodd" clip-rule="evenodd" d="M14.1161 2.57861C14.6852 2.72789 15.0224 3.3038 14.8724 3.87037C14.7225 4.43694 14.144 4.77265 13.575 4.62337L13.563 4.62016C14.115 4.75826 14.673 4.43108 14.8185 3.8816C14.9649 3.32819 14.6355 2.76565 14.0797 2.61984C13.532 2.47615 12.9659 2.80139 12.8155 3.3436L12.8186 3.33161C12.9675 2.7693 13.5513 2.43045 14.1161 2.57861ZM12.8155 3.3436L12.8124 3.35535C12.6659 3.90877 12.9953 4.4713 13.5511 4.61712L13.563 4.62016C13.0052 4.46708 12.6745 3.9023 12.8155 3.3436Z" fill="black"/>
<path d="M14.8185 3.8816C14.9649 3.32819 14.6355 2.76565 14.0797 2.61984C13.532 2.47615 12.9659 2.80139 12.8155 3.3436C12.6745 3.9023 13.0052 4.46708 13.563 4.62016C14.115 4.75826 14.673 4.43108 14.8185 3.8816Z" fill="black"/>
</svg>
