<svg width="24" height="24" viewBox="0 0 24 24" fill="none" xmlns="http://www.w3.org/2000/svg">
<path d="M9.61279 5.00308C10.2443 5.00308 10.7523 4.49503 10.7523 3.86353C10.7523 3.23202 10.2443 2.72397 9.61279 2.72397C8.98128 2.72397 8.47323 3.23202 8.47323 3.86353C8.47323 4.49028 8.98128 5.00308 9.61279 5.00308Z" fill="black"/>
<path d="M15.2481 7.33579L16.0422 8.34641L12.505 10.9451L10.0349 8.63516V13.5697H15.5369L14.0931 19.6157L13.0825 19.0382L14.0931 14.707H10.195C10.0936 15.7342 9.62909 17.3744 9.1483 18.4016C8.67634 19.4024 8.06767 20.3811 7.41927 21.276H5.79164C6.60324 20.2532 7.39721 19.0673 7.97063 17.8505C8.42495 16.885 8.73811 15.9019 8.79104 14.9849C8.82191 14.5 8.7778 14.0327 8.64988 13.5918L8.79104 5.71684L12.505 9.35703L15.2481 7.33579Z" fill="black"/>
<path d="M10.7009 6.91083L9.47375 5.75583H18.2084V6.91083H10.7009Z" fill="black"/>
</svg>
