<svg width="24" height="24" viewBox="0 0 24 24" fill="none" xmlns="http://www.w3.org/2000/svg">
<path d="M3.80284 15.5939L3.32835 14.8243C2.87476 14.0908 2.53336 13.0949 2.38564 12.097C2.22399 11.005 2.31897 10.0311 2.64869 9.35759L2.87218 8.89672L8.14077 11.5829L9.8446 8.40761L10.8632 8.68815L5.58441 19.0348L4.37054 19.0348L7.74354 12.5106L3.39142 10.2888C3.21692 11.1405 3.3677 12.3792 3.7609 13.4199L4.64463 11.6475L5.54777 12.0968L3.80284 15.5939Z" fill="black"/>
<path d="M11.5444 7.35301L11.122 8.18095L10.115 7.90363L10.5524 7.08857L11.5444 7.35301Z" fill="black"/>
<path d="M11.8036 6.84494L12.5233 5.43429L11.6918 4.96521L10.8233 6.58362L11.8036 6.84494Z" fill="black"/>
<path d="M8.32704 6.39638L7.94512 5.33181C7.62578 5.68035 7.28031 6.0224 6.89338 6.35949C5.73739 7.37302 4.46206 8.17557 3.49583 8.49049L4.67172 9.09176C5.95933 8.46723 7.27962 7.4582 8.32704 6.39638Z" fill="black"/>
<path d="M1.26865 9.50373C1.71509 9.34357 1.94732 8.85179 1.78725 8.40559C1.62717 7.95938 1.13527 7.72739 0.688838 7.88756C0.242405 8.04772 0.0101665 8.53949 0.170246 8.9857C0.330326 9.4319 0.822221 9.66389 1.26865 9.50373Z" fill="black"/>
<path d="M16.0904 15.6036C15.6337 16.5827 15.758 17.8143 16.4192 18.945H15.2976C14.7168 17.655 14.6729 16.2797 15.2099 15.1374C15.6118 14.2749 16.295 13.6416 17.1609 13.2958C17.318 13.6105 17.4824 13.9213 17.6577 14.2243C16.949 14.4652 16.401 14.9431 16.0904 15.6036Z" fill="black"/>
<path d="M15.8646 9.82946C15.4481 10.3725 14.9384 10.8405 14.3568 11.212C13.4271 11.805 12.3537 12.1194 11.248 12.1301V11.1656C12.1706 11.1548 13.0645 10.8905 13.8363 10.3975C14.5902 9.91877 15.1933 9.24715 15.5917 8.45406L15.6671 8.87204C15.7174 9.19713 15.7856 9.51508 15.8646 9.82946Z" fill="black"/>
<path d="M19.7772 15.9099C17.9571 13.9486 16.7437 11.48 16.2627 8.77206L16.1729 8.27192L17.112 8.18979L17.3217 9.14003C17.8279 11.455 18.9156 13.5592 20.4879 15.2525C21.4608 16.3028 22.6059 17.1817 23.8803 17.8676V18.9536C22.3331 18.1891 20.9403 17.1602 19.7772 15.9099Z" fill="black"/>
<path d="M15.5915 7.44309C15.1355 7.44309 14.7658 7.07513 14.7658 6.62142C14.7658 6.16772 15.1355 5.79976 15.5915 5.79976C16.0474 5.79976 16.4171 6.16772 16.4171 6.62142C16.4171 7.07513 16.0474 7.44309 15.5915 7.44309Z" fill="black"/>
<path d="M8.749 7.5274L8.97787 6.66883L15.0624 8.29082C14.8962 8.69135 14.7651 8.86195 14.5069 9.11319L8.749 7.5274Z" fill="black"/>
</svg>
