<svg width="24" height="24" viewBox="0 0 24 24" fill="none" xmlns="http://www.w3.org/2000/svg">
<path d="M12.1862 6.97304V5.53819C12.7133 5.81758 13.2687 6.07803 13.8711 6.31481C15.6737 7.02987 17.5281 7.44185 18.8082 7.40397L17.6693 8.62573C15.8761 8.43158 13.8805 7.79228 12.1862 6.97304Z" fill="black"/>
<path d="M21.8815 7.65978C21.2838 7.65978 20.799 7.17203 20.799 6.57062C20.799 5.96921 21.2838 5.48146 21.8815 5.48146C22.4793 5.48146 22.964 5.96921 22.964 6.57062C22.964 7.17203 22.4793 7.65978 21.8815 7.65978Z" fill="black"/>
<path d="M21.7027 14.8957L21.4673 16.018L17.9092 12.5895L18.7893 11.6661L20.5919 13.404C20.6155 11.9928 20.2672 10.449 19.6977 9.50667L15.4807 14.0243L22.415 20.6279L20.7197 20.6632L7.283 8.07655H9.01105L14.6147 13.0867L19.7212 7.62194L20.1825 8.07655C20.8602 8.73952 21.3873 9.86183 21.6603 11.2351C21.9098 12.49 21.9286 13.8254 21.7027 14.8957Z" fill="black"/>
<path d="M4.58393 5.45282C5.17023 5.45282 5.64192 4.98114 5.64192 4.39484C5.64192 3.80854 5.17023 3.33685 4.58393 3.33685C3.99763 3.33685 3.52595 3.80854 3.52595 4.39484C3.52595 4.97673 3.99763 5.45282 4.58393 5.45282Z" fill="black"/>
<path d="M7.53688 9.30158L8.34112 10.1058L7.2688 10.9695L4.97551 8.82487V13.4062H10.0836L8.74323 19.0194L7.80496 18.4833L8.74323 14.4621H5.12418C5.02999 15.4158 4.59874 16.9385 4.15237 17.8922C3.71419 18.8213 3.14909 19.73 2.5471 20.5609H1.03598C1.78949 19.6113 2.52663 18.5102 3.059 17.3806C3.4808 16.4842 3.77153 15.5714 3.82068 14.7201C3.84934 14.2699 3.80838 13.836 3.68962 13.4267L3.82068 6.11545L7.2688 9.49506L7.53688 9.30158Z" fill="black"/>
<path d="M5.51918 7.22398L4.52109 6.15166H11.6252V7.22398H5.51918Z" fill="black"/>
</svg>
