<svg width="24" height="24" viewBox="0 0 24 24" fill="none" xmlns="http://www.w3.org/2000/svg">
<path d="M12.0351 3.36701C12.0277 3.51115 12.0239 3.65626 12.0239 3.80224C12.0239 4.06308 12.0359 4.32111 12.0594 4.57581C16.1325 4.60774 19.4244 7.91944 19.4244 12L19.4244 12.026C19.7259 11.9929 20.0323 11.9759 20.3426 11.9759C20.4398 11.9759 20.5366 11.9776 20.633 11.9809C20.6227 7.23346 16.7805 3.38591 12.0351 3.36701Z" fill="black"/>
<path d="M20.6323 12.116C20.5362 12.1193 20.4396 12.121 20.3426 12.121C20.0322 12.121 19.7257 12.104 19.4241 12.0708C19.3863 16.1157 16.114 19.3874 12.0689 19.4242C12.0391 19.7103 12.0239 20.0007 12.0239 20.2946C12.0239 20.408 12.0262 20.5208 12.0307 20.6331C16.7458 20.6167 20.5704 16.8203 20.6323 12.116Z" fill="black"/>
<path d="M12.0169 20.6331C12.0214 20.5208 12.0236 20.408 12.0236 20.2946C12.0236 20.0008 12.0084 19.7105 11.9787 19.4245C7.91336 19.413 4.61653 16.1343 4.5759 12.0759C4.28963 12.1057 3.99906 12.121 3.70491 12.121C3.59194 12.121 3.4795 12.1187 3.36762 12.1143C3.42876 16.8295 7.27018 20.6331 12 20.6331L12.0169 20.6331Z" fill="black"/>
<path d="M12.0112 3.36695L12 3.36694C7.23785 3.36694 3.37629 7.22271 3.3669 11.9826C3.47901 11.9782 3.5917 11.9759 3.70491 11.9759C3.99894 11.9759 4.2894 11.9911 4.57554 12.0209L4.57552 12C4.57552 7.90356 7.89318 4.58196 11.9882 4.57559C12.0116 4.32096 12.0236 4.063 12.0236 3.80224C12.0236 3.65624 12.0199 3.51111 12.0124 3.36695L12.0112 3.36695Z" fill="black"/>
<path fill-rule="evenodd" clip-rule="evenodd" d="M12.0259 4.76952L11.9601 4.83536C11.4962 8.58019 8.54344 11.5534 4.80834 12.0484C8.56326 12.5461 11.5276 15.5483 11.9673 19.3212L12.0259 19.3799L12.0797 19.3261C12.5174 15.5509 15.4826 12.5463 19.2392 12.0484C15.5025 11.5532 12.5487 8.57756 12.0868 4.83039L12.0259 4.76952ZM11.9998 13.4752C12.8145 13.4752 13.4749 12.8147 13.4749 12.0001C13.4749 11.1854 12.8145 10.5249 11.9998 10.5249C11.1851 10.5249 10.5247 11.1854 10.5247 12.0001C10.5247 12.8147 11.1851 13.4752 11.9998 13.4752Z" fill="black"/>
<path fill-rule="evenodd" clip-rule="evenodd" d="M12.0124 3.36695C12.0199 3.51111 12.0236 3.65624 12.0236 3.80224C12.0236 4.063 12.0116 4.32096 11.9882 4.57559C11.9801 4.66257 11.9708 4.74917 11.9601 4.83536L12.0259 4.76952L12.0868 4.83039C12.0764 4.74592 12.0673 4.66105 12.0594 4.57581C12.0359 4.32111 12.0239 4.06308 12.0239 3.80224C12.0239 3.65626 12.0277 3.51115 12.0351 3.36701L12.0124 3.36695ZM19.4243 12.049L19.4244 12.026C19.7259 11.9929 20.0323 11.9759 20.3426 11.9759C20.4398 11.9759 20.5366 11.9776 20.633 11.9809L20.6331 12C20.6331 12.0388 20.6328 12.0774 20.6323 12.116C20.5362 12.1193 20.4396 12.121 20.3426 12.121C20.0322 12.121 19.7257 12.104 19.4241 12.0708L19.4243 12.049ZM12.0259 19.3799L12.0797 19.3261C12.0759 19.3587 12.0723 19.3914 12.0689 19.4242C12.0391 19.7103 12.0239 20.0007 12.0239 20.2946C12.0239 20.408 12.0262 20.5208 12.0307 20.6331L12.0169 20.6331C12.0214 20.5208 12.0236 20.408 12.0236 20.2946C12.0236 20.0008 12.0084 19.7105 11.9787 19.4245C11.9751 19.39 11.9713 19.3556 11.9673 19.3212L12.0259 19.3799ZM3.70491 11.9759C3.99894 11.9759 4.2894 11.9911 4.57554 12.0209C4.57559 12.0393 4.57571 12.0576 4.5759 12.0759C4.28963 12.1057 3.99906 12.121 3.70491 12.121C3.59194 12.121 3.4795 12.1187 3.36762 12.1143C3.36713 12.0762 3.36688 12.0382 3.36688 12L3.3669 11.9826C3.47901 11.9782 3.5917 11.9759 3.70491 11.9759Z" fill="black"/>
</svg>
