<svg width="24" height="24" viewBox="0 0 24 24" fill="none" xmlns="http://www.w3.org/2000/svg">
<path d="M19.2755 6.82628C18.8716 6.97317 18.5823 7.36336 18.5823 7.81782C18.5823 8.40081 19.0552 8.87363 19.6382 8.87363C20.2211 8.87363 20.694 8.40081 20.694 7.81782C20.694 7.25778 20.2579 6.79874 19.707 6.7666C19.6841 6.7666 19.6611 6.76202 19.6382 6.76202C19.5096 6.76202 19.3903 6.78497 19.2755 6.82628Z" fill="black"/>
<path d="M17.4349 8.27228C17.1227 8.33655 16.3699 8.5064 15.8925 8.63034C14.6209 8.96086 12.9316 9.49335 11.7106 10.2278C10.8384 10.7557 10.2324 11.3617 10.3242 12.0181C10.4482 12.8949 10.5124 13.8267 10.3885 14.6301C10.2416 15.5711 9.84683 16.3469 9.02973 16.7187C8.28148 17.0584 7.55619 17.4945 6.90435 17.9398C6.0597 18.5228 5.34816 19.1242 4.88912 19.574L3.98481 18.6421C4.48517 18.151 5.25637 17.4991 6.16987 16.8748C6.8814 16.3836 7.67553 15.9108 8.49723 15.5344C8.84151 15.3783 9.02514 14.9606 9.10318 14.4373C9.20417 13.7717 9.14909 12.9637 9.03891 12.1971C8.85989 10.9118 9.74583 9.89731 11.0403 9.11693C12.8811 8.00604 15.5023 7.42764 16.7233 7.17057L17.4349 8.27228Z" fill="black"/>
<path d="M14.3362 6.78038C12.1787 4.70549 9.07551 3.10801 8.10234 2.69028L9.1811 1.79514C11.9491 3.27327 13.5053 4.11791 15.7271 6.33511L14.3362 6.78038Z" fill="black"/>
<path d="M16.7282 7.16137C17.7243 8.41457 18.4083 9.99369 18.9683 11.3066C19.2392 11.9309 19.4779 12.4863 19.6799 12.8719C20.2766 11.7243 20.8964 10.6226 21.5344 9.49792L22.5764 10.0258L20.5612 13.9553C20.2215 14.5291 19.8405 14.7724 19.3815 14.4969C18.7572 14.1251 18.3119 13.0923 17.7656 11.8253C17.2331 10.5859 16.5905 9.08937 15.6999 7.97847L16.7282 7.16137Z" fill="black"/>
<path d="M15.7733 14.2032C15.7871 14.116 15.7687 14.1986 15.7412 14.2858L15.7733 14.2032ZM11.3114 11.7565C11.674 11.7565 13.7948 12.2568 15.1628 12.7709C15.631 12.9454 16.0533 13.1336 16.3517 13.3126C16.8567 13.6156 17.1321 13.992 17.0495 14.4373V14.4419C17.0265 14.5612 16.9806 14.6714 16.9071 14.7724C16.9026 14.7816 16.2599 16.503 15.6769 18.0454C15.3051 19.0278 15.1306 19.3261 15.0388 19.597L13.6755 19.6016C13.7948 19.2573 14.1024 18.5366 14.465 17.5909C14.9103 16.4158 15.429 15.0754 15.6907 14.4235C15.6861 14.4281 15.6861 14.4281 15.6815 14.4281C15.4428 14.2858 15.0985 14.1343 14.7129 13.9874C13.4643 13.5192 11.6603 13.0785 11.3757 13.0785L11.3114 11.7565Z" fill="black"/>
<path d="M17.6965 19.6796H16.4341C16.301 20.1433 15.8695 20.483 15.3645 20.483H12.3807V21.7224H15.3645C16.558 21.7224 17.545 20.8318 17.6965 19.6796Z" fill="black"/>
<path d="M6.58327 21.7499L5.70649 20.841C5.27957 21.0659 4.73789 20.9925 4.38442 20.6252L2.31871 18.4769L1.42357 19.3353L3.48928 21.4836C4.32015 22.3421 5.65141 22.4385 6.58327 21.7499Z" fill="black"/>
</svg>
