<svg width="24" height="24" viewBox="0 0 24 24" fill="none" xmlns="http://www.w3.org/2000/svg">
<path d="M15.2232 21.7358H16.6675L16.6729 21.6288C16.7585 19.5265 16.2396 17.4563 15.1804 15.6429C14.6401 14.7228 13.9768 13.8883 13.2118 13.1715C12.9229 13.5566 12.618 13.9311 12.2917 14.2895C12.9283 14.8993 13.4846 15.6001 13.9393 16.3757C14.8594 17.9538 15.3088 19.7512 15.2392 21.5754L15.2232 21.7358Z" fill="black"/>
<path d="M15.068 6.72548L15.2017 5.99261L14.4635 5.88562C12.725 5.6342 10.9971 5.94446 9.45649 6.78967C7.91586 7.63487 6.72295 8.92408 6.00079 10.5235L5.8617 10.8285H7.45582C8.05495 9.65159 8.9804 8.6994 10.1466 8.05747C11.179 7.49044 12.3184 7.21762 13.4792 7.24972C12.8266 9.88697 11.302 12.2781 9.13018 14.0541C6.98507 15.8088 4.31037 16.8572 1.51263 17.0766V18.5262C4.64203 18.3069 7.63769 17.1407 10.0449 15.1775C12.6929 13.0003 14.4796 10.0047 15.068 6.72548Z" fill="black"/>
<path d="M15.2657 4.61783C15.9451 4.61783 16.4961 4.06684 16.4961 3.38747C16.4961 2.70809 15.9451 2.1571 15.2657 2.1571C14.5864 2.1571 14.0354 2.70809 14.0354 3.38747C14.0354 4.06684 14.5864 4.61783 15.2657 4.61783Z" fill="black"/>
<path d="M18.3151 20.6125C18.3151 21.2919 18.8661 21.8429 19.5455 21.8429C20.2248 21.8429 20.7758 21.2919 20.7758 20.6125C20.7758 19.9331 20.2248 19.3821 19.5455 19.3821C18.8661 19.3821 18.3151 19.9331 18.3151 20.6125Z" fill="black"/>
<path d="M15.9611 6.88594C15.8327 7.54391 15.6883 8.13235 15.5064 8.72078C16.0788 9.40015 16.7475 9.99394 17.5018 10.4754C18.9087 11.3741 20.5402 11.8555 22.2199 11.8555C22.3109 11.8555 22.3965 11.8555 22.4874 11.8502V10.4058C22.3965 10.4112 22.3109 10.4112 22.2199 10.4112C20.8184 10.4112 19.4543 10.0153 18.2828 9.26107C17.3359 8.65124 16.5389 7.83813 15.9611 6.88594Z" fill="black"/>
</svg>
