<svg width="24" height="24" viewBox="0 0 24 24" fill="none" xmlns="http://www.w3.org/2000/svg">
<path d="M13.5009 13.1316C13.2969 13.5777 13.0706 14.0136 12.8225 14.4385C13.2659 14.73 13.68 15.073 14.0562 15.4638C15.3414 16.8 16.0486 18.5574 16.0486 20.4119C16.0486 20.9574 15.9867 21.4893 15.87 22H17.3663C17.463 21.4849 17.514 20.9541 17.514 20.4119C17.514 18.1769 16.6608 16.0592 15.1123 14.4483C14.6239 13.9403 14.0828 13.5001 13.5009 13.1316Z" fill="black"/>
<path d="M21.1091 9.75522C19.7517 9.75522 18.4328 9.37042 17.2958 8.64206C16.2461 7.97069 15.3946 7.03772 14.822 5.93704L14.8388 6.43148C14.8442 6.5905 14.8469 6.75224 14.8469 6.91235C14.8469 7.41601 14.822 7.91588 14.7731 8.41086C15.2806 8.97042 15.8619 9.46432 16.5056 9.8768C17.8792 10.7555 19.4711 11.2206 21.1091 11.2206C21.3745 11.2206 21.6399 11.2076 21.9047 11.1832V9.70963C21.641 9.73948 21.3739 9.75522 21.1091 9.75522Z" fill="black"/>
<path d="M13.5471 4.49661C14.2364 4.49661 14.7954 3.93758 14.7954 3.2483C14.7954 2.55902 14.2364 2 13.5471 2C12.8578 2 12.2988 2.55902 12.2988 3.2483C12.2988 3.93758 12.8578 4.49661 13.5471 4.49661Z" fill="black"/>
<path d="M13.9172 6.46296L13.8917 5.72754L13.1563 5.75631C9.68439 5.89037 6.34328 8.23935 4.74979 11.6337H6.39918C7.72075 9.30312 10.01 7.65753 12.454 7.29172C12.359 10.508 11.0619 13.5186 8.77639 15.8035C6.93107 17.6488 4.61302 18.8494 2.09525 19.2934V20.7788C5.00542 20.3213 7.68928 18.9628 9.81248 16.8396C12.4643 14.1878 13.9248 10.6621 13.9248 6.9118C13.9248 6.76201 13.9221 6.61058 13.9172 6.46242" fill="black"/>
</svg>
