<svg width="24" height="24" viewBox="0 0 24 24" fill="none" xmlns="http://www.w3.org/2000/svg">
<path d="M13.33 13.076L12.1176 13.7754C10.2477 12.7542 8.16788 11.3133 6.76428 9.69055L5.09025 14.0599C6.63374 15.1231 8.01866 17.2028 8.65284 18.9375C9.02589 19.9587 9.24509 21.0452 9.3197 22.211H7.93939C7.86945 21.2085 7.67829 20.2758 7.36119 19.4085C6.83426 17.9676 6.33063 17.0303 5.12754 15.8832C5.02029 16.9697 4.66121 18.0842 4.15293 19.1707C3.65398 20.2292 3.0105 21.2644 2.32503 22.211H0.604317C1.46233 21.1292 2.30171 19.8748 2.90792 18.5878C3.38822 17.5666 3.71928 16.5267 3.77524 15.5567C3.80788 15.0438 3.76124 14.5495 3.62601 14.0832L6.52648 6.81807C7.66894 9.40144 10.9238 11.761 13.33 13.076Z" fill="black"/>
<path d="M16.3084 16.395C15.1374 18.6286 13.7378 21.3379 13.4718 22.112L12.2261 21.683C12.5154 20.8483 13.8544 18.2369 15.0208 16.0173C15.394 16.1945 15.8419 16.3204 16.3084 16.395Z" fill="black"/>
<path d="M18.8421 16.2877C19.1641 18.3955 19.276 20.5265 19.444 22.6529L18.1143 22.6715L17.5311 16.4696C18.0023 16.4556 18.4549 16.395 18.8421 16.2877ZM23.2464 10.5335C22.9851 10.5055 22.5932 10.4682 22.136 10.4309C21.1329 10.3423 19.8219 10.2303 18.4642 10.0205C17.979 9.9459 17.4891 9.85729 17.0086 9.75937C17.2559 10.3516 17.5451 11.065 17.7411 11.5966C17.6524 11.7179 16.8406 11.7226 16.3041 11.5407C16.0149 10.8039 15.7816 10.1091 15.539 9.39099L15.4923 9.377C13.4675 8.66354 11.0134 7.69827 11.4287 4.99366C11.4986 4.53202 12.0165 3.70198 12.7443 2.52221C12.9823 2.13517 13.2435 1.71084 13.4768 1.32846L14.6012 2.00927C14.3119 2.48957 14.074 2.86729 13.864 3.21236C13.2202 4.25223 12.763 4.98434 12.735 5.18951C12.3571 7.65164 16.9433 8.45371 18.6602 8.7195C19.9712 8.92002 21.2635 9.03192 22.248 9.12052C22.6819 9.15783 23.0598 9.19047 23.3957 9.22778L23.2464 10.5335Z" fill="black"/>
<path d="M16.1267 6.95685C16.7192 6.95685 17.1998 6.47655 17.1998 5.88434C17.1998 5.29212 16.7192 4.81182 16.1267 4.81182C15.5342 4.81182 15.0536 5.29212 15.0536 5.88434C15.0536 6.47655 15.5342 6.95685 16.1267 6.95685Z" fill="black"/>
<path d="M17.2744 4.71384C17.7316 4.3641 18.3148 4.0983 18.7953 4.04701C19.0473 4.01903 19.2759 4.05168 19.4672 4.15426C19.6818 4.27084 19.8358 4.46203 19.8917 4.74648C19.9524 5.04958 19.8917 5.47393 19.6585 6.03817C19.6538 6.05216 19.6491 6.06615 19.6445 6.08013C19.6071 6.19205 19.6258 6.28531 19.6771 6.35525C19.7424 6.44852 19.8544 6.52779 19.9804 6.57909C20.0037 6.58841 20.0317 6.59774 20.0597 6.60707L19.8591 7.23659C19.8171 7.2226 19.7751 7.20861 19.7331 7.18996C19.4952 7.09203 19.2759 6.93814 19.1359 6.7283C18.9773 6.49515 18.9166 6.2107 19.0193 5.87962C19.0286 5.85164 19.0379 5.819 19.0519 5.78636C19.2292 5.35269 19.2806 5.05892 19.2432 4.87239C19.2292 4.79778 19.1966 4.75581 19.1546 4.7325C19.0893 4.69519 18.9866 4.68586 18.8607 4.69985C18.5014 4.73715 18.0442 4.95166 17.6756 5.23145L17.2744 4.71384Z" fill="black"/>
<path d="M19.948 13.3266C20.3165 13.4619 20.7178 13.5691 21.133 13.6391L21.7442 13.7417L21.3196 14.1893C20.7365 14.8049 20.0739 15.2292 19.3928 15.495C17.7878 16.1292 14.4567 15.7841 14.1627 14.1427C14.1627 14.1427 14.424 13.8862 14.7599 13.5551C14.7833 13.5785 14.8066 13.6018 14.8346 13.6251C14.8579 13.6484 14.8859 13.6671 14.9139 13.6904C16.2202 14.7489 18.9169 14.7955 19.948 13.3266ZM17.9278 12.1889C18.2077 12.4407 18.6463 12.7391 19.1875 13.0049C18.5437 14.0354 15.5811 13.7463 15.3245 13.0049C15.7817 12.5619 16.2156 12.1422 16.2949 12.0816C16.5888 12.2495 17.5126 12.3381 17.9278 12.1889Z" fill="black"/>
<path d="M8.28452 7.11186C8.90472 7.11186 9.40367 6.61291 9.40367 5.99272C9.40367 5.37252 8.90472 4.87357 8.28452 4.87357C7.66433 4.87357 7.16537 5.37252 7.16537 5.99272C7.16537 6.60825 7.66433 7.11186 8.28452 7.11186Z" fill="black"/>
</svg>
