<svg width="24" height="24" viewBox="0 0 24 24" fill="none" xmlns="http://www.w3.org/2000/svg">
<path d="M10.9218 10.6477C11.9433 11.2488 13.9457 13.0117 13.2994 14.3677C12.7524 15.5158 10.4607 15.8006 9.29908 15.9226C9.70589 15.5294 9.80532 15.2853 9.92737 14.6796C10.3523 14.6344 12.0925 14.327 12.1332 13.8434C12.1693 13.4275 11.6314 12.8806 11.3331 12.6094C10.6461 11.9766 10.2076 11.6918 9.47988 11.294C9.57481 10.842 10.637 10.5979 10.9218 10.6477Z" fill="black"/>
<path d="M20.753 9.97418C20.5993 10.3358 20.414 10.7697 20.1473 11.181C19.849 11.6376 19.4648 12.0534 18.9269 12.3111C18.3122 12.6049 17.7562 12.5732 17.2364 12.3246C16.7889 12.1077 16.4002 11.7235 16.0386 11.2579C15.5323 10.5934 15.0532 9.87926 14.5695 9.15604C14.0226 8.33791 13.4712 7.51073 12.8519 6.74232C12.6847 6.53439 12.531 6.37619 12.3818 6.31291C12.2553 6.25867 12.0926 6.26318 11.853 6.34454C11.8033 6.36262 11.4914 6.61122 11.1072 6.93215C10.4789 7.45648 9.72404 8.13449 9.47091 8.37858L8.58045 7.46101C8.8381 7.2124 9.62458 6.50275 10.289 5.9513C10.7727 5.54901 11.2202 5.21453 11.4281 5.13769C12.0021 4.9388 12.4632 4.95688 12.879 5.13316C13.2677 5.3004 13.5661 5.58517 13.8508 5.94678C14.4882 6.74231 15.0577 7.60112 15.6273 8.44638C16.0928 9.14247 16.5539 9.82953 17.0511 10.4804C17.2997 10.8013 17.5438 11.0545 17.7878 11.172C17.9596 11.2579 18.1539 11.2624 18.3709 11.1584C18.6602 11.0183 18.8862 10.7697 19.0715 10.4849C19.284 10.1595 19.4422 9.78886 19.5733 9.47697L20.753 9.97418Z" fill="black"/>
<path d="M17.1109 8.61821C17.6894 8.61821 18.1595 8.14812 18.1595 7.56954C18.1595 6.99097 17.6894 6.52087 17.1109 6.52087C16.5323 6.52087 16.0622 6.99097 16.0622 7.56954C16.0622 8.14812 16.5323 8.61821 17.1109 8.61821Z" fill="black"/>
<path d="M14.7054 9.34586C14.0726 9.48598 13.3584 9.59899 12.6533 9.71199C10.791 10.0058 8.95133 10.2951 8.98297 11.0002C9.00557 11.52 9.06887 12.0353 9.13215 12.5144C9.29939 13.8162 9.43499 14.8966 8.72082 15.6017C7.45068 16.8583 5.2494 18.1917 3.99734 18.9511L3.90694 19.0053L3.24701 17.916L3.33741 17.8617C4.53975 17.134 6.65515 15.8503 7.82133 14.6977C8.08801 14.431 7.98857 13.6354 7.86653 12.6772C7.80325 12.1664 7.73093 11.6195 7.70833 11.0545C7.66312 9.99225 8.44057 9.4182 9.57511 9.04755C10.9582 8.59554 12.4544 8.42829 13.9144 8.17516C14.1404 8.50061 14.3573 8.83058 14.5788 9.15603L14.7054 9.34586Z" fill="black"/>
</svg>
