<svg width="24" height="24" viewBox="0 0 24 24" fill="none" xmlns="http://www.w3.org/2000/svg">
<path d="M10.2147 14.2907C10.0637 14.249 9.91272 14.2126 9.75653 14.1813L8.84026 14.0043C8.58516 15.3371 7.93441 16.5657 6.94525 17.5549C5.68018 18.8199 4.02464 19.528 2.26499 19.5696V20.9753C4.39948 20.9388 6.40903 20.0798 7.93441 18.5492C9.12139 17.3675 9.90751 15.8889 10.2147 14.2907Z" fill="black"/>
<path d="M10.2926 7.59047C10.9538 7.33538 11.6514 7.15317 12.3751 7.05425C13.0779 6.49199 13.8328 5.99742 14.6449 5.57572C12.9477 5.4664 11.2766 5.70067 9.78244 6.28375C7.93949 6.99698 6.38808 8.20479 5.21671 9.81867H7.03363C7.93948 8.82952 9.03797 8.07464 10.2926 7.59047Z" fill="black"/>
<path d="M9.40179 12.354L9.07381 13.1505L9.9224 13.3119C12.8794 13.8741 15.0244 16.472 15.0244 19.4915C15.0244 20.1943 14.9098 20.8763 14.6912 21.5271H16.1593C16.3415 20.8711 16.43 20.1891 16.43 19.4915C16.43 16.1024 14.2122 13.1453 11.0469 12.1509C11.9528 10.4173 13.4365 8.90235 15.2638 7.84552C15.6543 9.29801 16.3415 10.5839 17.2734 11.6147C18.4395 12.9006 19.9441 13.718 21.6257 13.9887V12.5622C18.9654 12.0364 16.9922 9.80821 16.4404 6.67415L16.279 5.76309L15.4408 6.16396C14.0821 6.81992 12.869 7.67892 11.833 8.72534C10.771 9.803 9.95363 11.0264 9.40179 12.354Z" fill="black"/>
<path d="M17.9402 4.86773C18.6014 4.86773 19.1376 4.3315 19.1376 3.67033C19.1376 3.00916 18.6014 2.47293 17.9402 2.47293C17.2791 2.47293 16.7428 3.00916 16.7428 3.67033C16.7428 4.3315 17.2791 4.86773 17.9402 4.86773Z" fill="black"/>
<path d="M21.735 16.1128C21.735 15.4516 21.1988 14.9154 20.5376 14.9154C19.8764 14.9154 19.3402 15.4516 19.3402 16.1128C19.3402 16.774 19.8764 17.3102 20.5376 17.3102C21.1988 17.3102 21.735 16.774 21.735 16.1128Z" fill="black"/>
</svg>
