<svg width="24" height="24" viewBox="0 0 24 24" fill="none" xmlns="http://www.w3.org/2000/svg">
<path d="M13.8454 5.32287C14.4646 5.32287 14.9668 4.82068 14.9668 4.20147C14.9668 3.58227 14.4646 3.08008 13.8454 3.08008C13.2262 3.08008 12.724 3.58227 12.724 4.20147C12.724 4.82068 13.2262 5.32287 13.8454 5.32287Z" fill="black"/>
<path d="M13.792 8.54566C15.5179 10.1449 17.8729 11.1492 20.3302 11.3004V9.98397C18.0191 9.82307 15.83 8.80894 14.3185 7.21461L13.792 8.54566Z" fill="black"/>
<path d="M9.26269 13.7235L5.03551 20.9199H6.56157L10.2524 14.6304C9.95502 14.3037 9.62348 14.0014 9.26269 13.7235Z" fill="black"/>
<path d="M6.01025 6.05423C6.62945 6.55155 7.36566 6.97085 8.19452 7.29264C9.24765 7.7022 10.4324 7.95085 11.6611 8.02399L9.74498 12.8899L9.67673 13.002C9.6816 13.0069 9.68647 13.0118 9.69623 13.0166L9.67673 13.0605L10.0716 13.3628C10.2569 13.5042 10.4373 13.6553 10.608 13.8114C10.6323 13.8357 10.6616 13.865 10.686 13.8894L10.6908 13.8845C11.5636 14.7036 12.2023 15.6787 12.5923 16.805L9.2623 17.98V19.3111L9.2818 19.3647L14.1964 17.6338L14.0404 17.0488C13.5772 15.2887 12.646 13.8065 11.2662 12.6315L12.802 8.73095L13.1384 7.87284C13.1433 7.87772 13.1482 7.88747 13.1579 7.89234L13.4602 7.12687L13.4212 7.161L13.5967 6.71732L12.6167 6.73195C10.213 6.7612 8.05802 6.08349 6.7026 4.91821C6.62459 5.29851 6.4393 5.64468 6.15652 5.92259C6.10776 5.97135 6.059 6.01523 6.01025 6.05423Z" fill="black"/>
<path d="M4.77187 5.65437C4.77674 5.65437 4.78649 5.65437 4.79137 5.65437C5.40082 5.65437 5.90301 5.16681 5.91276 4.55248C5.92251 3.93327 5.43007 3.42133 4.81086 3.41158C4.80599 3.41158 4.79624 3.41158 4.79137 3.41158C4.18191 3.41158 3.67972 3.89914 3.66997 4.51347C3.66022 5.13268 4.15266 5.64462 4.77187 5.65437Z" fill="black"/>
</svg>
