<svg width="24" height="24" viewBox="0 0 24 24" fill="none" xmlns="http://www.w3.org/2000/svg">
<path d="M18.6754 5.60175C18.6754 5.09704 18.2661 4.68771 17.7613 4.68771C17.2566 4.68771 16.8473 5.09704 16.8473 5.60175C16.8473 6.10645 17.2566 6.51578 17.7613 6.51578C18.2661 6.51578 18.6754 6.10645 18.6754 5.60175Z" fill="black"/>
<path d="M13.1163 5.60175C13.1163 5.09704 12.7069 4.68771 12.2022 4.68771C11.6975 4.68771 11.2882 5.09704 11.2882 5.60175C11.2882 6.10645 11.6975 6.51578 12.2022 6.51578C12.7069 6.51578 13.1163 6.10645 13.1163 5.60175Z" fill="black"/>
<path d="M3.97406 19.2826C6.16377 19.2826 7.94812 17.4982 7.94812 15.3085C7.94812 13.1188 6.16377 11.3345 3.97406 11.3345C1.78435 11.3345 0 13.1188 0 15.3085C0 17.4982 1.78435 19.2826 3.97406 19.2826ZM3.97406 12.4075C5.57561 12.4075 6.87512 13.707 6.87512 15.3085C6.87512 16.9101 5.57561 18.2096 3.97406 18.2096C2.37251 18.2096 1.073 16.9101 1.073 15.3085C1.073 13.707 2.37649 12.4075 3.97406 12.4075Z" fill="black"/>
<path d="M20.0259 19.3123C22.2156 19.3123 24 17.5279 24 15.3382C24 13.1485 22.2156 11.3641 20.0259 11.3641C17.8362 11.3641 16.0519 13.1485 16.0519 15.3382C16.0519 17.5279 17.8362 19.3123 20.0259 19.3123ZM20.0259 12.4371C21.6275 12.4371 22.927 13.7367 22.927 15.3382C22.927 16.9397 21.6275 18.2393 20.0259 18.2393C18.4244 18.2393 17.1249 16.9397 17.1249 15.3382C17.1249 13.7367 18.4284 12.4371 20.0259 12.4371Z" fill="black"/>
<path d="M20.5653 10.7693V9.69635C18.5664 9.69635 17.1715 8.7704 16.4124 6.95028L16.1223 6.25879L11.8184 10.054C11.8144 10.05 11.8065 10.05 11.8025 10.0461L10.8765 10.8608C12.8397 11.4052 14.2863 13.2094 14.2863 15.3435V16.3768H15.3593V15.3435C15.3593 13.3684 14.3538 11.6238 12.8278 10.5945L15.7408 8.02725C16.7303 9.8275 18.3836 10.7693 20.5653 10.7693Z" fill="black"/>
<path d="M12.9914 8.49452L13.777 7.76942L10.5632 6.25879L6.25928 10.054C6.2553 10.05 6.24736 10.05 6.24339 10.0461L5.31742 10.8608C7.2806 11.4052 8.72717 13.2094 8.72717 15.3435V16.3768H9.80017V15.3435C9.80017 13.3684 8.79472 11.6238 7.26869 10.5945L10.8161 7.40687L12.9914 8.49452Z" fill="black"/>
</svg>
