<svg width="24" height="24" viewBox="0 0 24 24" fill="none" xmlns="http://www.w3.org/2000/svg">
<path d="M23.9996 11.7847V10.2908L15.8294 13.3358C16.5972 13.5692 17.4012 13.7663 18.2467 13.9323L23.9996 11.7847Z" fill="black"/>
<path d="M11.8029 11.5742C14.132 9.39031 16.29 6.79662 16.8191 6.15338H14.9879C14.0023 7.30498 12.2957 9.22431 10.5683 10.8117L11.6784 11.5068C11.7199 11.5275 11.7614 11.5534 11.8029 11.5742Z" fill="black"/>
<path d="M4.65307 16.2491L9.70098 13.0942C13.0137 15.1449 18.456 16.8801 24 16.832V15.4314C18.4754 15.2447 14.1855 14.1553 10.8811 12.0959L9.81252 11.4267L3.23334 15.4314L4.65307 16.2491Z" fill="black"/>
<path d="M9.7996 9.7127C9.7996 9.0539 9.2653 8.5196 8.6065 8.5196C7.94771 8.5196 7.41341 9.0539 7.41341 9.7127C7.41341 10.3715 7.94771 10.9058 8.6065 10.9058C9.2653 10.9058 9.7996 10.3715 9.7996 9.7127Z" fill="black"/>
<path d="M0 16.6535C0 17.3123 0.534574 17.8466 1.19371 17.8466C1.85284 17.8466 2.38742 17.3123 2.38742 16.6535C2.38742 15.9947 1.85284 15.4604 1.19371 15.4604C0.534574 15.4604 0 15.9947 0 16.6535Z" fill="black"/>
</svg>
