<svg width="24" height="24" viewBox="0 0 24 24" fill="none" xmlns="http://www.w3.org/2000/svg">
<path d="M14.6899 4.51646C14.6753 5.13968 14.1592 5.62925 13.5324 5.61457C12.9055 5.59988 12.4129 5.08668 12.4275 4.46345C12.4421 3.84023 12.9582 3.35066 13.5851 3.36534C14.2072 3.37992 14.7044 3.89792 14.6899 4.51646Z" fill="black"/>
<path d="M14.6328 4.57044C14.6189 5.16303 14.1282 5.62854 13.5322 5.61458C12.9361 5.60061 12.4678 5.11263 12.4817 4.52004C12.4955 3.92745 12.9862 3.46194 13.5823 3.4759C14.1739 3.48976 14.6466 3.9823 14.6328 4.57044Z" fill="black"/>
<path d="M17.4168 8.39282C18.0156 8.39282 18.5012 7.90722 18.5012 7.30847C18.5012 6.70972 18.0156 6.22412 17.4168 6.22412C16.8181 6.22412 16.3325 6.70972 16.3325 7.30847C16.3325 7.90722 16.8181 8.39282 17.4168 8.39282Z" fill="black"/>
<path d="M17.3652 11.5091C19.0341 13.0554 21.3113 14.0266 23.6874 14.1728V12.8999C21.4527 12.7443 19.3358 11.7637 17.8743 10.222L17.3652 11.5091Z" fill="black"/>
<path d="M12.9855 16.516L8.89798 23.4747H10.3736L13.9426 17.3929C13.655 17.077 13.3344 16.7847 12.9855 16.516Z" fill="black"/>
<path d="M12.237 10.4535C13.2554 10.8495 14.1166 10.934 15.3046 11.0047L13.4518 15.7098L13.3858 15.8182C13.3906 15.823 13.3953 15.8277 13.4047 15.8324L13.3858 15.8748L13.7677 16.1671C13.9469 16.3038 14.1213 16.45 14.2863 16.6009C14.3099 16.6244 14.3382 16.6527 14.3617 16.6763L14.3665 16.6716C15.2104 17.4636 15.828 18.4065 16.2051 19.4956L12.9851 20.6318V21.9189L13.004 21.9707L17.7562 20.2971L17.6054 19.7313C17.1575 18.0294 16.257 16.5961 14.9228 15.4599L16.4078 11.6883L16.7332 10.8585L17.0066 10.1702L17.1763 9.74118L16.2287 9.75533C13.9044 9.78361 14.1007 9.66499 12.8104 9.30657L12.237 10.4535Z" fill="black"/>
<path fill-rule="evenodd" clip-rule="evenodd" d="M13.1051 6.78558L13.1317 6.76624L13.132 6.76635L13.0141 6.65785C11.7396 5.57296 10.3017 4.8111 8.66967 4.3015C7.0791 3.805 5.39208 3.52848 3.88298 3.38108L3.74655 4.76397C5.17139 4.9062 6.7581 5.1639 8.24902 5.63107C9.50064 6.02023 10.6795 6.56079 11.6263 7.30615L9.27719 12.1162C8.27168 10.5502 6.20416 9.0469 4.54215 8.32814C3.38435 7.82748 2.06173 7.57014 0.682831 7.44876L0.682893 8.59495C1.87809 8.70735 2.96114 8.97653 3.9508 9.40761C5.31861 10.0023 6.55288 10.7703 7.58614 11.9572C7.44688 11.9479 7.30575 11.9379 7.16314 11.9278C5.98467 11.8446 4.70576 11.7542 3.55255 11.9572C2.60069 12.1271 1.39835 12.4656 0.55127 12.7927L0.55127 14.2133C1.43771 13.8168 2.46817 13.5128 3.55255 13.3225C5.62673 12.9538 7.85621 13.0014 9.61621 13.563L9.61632 13.5584L9.80288 13.6471L12.5675 7.96384L13.1213 6.79357L13.1051 6.78558ZM13.1051 6.78558L11.9792 7.60353C11.8656 7.50095 11.7478 7.40186 11.6263 7.30615L12.1182 6.29883L13.1051 6.78558Z" fill="black"/>
<path d="M11.9792 7.60353L13.1051 6.78558L12.1182 6.29883L11.6263 7.30615C11.7478 7.40186 11.8656 7.50095 11.9792 7.60353Z" fill="black"/>
</svg>
