<svg width="24" height="24" viewBox="0 0 24 24" fill="none" xmlns="http://www.w3.org/2000/svg">
<path fill-rule="evenodd" clip-rule="evenodd" d="M11.6066 8.70725V8.70703V8.70681V8.70658V8.70636V8.70614V8.70591V8.70569V8.70547V8.70524V8.70502V8.7048V8.70457V8.70435V8.70413V8.7039V8.70368C11.6069 8.41017 11.6072 8.11674 11.6072 7.82331V7.82232C11.6072 6.63945 11.6072 5.45185 11.6167 4.26898C11.6167 4.13173 11.5835 4.08913 11.4415 4.08913C9.07041 4.09386 6.69928 4.09386 4.32815 4.08913C4.17197 4.08913 4.14831 4.14119 4.14831 4.27844C4.15304 6.64011 4.15304 9.0065 4.14831 11.3729C4.14831 11.5149 4.1767 11.5622 4.32815 11.5622C6.68982 11.5575 9.05621 11.5575 11.4226 11.5622C11.5788 11.5622 11.6119 11.5102 11.6119 11.3634C11.6048 10.476 11.6057 9.59132 11.6066 8.70725ZM20.0789 7.8375V7.83849C20.0789 9.01663 20.0789 10.1995 20.0836 11.3776C20.0836 11.5149 20.0552 11.5669 19.9038 11.5669C17.5847 11.5622 15.2704 11.5622 12.9513 11.5669C12.7951 11.5669 12.7573 11.5196 12.7573 11.3682C12.762 9.0065 12.762 6.64957 12.7573 4.28791C12.7573 4.13646 12.7951 4.08913 12.9513 4.08913C15.2704 4.09386 17.5847 4.09386 19.9038 4.08913C20.0552 4.08913 20.0836 4.13646 20.0836 4.27844C20.0789 5.46131 20.0789 6.64891 20.0789 7.83651V7.8375ZM19.0755 7.60087C19.1039 6.24256 18.0296 5.13508 16.6571 5.10195C15.3508 5.06883 14.2292 6.15263 14.1913 7.47782C14.1582 8.82193 15.2278 9.95307 16.5624 9.98146C17.9255 10.0146 19.0471 8.94498 19.0755 7.60087ZM17.2922 12.7081C17.0049 12.7079 16.7176 12.7076 16.4299 12.7076C16.1412 12.7076 15.8525 12.7078 15.5638 12.7081C14.6977 12.709 13.8316 12.7099 12.9655 12.7028C12.814 12.7028 12.7573 12.7265 12.7573 12.9016C12.762 15.2112 12.762 17.5208 12.7573 19.8304C12.7573 19.9819 12.7904 20.0245 12.9466 20.0245C15.2609 20.0197 17.58 20.0197 19.8943 20.0245C20.0552 20.0245 20.0836 19.9771 20.0836 19.8304C20.0789 17.5208 20.0789 15.2112 20.0836 12.9016C20.0836 12.7265 20.0268 12.7028 19.8754 12.7028C19.0131 12.7099 18.1535 12.709 17.2926 12.7081H17.2922ZM7.86827 12.7076C8.16541 12.7076 8.46224 12.7079 8.75893 12.7081H8.75937C9.64869 12.709 10.5367 12.7099 11.4273 12.7028C11.5741 12.7028 11.6119 12.7407 11.6119 12.8874C11.6072 15.2017 11.6072 17.5208 11.6119 19.8351C11.6119 19.9961 11.5599 20.0245 11.4131 20.0245C9.05147 20.0197 6.69454 20.0197 4.33288 20.0245C4.18143 20.0245 4.13883 19.9913 4.13883 19.8351C4.14356 17.5255 4.14356 15.2159 4.13883 12.9063C4.13883 12.736 4.18616 12.7076 4.34708 12.7076C5.12956 12.7107 5.91205 12.7097 6.69454 12.7086C7.08579 12.7081 7.47703 12.7076 7.86827 12.7076ZM10.4619 16.5222C10.5139 15.1781 9.46323 14.0564 8.09546 13.9996C6.8034 13.9428 5.6486 14.9982 5.58708 16.2855C5.52555 17.6581 6.5573 18.8223 7.88721 18.8744C9.27866 18.9264 10.4098 17.8947 10.4619 16.5222ZM7.98185 18.0177C8.86689 18.0319 9.58154 17.3457 9.60047 16.4607C9.61467 15.5898 8.92368 14.8752 8.04811 14.861C7.18674 14.8468 6.46263 15.5378 6.4437 16.3944C6.42477 17.2652 7.12049 17.9988 7.98185 18.0177ZM16.6381 5.96805C17.5137 5.96805 18.2094 6.66851 18.2047 7.54881C18.2047 8.41017 17.5042 9.11536 16.6429 9.12483C15.7673 9.12956 15.0432 8.41017 15.0479 7.53934C15.0574 6.66377 15.7626 5.96805 16.6381 5.96805ZM21.2242 12.0544V12.0569C21.2242 15.0283 21.2242 17.9996 21.2289 20.971C21.2289 21.1414 21.1816 21.1793 21.016 21.1793C15.0763 21.1745 9.14139 21.1745 3.20173 21.1793C3.02662 21.1793 2.99349 21.1272 2.99349 20.9615C2.99822 15.0314 2.99822 9.10117 2.99349 3.17097C2.99349 2.99113 3.03608 2.94853 3.21593 2.94853C9.14612 2.95327 15.0763 2.95327 21.0112 2.94853C21.1721 2.94853 21.2289 2.98166 21.2289 3.15678C21.2242 6.11868 21.2242 9.08532 21.2242 12.052V12.0544Z" fill="black"/>
</svg>
