<svg width="24" height="24" viewBox="0 0 24 24" fill="none" xmlns="http://www.w3.org/2000/svg">
<path d="M14.4008 16.5789C13.838 17.7854 13.9911 19.3031 14.8059 20.6963H13.4238C12.708 19.1068 12.654 17.4119 13.3158 16.0043C13.811 14.9415 14.6529 14.1611 15.7198 13.735C15.9134 14.1228 16.116 14.5058 16.3321 14.8792C15.4587 15.1761 14.7834 15.765 14.4008 16.5789Z" fill="black"/>
<path d="M14.1224 9.46355C13.6092 10.1327 12.9811 10.7094 12.2645 11.1672C11.1187 11.898 9.79605 12.2854 8.43356 12.2986V11.11C9.57044 11.0968 10.6719 10.771 11.623 10.1635C12.552 9.57361 13.2952 8.74598 13.7862 7.76868L13.8791 8.28375C13.941 8.68435 14.0251 9.07615 14.1224 9.46355Z" fill="black"/>
<path d="M18.9438 16.9562C16.701 14.5394 15.2057 11.4974 14.613 8.16054L14.5024 7.54422L15.6596 7.44302L15.918 8.61397C16.5417 11.4666 17.8821 14.0596 19.8196 16.1462C21.0184 17.4405 22.4296 18.5234 24 19.3687V20.707C22.0934 19.7649 20.377 18.497 18.9438 16.9562Z" fill="black"/>
<path d="M13.7859 6.52289C13.2241 6.52289 12.7684 6.06946 12.7684 5.51037C12.7684 4.95128 13.2241 4.49785 13.7859 4.49785C14.3477 4.49785 14.8033 4.95128 14.8033 5.51037C14.8033 6.06946 14.3477 6.52289 13.7859 6.52289Z" fill="black"/>
<path d="M5.35415 6.62678L5.63618 5.5688L13.134 7.56753C12.9292 8.06108 12.7676 8.27132 12.4494 8.58091L5.35415 6.62678Z" fill="black"/>
<path d="M3.54285 5.40636C4.12841 5.40636 4.59951 4.93526 4.59951 4.34969C4.59951 3.76413 4.12841 3.29303 3.54285 3.29303C2.95728 3.29303 2.48618 3.76413 2.48618 4.34969C2.48618 4.93086 2.95728 5.40636 3.54285 5.40636Z" fill="black"/>
<path d="M8.50086 8.1124L9.7057 8.44708L6.89939 11.0004L3.96733 8.63849L3.93461 13.5582C5.28841 14.4903 6.50313 16.3135 7.05937 17.8342C7.38657 18.7294 7.57883 19.6819 7.64428 20.7039H6.4336C6.37225 19.825 6.20459 19.0074 5.92646 18.2471C5.46429 16.9839 5.02255 16.1622 3.96733 15.1566C3.87326 16.1091 3.55831 17.0861 3.11249 18.0386C2.67486 18.9665 2.11047 19.8741 1.50924 20.7039H0C0.752565 19.7555 1.48879 18.6558 2.02049 17.5276C2.44176 16.6323 2.73214 15.7207 2.78122 14.8704C2.80985 14.4208 2.76894 13.9874 2.65033 13.5786L2.78122 6.27654L6.89939 9.57084L8.50086 8.1124Z" fill="black"/>
</svg>
