<svg width="24" height="24" viewBox="0 0 24 24" fill="none" xmlns="http://www.w3.org/2000/svg">
<path d="M14.318 5.3456L13.8224 5.84115C12.669 6.99461 12.1093 8.64365 12.3229 10.2585L12.3956 10.7968L13.5789 10.9506L13.4679 10.1047C13.3012 8.84443 13.7413 7.54998 14.6384 6.65284L15.134 6.1573C16.2575 5.03374 18.0902 5.03374 19.2138 6.1573C20.3373 7.28085 20.3373 9.11357 19.2138 10.2371L18.7182 10.7327C17.8168 11.6341 16.5267 12.0698 15.2664 11.9032L13.6772 11.6939L12.9552 11.5999L12.5536 12.0015V12.0058L9.97757 14.5818L10.7935 15.3978L13.3696 12.8217L15.1169 13.0524C15.3433 13.0823 15.5697 13.0951 15.7961 13.0951C17.1846 13.0951 18.5474 12.5398 19.5385 11.5486L20.034 11.0531C21.6104 9.47668 21.6104 6.91772 20.034 5.34133C18.4534 3.7692 15.8901 3.76921 14.318 5.3456Z" fill="black"/>
<path d="M7.55073 18.2387L7.13207 17.8243L9.66114 15.2953L8.84517 14.4793L5.50013 17.8243L7.55073 19.8707L10.8915 16.5299L10.0755 15.7139L7.55073 18.2387Z" fill="black"/>
<path d="M6.63276 6.79384L7.17105 7.32784L5.51776 10.3311L6.3679 11.1812L8.59792 7.12705L6.83782 5.36269L2.78363 7.5927L3.6295 8.44286L6.63276 6.79384Z" fill="black"/>
<path d="M9.46962 4.49121C8.98688 4.00846 8.20082 4.00846 7.71807 4.49121L7.35495 4.85434L9.1065 6.60589L9.46962 6.24276C9.95237 5.76001 9.95237 4.97823 9.46962 4.49121Z" fill="black"/>
</svg>
