<svg width="24" height="24" viewBox="0 0 24 24" fill="none" xmlns="http://www.w3.org/2000/svg">
<path d="M10.2147 14.2906C10.0637 14.249 9.91275 14.2125 9.75656 14.1813L8.84029 14.0043C8.58519 15.3371 7.93444 16.5657 6.94528 17.5548C5.68021 18.8199 4.02467 19.5279 2.26501 19.5696V20.9752C4.39951 20.9388 6.40906 20.0798 7.93444 18.5492C9.12142 17.3674 9.90754 15.8889 10.2147 14.2906Z" fill="black"/>
<path d="M10.2927 7.59044C10.9538 7.33535 11.6514 7.15313 12.3751 7.05422C13.0779 6.49196 13.8328 5.99738 14.6449 5.57569C12.9478 5.46637 11.2766 5.70064 9.78246 6.28372C7.93951 6.99695 6.38811 8.20476 5.21674 9.81864H7.03365C7.93951 8.82949 9.038 8.07461 10.2927 7.59044Z" fill="black"/>
<path d="M9.40182 12.354L9.07383 13.1505L9.92243 13.3119C12.8795 13.8741 15.0244 16.472 15.0244 19.4915C15.0244 20.1943 14.9099 20.8763 14.6912 21.5271H16.1593C16.3415 20.8711 16.43 20.1891 16.43 19.4915C16.43 16.1023 14.2122 13.1453 11.0469 12.1509C11.9528 10.4173 13.4365 8.90232 15.2639 7.84549C15.6543 9.29798 16.3415 10.5839 17.2734 11.6147C18.4396 12.9006 19.9441 13.7179 21.6257 13.9887V12.5622C18.9654 12.0364 16.9923 9.80818 16.4404 6.67412L16.279 5.76306L15.4409 6.16393C14.0821 6.81989 12.8691 7.67889 11.8331 8.72531C10.771 9.80297 9.95366 11.0264 9.40182 12.354Z" fill="black"/>
<path d="M17.9403 4.86769C18.6014 4.86769 19.1377 4.33147 19.1377 3.6703C19.1377 3.00913 18.6014 2.4729 17.9403 2.4729C17.2791 2.4729 16.7429 3.00913 16.7429 3.6703C16.7429 4.33147 17.2791 4.86769 17.9403 4.86769Z" fill="black"/>
<path d="M21.735 16.1128C21.735 15.4516 21.1988 14.9154 20.5376 14.9154C19.8765 14.9154 19.3402 15.4516 19.3402 16.1128C19.3402 16.774 19.8765 17.3102 20.5376 17.3102C21.1988 17.3102 21.735 16.774 21.735 16.1128Z" fill="black"/>
</svg>
