<svg width="24" height="24" viewBox="0 0 24 24" fill="none" xmlns="http://www.w3.org/2000/svg">
<path fill-rule="evenodd" clip-rule="evenodd" d="M8.88613 3.86157C9.40462 3.86157 9.82335 4.28212 9.82335 4.80338C9.82335 5.06375 9.76521 5.51268 9.6932 6.00501C9.60678 6.69985 9.50595 7.46754 9.50595 8.10452H8.25135C8.26629 7.46754 8.16494 6.69985 8.06465 6.00501C8.00651 5.51268 7.94888 5.06375 7.94888 4.80338C7.94888 4.28212 8.36657 3.86157 8.88613 3.86157ZM5.85838 18.2549C6.0024 18.6894 6.10324 18.9647 6.11764 19.0081C6.27607 19.3992 6.70868 19.703 7.14129 19.703H10.1402C10.4 19.703 10.6011 19.5005 10.6011 19.2396C10.6011 18.9792 10.4 18.7762 10.1402 18.7762H7.14129C7.08368 18.7762 6.99725 18.7033 6.98285 18.6599C6.98285 18.6599 6.91137 18.5014 6.83829 18.2549H5.85838ZM14.8978 4.09355C15.4606 4.09355 15.9359 4.55695 15.9359 5.13607C15.9359 5.41143 15.8644 5.90377 15.8063 6.42503C15.706 7.17772 15.5902 8.01774 15.6046 8.69864H14.1916C14.1916 8.01774 14.0908 7.17772 13.99 6.42503C13.9179 5.90377 13.8465 5.41143 13.8465 5.13607C13.8465 4.55695 14.3212 4.09355 14.8978 4.09355ZM11.3799 18.4724C11.6397 19.5149 11.9427 20.2821 11.9571 20.34C12.1155 20.7455 12.5769 21.0648 13.0239 21.0648H16.7579C17.2049 21.0648 17.6669 20.7455 17.8248 20.34C17.8541 20.2821 18.1422 19.5149 18.4019 18.4724H17.4498C17.2199 19.3553 16.9745 19.9928 16.9596 19.9928C16.9457 20.0651 16.8299 20.1375 16.7579 20.1375H13.0239C12.9519 20.1375 12.8511 20.0651 12.8217 19.9928C12.8217 19.9928 12.5769 19.3553 12.3321 18.4724H11.3799ZM16.5563 9.10419C16.4549 8.46614 16.6 7.39468 16.7147 6.54074C16.7867 5.97608 16.8593 5.48375 16.8593 5.13607C16.8593 4.05015 15.9796 3.16674 14.8978 3.16674C13.8022 3.16674 12.9231 4.05015 12.9231 5.13607C12.9231 5.48375 12.9951 5.97608 13.0671 6.54074C13.1824 7.39468 13.3264 8.46614 13.2399 9.10419C13.0815 10.219 12.5769 11.2026 12.0867 12.1589C11.5383 13.2448 10.9622 14.3891 10.9622 15.6341C10.9622 16.3729 11.0775 17.1545 11.2364 17.8644H12.1875C12.0147 17.1545 11.885 16.3584 11.885 15.6341C11.885 14.6061 12.3897 13.6214 12.9087 12.5789C13.3845 11.6666 13.8598 10.7258 14.0764 9.63992H15.706C15.9215 10.7258 16.4123 11.6666 16.8731 12.5789C17.3927 13.6214 17.8968 14.6061 17.8968 15.6341C17.8968 16.3584 17.7677 17.1545 17.6093 17.8644H18.546C18.7049 17.1545 18.8202 16.3729 18.8202 15.6341C18.8202 14.3891 18.2435 13.2448 17.6951 12.1589C17.2049 11.2026 16.7009 10.219 16.5563 9.10419ZM8.15105 9.03133H9.62173C9.80843 9.94367 10.1834 10.7398 10.5579 11.493C10.6736 11.7244 10.9622 11.8117 11.1927 11.695C11.4092 11.5798 11.51 11.3049 11.3948 11.0724C10.991 10.2908 10.5872 9.43687 10.4576 8.50953C10.3851 7.91648 10.5147 6.91683 10.6166 6.12074C10.6886 5.58501 10.7462 5.1216 10.7462 4.80338C10.7462 3.77479 9.90978 2.9353 8.88613 2.9353C7.86248 2.9353 7.02606 3.77479 7.02606 4.80338C7.02606 5.1216 7.08367 5.58501 7.15621 6.12074C7.2565 6.91683 7.38665 7.91648 7.2997 8.50953C7.15621 9.53759 6.69426 10.4499 6.24725 11.3483C5.72822 12.3619 5.17987 13.4339 5.17987 14.6061C5.17987 15.6775 5.45457 16.8652 5.69942 17.7342H6.66599C6.42062 16.9086 6.11764 15.6775 6.11764 14.6061C6.11764 13.6504 6.57905 12.738 7.06927 11.7678C7.50188 10.9133 7.93394 10.0444 8.15105 9.03133Z" fill="black"/>
</svg>
