<svg width="24" height="24" viewBox="0 0 24 24" fill="none" xmlns="http://www.w3.org/2000/svg">
<path d="M5.88095 7.26493L4.96983 5.90054H5.47871L4.56282 4.52849H5.0666L3.64132 2.3938L2.21587 4.52849H2.71965L1.80377 5.90054H2.31265L1.40169 7.26493H3.4658V7.96703H3.81686V7.26493H5.88095ZM2.77101 5.65869H2.26231L3.17802 4.28698H2.67425L3.64132 2.83873L4.60823 4.28698H4.10428L5.02034 5.65869H4.51145L5.42258 7.02325H3.72909V6.61624L4.41537 5.83217L4.28321 5.71651L3.72909 6.3499V5.70325L4.28254 5.07072L4.15038 4.95524L3.72909 5.43674V4.26028H3.55356V5.43657L3.13227 4.95523L3.00012 5.07071L3.55356 5.70324V6.34973L2.99944 5.71651L2.86746 5.83217L3.55356 6.61624V7.02325H1.86005L2.77101 5.65869Z" fill="black"/>
<path d="M9.5446 7.31679L8.8968 6.34672H9.25861L8.60742 5.37121H8.9656L7.95225 3.85347L6.93877 5.37121H7.29695L6.64577 6.34672H7.00758L6.35989 7.31679H7.82745L7.81955 7.96705H8.07705V7.31679H9.5446ZM7.33347 6.17477H6.97178L7.62285 5.1995H7.26467L7.95225 4.16982L8.63971 5.1995H8.2814L8.93271 6.17477H8.5709L9.2187 7.14495H8.01465V6.85558L8.50258 6.29811L8.40862 6.21588L8.01465 6.66621V6.20645L8.40814 5.75673L8.31418 5.67463L8.01465 6.01697V5.18052H7.88985V6.01684L7.59032 5.67462L7.49636 5.75673L7.88985 6.20645V6.66609L7.49588 6.21588L7.40204 6.29811L7.88985 6.85558V7.14495H6.68579L7.33347 6.17477Z" fill="black"/>
<path d="M22.5489 7.24038L21.9011 6.27031H22.2629L21.6117 5.2948H21.9699L20.9566 3.77706L19.9431 5.2948H20.3013L19.6501 6.27031H20.0119L19.3642 7.24038H20.8318L20.8239 7.89064H21.0814V7.24038H22.5489ZM20.3378 6.09836H19.9761L20.6272 5.12309H20.269L20.9566 4.0934L21.644 5.12309H21.2857L21.937 6.09836H21.5752L22.223 7.06854H21.019V6.77916L21.5069 6.2217L21.4129 6.13947L21.019 6.5898V6.13004L21.4124 5.68032L21.3185 5.59822L21.019 5.94056V5.1041H20.8942V5.94043L20.5946 5.59821L20.5007 5.68031L20.8942 6.13004V6.58968L20.5002 6.13947L20.4063 6.2217L20.8942 6.77916V7.06854H19.6901L20.3378 6.09836Z" fill="black"/>
<path d="M16.1793 4.19351C16.1793 3.63934 15.7296 3.18989 15.1752 3.18989C14.6207 3.18989 14.171 3.63934 14.171 4.19351C14.171 4.74769 14.6207 5.19714 15.1752 5.19714C15.7296 5.19714 16.1793 4.74769 16.1793 4.19351Z" fill="black"/>
<path d="M6.26863 19.2479C8.6742 19.2479 10.6345 17.2886 10.6345 14.8843C10.6345 12.48 8.6742 10.5207 6.26863 10.5207C3.86306 10.5207 1.90281 12.48 1.90281 14.8843C1.90281 17.2886 3.86306 19.2479 6.26863 19.2479ZM6.26863 11.6989C8.02806 11.6989 9.45568 13.1258 9.45568 14.8843C9.45568 16.6428 8.02806 18.0697 6.26863 18.0697C4.50921 18.0697 3.08158 16.6428 3.08158 14.8843C3.08158 13.1258 4.51357 11.6989 6.26863 11.6989Z" fill="black"/>
<path d="M17.6633 19.2479C20.0689 19.2479 22.0291 17.2886 22.0291 14.8843C22.0291 12.48 20.0689 10.5207 17.6633 10.5207C15.2577 10.5207 13.2975 12.48 13.2975 14.8843C13.2975 17.2886 15.2577 19.2479 17.6633 19.2479ZM17.6633 11.6989C19.4227 11.6989 20.8504 13.1258 20.8504 14.8843C20.8504 16.6428 19.4227 18.0697 17.6633 18.0697C15.9039 18.0697 14.4763 16.6428 14.4763 14.8843C14.4763 13.1258 15.9083 11.6989 17.6633 11.6989Z" fill="black"/>
<path d="M18.275 9.86175V8.68358C16.079 8.68358 14.5465 7.66688 13.7127 5.66835L13.394 4.90908L8.66578 9.07631C8.66142 9.07194 8.65269 9.07195 8.64832 9.06758L7.63107 9.96212C9.78779 10.5599 11.377 12.541 11.377 14.8842V16.0188H12.5557V14.8842C12.5557 12.7155 11.4512 10.7999 9.7747 9.66976L12.9748 6.85088C14.0619 8.82758 15.8781 9.86175 18.275 9.86175Z" fill="black"/>
<path d="M1.31799 20.6838H22.682V21.606H1.31799V20.6838Z" fill="black"/>
<path d="M1.31799 7.92688H8.54181L7.46592 8.84906H1.31799V7.92688Z" fill="black"/>
<path d="M19.3006 7.85051H22.6819V8.7727H19.3006V7.85051Z" fill="black"/>
</svg>
