<svg width="24" height="24" viewBox="0 0 24 24" fill="none" xmlns="http://www.w3.org/2000/svg">
<path d="M11.015 21.0374H12.5713C13.7779 18.9098 14.4133 16.5113 14.4133 14.0389C14.4133 13.9354 14.4133 13.8271 14.4083 13.7237C14.0488 14.6841 13.5317 15.5657 12.8766 16.334C12.5762 18.0085 11.9458 19.5993 11.015 21.0374Z" fill="black"/>
<path d="M16.8461 4.09517C16.8461 4.72066 17.3534 5.22794 17.9788 5.22794C18.6043 5.22794 19.1116 4.72066 19.1116 4.09517C19.1116 3.46969 18.6043 2.9624 17.9788 2.9624C17.3534 2.9624 16.8461 3.46969 16.8461 4.09517Z" fill="black"/>
<path d="M6.87274 5.76973H5.53311C5.68579 7.30143 6.56738 8.61642 7.82327 9.37488C8.54234 9.80829 9.37961 10.0545 10.276 10.0545C10.8276 10.0545 11.3693 9.96097 11.8766 9.77874C11.8422 9.55711 11.7929 9.33549 11.7338 9.12371L11.5516 8.48345C11.1477 8.64597 10.7143 8.7297 10.271 8.7297C8.54234 8.72478 7.10915 7.43933 6.87274 5.76973Z" fill="black"/>
<path d="M12.5417 8.89221C12.7043 9.46844 12.788 10.0693 12.788 10.68C12.788 14.3147 9.83294 17.2698 6.19823 17.2698C5.53334 17.2698 4.89802 17.1713 4.29224 16.989V18.3681C4.90295 18.5207 5.54319 18.5995 6.19823 18.5995C10.5668 18.5995 14.1178 15.0486 14.1178 10.68C14.1178 10.1678 14.0685 9.66052 13.9749 9.16309L19.7077 7.39499V6.00119L12.3694 8.26672L12.5417 8.89221Z" fill="black"/>
<path d="M12.3151 7.24721C12.9405 7.24721 13.4478 6.73993 13.4478 6.11444C13.4478 5.48896 12.9405 4.98168 12.3151 4.98168C11.6896 4.98168 11.1823 5.48896 11.1823 6.11444C11.1823 6.73993 11.6896 7.24721 12.3151 7.24721Z" fill="black"/>
</svg>
