<svg width="26" height="24" viewBox="0 0 26 24" fill="none" xmlns="http://www.w3.org/2000/svg">
<path d="M10.9217 15.2084C11.4593 15.6068 11.4592 15.6915 11.4581 16.2642L11.458 16.281L14.7737 14.3463C14.7737 14.3463 15.468 13.9387 15.6058 13.5478L16.9922 9.66594C17.0767 9.43054 17.2145 9.22179 17.41 9.06189C17.6144 8.89756 17.8632 8.80429 18.121 8.76876C18.4143 8.72435 18.7164 8.75543 18.9919 8.86203C19.2852 8.97306 19.543 9.15961 19.7518 9.39057C20.134 9.81251 20.5162 10.2433 20.8761 10.6875C21.1339 11.0073 21.3872 11.3404 21.6005 11.6868L21.6671 11.7979V11.8067C21.8671 12.1532 22.0137 12.5263 22.0137 12.9349V16.2527C22.0137 16.5503 22.0537 16.8701 22.1826 17.141L23.5557 20.0813H24.9999L23.3202 16.4881V12.9393C23.3202 12.282 23.1202 11.7312 22.8003 11.1761L22.7069 11.0206C22.4759 10.6431 22.2093 10.2833 21.9337 9.93688C21.5471 9.45275 21.1338 8.98195 20.7161 8.52448C20.3651 8.13807 19.9385 7.83161 19.4497 7.6495C18.9653 7.4674 18.4498 7.40965 17.9388 7.48516C17.4455 7.55622 16.9834 7.74277 16.5923 8.05367C16.2057 8.36458 15.9302 8.76432 15.7613 9.23067L14.3408 13.1302L10.9217 15.2084Z" fill="black"/>
<path d="M1 20.1212H2.4398L3.67074 17.554C3.81738 17.2475 3.87072 17.0876 3.8796 16.7323L3.98623 12.2775L5.09717 8.66655C5.41268 7.66277 6.89245 7.66278 7.64345 8.27126C7.96785 8.53775 8.75443 10.2344 9.01217 10.7096C9.2788 11.2027 10.4519 11.915 12.5455 13.4683L13.5584 12.793L10.1542 10.0834C9.83868 9.49711 9.10104 7.97368 8.73665 7.52064C7.64792 6.16598 4.51062 6.30811 3.94626 8.04474L2.68864 12.0687L2.57312 16.8389L1 20.1212Z" fill="black"/>
<path d="M10.3675 20.0946H11.6695L11.1096 16.1949C11.0963 15.8929 11.043 15.6886 10.803 15.4843L6.75468 12.5929C6.71469 12.5573 6.67028 12.5262 6.62584 12.4996L5.94148 13.6055L9.81646 16.3504L10.3675 20.0946Z" fill="black"/>
<path d="M16.1707 16.2927L16.1663 20.0857H17.4638L17.4683 16.7102L19.5613 13.5123L18.5659 12.6506L16.1707 16.2927Z" fill="black"/>
<path d="M16.1176 7.1387C16.7086 7.1387 17.1841 6.66346 17.1841 6.07274C17.1841 5.48202 16.7086 5.00678 16.1176 5.00678C15.5266 5.00678 15.0511 5.48202 15.0511 6.07274C15.0511 6.65902 15.5266 7.1387 16.1176 7.1387Z" fill="black"/>
<path d="M8.30103 6.01058C8.89205 6.01058 9.36754 5.53534 9.36754 4.94462C9.36754 4.3539 8.89205 3.87866 8.30103 3.87866C7.71001 3.87866 7.23452 4.3539 7.23452 4.94462C7.23452 5.53534 7.71001 6.01058 8.30103 6.01058Z" fill="black"/>
<path d="M11.458 16.281L14.7737 14.3463C14.7737 14.3463 15.468 13.9387 15.6058 13.5478L16.9922 9.66594C17.0767 9.43054 17.2145 9.22179 17.41 9.06189C17.6144 8.89756 17.8632 8.80429 18.121 8.76876C18.4143 8.72435 18.7164 8.75543 18.9919 8.86203C19.2852 8.97306 19.543 9.15961 19.7518 9.39057C20.134 9.81251 20.5162 10.2433 20.8761 10.6875C21.1339 11.0073 21.3872 11.3404 21.6005 11.6868L21.6671 11.7979V11.8067C21.8671 12.1532 22.0137 12.5263 22.0137 12.9349V16.2527C22.0137 16.5503 22.0537 16.8701 22.1826 17.141L23.5557 20.0813H24.9999L23.3202 16.4881V12.9393C23.3202 12.282 23.1202 11.7312 22.8003 11.1761L22.7069 11.0206C22.4759 10.6431 22.2093 10.2833 21.9337 9.93688C21.5471 9.45275 21.1338 8.98195 20.7161 8.52448C20.3651 8.13807 19.9385 7.83161 19.4497 7.6495C18.9653 7.4674 18.4498 7.40965 17.9388 7.48516C17.4455 7.55622 16.9834 7.74277 16.5923 8.05367C16.2057 8.36458 15.9302 8.76432 15.7613 9.23067L14.3408 13.1302L10.9217 15.2084C11.4593 15.6068 11.4592 15.6915 11.4581 16.2642M11.458 16.281L11.4581 16.2642M11.458 16.281C11.4581 16.2754 11.4581 16.2698 11.4581 16.2642M8.30103 6.01058C8.89205 6.01058 9.36754 5.53534 9.36754 4.94462C9.36754 4.3539 8.89205 3.87866 8.30103 3.87866C7.71001 3.87866 7.23452 4.3539 7.23452 4.94462C7.23452 5.53534 7.71001 6.01058 8.30103 6.01058ZM16.1176 7.1387C16.7086 7.1387 17.1841 6.66346 17.1841 6.07274C17.1841 5.48202 16.7086 5.00678 16.1176 5.00678C15.5266 5.00678 15.0511 5.48202 15.0511 6.07274C15.0511 6.65902 15.5266 7.1387 16.1176 7.1387ZM10.3675 20.0946H11.6695L11.1096 16.1949C11.0963 15.8929 11.043 15.6886 10.803 15.4843L6.75468 12.5929C6.71469 12.5573 6.67028 12.5262 6.62584 12.4996L5.94148 13.6055L9.81646 16.3504L10.3675 20.0946ZM1 20.1212H2.4398L3.67074 17.554C3.81738 17.2475 3.87072 17.0876 3.8796 16.7323L3.98623 12.2775L5.09717 8.66655C5.41268 7.66277 6.89245 7.66278 7.64345 8.27126C7.96785 8.53775 8.75443 10.2344 9.01217 10.7096C9.2788 11.2027 10.4519 11.915 12.5455 13.4683L13.5584 12.793L10.1542 10.0834C9.83868 9.49711 9.10104 7.97368 8.73665 7.52064C7.64792 6.16598 4.51062 6.30811 3.94626 8.04474L2.68864 12.0687L2.57312 16.8389L1 20.1212ZM16.1707 16.2927L16.1663 20.0857H17.4638L17.4683 16.7102L19.5613 13.5123L18.5659 12.6506L16.1707 16.2927Z" stroke="black" stroke-width="0.0321876" stroke-miterlimit="22.926"/>
</svg>
