<svg width="24" height="24" viewBox="0 0 24 24" fill="none" xmlns="http://www.w3.org/2000/svg">
<path d="M13.8453 5.32287C14.4645 5.32287 14.9667 4.82068 14.9667 4.20147C14.9667 3.58227 14.4645 3.08008 13.8453 3.08008C13.2261 3.08008 12.7239 3.58227 12.7239 4.20147C12.7239 4.82068 13.2261 5.32287 13.8453 5.32287Z" fill="black"/>
<path d="M13.7919 8.54566C15.5179 10.1449 17.8728 11.1492 20.3301 11.3004V9.98397C18.0191 9.82307 15.8299 8.80894 14.3185 7.21461L13.7919 8.54566Z" fill="black"/>
<path d="M9.26266 13.7235L5.03548 20.9199H6.56154L10.2524 14.6304C9.95499 14.3037 9.62345 14.0014 9.26266 13.7235Z" fill="black"/>
<path d="M6.01022 6.05423C6.62942 6.55155 7.36563 6.97085 8.19449 7.29264C9.24762 7.7022 10.4324 7.95085 11.6611 8.02399L9.74495 12.8899L9.6767 13.002C9.68157 13.0069 9.68644 13.0118 9.6962 13.0166L9.6767 13.0605L10.0716 13.3628C10.2569 13.5042 10.4373 13.6553 10.6079 13.8114C10.6323 13.8357 10.6616 13.865 10.6859 13.8894L10.6908 13.8845C11.5636 14.7036 12.2023 15.6787 12.5923 16.805L9.26227 17.98V19.3111L9.28177 19.3647L14.1964 17.6338L14.0404 17.0488C13.5772 15.2887 12.6459 13.8065 11.2661 12.6315L12.802 8.73095L13.1384 7.87284C13.1433 7.87772 13.1481 7.88747 13.1579 7.89234L13.4602 7.12687L13.4212 7.161L13.5967 6.71732L12.6167 6.73195C10.213 6.7612 8.05799 6.08349 6.70257 4.91821C6.62456 5.29851 6.43927 5.64468 6.15649 5.92259C6.10773 5.97135 6.05897 6.01523 6.01022 6.05423Z" fill="black"/>
<path d="M4.77184 5.65437C4.77671 5.65437 4.78646 5.65437 4.79134 5.65437C5.40079 5.65437 5.90298 5.16681 5.91273 4.55248C5.92248 3.93327 5.43004 3.42133 4.81083 3.41158C4.80596 3.41158 4.79621 3.41158 4.79134 3.41158C4.18188 3.41158 3.67969 3.89914 3.66994 4.51347C3.66019 5.13268 4.15263 5.64462 4.77184 5.65437Z" fill="black"/>
</svg>
