<svg width="24" height="24" viewBox="0 0 24 24" fill="none" xmlns="http://www.w3.org/2000/svg">
<path d="M7.57234 5.83727C8.18539 5.83727 8.67859 5.34433 8.67859 4.73159C8.67859 4.11886 8.18539 3.62592 7.57234 3.62592C6.9593 3.62592 6.4661 4.11886 6.4661 4.73159C6.4661 5.34433 6.9593 5.83727 7.57234 5.83727Z" fill="black"/>
<path fill-rule="evenodd" clip-rule="evenodd" d="M9.71661 20.4461H11.0671L10.4863 16.4012C10.4725 16.0879 10.4172 15.876 10.1683 15.664L5.96917 12.6649C5.92768 12.628 5.88162 12.5958 5.83552 12.5681L5.12566 13.7153L9.14503 16.5624L9.71661 20.4461Z" fill="black"/>
<path fill-rule="evenodd" clip-rule="evenodd" d="M0 20.4737H1.49345L2.77025 17.8108C2.92236 17.4929 2.97768 17.3271 2.9869 16.9585L3.0975 12.3377L4.24984 8.59221C4.5771 7.55103 6.11201 7.55104 6.89099 8.1822C7.22747 8.45862 8.04336 10.2185 8.31071 10.7114C8.58727 11.2228 9.18815 12.0226 9.7505 12.0318H12.9027V10.7709H9.7505C9.42323 10.1628 8.40289 7.87352 8.02492 7.40361C6.89563 5.99847 3.64143 6.1459 3.05604 7.94723L1.75156 12.1212L1.63173 17.0691L0 20.4737Z" fill="black"/>
<path d="M7.57301 5.83727C8.18605 5.83727 8.67925 5.34433 8.67925 4.73159C8.67925 4.11886 8.18605 3.62592 7.57301 3.62592C6.95996 3.62592 6.46676 4.11886 6.46676 4.73159C6.46676 5.34433 6.95996 5.83727 7.57301 5.83727Z" fill="black"/>
<path d="M16.3926 5.83727C15.7768 5.83727 15.2813 5.34433 15.2813 4.73159C15.2813 4.11886 15.7768 3.62592 16.3926 3.62592C17.0085 3.62592 17.504 4.11886 17.504 4.73159C17.504 5.34433 17.0085 5.83727 16.3926 5.83727Z" fill="black"/>
<path fill-rule="evenodd" clip-rule="evenodd" d="M14.2389 20.4461H12.8822L13.4656 16.4012C13.4795 16.0879 13.5351 15.876 13.7851 15.664L18.0037 12.6649C18.0453 12.628 18.0916 12.5958 18.1379 12.5681L18.851 13.7153L14.8131 16.5624L14.2389 20.4461Z" fill="black"/>
<path fill-rule="evenodd" clip-rule="evenodd" d="M24 20.4737H22.4997L21.217 17.8108C21.0642 17.4929 21.0086 17.3271 20.9993 16.9585L20.8882 12.3377L19.7306 8.59221C19.4018 7.55103 17.8598 7.55104 17.0772 8.1822C16.7392 8.45862 16.2066 9.15716 15.9381 9.65011C15.6602 10.1615 15.1488 10.2713 14.5839 10.2806H11.0343V9.01967H14.9341C15.2629 8.41155 15.5584 7.87352 15.9381 7.40361C17.0726 5.99847 20.3418 6.1459 20.9299 7.94723L22.2404 12.1212L22.3607 17.0691L24 20.4737Z" fill="black"/>
<path d="M16.392 5.83727C15.7761 5.83727 15.2806 5.34433 15.2806 4.73159C15.2806 4.11886 15.7761 3.62592 16.392 3.62592C17.0078 3.62592 17.5033 4.11886 17.5033 4.73159C17.5033 5.34433 17.0078 5.83727 16.392 5.83727Z" fill="black"/>
</svg>
