<svg width="24" height="24" viewBox="0 0 24 24" fill="none" xmlns="http://www.w3.org/2000/svg">
<path fill-rule="evenodd" clip-rule="evenodd" d="M5.57101 0.413818L3.57521 4.33215L2.90977 3.67926C2.90977 3.67926 1.39724 6.90657 1.58192 6.90657L3.08609 5.1252L3.92198 6.41703L4.98584 4.66926L6.24799 7.02495L7.39368 4.89723L9.56211 6.90657V6.90557L7.88698 3.34253L7.39368 3.64966L5.57101 0.413818ZM4.3661 3.65518L5.5961 1.27095L6.7428 3.31895L6.24799 3.65518L5.57552 3.00881L4.3661 3.65518Z" fill="black"/>
<path d="M11.7227 17.6241C12.5216 16.7232 13.1023 15.6795 13.4071 14.5978C13.5403 14.1177 13.6244 13.6334 13.6459 13.1488L12.2926 12.4032C12.4171 13.8869 11.8635 15.4307 10.7156 16.7268L10.0526 17.4743L11.2658 18.1426L11.7227 17.6241Z" fill="black"/>
<path d="M18.4054 14.8007L19.0233 7.12993L18.0275 7.41435C16.3524 7.89522 14.7345 8.57301 13.2211 9.43396L14.627 10.2085C15.559 9.72911 16.5263 9.3205 17.522 8.98463L17.2302 12.6126L7.56874 7.28998L6.91762 8.47187L18.4054 14.8007Z" fill="black"/>
<path d="M18.8867 22.6318L17.6954 21.9755C17.4701 22.2394 17.0843 22.3178 16.769 22.1441L3.47245 14.8188L2.82132 16.0007L16.1179 23.326C17.0858 23.8592 18.2977 23.5455 18.8867 22.6318Z" fill="black"/>
<path d="M20.729 7.60751C21.2852 7.91394 21.9847 7.71159 22.291 7.15566C22.5973 6.59973 22.3945 5.90034 21.8383 5.59391C21.2821 5.28748 20.5826 5.48983 20.2763 6.04576C19.9701 6.60169 20.1728 7.30108 20.729 7.60751Z" fill="black"/>
</svg>
