<svg width="24" height="24" viewBox="0 0 24 24" fill="none" xmlns="http://www.w3.org/2000/svg">
<path d="M13.0843 15.5064C13.3161 15.5242 13.5568 15.5287 13.8021 15.5108C14.0918 15.493 14.3772 15.4484 14.6625 15.3816L9.5667 10.2857C9.44187 10.8163 9.39729 11.3468 9.43742 11.8595L13.0843 15.5064Z" fill="black"/>
<path d="M13.4633 17.4859C13.6148 17.4859 13.7709 17.4814 13.9269 17.4725C15.737 17.3521 17.4801 16.5363 18.8399 15.181C20.1997 13.8212 21.0111 12.078 21.1315 10.2724C21.2563 8.43115 20.65 6.74593 19.424 5.52436C18.2024 4.3028 16.5172 3.69648 14.6759 3.81686C12.8658 3.93723 11.1227 4.75309 9.76735 6.1084C8.41204 7.46371 7.59618 9.21134 7.47581 11.0214C7.3911 12.2831 7.64968 13.4779 8.21588 14.4944L4.74735 17.9629L5.59887 18.8144L8.38529 16.028L8.92028 15.4886L9.77181 14.637C8.96932 13.6919 8.58145 12.4525 8.67507 11.1017C8.77761 9.58584 9.46419 8.11462 10.6189 6.95993C11.7691 5.8097 13.2403 5.11866 14.7606 5.01612C14.8899 5.00721 15.0147 5.00274 15.1396 5.00274C16.477 5.00274 17.6852 5.47978 18.5769 6.37143C19.5488 7.34333 20.0303 8.69865 19.9322 10.1877C19.8296 11.7035 19.1431 13.1747 17.9884 14.3294C16.8382 15.4797 15.3669 16.1707 13.8467 16.2732C12.4958 16.3624 11.2564 15.9745 10.3113 15.1765L6.13386 19.3539L6.9854 20.2054L10.4539 16.7369C11.35 17.2228 12.3754 17.4859 13.4633 17.4859Z" fill="black"/>
<path d="M5.7548 7.24078C5.59876 7.32103 5.42043 7.36561 5.23319 7.36561C4.91665 7.36561 4.62241 7.24078 4.39949 7.01787C4.17658 6.79496 4.05175 6.49626 4.05175 6.17973C4.05175 5.52882 4.58228 4.99829 5.23319 4.99829C5.88409 4.99829 6.41463 5.52882 6.41463 6.17973C6.41463 6.36697 6.37005 6.54529 6.29426 6.70133L7.16808 7.57515C7.45341 7.18283 7.62282 6.70134 7.62282 6.17973C7.62282 6.0549 7.6139 5.93452 7.59607 5.8186C7.42219 4.67283 6.42801 3.79456 5.23765 3.79456C3.92246 3.79456 2.85248 4.86454 2.85248 6.17973C2.85248 6.81726 3.10214 7.41466 3.55242 7.86494C4.00271 8.31523 4.60012 8.5649 5.23765 8.5649C5.75927 8.5649 6.24076 8.39547 6.63309 8.11015L5.7548 7.24078ZM7.01649 6.18417H6.96746Z" fill="black"/>
</svg>
