<svg width="24" height="24" viewBox="0 0 24 24" fill="none" xmlns="http://www.w3.org/2000/svg">
<path d="M14.6585 4.56949L14.1515 3.15949C13.7285 3.62149 13.2715 4.07449 12.7575 4.52149C11.2255 5.86549 9.5345 6.92949 8.2535 7.34649L9.8125 8.14349C11.5195 7.31549 13.2695 5.97749 14.6585 4.56949ZM5.3005 8.68949C5.44582 8.64262 5.58023 8.567 5.69574 8.46714C5.81124 8.36728 5.90549 8.24522 5.97289 8.1082C6.04028 7.97119 6.07943 7.82203 6.08802 7.66958C6.09661 7.51713 6.07446 7.36451 6.02289 7.22079C5.97132 7.07708 5.89138 6.9452 5.78782 6.83299C5.68426 6.72079 5.5592 6.63055 5.42007 6.56765C5.28094 6.50474 5.13058 6.47045 4.97794 6.46682C4.82529 6.46319 4.67347 6.49028 4.5315 6.54649C4.39073 6.59705 4.26129 6.67484 4.15057 6.77543C4.03986 6.87601 3.95004 6.99742 3.88625 7.13271C3.82246 7.26801 3.78594 7.41454 3.77877 7.56395C3.77161 7.71336 3.79395 7.86272 3.8445 8.00349C3.89506 8.14427 3.97286 8.27371 4.07344 8.38442C4.17402 8.49514 4.29543 8.58495 4.43072 8.64875C4.70396 8.77758 5.01719 8.7926 5.3015 8.69049L5.3005 8.68949Z" fill="black"/>
<path d="M8.0315 15.7435L8.6605 16.7635L10.9735 12.1275L9.7765 11.5325L8.6045 13.8825C8.0835 12.5025 7.8845 10.8605 8.1145 9.73049L13.8845 12.6765L9.4135 21.3265H11.0225L20.2225 3.29449L19.1195 2.67349L14.4115 11.4465L7.4265 7.88549L7.1305 8.49549C6.6935 9.38949 6.5675 10.6805 6.7815 12.1285C6.9775 13.4515 7.4295 14.7715 8.0315 15.7435Z" fill="black"/>
</svg>
