<svg width="24" height="24" viewBox="0 0 24 24" fill="none" xmlns="http://www.w3.org/2000/svg">
<path fill-rule="evenodd" clip-rule="evenodd" d="M5.57098 0.413879L3.57518 4.33221L2.90974 3.67932C2.90974 3.67932 1.39721 6.90663 1.58189 6.90663L3.08605 5.12526L3.92195 6.41709L4.98581 4.66932L6.24795 7.02501L7.39365 4.89729L9.56208 6.90663V6.90563L7.88695 3.34259L7.39365 3.64972L5.57098 0.413879ZM4.36607 3.65524L5.59607 1.27101L6.74276 3.31901L6.24795 3.65524L5.57549 3.00887L4.36607 3.65524Z" fill="black"/>
<path d="M11.7227 17.6241C12.5215 16.7233 13.1023 15.6795 13.4071 14.5978C13.5403 14.1177 13.6244 13.6334 13.6458 13.1488L12.2925 12.4033C12.4171 13.887 11.8635 15.4307 10.7155 16.7269L10.0526 17.4743L11.2657 18.1427L11.7227 17.6241Z" fill="black"/>
<path d="M18.4054 14.8008L19.0233 7.12999L18.0274 7.41441C16.3524 7.89528 14.7344 8.57307 13.2211 9.43402L14.627 10.2085C15.559 9.72917 16.5263 9.32056 17.522 8.98469L17.2302 12.6127L7.56871 7.29004L6.91759 8.47193L18.4054 14.8008Z" fill="black"/>
<path d="M18.8867 22.6318L17.6954 21.9755C17.4701 22.2394 17.0843 22.3179 16.769 22.1442L3.47242 14.8189L2.82129 16.0008L16.1178 23.3261C17.0857 23.8593 18.2976 23.5455 18.8867 22.6318Z" fill="black"/>
<path d="M20.729 7.60757C21.2852 7.914 21.9847 7.71165 22.291 7.15572C22.5972 6.59979 22.3945 5.9004 21.8383 5.59397C21.2821 5.28754 20.5826 5.48989 20.2763 6.04582C19.97 6.60175 20.1728 7.30114 20.729 7.60757Z" fill="black"/>
</svg>
