<svg width="24" height="24" viewBox="0 0 24 24" fill="none" xmlns="http://www.w3.org/2000/svg">
<path d="M15.588 19.554C14.2938 19.9367 13.1355 20.1281 11.9773 20.1281C10.819 20.1281 9.66071 19.9367 8.36647 19.554C6.14561 18.8942 4.14127 18.8942 1.91537 19.554L1.60318 19.6446V18.2245C4.15641 17.4791 6.18591 17.4892 8.75425 18.2446C9.92259 18.5921 10.9499 18.7633 11.9773 18.7633C13.0046 18.7633 14.0319 18.5921 15.2003 18.2446C17.7636 17.4842 19.7931 17.4791 22.3513 18.2245V19.6446L22.0391 19.554C19.8132 18.8942 17.8139 18.8942 15.588 19.554Z" fill="black"/>
<path d="M9.62544 9.92012C10.1794 10.9475 10.4564 12.0201 10.5571 13.0323C10.6377 13.7978 10.6125 14.528 10.5369 15.1777L10.4967 15.1726L10.4765 15.1676C10.4362 15.1626 10.3909 15.1525 10.3506 15.1475L10.2902 15.1323C10.2096 15.1172 10.1341 15.1021 10.0535 15.087L10.0333 15.082C9.98801 15.0719 9.94774 15.0618 9.90242 15.0568L9.88225 15.0518C9.85204 15.0467 9.82181 15.0367 9.79663 15.0316L9.77652 15.0266C9.69594 15.0064 9.61538 14.9913 9.5348 14.9712H9.52974L9.48444 14.9611L9.424 14.946H9.41893C9.38872 14.941 9.36358 14.9309 9.33336 14.9259L9.3132 14.9208C9.26787 14.9108 9.22254 14.8956 9.17722 14.8856L9.15204 14.8805C9.20743 14.3669 9.21751 13.7877 9.15204 13.1834C9.06643 12.3374 8.83478 11.446 8.38155 10.6L9.62544 9.92012Z" fill="black"/>
<path d="M3.2046 12.5187C4.99237 12.1561 7.03193 11.154 8.442 9.41151C9.53984 8.05683 10.2549 6.24389 10.1693 3.92231L11.5895 3.87195C11.6902 6.5813 10.8442 8.70648 9.54991 10.3029C7.90819 12.3324 5.55136 13.4957 3.48158 13.9086L3.2046 12.5187Z" fill="black"/>
<path d="M7.10748 9.49706C7.74705 9.49706 8.26575 8.97836 8.26575 8.33879C8.26575 7.69923 7.74705 7.18052 7.10748 7.18052C6.46791 7.18052 5.94921 7.69923 5.94921 8.33879C5.94921 8.97836 6.46791 9.49706 7.10748 9.49706Z" fill="black"/>
<path d="M18.0608 9.99063C18.6147 11.018 18.8917 12.0906 18.9924 13.1029C19.0327 13.4806 19.0478 13.8482 19.0428 14.2007C19.0075 14.2007 18.9723 14.2007 18.937 14.2007C18.9017 14.2007 18.8665 14.2007 18.8313 14.2007H18.8262C18.791 14.2007 18.7608 14.2007 18.7255 14.2007H18.7154C18.6852 14.2007 18.65 14.2007 18.6197 14.2007H18.6097C18.5794 14.2007 18.5442 14.2007 18.514 14.2057H18.5039C18.4737 14.2057 18.4435 14.2057 18.4082 14.2108H18.3881C18.3579 14.2108 18.3327 14.2158 18.3025 14.2158H18.2823C18.2521 14.2158 18.227 14.2208 18.1968 14.2208H18.1716C18.1464 14.2208 18.1161 14.2259 18.091 14.2259H18.0608C18.0356 14.2259 18.0154 14.2309 17.9902 14.2309L17.95 14.236C17.9248 14.236 17.9046 14.241 17.8794 14.241L17.8442 14.246C17.8191 14.246 17.7939 14.2511 17.7687 14.2511L17.7284 14.2561C17.7032 14.2561 17.6831 14.2611 17.6579 14.2611L17.6176 14.2662C17.6227 13.9388 17.6125 13.5964 17.5773 13.2439C17.4917 12.3978 17.26 11.5065 16.8068 10.6604L18.0608 9.99063Z" fill="black"/>
<path d="M11.6047 13.259C13.3925 12.8964 15.4321 11.8942 16.8421 10.1518C17.94 8.79712 18.6551 6.98418 18.5695 4.6626L19.9896 4.61224C20.0903 7.32159 19.2443 9.44676 17.95 11.0432C16.3083 13.0727 13.9515 14.236 11.8817 14.6489L11.6047 13.259Z" fill="black"/>
<path d="M15.5429 9.56765C16.1825 9.56765 16.7012 9.04895 16.7012 8.40938C16.7012 7.76982 16.1825 7.25111 15.5429 7.25111C14.9033 7.25111 14.3846 7.76982 14.3846 8.40938C14.3846 9.04895 14.9033 9.56765 15.5429 9.56765Z" fill="black"/>
<path d="M15.6335 17.0863C14.3393 17.4691 13.181 17.6604 12.0227 17.6604C10.8645 17.6604 9.70618 17.4691 8.41193 17.0863C6.19107 16.4266 4.18678 16.4266 1.96088 17.0863L1.64864 17.177V15.7568C4.20188 15.0115 6.23137 15.0216 8.79971 15.777C9.96806 16.1245 10.9954 16.2957 12.0227 16.2957C13.0501 16.2957 14.0774 16.1245 15.2457 15.777C17.8091 15.0165 19.8385 15.0115 22.3968 15.7568V17.177L22.0846 17.0863C19.8587 16.4266 17.8544 16.4266 15.6335 17.0863Z" fill="black"/>
</svg>
