<svg width="24" height="24" viewBox="0 0 24 24" fill="none" xmlns="http://www.w3.org/2000/svg">
<path d="M8.83977 11.786C9.5199 11.621 10.205 11.511 10.8951 11.456C11.4052 10.9159 11.9404 10.4258 12.5055 9.9957C12.4304 9.95069 12.3604 9.90568 12.2804 9.86568C11.9204 9.66564 11.5303 9.5006 11.1252 9.38058C10.305 10.0757 9.53991 10.8809 8.83977 11.786Z" fill="black"/>
<path d="M17.4513 9.37059C18.0865 9.37059 18.6015 8.85549 18.6015 8.22037C18.6015 7.58525 18.0865 7.07015 17.4513 7.07015C16.8162 7.07015 16.3011 7.58525 16.3011 8.22037C16.3011 8.85549 16.8162 9.37059 17.4513 9.37059Z" fill="black"/>
<path d="M12.6951 9.12052C13.7903 9.73063 14.6555 10.6458 15.2556 11.811C15.4456 11.856 15.6407 11.9111 15.8307 11.9661C16.1858 12.0711 16.5459 12.1561 16.9109 12.2261C16.2158 10.3307 15.0006 8.86047 13.3502 7.94029C11.2448 6.76507 8.57933 6.58003 5.7988 7.40019V8.81546C8.36929 7.9653 10.8148 8.07032 12.6951 9.12052Z" fill="black"/>
<path d="M15.5857 12.7812C14.3005 12.4011 13.1502 12.2111 12 12.2111C10.8498 12.2111 9.69958 12.4011 8.41433 12.7812C6.20891 13.4363 4.21853 13.4363 2.00811 12.7812L1.69804 12.6912V14.1015C4.23352 14.8416 6.2489 14.8316 8.79939 14.0815C9.95961 13.7364 10.9798 13.5664 12 13.5664C13.0202 13.5664 14.0404 13.7364 15.2006 14.0815C17.7461 14.8366 19.7615 14.8416 22.302 14.1015V12.6912L21.9919 12.7812C19.7865 13.4313 17.7961 13.4313 15.5857 12.7812Z" fill="black"/>
<path d="M15.5857 15.2317C14.3005 14.8516 13.1502 14.6616 12 14.6616C10.8498 14.6616 9.69958 14.8516 8.41433 15.2317C6.20891 15.8868 4.21853 15.8868 2.00811 15.2317L1.69804 15.1417V16.5519C4.23352 17.2921 6.2489 17.2821 8.79939 16.5319C9.95961 16.1869 10.9798 16.0168 12 16.0168C13.0202 16.0168 14.0404 16.1869 15.2006 16.5319C17.7461 17.2871 19.7615 17.2921 22.302 16.5519V15.1417L21.9919 15.2317C19.7865 15.8818 17.7961 15.8818 15.5857 15.2317Z" fill="black"/>
</svg>
