<svg width="24" height="24" viewBox="0 0 24 24" fill="none" xmlns="http://www.w3.org/2000/svg">
<path d="M8.64627 3.52304H7.3814V5.35007H8.64627V3.52304Z" fill="black"/>
<path d="M10.7075 3.52304H9.44263V5.35007H10.7075V3.52304Z" fill="black"/>
<path d="M12.7693 3.52304H11.5044V5.42972L12.7693 4.66143V3.52304Z" fill="black"/>
<path d="M19.4961 19.287H4.28955V20.5519H19.4961V19.287Z" fill="black"/>
<path d="M4.28955 18.4906H10.0564V17.2258H5.42323C7.17531 15.7782 8.24812 13.5998 8.24812 11.2434V8.80737L6.58505 7.40196V3.5277H5.32018V7.99221L6.98325 9.39762V11.2481C6.98325 13.3609 5.94793 15.3097 4.28955 16.509V18.4906Z" fill="black"/>
<path d="M10.8528 18.4907H19.4914V17.2258H12.0802V16.7058C12.0802 15.3332 12.4034 14.0824 12.989 13.1689L15.6031 9.05572H11.5461V7.78616L16.198 4.98941C17.3083 5.98256 18.0391 7.27084 18.3202 8.74652C18.62 10.3253 18.3577 12.0024 17.58 13.464L17.149 14.2745V16.4341H18.4139V14.593L18.6997 14.059C19.6132 12.3444 19.9224 10.3721 19.5663 8.5076C19.2056 6.61966 18.1703 4.91913 16.6525 3.71985L16.3105 3.44812L10.2813 7.10688V10.3206H13.3076L11.9303 12.4896C11.34 13.4031 10.9699 14.5837 10.8575 15.872V18.4907H10.8528Z" fill="black"/>
</svg>
