<svg width="24" height="24" viewBox="0 0 24 24" fill="none" xmlns="http://www.w3.org/2000/svg">
<path d="M16.1547 3.7998C16.1547 3.24891 15.7077 2.80212 15.1565 2.80212C14.6053 2.80212 14.1583 3.24891 14.1583 3.7998C14.1583 4.35069 14.6053 4.79747 15.1565 4.79747C15.7077 4.79747 16.1547 4.35069 16.1547 3.7998Z" fill="black"/>
<path d="M6.30278 18.765C8.69409 18.765 10.6427 16.8173 10.6427 14.4272C10.6427 12.0372 8.69409 10.0895 6.30278 10.0895C3.91147 10.0895 1.96284 12.0372 1.96284 14.4272C1.96284 16.8173 3.91147 18.765 6.30278 18.765ZM6.30278 11.2607C8.05177 11.2607 9.47094 12.6791 9.47094 14.4272C9.47094 16.1753 8.05177 17.5938 6.30278 17.5938C4.55378 17.5938 3.13462 16.1753 3.13462 14.4272C3.13462 12.6791 4.55812 11.2607 6.30278 11.2607Z" fill="black"/>
<path d="M17.629 18.765C20.0203 18.765 21.969 16.8173 21.969 14.4272C21.969 12.0372 20.0203 10.0895 17.629 10.0895C15.2377 10.0895 13.2891 12.0372 13.2891 14.4272C13.2891 16.8173 15.2377 18.765 17.629 18.765ZM17.629 11.2607C19.378 11.2607 20.7972 12.6791 20.7972 14.4272C20.7972 16.1753 19.378 17.5938 17.629 17.5938C15.88 17.5938 14.4609 16.1753 14.4609 14.4272C14.4609 12.6791 15.8844 11.2607 17.629 11.2607Z" fill="black"/>
<path d="M18.238 9.43445V8.26327C16.055 8.26327 14.5317 7.25258 13.7027 5.26591L13.3859 4.51114L8.68575 8.65366C8.68141 8.64932 8.67273 8.64932 8.66839 8.64499L7.65717 9.53422C9.8011 10.1285 11.3809 12.0978 11.3809 14.4272V15.555H12.5526V14.4272C12.5526 12.2713 11.4546 10.3671 9.78809 9.24359L12.9693 6.44142C14.0499 8.40641 15.8553 9.43445 18.238 9.43445Z" fill="black"/>
<path d="M1.3813 20.3005H22.6187V21.1979H1.3813V20.3005Z" fill="black"/>
<path d="M1.3813 4.1481H12.1496L11.1026 5.04546H1.3813V4.1481Z" fill="black"/>
<path d="M17.0351 4.1481H22.6187V5.04546H16.412C16.7859 4.74634 16.8542 4.5884 17.0351 4.1481Z" fill="black"/>
</svg>
