<svg width="24" height="24" viewBox="0 0 24 24" fill="none" xmlns="http://www.w3.org/2000/svg">
<path d="M5.88094 7.26502L4.96981 5.90063H5.4787L4.5628 4.52858H5.06658L3.6413 2.39389L2.21585 4.52858H2.71963L1.80375 5.90063H2.31263L1.40167 7.26502H3.46578V7.96712H3.81684V7.26502H5.88094ZM2.771 5.65878H2.26229L3.17801 4.28707H2.67423L3.6413 2.83882L4.60822 4.28707H4.10426L5.02032 5.65878H4.51144L5.42256 7.02334H3.72907V6.61633L4.41535 5.83226L4.2832 5.7166L3.72907 6.34999V5.70334L4.28252 5.07082L4.15036 4.95533L3.72907 5.43683V4.26037H3.55355V5.43666L3.13226 4.95532L3.0001 5.0708L3.55355 5.70333V6.34982L2.99943 5.7166L2.86744 5.83226L3.55355 6.61633V7.02334H1.86004L2.771 5.65878Z" fill="black"/>
<path d="M9.54458 7.31688L8.89678 6.34681H9.25859L8.60741 5.3713H8.96559L7.95223 3.85357L6.93875 5.3713H7.29693L6.64575 6.34681H7.00756L6.35988 7.31688H7.82744L7.81953 7.96714H8.07703V7.31688H9.54458ZM7.33345 6.17486H6.97177L7.62283 5.19959H7.26465L7.95223 4.16991L8.63969 5.19959H8.28139L8.93269 6.17486H8.57088L9.21868 7.14505H8.01463V6.85567L8.50257 6.2982L8.40861 6.21597L8.01463 6.6663V6.20655L8.40813 5.75683L8.31417 5.67472L8.01463 6.01706V5.18061H7.88984V6.01693L7.5903 5.67471L7.49634 5.75682L7.88984 6.20654V6.66618L7.49586 6.21597L7.40202 6.2982L7.88984 6.85567V7.14505H6.68577L7.33345 6.17486Z" fill="black"/>
<path d="M22.5489 7.24047L21.9011 6.2704H22.2629L21.6117 5.29489H21.9699L20.9565 3.77715L19.9431 5.29489H20.3012L19.6501 6.2704H20.0119L19.3642 7.24047H20.8317L20.8238 7.89073H21.0813V7.24047H22.5489ZM20.3378 6.09845H19.9761L20.6271 5.12318H20.269L20.9565 4.0935L21.644 5.12318H21.2857L21.937 6.09845H21.5752L22.223 7.06863H21.0189V6.77926L21.5069 6.22179L21.4129 6.13956L21.0189 6.58989V6.13013L21.4124 5.68041L21.3185 5.59831L21.0189 5.94065V5.1042H20.8941V5.94052L20.5946 5.5983L20.5006 5.68041L20.8941 6.13013V6.58977L20.5002 6.13956L20.4063 6.22179L20.8941 6.77926V7.06863H19.6901L20.3378 6.09845Z" fill="black"/>
<path d="M16.1793 4.1936C16.1793 3.63943 15.7296 3.18998 15.1752 3.18998C14.6207 3.18998 14.171 3.63943 14.171 4.1936C14.171 4.74778 14.6207 5.19723 15.1752 5.19723C15.7296 5.19723 16.1793 4.74778 16.1793 4.1936Z" fill="black"/>
<path d="M6.26862 19.248C8.67418 19.248 10.6344 17.2887 10.6344 14.8844C10.6344 12.4801 8.67418 10.5208 6.26862 10.5208C3.86305 10.5208 1.9028 12.4801 1.9028 14.8844C1.9028 17.2887 3.86305 19.248 6.26862 19.248ZM6.26862 11.699C8.02804 11.699 9.45567 13.1259 9.45567 14.8844C9.45567 16.6429 8.02804 18.0698 6.26862 18.0698C4.50919 18.0698 3.08157 16.6429 3.08157 14.8844C3.08157 13.1259 4.51356 11.699 6.26862 11.699Z" fill="black"/>
<path d="M17.6633 19.248C20.0689 19.248 22.0291 17.2887 22.0291 14.8844C22.0291 12.4801 20.0689 10.5208 17.6633 10.5208C15.2577 10.5208 13.2975 12.4801 13.2975 14.8844C13.2975 17.2887 15.2577 19.248 17.6633 19.248ZM17.6633 11.699C19.4227 11.699 20.8504 13.1259 20.8504 14.8844C20.8504 16.6429 19.4227 18.0698 17.6633 18.0698C15.9039 18.0698 14.4763 16.6429 14.4763 14.8844C14.4763 13.1259 15.9082 11.699 17.6633 11.699Z" fill="black"/>
<path d="M18.2749 9.86184V8.68368C16.0789 8.68368 14.5465 7.66697 13.7127 5.66844L13.3939 4.90917L8.66577 9.0764C8.6614 9.07204 8.65267 9.07204 8.64831 9.06767L7.63106 9.96221C9.78777 10.56 11.3769 12.5411 11.3769 14.8843V16.0189H12.5557V14.8843C12.5557 12.7156 11.4512 10.8 9.77468 9.66985L12.9748 6.85097C14.0619 8.82767 15.8781 9.86184 18.2749 9.86184Z" fill="black"/>
<path d="M1.31798 20.6839H22.682V21.6061H1.31798V20.6839Z" fill="black"/>
<path d="M1.31798 7.92697H8.54179L7.4659 8.84916H1.31798V7.92697Z" fill="black"/>
<path d="M19.3006 7.8506H22.6819V8.77279H19.3006V7.8506Z" fill="black"/>
</svg>
