<svg width="24" height="24" viewBox="0 0 24 24" fill="none" xmlns="http://www.w3.org/2000/svg">
<path d="M17.0173 20.7462C15.7629 20.3752 14.6404 20.1898 13.5178 20.1898C12.3953 20.1898 11.2727 20.3752 10.0184 20.7462C7.86114 21.3855 5.92348 21.3855 3.76622 20.7462L3.46361 20.6583V22.0347C5.93811 22.757 7.90503 22.7473 10.3942 22.0152C11.5265 21.6784 12.5222 21.5124 13.5178 21.5124C14.5135 21.5124 15.5091 21.6784 16.6415 22.0152C17.8421 22.3714 18.9256 22.5569 19.9994 22.5716V21.2245C19.0233 21.2098 18.0471 21.0488 17.0173 20.7462Z" fill="black"/>
<path d="M11.3118 18.4034H3.46361V19.7846H11.3118V18.4034Z" fill="black"/>
<path d="M9.99873 8.34921L12.9906 11.1654C13.2444 11.4045 13.2785 11.795 13.0784 12.0732L9.09581 17.5688L7.39734 17.5639L11.6045 11.7511L7.78779 8.16375C7.65601 8.03685 7.57302 7.86114 7.57302 7.66104C7.57302 7.28034 7.88054 6.97286 8.26123 6.97286L16.9732 6.96798V8.34433L9.99873 8.34921Z" fill="black"/>
<path d="M13.6737 6.13829L9.05664 2.51682L9.90585 1.42844L15.9091 6.13342L13.6737 6.13829Z" fill="black"/>
<path d="M19.4573 6.60193C18.9985 6.58729 18.5592 6.85084 18.3738 7.29986C18.1395 7.87578 18.4177 8.5298 18.9888 8.76407C19.5647 8.99834 20.2187 8.72014 20.453 8.1491C20.6775 7.59759 20.4334 6.97286 19.9063 6.71907C19.8819 6.70931 19.8624 6.69954 19.838 6.68978C19.716 6.63121 19.5842 6.60681 19.4573 6.60193Z" fill="black"/>
</svg>
