<svg width="24" height="24" viewBox="0 0 24 24" fill="none" xmlns="http://www.w3.org/2000/svg">
<path d="M10.0701 6.08214L12.0863 2.58994L14.9005 7.46416C14.599 7.67777 14.3553 8.03301 14.3025 8.50033L12.0863 4.66188L11.3041 6.01682C10.8965 5.91869 10.5273 5.94887 10.0701 6.08214Z" fill="black"/>
<path d="M6.11637 12.9302L2.55236 19.1033L4.82766 17.2343L6.51727 14.3078C6.3537 13.7691 6.21941 13.3153 6.11637 12.9302Z" fill="black"/>
<path d="M5.47679 19.9425L4.07083 20.9784H22.7029L18.2217 13.2167C17.8722 13.4495 17.59 13.5725 17.2687 13.6381L20.9086 19.9425H5.47679Z" fill="black"/>
<path d="M9.8011 11.9903C10.8377 12.513 12.911 14.1166 12.3616 15.481C11.8965 16.6373 9.67264 17.0581 8.54743 17.253C8.92398 16.8455 9.00373 16.5974 9.08789 15.9994C9.49988 15.9285 11.1833 15.5209 11.1921 15.0425C11.2054 14.6305 10.6428 14.1343 10.3327 13.8863C9.61947 13.3104 9.17651 13.0579 8.44114 12.7123C8.4943 12.2649 9.51758 11.9592 9.8011 11.9903Z" fill="black"/>
<path d="M19.3742 10.71C19.2458 11.0733 19.0907 11.5074 18.8559 11.9282C18.5946 12.3934 18.2402 12.8231 17.7352 13.1066C17.1548 13.4344 16.6055 13.4389 16.0828 13.2262C15.6309 13.0402 15.2278 12.6946 14.8468 12.2561C14.3064 11.6359 13.7969 10.9669 13.2786 10.2936C12.6938 9.52721 12.1002 8.75641 11.449 8.03875C11.2718 7.84384 11.1124 7.70208 10.9617 7.64449C10.8377 7.60019 10.6738 7.61348 10.4479 7.71094C10.3992 7.73309 10.1112 7.99446 9.75679 8.33114C9.17203 8.88488 8.47653 9.59366 8.2506 9.84617L7.32031 9.00448C7.5551 8.74311 8.28164 8.00331 8.8974 7.41856C9.34483 6.99328 9.76124 6.63888 9.96059 6.55029C10.5055 6.31993 10.9618 6.31106 11.3782 6.45725C11.768 6.59458 12.0781 6.85595 12.3793 7.18819C13.0527 7.928 13.664 8.72983 14.2709 9.52279C14.7715 10.174 15.2632 10.8208 15.7904 11.4232C16.0518 11.7245 16.3087 11.9548 16.5524 12.0567C16.7251 12.1276 16.9156 12.1232 17.1194 12.008C17.394 11.8529 17.5978 11.596 17.7617 11.3036C17.9478 10.9714 18.0807 10.5993 18.1914 10.2848L19.3742 10.71Z" fill="black"/>
<path d="M15.729 9.61585C16.2961 9.58041 16.7257 9.08867 16.6903 8.52164C16.6549 7.95461 16.1632 7.52491 15.5961 7.56035C15.0291 7.59579 14.5994 8.0875 14.6348 8.65454C14.6703 9.22157 15.162 9.65129 15.729 9.61585Z" fill="black"/>
<path d="M13.7133 10.3867C13.0311 10.6038 12.2293 10.7854 11.4319 10.9626C9.62893 11.3657 7.84808 11.7644 7.92339 12.4511C7.97655 12.9605 8.07398 13.4566 8.16258 13.9218C8.40623 15.1843 8.61004 16.2298 7.95441 16.9652C6.79376 18.272 4.72051 19.7162 3.54215 20.5402L3.458 20.5977L2.74475 19.57L2.82894 19.5124C3.95858 18.7239 5.94763 17.3373 7.01525 16.1368C7.25889 15.8621 7.11269 15.0869 6.93106 14.1566C6.8336 13.6649 6.73172 13.1333 6.67413 12.5795C6.56338 11.5429 7.28989 10.9316 8.3708 10.5019C10.0852 9.81967 12.0122 9.5893 13.7886 9.04884L14.081 9.36337L13.7133 10.3867Z" fill="black"/>
</svg>
