<svg width="24" height="24" viewBox="0 0 24 24" fill="none" xmlns="http://www.w3.org/2000/svg">
<path d="M13.212 11.3525C13.114 12.018 12.9541 12.6731 12.7374 13.318C12.433 14.2259 12.0048 15.1132 11.4632 15.9696L12.8664 16.3513C13.3616 15.5156 13.764 14.649 14.0632 13.7668L13.4029 13.545L14.058 13.7668C14.089 13.674 14.1199 13.5811 14.1509 13.4882C14.6255 11.889 14.7854 10.0577 14.6255 8.30883C14.5739 7.91677 14.5068 7.52471 14.4191 7.13265L13.2533 8.55131C13.3564 9.47988 13.3461 10.4188 13.212 11.3525Z" fill="black"/>
<path d="M15.6985 3.55256L15.2291 2.56207L5.59253 14.2828L10.6223 15.6498C10.8906 15.2423 11.1279 14.8244 11.3394 14.4014L8.03261 13.5038L14.8628 5.1982C15.3426 6.60654 15.585 8.25735 15.5541 9.94942C15.5231 11.399 15.2961 12.8022 14.8886 14.0403C14.8576 14.128 14.8267 14.2209 14.7957 14.3086C14.7803 14.3602 14.7596 14.4066 14.739 14.4582C14.7287 14.4943 14.7132 14.5252 14.6977 14.5613C14.6823 14.6078 14.6616 14.6491 14.6461 14.6955C14.4037 15.3145 14.1148 15.9181 13.7795 16.5113L15.1259 16.8776L15.389 16.3927C17.339 12.8228 17.4731 7.29782 15.6985 3.55256Z" fill="black"/>
<path d="M17.9274 21.438L19.6711 17.7752H4.32893V19.1681H17.4631L17.0453 20.0451H4.32893V21.438H17.9274Z" fill="black"/>
</svg>
