<svg width="24" height="24" viewBox="0 0 24 24" fill="none" xmlns="http://www.w3.org/2000/svg">
<path d="M18.995 5.25935V4.89312C18.3958 4.74372 17.9235 4.27173 17.7741 3.6728H17.4076C17.569 4.47004 18.1973 5.09805 18.995 5.25935Z" fill="black"/>
<path d="M21.0225 2.86767H21.3889C21.2275 2.07175 20.5992 1.44242 19.8015 1.28112V1.64734C20.4021 1.79674 20.8743 2.26875 21.0225 2.86767Z" fill="black"/>
<path d="M18.995 1.64734V1.28112C18.1987 1.44242 17.569 2.07043 17.4076 2.86767H17.7741C17.9222 2.26875 18.3958 1.79674 18.995 1.64734Z" fill="black"/>
<path d="M19.8021 4.89312V5.25935C20.5984 5.09805 21.228 4.47004 21.3894 3.6728H21.023C20.8735 4.27305 20.4013 4.74504 19.8021 4.89312Z" fill="black"/>
<path d="M20.6375 3.67415H20.2539C20.16 3.87247 20 4.03245 19.8015 4.12632V4.50973C20.1971 4.38016 20.5092 4.06815 20.6375 3.67415Z" fill="black"/>
<path d="M19.8021 2.03208V2.41549C20.0005 2.50936 20.1605 2.66934 20.2545 2.86766H20.6381C20.5084 2.47367 20.1963 2.16032 19.8021 2.03208Z" fill="black"/>
<path d="M18.9959 4.50838V4.12497C18.7975 4.03109 18.6374 3.87112 18.5435 3.6728H18.1599C18.2882 4.06812 18.6004 4.38014 18.9959 4.50838Z" fill="black"/>
<path d="M18.1599 2.86766H18.5435C18.6374 2.66934 18.7975 2.50936 18.9959 2.41549V2.03208C18.6004 2.16032 18.2882 2.47367 18.1599 2.86766Z" fill="black"/>
<path d="M19.2194 2.77246C19.2749 2.75263 19.3358 2.74073 19.3979 2.74073C19.4601 2.74073 19.521 2.75131 19.5765 2.77246V0.863312H19.2194V2.77246Z" fill="black"/>
<path d="M19.5765 3.76804C19.521 3.78787 19.4601 3.79977 19.3979 3.79977C19.3358 3.79977 19.2749 3.78919 19.2194 3.76804V5.67719H19.5765V3.76804Z" fill="black"/>
<path d="M18.9001 3.44943C18.8803 3.3939 18.8684 3.33308 18.8684 3.27094C18.8684 3.2088 18.879 3.14798 18.9001 3.09245H16.99V3.44943H18.9001Z" fill="black"/>
<path d="M19.3998 3.57501C19.5678 3.57501 19.7041 3.43883 19.7041 3.27092C19.7041 3.10301 19.5678 2.96683 19.3998 2.96683C19.2318 2.96683 19.0956 3.10301 19.0956 3.27092C19.0956 3.43883 19.2318 3.57501 19.3998 3.57501Z" fill="black"/>
<path fill-rule="evenodd" clip-rule="evenodd" d="M21.41 3.40578C21.4086 3.42429 21.4192 3.46131 21.4602 3.44677C21.4946 3.43487 21.4867 3.40181 21.4867 3.38066C21.4867 3.33571 21.4867 3.29208 21.488 3.24845C21.4893 3.20217 21.488 3.16251 21.4893 3.11624C21.4893 3.0964 21.496 3.066 21.4642 3.05806C21.4232 3.04616 21.4179 3.07525 21.41 3.10037C21.3227 3.04219 21.2592 3.05542 21.1719 3.05674C21.0885 3.05806 20.5012 3.05806 20.4747 3.066C20.4681 3.08319 20.4695 3.23126 20.4695 3.26035C20.4695 3.32645 20.4668 3.39256 20.4681 3.45602C20.4933 3.46396 20.8861 3.45602 20.9457 3.45602C21.0356 3.4547 21.2909 3.46395 21.3544 3.43751C21.3703 3.42958 21.3928 3.41239 21.41 3.40578Z" fill="black"/>
<path fill-rule="evenodd" clip-rule="evenodd" d="M20.2916 3.44543C20.3009 3.42825 20.2982 3.29075 20.2982 3.26034C20.2982 3.23257 20.3035 3.09243 20.2956 3.07656C20.2625 3.07524 20.1461 3.11226 20.1091 3.1268C19.6831 3.29471 20.2162 3.45469 20.2916 3.44543Z" fill="black"/>
<path d="M5.58759 6.15839C5.58759 6.7605 6.07599 7.2489 6.6781 7.2489C7.28021 7.2489 7.76861 6.7605 7.76861 6.15839C7.76861 5.55628 7.28021 5.06788 6.6781 5.06788C6.07599 5.06788 5.58759 5.55628 5.58759 6.15839Z" fill="black"/>
<path d="M8.42098 15.9509C7.83741 18.0969 6.05662 21.0233 4.3665 23.1367H2.51007C4.13707 21.2898 6.89717 17.1321 7.20975 14.901C7.23279 14.7372 7.20874 14.7627 7.28188 14.8845C7.51381 15.2702 8.09638 15.6429 8.42098 15.9514" fill="black"/>
<path d="M7.24035 7.79991C7.33001 7.95269 7.51936 8.70508 7.72975 9.62928C8.02279 10.9167 8.38496 12.6338 8.54375 13.4017C9.41135 14.0695 12.716 16.6903 13.1788 21.6054C13.2069 21.9054 13.2249 22.6483 13.2309 23.1362H11.8168C11.8123 22.6904 11.8003 22.0187 11.7807 21.7692C11.36 16.3437 7.55393 15.0393 7.26038 14.0745L5.88885 8.08193L7.23985 7.7994L7.24035 7.79991Z" fill="black"/>
<path d="M8.37021 7.05992C9.27199 7.04418 10.2137 7.05099 11.1587 7.05826C12.1074 7.06548 13.0593 7.07267 13.9657 7.05687C13.9784 7.85525 13.7444 7.9308 13.4027 7.92404C12.6566 7.90978 11.9047 7.91263 11.1573 7.90691C10.2141 7.89961 9.27378 7.89279 8.38401 7.90838L8.37021 7.05992Z" fill="black"/>
<path d="M8.37221 6.92735C9.88004 6.90399 11.463 6.90314 13.0509 6.90274C14.648 6.90222 16.2502 6.90165 17.7837 6.87796L17.7891 7.30968C16.2536 7.33339 14.6511 7.33397 13.0536 7.33449C11.466 7.33488 9.88311 7.33573 8.37759 7.35907L8.37221 6.92735Z" fill="black"/>
<path d="M17.7788 6.50894L17.4282 6.5133L17.4382 7.31472L17.7888 7.31035L17.7788 6.50894Z" fill="black"/>
<path d="M7.36203 7.69269C7.45871 7.78786 7.54186 7.88554 7.64906 7.99575C8.09188 8.45109 8.68547 9.06221 8.71152 9.04619C8.74208 9.02765 8.80269 8.82578 8.97 8.51721C9.25052 7.99925 9.54005 7.40365 9.60367 7.21981L10.9406 7.68016C10.851 7.93914 10.5199 8.63693 10.2183 9.19346C9.94931 9.68937 9.65627 10.1317 9.44387 10.2604C8.45605 10.857 7.41262 9.78355 6.63419 8.98257C6.5315 8.87687 5.97297 8.16356 5.88981 8.08241L7.36253 7.69219L7.36203 7.69269Z" fill="black"/>
<path d="M7.36203 7.69269C7.45871 7.78786 7.54186 7.88554 7.64906 7.99575C8.09188 8.45109 8.68547 9.06221 8.71152 9.04619C8.74208 9.02765 8.80269 8.82578 8.97 8.51721C9.25052 7.99925 9.54005 7.40365 9.60367 7.21981L10.9406 7.68016C10.851 7.93914 10.5199 8.63693 10.2183 9.19346C9.94931 9.68937 9.65627 10.1317 9.44387 10.2604C8.45605 10.857 7.41262 9.78355 6.63419 8.98257C6.5315 8.87687 5.97297 8.16356 5.88981 8.08241L7.36253 7.69219L7.36203 7.69269Z" fill="black"/>
</svg>
