<svg width="24" height="24" viewBox="0 0 24 24" fill="none" xmlns="http://www.w3.org/2000/svg">
<path d="M14.6427 8.74276L14.0423 9.78337L17.2798 11.6645V10.277L14.6427 8.74276Z" fill="black"/>
<path d="M13.0862 13.1454C13.0773 13.7101 13.5264 14.1771 14.0912 14.186C14.656 14.1949 15.1229 13.7457 15.1318 13.1809C15.1407 12.6162 14.6915 12.1492 14.1268 12.1403C13.562 12.1314 13.095 12.5806 13.0862 13.1454Z" fill="black"/>
<path d="M12.4683 10.9974L15.0075 6.60815H13.6201L11.4277 10.397H11.4232L10.8718 11.3487C9.15521 10.8106 7.90559 9.14297 7.90559 7.29744C7.90559 6.92834 7.93672 6.58146 8.00342 6.27017L11.7034 8.42255L12.3037 7.38193L7.37194 4.51358L7.10512 5.13617C6.84274 5.74542 6.70933 6.4703 6.70933 7.3019C6.70933 8.54707 7.15404 9.77446 7.95895 10.7573C8.75942 11.7312 9.85785 12.3982 11.0541 12.6339L11.4766 12.7184L12.4683 10.9974Z" fill="black"/>
<path d="M20.6718 15.7153C17.8256 16.5958 14.9084 17.0405 12 17.0405C9.09162 17.0405 6.17435 16.5958 3.32823 15.7153V19.4864H4.52894V17.3029C6.99261 17.9299 9.50075 18.2457 12 18.2457C14.4992 18.2457 17.0074 17.9299 19.4711 17.3029V19.4864H20.6718V15.7153Z" fill="black"/>
</svg>
