<svg width="24" height="24" viewBox="0 0 24 24" fill="none" xmlns="http://www.w3.org/2000/svg">
<path d="M15.5345 16.8688C16.1411 18.0918 15.9761 19.6301 15.0977 21.0423H16.5876C17.3592 19.4312 17.4174 17.7133 16.704 16.2865C16.1702 15.2092 15.2627 14.4181 14.1126 13.9862C13.9039 14.3793 13.6855 14.7675 13.4526 15.1461C14.3941 15.4469 15.122 16.0439 15.5345 16.8688Z" fill="black"/>
<path d="M15.8599 9.34195C16.4228 10.0796 17.1119 10.7153 17.8981 11.22C19.155 12.0256 20.606 12.4527 22.1007 12.4672V11.1569C20.8535 11.1424 19.6452 10.7833 18.6018 10.1136C17.5827 9.46327 16.7674 8.55093 16.2287 7.47358L16.1268 8.04137C16.0589 8.48299 15.9667 8.91489 15.8599 9.34195Z" fill="black"/>
<path d="M10.5703 17.6016C13.0307 14.9374 14.671 11.5841 15.3213 7.90557L15.4426 7.22616L14.7583 7.13881C13.3219 6.95925 11.7981 7.34263 10.4684 8.221C9.19208 9.06055 8.139 10.3223 7.50327 11.7782H8.95914C9.50266 10.7736 10.2791 9.91466 11.1915 9.3129C12.0553 8.74512 12.9725 8.43938 13.8897 8.40541C13.2054 11.5501 11.735 14.4084 9.60942 16.7087C8.29429 18.1355 6.74621 19.3293 5.02344 20.261V21.7363C7.11503 20.6978 8.99795 19.3002 10.5703 17.6016Z" fill="black"/>
<path d="M16.229 6.10026C16.8453 6.10026 17.3452 5.60041 17.3452 4.9841C17.3452 4.36778 16.8453 3.86793 16.229 3.86793C15.6127 3.86793 15.1128 4.36778 15.1128 4.9841C15.1128 5.60041 15.6127 6.10026 16.229 6.10026Z" fill="black"/>
<path d="M2.89835 2.8736V2.2446H2.07193V9.47581H2.89835V3.70203H5.92858L5.35008 4.655L5.92858 5.63505H3.4187V6.46348H7.0895L6.15289 4.655L7.0895 2.8736H2.89835Z" fill="black"/>
</svg>
