<svg width="24" height="24" viewBox="0 0 24 24" fill="none" xmlns="http://www.w3.org/2000/svg">
<path d="M4.90268 12.7341C5.90394 11.3458 7.11134 10.2015 8.39446 9.43161L8.58377 9.31803C8.58798 9.31383 8.59218 9.30961 8.59218 9.3054L8.64687 9.08665C8.94136 7.93394 9.67758 7.25242 10.6957 7.13463C11.0953 6.77283 11.5076 6.41944 11.9409 6.07868C10.8934 5.86412 9.92999 6.00715 9.1475 6.49095C8.4197 6.94109 7.89383 7.66048 7.61196 8.57339C4.8564 10.3109 2.64354 13.403 1.59601 16.9705H2.78237C3.27038 15.4476 3.99398 13.9962 4.90268 12.7341Z" fill="black"/>
<path d="M12.7022 19.6546H13.8381C13.8717 18.241 14.1704 16.8065 14.7089 15.4813C14.3387 15.3593 13.9895 15.2078 13.6656 15.0269C13.0682 16.4952 12.7316 18.0854 12.7022 19.6546Z" fill="black"/>
<path d="M22.3447 12.6036L22.2563 12.49C20.4305 10.0879 17.473 7.59735 14.7217 6.14595C14.4903 6.52879 14.3641 6.89478 14.2968 7.16403L14.2884 7.2061C16.8336 8.56915 19.5429 10.8451 21.2593 13.0622C21.3056 13.6848 21.0069 14.2401 20.5273 14.3874C20.0056 14.5472 19.4293 14.3958 18.9034 13.9499L18.6931 13.7732L18.4238 13.8278C17.8222 13.9541 16.6358 14.1139 15.4411 13.7732C14.5618 13.5207 13.8887 13.0538 13.4301 12.3764H12.126C12.7065 13.6091 13.7457 14.4673 15.1298 14.8628C16.396 15.2246 17.6371 15.1194 18.3944 14.989C18.9371 15.3802 19.5344 15.5822 20.1234 15.5822C20.3758 15.5822 20.624 15.5443 20.868 15.4686C21.9156 15.1446 22.5635 13.9751 22.3699 12.7467L22.3447 12.6036Z" fill="black"/>
<path d="M13.4006 7.29448L13.5562 7.17669L13.6067 6.98738C13.7792 6.31847 14.263 5.09003 15.5798 4.3454H13.7792C13.064 5.12789 12.719 5.98611 12.5634 6.51198C10.4431 8.16111 8.70979 10.0627 7.26259 12.3176C6.12671 14.0887 5.19698 16.0365 4.43552 18.2452H5.63871C6.34548 16.2763 7.19529 14.5262 8.21758 12.9318C9.62271 10.7274 11.3181 8.88471 13.4006 7.29448Z" fill="black"/>
</svg>
