<svg width="24" height="24" viewBox="0 0 24 24" fill="none" xmlns="http://www.w3.org/2000/svg">
<path d="M7.15599 9.12439C6.29673 11.0157 5.34652 12.5751 4.28267 14.0072C3.0415 15.6712 1.62761 17.1761 0 18.8309H1.79582C3.09609 17.4807 4.25994 16.1895 5.31471 14.771C6.76955 12.816 8.2835 10.211 9.04275 7.86958L8.98818 7.87413C7.30147 7.83776 5.65117 7.81048 4.45546 7.9196C3.36888 8.01962 2.35954 8.51973 1.64576 9.49265C1.04563 10.3065 0.663773 11.4431 0.636495 12.9434L1.91854 12.9615C1.94127 11.7522 2.23228 10.8611 2.68237 10.2473C3.15974 9.5972 3.83714 9.26078 4.57365 9.19259C5.28289 9.12894 6.17852 9.1153 7.15599 9.12439ZM14.3439 7.71501C13.5119 7.78321 12.7844 7.83775 12.0661 7.86503C11.3205 7.89686 10.5567 7.90595 9.66561 7.88776C9.57468 8.26512 9.42466 8.69702 9.24281 9.16075H9.34284L9.54742 9.16531C10.5158 9.18804 11.3296 9.17895 12.1207 9.14712C12.9436 9.1153 13.7119 9.0562 14.5439 8.988L14.3439 7.71501Z" fill="black"/>
<path d="M6.63732 14.0526C6.7828 14.0435 6.93281 14.039 7.08739 14.0344C7.89664 14.0163 8.83321 14.0617 9.597 14.2845C9.7925 14.3436 9.93344 14.4118 10.0289 14.4936C10.1789 14.6255 10.2062 14.8346 10.1517 15.0892C10.0744 15.4756 9.83343 15.9303 9.52428 16.3895C8.83777 17.4079 7.82846 18.3899 7.27834 18.8309H9.1651C9.65611 18.3262 10.1744 17.7216 10.5881 17.1123C10.9882 16.5213 11.2974 15.9121 11.4156 15.3483C11.561 14.6482 11.4292 14.0117 10.8791 13.5298C10.6472 13.3252 10.3471 13.1661 9.96524 13.0524C9.18326 12.8206 8.27399 12.7478 7.4511 12.7478C7.17831 13.2024 6.90556 13.6434 6.63732 14.0526Z" fill="black"/>
<path d="M15.339 9.56991C16.0118 9.3926 16.3664 8.86523 16.4437 8.30147C16.471 8.09689 16.4619 7.89231 16.421 7.69681C16.3801 7.49677 16.2983 7.30582 16.1846 7.14669C15.9164 6.7557 15.4708 6.52838 14.8889 6.66022L15.339 9.56991Z" fill="black"/>
<path d="M8.93757 7.27401C8.36018 7.27401 7.8919 6.80573 7.8919 6.22834C7.8919 5.65095 8.36018 5.18267 8.93757 5.18267C9.51496 5.18267 9.98324 5.65095 9.98324 6.22834C9.98324 6.80573 9.51496 7.27401 8.93757 7.27401Z" fill="black"/>
<path d="M24 5.49184C23.1498 6.03286 21.6041 6.70116 20.0674 7.22854C18.6216 7.7241 17.1759 8.10146 16.3121 8.12874L16.2985 7.7423C17.1168 7.71502 18.5216 7.3513 19.9401 6.86483C21.4495 6.34654 22.9635 5.69187 23.7909 5.16904L24 5.49184Z" fill="black"/>
</svg>
