<svg width="24" height="24" viewBox="0 0 24 24" fill="none" xmlns="http://www.w3.org/2000/svg">
<path d="M5.90342 10.2279C6.09648 11.1329 6.30161 11.9956 6.45847 12.8705C6.5369 13.3048 6.71187 13.6186 7.06179 13.9021C7.98487 14.6382 8.75108 15.5251 9.39663 16.5145C9.4449 16.5869 9.50523 16.6472 9.5173 16.7558C8.98638 16.7558 8.46149 16.7558 7.94264 16.7558C7.89437 16.7558 7.8642 16.7257 7.83404 16.6955C7.22469 15.9474 6.47657 15.3501 5.75259 14.7226C5.4992 14.4994 5.3363 14.24 5.25787 13.9021C4.85365 12.0861 4.43736 10.2702 4.01503 8.45416C3.97883 8.30937 3.99693 8.24904 4.1538 8.21284C4.53389 8.12234 4.90794 8.01977 5.282 7.91721C5.40267 7.88101 5.46903 7.91118 5.5535 8.00167C5.91549 8.38177 6.28954 8.75582 6.65153 9.12988C6.74203 9.22641 6.7722 9.21434 6.83253 9.08765C7.15229 8.43003 7.47808 7.77241 7.76767 7.0967C7.81594 6.9881 7.90644 6.98207 7.9909 6.9519C9.45093 6.45718 10.9351 6.04692 12.4132 5.6065C14.0482 5.12385 15.6892 4.63516 17.3242 4.15854C17.469 4.1163 17.5475 4.06804 17.463 3.91118C17.3725 3.74828 17.4932 3.73018 17.6078 3.68192C17.7466 3.62762 17.7707 3.70002 17.8009 3.80861C17.8371 3.95944 17.8793 4.10424 17.9396 4.24903C17.9879 4.3697 17.9517 4.41796 17.831 4.45416C16.9864 4.70152 16.1417 4.95492 15.2971 5.20831C15.0256 5.28674 14.7541 5.37724 14.4826 5.44964C14.3921 5.47377 14.368 5.50394 14.38 5.60047C14.4162 5.96849 14.3197 6.10122 13.9638 6.20379C12.4132 6.65024 10.8627 7.0967 9.30613 7.53712C9.1734 7.57332 9.10704 7.63968 9.04671 7.76638C8.70282 8.49036 8.35892 9.21434 7.94264 9.90213C7.44188 10.7347 6.74807 10.7045 6.10855 10.3486C6.04218 10.3124 5.98788 10.2762 5.90342 10.2279Z" fill="black"/>
<path d="M1.9155 18.2882C2.11459 17.9504 2.29559 17.6367 2.47659 17.329C2.53088 17.2385 2.61535 17.2686 2.69378 17.2686C4.4072 17.2686 6.11459 17.2686 7.82802 17.2686C9.39664 17.2686 10.9653 17.2686 12.5339 17.2747C12.6787 17.2747 12.7149 17.2385 12.7149 17.0937C12.7089 14.2219 12.7149 11.344 12.7089 8.47225C12.7089 8.32142 12.7571 8.23696 12.8778 8.16456C13.1191 8.01976 13.3544 7.85687 13.5957 7.70604C13.6319 7.68191 13.6621 7.63364 13.7104 7.66381C13.7526 7.68794 13.7285 7.74224 13.7345 7.78447C13.7405 7.81464 13.7345 7.8448 13.7345 7.87497C13.7345 12.8825 13.7345 17.884 13.7405 22.8916C13.7405 23.0726 13.7104 23.145 13.5113 23.1269C13.3061 23.1088 13.089 23.1148 12.8838 23.1269C12.739 23.1389 12.7149 23.0846 12.7149 22.9519C12.7209 21.6306 12.7149 20.3094 12.7149 18.9821C12.7149 18.8131 12.7028 18.6442 12.7209 18.4813C12.739 18.3184 12.6727 18.2762 12.5279 18.2943C12.4917 18.3003 12.4555 18.2943 12.4193 18.2943C8.99846 18.2943 5.57161 18.2943 2.15079 18.2943C2.0784 18.2882 2.01203 18.2882 1.9155 18.2882Z" fill="black"/>
<path d="M5.31819 18.8071C5.04066 19.3441 4.75107 19.8388 4.44941 20.3214C3.88833 21.2324 3.27294 22.1012 2.62136 22.9459C2.52483 23.0665 2.43433 23.1269 2.27143 23.1208C1.80085 23.1088 1.33026 23.1148 0.865702 23.1148C0.805371 23.1148 0.745039 23.1148 0.654541 23.1148C1.13116 22.5537 1.56555 22.0047 1.96977 21.4376C2.54896 20.6291 3.09798 19.8026 3.59873 18.9459C3.6651 18.8373 3.73146 18.795 3.85816 18.8011C4.33478 18.8131 4.80537 18.8071 5.31819 18.8071Z" fill="black"/>
<path d="M9.11911 18.8071C9.58367 18.8071 10.0241 18.8131 10.4585 18.8071C10.5671 18.8071 10.5731 18.8795 10.5972 18.9459C10.8386 19.6457 11.0135 20.3637 11.1161 21.0997C11.2066 21.7211 11.2066 22.3425 11.2247 22.964C11.2307 23.0846 11.2006 23.1208 11.0739 23.1208C10.7179 23.1148 10.3559 23.1088 9.99996 23.1208C9.84913 23.1269 9.81896 23.0726 9.81896 22.9338C9.83706 21.9142 9.74656 20.9127 9.48714 19.9232C9.39061 19.5552 9.26994 19.1932 9.11911 18.8071Z" fill="black"/>
<path d="M13.5595 6.70454C11.8521 7.92324 10.1689 9.12384 8.48563 10.3184C8.4434 10.252 8.49166 10.2159 8.50976 10.1736C8.80539 9.57633 9.10705 8.98508 9.40268 8.3878C9.44491 8.30333 9.49921 8.23093 9.58367 8.18267C9.5897 8.18267 9.59574 8.17663 9.59574 8.1706C10.6757 7.44662 10.6757 7.44662 12.0995 7.05446C12.5158 6.93983 12.9321 6.8252 13.3484 6.70454C13.4027 6.6985 13.457 6.66834 13.5595 6.70454Z" fill="black"/>
<path d="M4.76918 7.44058C4.16586 7.44661 3.67717 6.96396 3.68321 6.36667C3.68321 5.78145 4.16586 5.2988 4.75711 5.28673C5.34837 5.2807 5.84309 5.77542 5.84309 6.36667C5.83705 6.95793 5.36043 7.43455 4.76918 7.44058Z" fill="black"/>
<path d="M5.30011 14.9036C5.55953 15.3199 5.92756 15.5793 6.28352 15.8569C6.43435 15.9715 6.48261 16.0741 6.41625 16.2732C6.24732 16.7558 6.25938 16.7619 5.7526 16.7619C5.45697 16.7619 5.16134 16.7619 4.86572 16.7619C4.78729 16.7619 4.73299 16.7679 4.77522 16.6533C5.01655 16.0982 5.20961 15.5311 5.30011 14.9036Z" fill="black"/>
<path d="M21.2941 4.27919C20.546 4.27919 19.9487 3.67587 19.9487 2.92173C19.9487 2.16758 20.552 1.56426 21.3001 1.57029C22.0603 1.57029 22.6636 2.17964 22.6576 2.93983C22.6515 3.68191 22.0482 4.27919 21.2941 4.27919Z" fill="black"/>
<path fill-rule="evenodd" clip-rule="evenodd" d="M19.2488 2.8976C19.2368 4.01977 20.1598 4.96095 21.282 4.96698C22.4102 4.97905 23.3393 4.06804 23.3454 2.9338C23.3574 1.81163 22.4343 0.882518 21.3061 0.870452C20.196 0.864419 19.2609 1.78146 19.2488 2.8976ZM19.6168 2.90363C19.6168 3.83878 20.377 4.60499 21.3122 4.60499C22.2473 4.61102 23.0135 3.85084 23.0196 2.9157C23.0256 1.97452 22.2594 1.20228 21.3242 1.19624C20.3891 1.19021 19.6168 1.96246 19.6168 2.90363ZM21.2941 4.27919C20.546 4.27919 19.9487 3.67587 19.9487 2.92173C19.9487 2.16758 20.552 1.56426 21.3001 1.57029C22.0603 1.57029 22.6636 2.17964 22.6576 2.93983C22.6515 3.68191 22.0482 4.27919 21.2941 4.27919Z" fill="black"/>
</svg>
