<svg width="24" height="24" viewBox="0 0 24 24" fill="none" xmlns="http://www.w3.org/2000/svg">
<path d="M8.04205 10.1735L6.98162 10.4439V11.9179L10.778 10.9582C11.0219 10.4068 11.287 9.86596 11.5733 9.33574L8.04205 10.1735Z" fill="black"/>
<path d="M15.6878 7.27844L16.9338 5.67718L6.98162 8.03134V9.50004L13.4344 7.97302C11.5362 10.868 10.2796 14.1607 9.75998 17.5912L9.70165 17.9941L11.1968 17.6813C11.7854 13.9008 13.3389 10.3007 15.6878 7.27844Z" fill="black"/>
<path d="M19.0227 16.9761L3.10561 20.2846V21.748L19.3143 18.3812C20.2316 18.1903 20.8944 17.3737 20.8944 16.4353H19.4628C19.4628 16.6951 19.2772 16.9231 19.0227 16.9761Z" fill="black"/>
<path d="M15.1626 3.47147C15.1626 4.14484 15.7087 4.69097 16.3821 4.69097C17.0554 4.69097 17.6016 4.14484 17.6016 3.47147C17.6016 2.79809 17.0554 2.25197 16.3821 2.25197C15.7087 2.25197 15.1626 2.79809 15.1626 3.47147Z" fill="black"/>
</svg>
