<svg width="24" height="24" viewBox="0 0 24 24" fill="none" xmlns="http://www.w3.org/2000/svg">
<path d="M8.12393 19.2833C8.17206 18.0206 8.48486 16.8342 9.23883 15.5074C9.23883 15.5074 9.23882 15.5034 9.23481 15.5034C9.45539 15.1667 9.72409 14.842 10.0409 14.5293C10.0489 14.5414 10.057 14.5534 10.065 14.5614C11.2882 16.2529 13.3977 16.9304 15.3026 16.4293C15.5352 16.786 15.7638 17.1468 15.9884 17.5076C14.2439 18.0888 12.3229 17.8483 10.7788 16.8823C10.5583 16.746 10.3457 16.5896 10.1412 16.4253C9.63987 17.4074 9.40727 18.2491 9.34712 19.1069C8.93404 19.139 8.52498 19.2031 8.12393 19.2833Z" fill="black"/>
<path d="M9.63166 13.8479C9.3028 14.1645 9.01407 14.4892 8.76542 14.8259C8.76141 14.8179 8.75739 14.8139 8.75338 14.8059C7.49811 12.6894 7.65451 10.0639 9.03009 8.12389C9.31483 8.44055 9.59157 8.76523 9.86428 9.09392C8.98599 10.5089 8.87769 12.3127 9.63166 13.8479Z" fill="black"/>
<path d="M12.4233 13.7918C12.3351 13.2907 11.8579 12.954 11.3566 13.0422C10.8553 13.1304 10.5184 13.6074 10.6066 14.1084C10.6948 14.6095 11.1721 14.9462 11.6734 14.858C12.1747 14.7738 12.5116 14.2968 12.4233 13.7918Z" fill="black"/>
<path d="M8.53731 4.1957C8.49319 4.08346 8.44908 3.97924 8.417 3.88705C8.00392 2.79677 7.4545 2.29973 6.98127 2.19551C6.81684 2.15944 6.66844 2.17947 6.55214 2.2396C6.44386 2.29572 6.35964 2.39593 6.31151 2.5242C6.19521 2.84086 6.29547 3.31786 6.75266 3.87502C6.92511 4.08346 7.73522 4.88915 8.47715 5.40623C8.6857 5.55454 8.88221 5.67078 9.04263 5.73491C9.02659 5.40222 8.73382 4.67269 8.53731 4.1957ZM9.39956 3.51828C9.42763 3.59444 9.46773 3.69465 9.51184 3.80287C9.82465 4.57649 10.33 5.83112 9.88081 6.47647C9.83669 6.5406 9.78856 6.59271 9.73241 6.6368C9.45569 6.86127 9.10679 6.8693 8.71778 6.72499C8.4571 6.62879 8.16835 6.46044 7.8796 6.26002C7.05746 5.68682 6.13906 4.7729 5.94254 4.5324C5.21665 3.64654 5.10036 2.78475 5.33297 2.15543C5.47333 1.77864 5.73401 1.48201 6.07089 1.30564C6.39974 1.13328 6.79677 1.07316 7.20985 1.16535C7.97985 1.33771 8.83809 2.03919 9.39956 3.51828Z" fill="black"/>
<path d="M13.0048 20.3855C11.9741 20.0809 11.0517 19.9286 10.1293 19.9286C9.20687 19.9286 8.28446 20.0809 7.25378 20.3855C5.48517 20.9106 3.88901 20.9106 2.1164 20.3855L1.86776 20.3134V21.4438C3.90106 22.037 5.51727 22.029 7.56259 21.4277C8.49302 21.1512 9.31115 21.0149 10.1293 21.0149C10.9474 21.0149 11.7655 21.1512 12.696 21.4277C14.4525 21.9488 15.8923 22.025 17.5566 21.6602C17.4002 21.3756 17.2638 21.083 17.1556 20.7904C17.1355 20.7423 17.1195 20.6902 17.0994 20.6421C15.7279 20.8906 14.4245 20.8064 13.0048 20.3855Z" fill="black"/>
<path d="M18.8198 19.8043C18.8639 19.9165 18.908 20.0208 18.9401 20.113C19.3532 21.2032 19.9026 21.7003 20.3759 21.8045C20.5403 21.8406 20.6887 21.8205 20.805 21.7604C20.9133 21.7043 20.9975 21.6041 21.0456 21.4758C21.1619 21.1591 21.0616 20.6821 20.6044 20.125C20.432 19.9165 19.6219 19.1109 18.88 18.5938C18.6714 18.4455 18.4749 18.3292 18.3145 18.2651C18.3305 18.5978 18.6273 19.3273 18.8198 19.8043ZM17.9576 20.4817C17.9295 20.4056 17.8894 20.3054 17.8453 20.1971C17.5325 19.4235 17.0271 18.1689 17.4763 17.5235C17.5204 17.4594 17.5685 17.4073 17.6247 17.3632C17.9014 17.1387 18.2503 17.1307 18.6393 17.275C18.9 17.3712 19.1888 17.5396 19.4775 17.74C20.2996 18.3132 21.2181 19.2271 21.4146 19.4676C22.1405 20.3535 22.2567 21.2153 22.0241 21.8446C21.8838 22.2214 21.6231 22.518 21.2862 22.6944C20.9574 22.8667 20.5603 22.9268 20.1473 22.8347C19.3813 22.6623 18.519 21.9608 17.9576 20.4817Z" fill="black"/>
<path d="M18.3308 18.2732L18.3147 18.2812C18.3147 18.2772 18.3147 18.2692 18.3147 18.2652C18.3187 18.2692 18.3268 18.2732 18.3308 18.2732ZM10.0251 6.13177C11.4168 7.55876 13.2094 9.85556 14.5248 11.6193C15.8964 13.4551 17.1918 15.3952 18.2867 17.1829C18.042 17.1548 17.8174 17.2069 17.6289 17.3593C17.5728 17.4074 17.5207 17.4595 17.4806 17.5196C17.4404 17.5757 17.4084 17.6399 17.3843 17.704C16.3135 15.9563 15.0422 14.0564 13.6867 12.2446C12.3873 10.5049 10.5986 8.21212 9.23106 6.82121C9.41554 6.8172 9.58403 6.75705 9.73241 6.6368C9.78856 6.5887 9.8407 6.53659 9.88081 6.47647C9.94899 6.37626 9.99706 6.26004 10.0251 6.13177Z" fill="black"/>
</svg>
