<svg width="24" height="24" viewBox="0 0 24 24" fill="none" xmlns="http://www.w3.org/2000/svg">
<path d="M18.5736 8.44476C17.9945 8.44476 17.5286 7.97883 17.5286 7.39967C17.5286 6.82052 17.9945 6.35459 18.5736 6.35459C19.1528 6.35459 19.6187 6.82052 19.6187 7.39967C19.6187 7.97447 19.1528 8.44476 18.5736 8.44476Z" fill="black"/>
<path d="M16.1115 10.3066L15.6559 11.4132L17.0879 13.6264L18.2003 12.1293L18.2003 15.8214L13.4819 15.8214L14.72 21.0069L15.5867 20.5116L14.72 16.7968L18.2003 16.7968L18.2003 23L19.388 23C19.388 23 19.3881 23 19.3878 23L19.3881 15.8403L19.2671 9.08624L17.0879 11.8038L16.1115 10.3066Z" fill="black"/>
<path d="M14.8664 8.42134C14.9339 7.924 15.0303 7.70435 15.238 7.36883C14.7195 7.05293 15.2102 7.32758 14.7195 7.05293C13.2469 6.23473 11.9479 5.21549 11.2662 4.33502L11.0802 5.77018C12.2001 6.86784 13.3841 7.73299 14.8664 8.42134Z" fill="black"/>
<path d="M10.0865 2.70929C10.4532 3.15523 11.1122 3.21961 11.5579 2.85304C12.0036 2.48646 12.0676 1.8275 11.7009 1.38155C11.3341 0.935607 10.6752 0.871234 10.2295 1.23781C9.78376 1.60438 9.71972 2.26335 10.0865 2.70929Z" fill="black"/>
<path d="M4.99999 6.83902L4.38129 7.61279L8.63351 8.12121L8.76342 7.02356L6.60852 6.76654C7.5369 5.97652 8.75908 5.36345 9.70224 5.22887L9.01761 10.5393L5.30353 19.8887L6.51835 20.054L9.97236 11.7016L13.9063 11.2045L11.5918 16.0897L12.9196 15.8579L15.6708 9.92784L10.1214 10.6064L10.9465 4.17904L10.3885 4.11872C9.57194 4.02732 8.53213 4.28906 7.46527 4.85918C6.49038 5.38015 5.58915 6.10016 4.99999 6.83902Z" fill="black"/>
</svg>
