<svg width="24" height="24" viewBox="0 0 24 24" fill="none" xmlns="http://www.w3.org/2000/svg">
<path d="M8.17171 11.938L8.7274 10.8266L9.60915 10.5418L12.4657 4.28684H11.1017L8.70902 9.53147L7.85023 9.80702L6.46329 12.5993L8.39674 13.3616L8.90651 12.2273L8.17171 11.938Z" fill="black"/>
<path d="M11.9792 12.2961L11.3638 13.6601C12.1216 15.07 12.342 16.7233 11.9471 18.3215L11.9333 18.3858H13.2054C13.6601 16.2549 13.21 14.0597 11.9792 12.2961Z" fill="black"/>
<path d="M12.6863 8.76455C13.5359 9.92645 14.7024 10.8266 16.0434 11.3547L14.9183 18.3812H16.172L17.4349 10.5097L16.9252 10.349C15.4694 9.88971 14.2202 8.92069 13.4165 7.62101L12.5072 6.15141L6.987 18.3812H8.34639L12.6863 8.76455Z" fill="black"/>
<path d="M15.2488 4.65424C15.2488 4.07099 14.7758 3.59796 14.1926 3.59796C13.6093 3.59796 13.1363 4.07099 13.1363 4.65424C13.1363 5.23749 13.6093 5.71051 14.1926 5.71051C14.7758 5.71051 15.2488 5.23749 15.2488 4.65424Z" fill="black"/>
<path d="M20.0484 18.4777H18.8084C18.8084 18.8543 18.5007 19.162 18.1241 19.162H3.95164V20.402H18.1241C19.185 20.4066 20.0484 19.5432 20.0484 18.4777Z" fill="black"/>
</svg>
