<svg width="24" height="24" viewBox="0 0 24 24" fill="none" xmlns="http://www.w3.org/2000/svg">
<path d="M13.5825 23.3957H15.1778C16.4145 21.216 17.0657 18.7589 17.0657 16.226C17.0657 16.1201 17.0657 16.0091 17.0607 15.9031C16.6922 16.887 16.1621 17.7901 15.4907 18.5772C15.1828 20.2927 14.5366 21.9224 13.5825 23.3957Z" fill="black"/>
<path d="M19.5593 6.03918C19.5593 6.67997 20.0792 7.19966 20.7203 7.19966C21.3614 7.19966 21.8814 6.67997 21.8814 6.03918C21.8814 5.3984 21.3614 4.87871 20.7203 4.87871C20.0792 4.87871 19.5593 5.3984 19.5593 6.03918Z" fill="black"/>
<path d="M9.33688 7.75465H7.96378C8.12027 9.3238 9.02388 10.671 10.3112 11.448C11.0482 11.892 11.9064 12.1443 12.8251 12.1443C13.3905 12.1443 13.9458 12.0484 14.4658 11.8617C14.4304 11.6346 14.3799 11.4076 14.3194 11.1906L14.1326 10.5347C13.7186 10.7012 13.2744 10.787 12.8201 10.787C11.0482 10.782 9.57919 9.46508 9.33688 7.75465Z" fill="black"/>
<path d="M15.1476 10.9535C15.3142 11.5438 15.4 12.1593 15.4 12.785C15.4 16.5086 12.3711 19.5359 8.64563 19.5359C7.96413 19.5359 7.31294 19.435 6.69203 19.2483V20.6611C7.31799 20.8175 7.97423 20.8982 8.64563 20.8982C13.1233 20.8982 16.763 17.2604 16.763 12.785C16.763 12.2603 16.7125 11.7406 16.6166 11.231L22.4926 9.41962V7.99174L14.9709 10.3127L15.1476 10.9535Z" fill="black"/>
<path d="M14.9153 9.26836C15.5564 9.26836 16.0764 8.74867 16.0764 8.10789C16.0764 7.46711 15.5564 6.94742 14.9153 6.94742C14.2742 6.94742 13.7543 7.46711 13.7543 8.10789C13.7543 8.74867 14.2742 9.26836 14.9153 9.26836Z" fill="black"/>
<path d="M4.76038 0.604279C4.87452 0.651471 4.90854 0.738173 4.90525 0.857801C4.89867 1.05316 4.90415 1.24851 4.90306 1.44496C4.90196 1.58544 4.77904 1.67544 4.64953 1.63373C4.5749 1.60959 4.52113 1.54154 4.52113 1.46142C4.52003 1.23644 4.52003 1.01145 4.52113 0.786463C4.52222 0.690981 4.58588 0.641593 4.6627 0.604279C4.69453 0.604279 4.72746 0.604279 4.76038 0.604279Z" fill="black"/>
<path d="M4.66165 7.01372C4.54642 6.96762 4.51349 6.87982 4.51788 6.76019C4.52447 6.56265 4.51898 6.3651 4.52008 6.16755C4.52117 6.07645 4.57495 6.00512 4.65507 5.98317C4.74616 5.95792 4.82957 5.98756 4.87676 6.06877C4.89323 6.09731 4.90201 6.13352 4.9031 6.16755C4.9053 6.38266 4.9042 6.59886 4.9042 6.81507C4.9042 6.91604 4.84603 6.97421 4.76153 7.01481C4.7275 7.01372 4.69458 7.01372 4.66165 7.01372Z" fill="black"/>
<path d="M4.71012 5.46616C3.80469 5.46616 3.04961 4.73852 3.054 3.80345C3.05729 2.87826 3.8014 2.15281 4.71342 2.15281C5.62324 2.15281 6.37503 2.88265 6.36954 3.82211C6.36296 4.74071 5.61775 5.46726 4.71012 5.46616ZM3.44032 3.81113C3.43922 4.50255 4.00004 5.07435 4.69586 5.08094C5.4235 5.08752 5.97554 4.50146 5.98322 3.8254C5.9909 3.123 5.42569 2.54023 4.71561 2.53803C3.99346 2.53584 3.43812 3.123 3.44032 3.81113Z" fill="black"/>
<path d="M2.02425 3.61473C2.13071 3.61473 2.23607 3.61364 2.34252 3.61473C2.43581 3.61583 2.50934 3.66632 2.53349 3.74314C2.56092 3.82875 2.53897 3.91545 2.46654 3.96264C2.43142 3.98569 2.38532 4.00105 2.34472 4.00215C2.1329 4.00544 1.92108 4.00435 1.70927 4.00325C1.61378 4.00325 1.53476 3.94508 1.51501 3.86496C1.49196 3.77497 1.52159 3.69046 1.59952 3.64766C1.63464 3.6279 1.67854 3.61912 1.71914 3.61693C1.82011 3.61144 1.92218 3.61473 2.02425 3.61473Z" fill="black"/>
<path d="M7.4007 3.61472C7.50715 3.61472 7.61251 3.61362 7.71897 3.61472C7.81116 3.61691 7.88799 3.67398 7.90884 3.75191C7.93188 3.8408 7.90225 3.92641 7.82543 3.97031C7.7947 3.98787 7.75738 3.99994 7.72226 4.00104C7.50715 4.00323 7.29095 4.00323 7.07584 4.00213C6.98804 4.00104 6.91341 3.94726 6.89036 3.87483C6.86292 3.78703 6.88597 3.69813 6.9606 3.65203C6.99682 3.62899 7.04511 3.61801 7.08901 3.61582C7.19217 3.61143 7.29643 3.61472 7.4007 3.61472Z" fill="black"/>
<path d="M7.31205 2.10237C7.40643 2.11005 7.48106 2.16383 7.50411 2.24723C7.53045 2.34162 7.49313 2.42722 7.40534 2.47881C7.2901 2.54466 7.17486 2.6116 7.05853 2.67855C6.99048 2.71806 6.92353 2.75867 6.85549 2.79708C6.75891 2.85086 6.63928 2.81903 6.5877 2.72904C6.53173 2.63246 6.56355 2.52051 6.66452 2.46125C6.84451 2.35589 7.0245 2.25162 7.20449 2.14846C7.23742 2.12871 7.27583 2.11663 7.31205 2.10237Z" fill="black"/>
<path d="M2.10338 5.51445C2.01667 5.50786 1.94204 5.45408 1.919 5.37726C1.89266 5.29166 1.92119 5.19947 1.99363 5.15557C2.18679 5.04143 2.37995 4.92838 2.5764 4.81863C2.66749 4.76705 2.78712 4.80437 2.83431 4.88997C2.88699 4.98545 2.86284 5.0963 2.76846 5.15337C2.58189 5.26422 2.39421 5.37177 2.20544 5.47933C2.17471 5.49579 2.1374 5.50237 2.10338 5.51445Z" fill="black"/>
<path d="M7.31886 5.51449C7.28374 5.50132 7.24533 5.49364 7.2124 5.47608C7.03022 5.37291 6.84913 5.26755 6.66804 5.16329C6.56488 5.10293 6.53085 4.98989 6.58573 4.89221C6.6406 4.79563 6.75474 4.76819 6.8601 4.82856C7.04668 4.93501 7.23325 5.04257 7.41873 5.15122C7.49994 5.19841 7.53068 5.28621 7.50324 5.3773C7.48019 5.45413 7.40446 5.50791 7.31886 5.51449Z" fill="black"/>
<path d="M2.10458 2.10126C2.1397 2.11443 2.17702 2.12431 2.20885 2.14296C2.39323 2.24723 2.57651 2.35259 2.75979 2.45904C2.86076 2.51831 2.89149 2.62916 2.83552 2.72793C2.78393 2.81902 2.66541 2.84975 2.56773 2.79378C2.38006 2.68732 2.19458 2.57977 2.008 2.47112C1.9224 2.42173 1.89167 2.33503 1.91911 2.24064C1.94215 2.16382 2.01678 2.11004 2.10458 2.10126Z" fill="black"/>
<path d="M6.41445 1.20464C6.40348 1.23756 6.39799 1.27268 6.38153 1.30122C6.27287 1.49109 6.16422 1.68095 6.05228 1.86972C5.9996 1.95972 5.88656 1.98496 5.79437 1.93447C5.70766 1.88618 5.66815 1.77095 5.71644 1.68315C5.82729 1.4856 5.94033 1.29024 6.05557 1.09599C6.11044 1.0027 6.22678 0.979652 6.31897 1.03782C6.38043 1.07513 6.41226 1.13001 6.41445 1.20464Z" fill="black"/>
<path d="M6.41285 6.41666C6.40737 6.50555 6.35359 6.57909 6.27128 6.60213C6.18457 6.62738 6.09348 6.59226 6.04848 6.51543C5.94203 6.33215 5.83667 6.14887 5.73131 5.96559C5.65229 5.8273 5.71045 5.6967 5.8641 5.66048C5.92666 5.64621 6.01227 5.67914 6.04848 5.7406C6.16262 5.93595 6.27567 6.13131 6.38761 6.32886C6.40188 6.3552 6.40517 6.38812 6.41285 6.41666Z" fill="black"/>
<path d="M3.00659 1.2013C3.01318 1.11131 3.06695 1.03887 3.14927 1.01473C3.23707 0.989486 3.32267 1.02241 3.37316 1.10802C3.46644 1.26606 3.55863 1.42629 3.64973 1.58652C3.67497 1.63042 3.70241 1.67542 3.71558 1.72371C3.74192 1.81371 3.69472 1.9048 3.61241 1.94102C3.51912 1.98272 3.42145 1.95748 3.36877 1.87078C3.25572 1.68091 3.14597 1.48994 3.03732 1.29788C3.02196 1.26935 3.01757 1.23313 3.00659 1.2013Z" fill="black"/>
<path d="M3.00549 6.41441C3.01756 6.37929 3.02524 6.34088 3.0439 6.30905C3.14706 6.12687 3.25242 5.94469 3.35669 5.7636C3.40388 5.68238 3.484 5.64617 3.57289 5.66482C3.65521 5.68238 3.71667 5.74714 3.72325 5.83713C3.72545 5.87115 3.71776 5.91176 3.7002 5.94139C3.59265 6.13346 3.4829 6.32552 3.36876 6.51429C3.28974 6.64489 3.11085 6.64269 3.03512 6.51209C3.02085 6.48465 3.01646 6.45063 3.00549 6.41441Z" fill="black"/>
</svg>
