<svg width="24" height="24" viewBox="0 0 24 24" fill="none" xmlns="http://www.w3.org/2000/svg">
<path d="M14.878 11.9507L13.7143 12.6218C11.9195 11.6421 9.92325 10.2597 8.57603 8.70294L6.96922 12.8947C8.45073 13.9146 9.78003 15.9098 10.3887 17.574C10.7468 18.5537 10.9572 19.596 11.0288 20.7144H9.70395C9.63681 19.7526 9.45333 18.8579 9.14897 18.0258C8.6432 16.6435 8.15979 15.7443 7.00502 14.6438C6.90208 15.6862 6.55742 16.7553 6.06955 17.7977C5.59064 18.8132 4.97301 19.8063 4.31506 20.7144H2.66345C3.48701 19.6766 4.29268 18.4732 4.87454 17.2385C5.33555 16.2588 5.65332 15.2612 5.70703 14.3307C5.73836 13.8386 5.69359 13.3644 5.56379 12.917L8.34777 5.94723C9.44436 8.42558 12.5685 10.6892 14.878 11.9507Z" fill="black"/>
<path d="M15.4463 6.64068C14.9943 5.53123 14.7302 4.33233 14.6452 3.02158H15.97C16.0506 4.15786 16.2833 5.19125 16.6727 6.13964C17.2098 7.45039 17.7111 8.31826 18.8211 9.32481C18.7674 8.09905 18.8748 6.81067 19.121 5.58939C19.3045 4.69021 19.5641 3.81787 19.8953 3.02158H21.3366C20.9382 3.85366 20.6249 4.82442 20.419 5.84886C20.0207 7.80827 20.0162 9.92426 20.513 11.6063H20.5085L20.5891 11.7853L15.1017 14.2815C15.6388 15.4402 16.5563 16.4825 17.6261 17.3906C18.754 18.3524 20.043 19.1666 21.2336 19.8198L20.6025 20.9784C19.3403 20.2895 17.9707 19.4216 16.7667 18.3972C15.5314 17.3459 14.4661 16.1157 13.8485 14.7244L13.8529 14.7199L13.3516 13.6239L18.9106 11.0963C17.4381 10.1077 16.0953 8.23326 15.4463 6.64068Z" fill="black"/>
<path d="M10.0353 6.22909C10.6306 6.22909 11.1096 5.75042 11.1096 5.15544C11.1096 4.56046 10.6306 4.08179 10.0353 4.08179C9.44006 4.08179 8.96115 4.56046 8.96115 5.15544C8.96115 5.74595 9.44006 6.22909 10.0353 6.22909Z" fill="black"/>
<path d="M11.7635 16.2185C12.3588 16.2185 12.8377 15.7399 12.8377 15.1449C12.8377 14.5499 12.3588 14.0712 11.7635 14.0712C11.1682 14.0712 10.6893 14.5499 10.6893 15.1449C10.6893 15.7354 11.1727 16.2185 11.7635 16.2185Z" fill="black"/>
</svg>
