<svg width="24" height="24" viewBox="0 0 24 24" fill="none" xmlns="http://www.w3.org/2000/svg">
<path d="M11.5268 15.0736C11.3867 14.4169 11.2708 13.7505 11.1791 13.0889C9.65797 15.5372 8.54249 18.14 7.85679 20.8393H9.20405C9.73523 18.8498 10.5127 16.9182 11.5268 15.0736Z" fill="black"/>
<path d="M19.0405 9.67973C19.0405 9.25479 18.6929 8.90711 18.2679 8.90711C17.843 8.90711 17.4953 9.25479 17.4953 9.67973C17.4953 10.1047 17.843 10.4524 18.2679 10.4524C18.6929 10.4524 19.0405 10.1047 19.0405 9.67973Z" fill="black"/>
<path d="M11.396 4.27132C11.396 4.88459 11.8934 5.38197 12.5067 5.38197C13.1199 5.38197 13.6173 4.88459 13.6173 4.27132C13.6173 3.65805 13.1199 3.16068 12.5067 3.16068C11.8934 3.16068 11.396 3.65805 11.396 4.27132Z" fill="black"/>
<path d="M6.26325 10.2882V9.46247C8.16584 9.5832 10.0781 9.25483 11.7827 8.52084C11.6282 12.2536 12.2897 15.9284 13.7577 19.4487L14.3323 20.8297H15.7424L14.9601 18.9464C13.4293 15.262 12.8209 11.4085 13.1541 7.49228L13.2603 6.26574L12.1883 6.86935C10.4354 7.85445 8.33968 8.30354 6.26325 8.15384V3.25733H4.95944V11.394L5.54374 11.452C6.16184 11.5148 6.75097 11.5486 7.31112 11.5486C8.65356 11.5486 9.85112 11.3651 10.9763 10.9836C10.9521 10.5586 10.9425 10.1337 10.9376 9.70875C9.45033 10.182 7.85196 10.38 6.26325 10.2882Z" fill="black"/>
</svg>
