<svg width="24" height="24" viewBox="0 0 24 24" fill="none" xmlns="http://www.w3.org/2000/svg">
<path d="M14.318 5.3457L13.8224 5.84124C12.669 6.9947 12.1094 8.64374 12.323 10.2586L12.3956 10.7968L13.5789 10.9506L13.4679 10.1048C13.3013 8.84452 13.7413 7.55007 14.6384 6.65293L15.134 6.15739C16.2575 5.03383 18.0903 5.03383 19.2138 6.15739C20.3374 7.28094 20.3374 9.11366 19.2138 10.2372L18.7183 10.7328C17.8168 11.6342 16.5267 12.0699 15.2664 11.9033L13.6772 11.694L12.9552 11.6L12.5536 12.0016V12.0059L9.97758 14.5819L10.7936 15.3979L13.3696 12.8218L15.1169 13.0525C15.3433 13.0824 15.5697 13.0952 15.7961 13.0952C17.1846 13.0952 18.5474 12.5399 19.5385 11.5487L20.0341 11.0532C21.6104 9.47677 21.6104 6.91781 20.0341 5.34142C18.4534 3.7693 15.8901 3.7693 14.318 5.3457Z" fill="black"/>
<path d="M7.55074 18.2388L7.13209 17.8244L9.66116 15.2954L8.84518 14.4794L5.50015 17.8244L7.55074 19.8708L10.8915 16.53L10.0755 15.714L7.55074 18.2388Z" fill="black"/>
<path d="M6.63278 6.79393L7.17106 7.32794L5.51777 10.3312L6.36791 11.1813L8.59793 7.12714L6.83784 5.36278L2.78365 7.59279L3.62952 8.44295L6.63278 6.79393Z" fill="black"/>
<path d="M9.46964 4.4913C8.9869 4.00856 8.20083 4.00856 7.71809 4.4913L7.35496 4.85443L9.10651 6.60598L9.46964 6.24285C9.95238 5.76011 9.95238 4.97832 9.46964 4.4913Z" fill="black"/>
</svg>
