<svg width="24" height="24" viewBox="0 0 24 24" fill="none" xmlns="http://www.w3.org/2000/svg">
<path d="M7.73573 7.27443C3.64791 11.1393 2.56489 15.4694 5.30832 18.3711C8.05175 21.2727 12.317 20.5021 16.4048 16.6372C20.4926 12.7723 21.3677 8.58094 18.6243 5.67928C15.8809 2.77762 11.8198 3.41311 7.73573 7.27443ZM6.09938 17.4977C5.24674 16.5958 6.81669 13.1963 10.1974 9.99997C13.578 6.80365 17.0602 5.42658 17.9128 6.3284C18.7655 7.23022 17.1955 10.6298 13.8148 13.8261C10.4342 17.0224 6.95202 18.3995 6.09938 17.4977ZM8.33869 8.03408C10.8118 5.69583 13.8541 4.6489 16.0829 5.14286C14.102 5.60797 11.5641 7.2642 9.47673 9.23776C7.38933 11.2113 5.59355 13.6524 5.0182 15.6042C4.64252 13.351 5.86179 10.3759 8.33869 8.03408ZM15.6771 15.7957C13.204 18.134 10.1617 19.1809 7.93287 18.687C9.91382 18.2219 12.4517 16.5656 14.5391 14.5921C16.6264 12.6185 18.4222 10.1774 18.9976 8.22563C19.3659 10.4786 18.1502 13.4575 15.6771 15.7957Z" fill="black"/>
</svg>
