<svg width="24" height="24" viewBox="0 0 24 24" fill="none" xmlns="http://www.w3.org/2000/svg">
<path d="M13.1461 10.2456C13.2024 10.8952 13.2593 11.5075 13.303 12.0313C11.334 12.5789 9.95467 13.7997 9.00702 15.307C7.7177 17.3581 7.25231 19.9305 7.19123 22H8.74168C8.80065 20.1547 9.20655 17.893 10.3148 16.1304C11.6104 14.0693 12.9919 13.8671 14.9066 13.0279C14.8766 12.0777 14.814 11.1153 14.7471 10.1439C14.4712 10.284 14.159 10.363 13.8284 10.363C13.5889 10.363 13.3593 10.3219 13.1461 10.2456Z" fill="black"/>
<path d="M12.8287 14.7516C12.9982 17.4118 15.5394 20.0721 17.3568 21.9742L17.3816 22H19.4969C19.2094 21.6752 18.8604 21.3098 18.4766 20.9086C16.6856 19.0339 14.078 16.3041 14.4165 14.0556L12.8287 14.7516Z" fill="black"/>
<path d="M12.985 4.51495C12.2643 4.51495 11.6852 3.90845 11.7299 3.17772C11.7683 2.55122 12.278 2.0416 12.9039 2.00211C13.6352 1.95631 14.2427 2.53595 14.2427 3.25721C14.2427 3.97847 13.6794 4.51495 12.985 4.51495Z" fill="black"/>
<path d="M6.25359 8.72932C6.59369 8.90727 6.9538 9.10206 7.30706 9.2937C8.06149 9.70224 8.78591 10.0945 9.31027 10.3108C10.101 10.6372 10.6775 10.1876 11.1166 9.39004C11.681 8.36501 11.5651 7.63848 12.538 6.81193C13.481 6.01169 14.8429 6.42076 15.5426 7.32313C15.7621 7.60584 15.9596 7.95331 16.1243 8.37027C16.0185 8.33079 15.9174 8.29288 15.8195 8.2555C15.739 8.22497 15.3689 8.07861 15.0251 7.94278C14.8508 7.40368 14.3217 7.02357 13.7126 7.07832C13.1008 7.13307 12.6118 7.6369 12.5733 8.24971C12.5275 8.98097 13.1072 9.58799 13.8284 9.58799C14.078 9.58799 14.3101 9.51534 14.506 9.39004C14.9056 9.54008 16.3518 10.0976 17.0436 10.2871L18.2218 10.6099L18.0091 9.40899C17.7785 8.10651 17.3284 7.10412 16.7651 6.37812C15.0504 4.24013 11.8905 4.37648 10.3864 6.97408L9.69564 8.79303C9.26499 8.59455 8.66271 8.26814 8.03885 7.93067C7.69349 7.74377 7.34233 7.55372 7.00223 7.37577C6.9022 6.73454 6.31782 6.25387 5.63499 6.31968C5.02798 6.37917 4.54363 6.88247 4.50572 7.49212C4.46044 8.22286 5.03956 8.82988 5.76082 8.82988C5.93561 8.82988 6.1025 8.79408 6.25359 8.72932Z" fill="black"/>
</svg>
