<svg width="24" height="24" viewBox="0 0 24 24" fill="none" xmlns="http://www.w3.org/2000/svg">
<path d="M14.1621 4.40148V2.88127C13.6002 3.17728 13.0082 3.45323 12.366 3.70409C10.4444 4.46168 8.4676 4.89818 7.10293 4.85804L8.31708 6.15248C10.2286 5.94678 12.3559 5.26945 14.1621 4.40148Z" fill="black"/>
<path d="M3.82693 5.12898C4.46411 5.12898 4.98088 4.61221 4.98088 3.97503C4.98088 3.33785 4.46411 2.82108 3.82693 2.82108C3.18974 2.82108 2.67297 3.33785 2.67297 3.97503C2.67297 4.61221 3.18974 5.12898 3.82693 5.12898Z" fill="black"/>
<path d="M4.01768 12.7952L4.26854 13.9843L8.06155 10.3518L7.12332 9.37348L5.20175 11.2148C5.17666 9.71967 5.54793 8.08406 6.15501 7.08564L10.6504 11.872C9.60182 13.0862 8.71879 14.4208 8.00133 15.8607C7.16346 17.5515 6.58648 19.3326 6.28545 21.1789H7.66017C8.35756 17.2455 10.3695 13.6732 13.45 10.9639C15.7328 8.95705 18.4271 7.56729 21.327 6.8699V5.48515C20.5544 5.65574 19.7917 5.8765 19.0442 6.14241C16.646 6.99031 14.4635 8.26969 12.5569 9.95045C12.2158 10.2515 11.8897 10.5575 11.5736 10.8786L6.12993 5.0888L5.63824 5.57045C4.91576 6.27285 4.35383 7.46193 4.06283 8.91691C3.79692 10.2465 3.77686 11.6613 4.01768 12.7952Z" fill="black"/>
</svg>
