<svg width="24" height="24" viewBox="0 0 24 24" fill="none" xmlns="http://www.w3.org/2000/svg">
<path d="M8.73812 18.6914V17.4603C6.7238 16.96 5.13467 15.3708 4.63432 13.3565H3.40322C3.94538 16.0348 6.05978 18.1492 8.73812 18.6914Z" fill="black"/>
<path d="M15.555 10.6435H16.7861C16.2439 7.96511 14.1295 5.85072 11.4512 5.30855V6.53965C13.4655 7.04001 15.0546 8.62914 15.555 10.6435Z" fill="black"/>
<path d="M8.73812 6.53965V5.30855C6.05978 5.85072 3.94538 7.96556 3.40322 10.6435H4.63432C5.13512 8.62914 6.7238 7.04001 8.73812 6.53965Z" fill="black"/>
<path d="M11.4512 17.4603V18.6914C14.1295 18.1492 16.2439 16.0344 16.7861 13.3565H15.555C15.0542 15.3708 13.4655 16.96 11.4512 17.4603Z" fill="black"/>
<path d="M14.2603 13.3565H12.97C12.6551 14.0214 12.1161 14.5605 11.4512 14.8754V16.1656C12.7774 15.7329 13.8275 14.6828 14.2603 13.3565Z" fill="black"/>
<path d="M11.4512 7.83435V9.1246C12.1161 9.43949 12.6551 9.97854 12.97 10.6435H14.2603C13.8271 9.31718 12.7774 8.2671 11.4512 7.83435Z" fill="black"/>
<path d="M8.73812 16.1656V14.8754C8.07321 14.5605 7.53416 14.0214 7.21927 13.3565H5.92902C6.36221 14.6828 7.41185 15.7329 8.73812 16.1656Z" fill="black"/>
<path d="M5.92902 10.6435H7.21927C7.53416 9.97854 8.07321 9.43949 8.73812 9.1246V7.83435C7.41185 8.2671 6.36177 9.31718 5.92902 10.6435Z" fill="black"/>
<path d="M10.6951 13.6745C10.5074 13.7421 10.3055 13.779 10.0946 13.779C9.88383 13.779 9.68191 13.7421 9.49422 13.6745V20.0946H10.6951V13.6745Z" fill="black"/>
<path d="M8.42012 12.6004C8.35252 12.4127 8.3156 12.2108 8.3156 12C8.3156 11.7892 8.35252 11.5872 8.42012 11.3996H2V12.6004H8.42012Z" fill="black"/>
<path d="M9.49422 10.3255C9.68191 10.2579 9.88383 10.2209 10.0946 10.2209C10.3055 10.2209 10.5074 10.2579 10.6951 10.3255V3.90533H9.49422V10.3255Z" fill="black"/>
<path fill-rule="evenodd" clip-rule="evenodd" d="M15.6444 12.3211C18.256 12.3144 20.9473 12.3015 21.984 12.3104L22 11.6935L15.6444 11.6838V12.3211ZM13.3752 12.3247C13.9085 12.3247 14.4711 12.3238 15.0439 12.3224V11.6829L13.3752 11.6802V12.3247ZM11.9924 12.3229C12.2406 12.3238 12.5026 12.3242 12.7748 12.3242V11.6793L11.9924 11.678V12.3229ZM10.8312 12.3162C11.0042 12.318 11.1914 12.3193 11.392 12.3202V11.6771L10.865 11.6762C10.897 11.7638 10.9143 11.8581 10.9143 11.9564C10.9143 12.0854 10.8841 12.2077 10.8312 12.3162Z" fill="black"/>
<path d="M10.0946 12.33C10.3006 12.33 10.4678 12.1628 10.4678 11.9568C10.4678 11.7509 10.3006 11.5837 10.0946 11.5837C9.88872 11.5837 9.72149 11.7509 9.72149 11.9568C9.72149 12.1628 9.88872 12.33 10.0946 12.33Z" fill="black"/>
</svg>
