<svg width="24" height="24" viewBox="0 0 24 24" fill="none" xmlns="http://www.w3.org/2000/svg">
<path d="M17.6039 16.5924C18.6626 16.5924 19.7163 16.1898 20.5165 15.4045L19.4827 14.5347C19.0304 14.9373 18.4687 15.1858 17.8524 15.2405C17.1069 15.3051 16.3763 15.0764 15.8047 14.5943L11.4806 10.9711L9.3683 9.19671L8.50349 10.2206L14.9399 15.6182C15.7152 16.2743 16.6596 16.5924 17.6039 16.5924Z" fill="black"/>
<path d="M10.1434 3.31207C9.73584 3.79418 9.80046 4.51487 10.2826 4.92242C10.7647 5.32998 11.4854 5.26536 11.8929 4.78325C12.3005 4.30114 12.2359 3.58046 11.7537 3.1729C11.2716 2.76535 10.551 2.82996 10.1434 3.31207Z" fill="black"/>
<path d="M11.6942 6.57749C11.2369 7.11925 11.0182 7.81011 11.0829 8.52085C11.1425 9.22662 11.4805 9.86777 12.0222 10.325L15.4318 13.1829L16.2469 12.2137L16.2966 12.159L12.887 9.30117C12.6187 9.07751 12.4546 8.75942 12.4198 8.40653C12.395 8.13814 12.4546 7.87969 12.5789 7.65106L22.5938 16.0557L23.4587 15.0318L12.4 5.75245L11.6942 6.57749Z" fill="black"/>
<path d="M17.9867 21.0955H20.0643L2.61886 6.334H0.541321L17.9867 21.0955Z" fill="black"/>
</svg>
