<svg width="24" height="24" viewBox="0 0 24 24" fill="none" xmlns="http://www.w3.org/2000/svg">
<path d="M12.0711 13.0369C10.741 13.1017 9.51295 13.5003 8.54903 14.163C9.09587 14.3298 9.59637 14.5291 10.0552 14.7562C10.6715 14.4874 11.3806 14.3252 12.1313 14.2881C13.3409 14.2279 14.5319 14.5059 15.4031 15.0481L15.4402 14.9832C15.3058 14.5013 15.1992 14.0147 15.1111 13.5142C14.1982 13.1574 13.137 12.9859 12.0711 13.0369Z" fill="black"/>
<path d="M5.23967 8.29608C5.23967 7.70752 4.76234 7.2302 4.17379 7.2302C3.58524 7.2302 3.10791 7.70752 3.10791 8.29608C3.10791 8.88463 3.58524 9.36196 4.17379 9.36196C4.76234 9.36196 5.23967 8.88463 5.23967 8.29608Z" fill="black"/>
<path d="M9.55442 8.37943C8.38195 9.49629 6.74605 10.2239 4.6838 10.5436L3.95623 10.6549L4.18794 11.3546C4.8321 13.3103 5.99994 14.9045 7.57096 15.9657L7.65438 16.0213L7.75169 16.0491C9.91589 16.6701 11.1162 17.7036 11.8901 19.6639H13.2248C12.3396 17.0919 10.8288 15.6506 8.19658 14.872C7.06582 14.0842 6.20384 12.9952 5.63383 11.6373C7.67754 11.2063 9.32271 10.3768 10.5462 9.15799C10.4025 9.0514 10.2588 8.94481 10.1152 8.83359C9.92053 8.69456 9.73516 8.53699 9.55442 8.37943Z" fill="black"/>
<path d="M16.904 10.1683L16.9179 9.64461L16.4035 9.54266C12.7285 8.80117 9.65135 6.4377 8.40473 3.45323H7.06544C7.7096 5.26986 8.92841 6.91966 10.5967 8.22653C12.0658 9.37583 13.8037 10.21 15.6527 10.6595C15.6759 14.4179 16.904 17.7221 19.2211 20.322H20.9682C18.2201 17.736 16.8159 14.2325 16.904 10.1683Z" fill="black"/>
</svg>
