<svg width="24" height="24" viewBox="0 0 24 24" fill="none" xmlns="http://www.w3.org/2000/svg">
<path d="M11.5014 3.80908C11.5014 4.45519 12.0255 4.9792 12.6716 4.9792C13.3177 4.9792 13.8417 4.45519 13.8417 3.80908C13.8417 3.16296 13.3177 2.63895 12.6716 2.63895C12.0255 2.63895 11.5014 3.16296 11.5014 3.80908Z" fill="black"/>
<path d="M16.6857 21.361C16.9655 21.361 17.2402 21.3 17.5048 21.183C17.9932 20.9642 18.3696 20.5674 18.563 20.0637C18.9598 19.031 18.4358 17.8659 17.403 17.4691L15.5868 16.7721L15.5613 16.7619C15.5562 17.2351 15.5868 17.7082 15.6478 18.1813L15.658 18.2729L16.9095 18.7511C17.2351 18.8783 17.403 19.2446 17.2758 19.5702C17.2148 19.728 17.0978 19.8551 16.9401 19.9264C16.7823 19.9976 16.6094 20.0027 16.4516 19.9416L5.57453 15.7699C5.24893 15.6427 5.08105 15.2764 5.20823 14.9508C5.26928 14.7931 5.3863 14.6659 5.54401 14.5946C5.70173 14.5234 5.86961 14.5183 6.03241 14.5794L8.27601 15.4392C8.566 15.0424 8.89159 14.676 9.23754 14.3352L9.20703 14.325C9.7463 13.7349 10.3822 13.221 11.0792 12.8191C11.8017 12.4019 12.5902 12.1068 13.4093 11.9339C13.4144 11.9186 13.4195 11.9033 13.4297 11.8932L12.8853 10.6467C12.0153 10.8502 11.1759 11.1809 10.3975 11.6286C9.4207 12.1933 8.55581 12.931 7.84865 13.801L6.5259 13.2922C6.02223 13.0989 5.47787 13.1142 4.98947 13.3329C4.50107 13.5517 4.12459 13.9485 3.93126 14.4522C3.53444 15.485 4.05845 16.65 5.09122 17.0468L15.9683 21.2186C16.2024 21.3153 16.4466 21.361 16.6857 21.361Z" fill="black"/>
<path d="M20.2014 5.44719V3.9413C18.2784 4.82652 16.2637 5.47263 14.1829 5.86437L14.7476 7.15151C16.6249 6.78012 18.4462 6.21032 20.2014 5.44719Z" fill="black"/>
<path d="M12.458 7.51278L14.381 11.9084C13.7807 13.1803 13.4399 14.5386 13.3635 15.9224L12.519 15.5968L10.1482 14.6862C9.77685 15.0118 9.43089 15.373 9.12564 15.7647L14.7524 17.9218C14.6863 17.2554 14.6812 16.5838 14.7423 15.9224C14.8186 14.6404 15.1594 13.3889 15.7547 12.2289L15.8463 12.0508C15.8615 12.0254 15.8768 11.9949 15.8869 11.9694L15.9022 11.9389L13.8723 7.30418H13.8774L13.3076 6.00179C12.7683 6.08319 12.229 6.14932 11.6847 6.20019C9.72088 6.37826 7.74184 6.32738 5.80858 6.06283V7.44664C6.97871 7.59926 8.1641 7.68067 9.35458 7.68067C10.0872 7.68067 10.8249 7.65013 11.5575 7.59417C11.644 7.58908 11.7254 7.57891 11.8119 7.57382C12.0204 7.55856 12.2392 7.53821 12.458 7.51278Z" fill="black"/>
</svg>
