<svg width="24" height="24" viewBox="0 0 24 24" fill="none" xmlns="http://www.w3.org/2000/svg">
<path d="M5.6387 20.0017C5.40141 20.0017 5.21836 19.9339 5.06243 19.8051C4.75057 19.5474 4.45904 19.2695 4.20819 18.9508C3.91667 18.5847 3.93701 18.1237 4.26243 17.7847C4.92684 17.0932 5.61158 16.422 6.28277 15.7441C6.66921 15.3576 7.04887 14.9712 7.43531 14.5915C7.50311 14.5237 7.55735 14.4491 7.65226 14.422C7.76074 14.3949 7.86243 14.4152 7.93701 14.5102C8.01158 14.6051 8.02514 14.7 7.95735 14.8017C7.91667 14.8559 7.87599 14.9101 7.82175 14.9576C6.79803 15.9881 5.76752 17.0118 4.73701 18.0424C4.45904 18.3203 4.45904 18.4763 4.73701 18.7678C4.9065 18.944 5.07599 19.1135 5.24548 19.2763C5.52345 19.5407 5.6726 19.5407 5.95057 19.2627C6.59464 18.6254 7.23192 17.9881 7.86921 17.3508C8.26921 16.9508 8.66243 16.5576 9.06243 16.1576C9.13023 16.0898 9.20481 16.0152 9.31328 16.0085C9.42853 16.0085 9.51667 16.0559 9.56413 16.1644C9.61836 16.2864 9.57769 16.3949 9.48955 16.483C9.16413 16.8085 8.84548 17.1339 8.52006 17.4525C7.76074 18.2118 6.99464 18.9712 6.22853 19.7305C6.06582 19.9 5.84887 19.9949 5.6387 20.0017Z" fill="black"/>
<path d="M5.61159 18.6661C5.46922 18.6661 5.34718 18.5508 5.34718 18.4085C5.3404 18.2593 5.46922 18.1373 5.61837 18.1373C5.76074 18.1441 5.86922 18.2525 5.86922 18.4017C5.86922 18.5576 5.76074 18.6661 5.61159 18.6661Z" fill="black"/>
<path fill-rule="evenodd" clip-rule="evenodd" d="M8.7438 4.02201C11.5438 4.31353 14.0319 5.33726 16.1268 7.24235C16.2489 7.3576 16.3099 7.33726 16.4116 7.22879C16.8794 6.74743 17.354 6.27964 17.8285 5.81184C17.9302 5.71014 17.9438 5.66269 17.8014 5.59489C17.6184 5.51354 17.4421 5.4254 17.2658 5.33048C17.1574 5.27625 17.0692 5.19489 17.076 5.0593C17.0828 4.91014 17.1777 4.84235 17.2997 4.80167C18.0794 4.53726 18.859 4.27286 19.6387 4.01523C19.8692 3.94065 20.059 4.1237 19.9777 4.35421C19.7201 5.14743 19.4557 5.94065 19.1913 6.73387C19.1506 6.84913 19.0828 6.9237 18.954 6.93726C18.8251 6.94404 18.7438 6.88303 18.6828 6.77455C18.5811 6.57794 18.4794 6.38133 18.3845 6.17794C18.337 6.08303 18.3099 6.07625 18.2285 6.15082C17.7268 6.6593 17.2251 7.16099 16.7167 7.65591C16.6421 7.7237 16.6557 7.77116 16.7167 7.83896C17.4285 8.5915 18.0387 9.4254 18.5404 10.3339C19.2658 11.6491 19.7404 13.0457 19.9235 14.5373C19.9574 14.822 19.9777 15.1068 19.9845 15.3847C19.9913 15.6762 19.8489 15.7847 19.5709 15.7169C19.4184 15.6796 19.2657 15.6406 19.1132 15.6016C18.9607 15.5627 18.8082 15.5237 18.6557 15.4864C18.4726 15.4457 18.3913 15.3373 18.3845 15.1474C18.38 15.0164 18.3634 14.8853 18.3468 14.7542C18.3385 14.6887 18.3302 14.6231 18.3235 14.5576C18.3167 14.4559 18.276 14.4423 18.1811 14.4559C16.1404 14.7339 14.0997 15.0051 12.059 15.2762C11.5286 15.3461 10.9979 15.4175 10.4668 15.489C9.8643 15.57 9.26094 15.6512 8.65566 15.7305C8.35057 15.7712 8.22176 15.6423 8.26244 15.3373C8.41498 14.2118 8.56583 13.0881 8.71668 11.9644C8.86752 10.8407 9.01837 9.71692 9.17091 8.5915L9.20925 8.30168C9.31858 7.47504 9.42847 6.64411 9.5438 5.81862C9.55735 5.70337 9.51668 5.67625 9.42176 5.66947C9.33269 5.66287 9.24361 5.65306 9.15376 5.64317C9.05896 5.63273 8.96329 5.62219 8.86583 5.61523C8.61498 5.59489 8.56752 5.55421 8.49973 5.30336C8.42515 5.0254 8.35736 4.74065 8.28956 4.45591C8.2082 4.13048 8.32346 3.99489 8.64888 4.02201C8.68956 4.01523 8.71668 4.01523 8.7438 4.02201ZM8.9133 14.6796C8.95398 14.3949 8.98787 14.1169 9.02177 13.8322C9.03206 13.7396 9.08921 13.686 9.1458 13.633C9.16378 13.6161 9.1817 13.5993 9.19804 13.5813C10.2509 12.524 11.3067 11.4696 12.3636 10.4143L12.3649 10.413L12.3681 10.4098C12.8953 9.88328 13.4231 9.35628 13.9506 8.82879L13.9641 8.81523C14.154 8.6254 14.1811 8.48303 14.0591 8.35422C13.9302 8.2254 13.7811 8.24574 13.598 8.43557L12.1811 9.85252L9.33364 12.7C9.30724 12.7264 9.27798 12.7528 9.23846 12.7884C9.21708 12.8077 9.1927 12.8297 9.16414 12.8559C9.17307 12.7827 9.18153 12.7119 9.18976 12.6429L9.1899 12.6417C9.21288 12.4491 9.23414 12.271 9.25906 12.0966C9.36075 11.3271 9.46414 10.5576 9.56753 9.78812C9.67092 9.01863 9.77431 8.24913 9.87601 7.47964L9.90168 7.28699C9.97455 6.73982 10.048 6.18837 10.1269 5.64235C10.1743 5.32371 10.1065 5.22201 9.78787 5.17455C9.71838 5.16529 9.64968 5.15444 9.58123 5.14363C9.44934 5.1228 9.31838 5.10212 9.18448 5.0932C9.05567 5.08642 9.00821 5.0254 8.98109 4.90337L8.97529 4.87827C8.93797 4.71693 8.91948 4.63702 8.95081 4.60301C8.98156 4.56964 9.0603 4.58049 9.21631 4.60198L9.23872 4.60506C11.1235 4.87625 12.8658 5.52032 14.4523 6.57794C15.7404 7.43896 16.7913 8.53049 17.6387 9.83218C18.4794 11.1135 19.0421 12.5101 19.3201 14.022C19.3683 14.2741 19.3996 14.5346 19.4307 14.7936C19.439 14.862 19.4472 14.9303 19.4557 14.9983C19.4601 15.0203 19.4588 15.0451 19.4573 15.0729C19.4565 15.0878 19.4557 15.1037 19.4557 15.1203C19.2997 15.0796 19.1574 15.0457 19.015 15.0118C18.9386 14.9927 18.9339 14.9438 18.928 14.8817L18.9269 14.8695C18.9151 14.7895 18.9041 14.7086 18.8932 14.6275C18.8725 14.475 18.8517 14.3217 18.8252 14.1712C18.7845 13.9203 18.676 13.8457 18.4252 13.8729C17.3725 14.0155 16.3198 14.1567 15.2679 14.2978L15.2619 14.2986C14.0665 14.459 12.872 14.6192 11.6794 14.7813C11.5975 14.792 11.5138 14.8008 11.4292 14.8097C11.3526 14.8178 11.2753 14.8259 11.198 14.8356C11.198 14.7741 11.2367 14.7436 11.2731 14.7149C11.285 14.7055 11.2966 14.6964 11.3065 14.6864C11.7813 14.2116 12.2554 13.7368 12.7292 13.2622C13.6761 12.3138 14.622 11.3664 15.5709 10.422C15.6048 10.3881 15.6319 10.361 15.6591 10.3271C15.7675 10.1983 15.7675 10.0491 15.6658 9.94065C15.5574 9.83896 15.4082 9.83218 15.2862 9.95422C15.0828 10.1508 14.8794 10.3542 14.6828 10.5576C13.2591 11.9813 11.8286 13.4118 10.4048 14.8424C10.3099 14.9373 10.215 14.9847 10.0862 14.9983C9.90947 15.013 9.73276 15.0384 9.55348 15.0642C9.48514 15.074 9.41643 15.0838 9.3472 15.0932C9.3525 15.0349 9.39098 15.0014 9.42696 14.9702C9.43698 14.9614 9.44681 14.9529 9.45567 14.944C11.4286 12.9712 13.4014 10.9983 15.3743 9.01862C15.4624 8.93049 15.4963 8.93049 15.5845 9.0254C16.6625 10.1915 17.4828 11.5068 17.9845 13.0118C18.0726 13.283 18.1947 13.3712 18.3641 13.3101C18.5404 13.2491 18.5811 13.1 18.493 12.8356C17.754 10.7 16.493 8.93049 14.7438 7.50676C13.6794 6.63896 12.4997 5.97456 11.198 5.5271L11.1856 5.52313C11.1675 5.51746 11.1467 5.51093 11.1302 5.49998C10.8997 5.41862 10.7574 5.46608 10.6963 5.63557C10.6421 5.7915 10.7235 5.9271 10.9472 6.00167C11.998 6.34744 12.9608 6.84913 13.8557 7.4932C14.2692 7.78472 14.6489 8.11693 15.0286 8.45591C15.117 8.53334 15.0657 8.57468 15.018 8.61305C15.0072 8.62171 14.9966 8.63022 14.9879 8.63896C14.4048 9.22201 13.8218 9.80506 13.2455 10.3881L9.09635 14.5373C9.07722 14.5545 9.0608 14.5717 9.04524 14.588C9.00565 14.6295 8.97171 14.665 8.9133 14.6796ZM18.0591 5.14744C18.4726 5.26269 18.7438 5.5271 18.8591 5.94744C18.8726 5.94066 18.8862 5.93388 18.9065 5.93388C18.9403 5.83253 18.9741 5.73161 19.008 5.63037C19.1101 5.32526 19.2132 5.0173 19.3201 4.68642C18.88 4.83537 18.4805 4.9708 18.081 5.10622L18.0794 5.10676L18.0591 5.14744Z" fill="black"/>
</svg>
