<svg width="24" height="24" viewBox="0 0 24 24" fill="none" xmlns="http://www.w3.org/2000/svg">
<path d="M10.58 18.8725V17.602C8.50213 17.0837 6.86463 15.4462 6.34632 13.3683H5.07577C5.63536 16.1296 7.81411 18.3129 10.58 18.8725Z" fill="black"/>
<path d="M17.6066 10.5705H18.8771C18.3176 7.80918 16.1388 5.62584 13.3729 5.06625V6.33679C15.4554 6.8551 17.0929 8.49261 17.6066 10.5705Z" fill="black"/>
<path d="M10.58 6.33679V5.06625C7.81869 5.62584 5.63536 7.80459 5.07577 10.5705H6.34632C6.86004 8.49261 8.50213 6.8551 10.58 6.33679Z" fill="black"/>
<path d="M13.3773 17.602V18.8725C16.1386 18.3129 18.3219 16.1342 18.8815 13.3683H17.6109C17.0926 15.4462 15.4551 17.0837 13.3773 17.602Z" fill="black"/>
<path d="M16.2718 13.3683H14.9416C14.616 14.0564 14.061 14.6113 13.3729 14.937V16.2672C14.7444 15.8177 15.8269 14.7352 16.2718 13.3683Z" fill="black"/>
<path d="M13.3773 7.67151V9.00169C14.0653 9.32736 14.6203 9.88237 14.946 10.5658H16.2762C15.8267 9.20352 14.7442 8.12102 13.3773 7.67151Z" fill="black"/>
<path d="M10.5796 16.2672V14.937C9.89162 14.6113 9.3366 14.0564 9.01094 13.3683H7.68076C8.12568 14.7352 9.20818 15.8177 10.5796 16.2672Z" fill="black"/>
<path d="M7.68076 10.5704H9.01094C9.3366 9.88235 9.89162 9.32733 10.5796 9.00626V7.67607C9.20818 8.121 8.12568 9.20349 7.68076 10.5704Z" fill="black"/>
<path d="M11.3591 10.2447C11.5518 10.1759 11.7628 10.1392 11.9784 10.1392C12.1939 10.1392 12.4049 10.1759 12.5976 10.2447V3.6259H11.3591V10.2447Z" fill="black"/>
<path d="M12.5976 13.6987C12.4049 13.7675 12.1939 13.8087 11.9784 13.8087C11.7628 13.8087 11.5518 13.772 11.3591 13.6987V20.322H12.5976V13.6987Z" fill="black"/>
<path d="M10.2493 12.5886C10.1805 12.396 10.1392 12.185 10.1392 11.9694C10.1392 11.7538 10.1759 11.5428 10.2493 11.3502H3.62589V12.5886H10.2493Z" fill="black"/>
<path d="M11.9782 13.0244C12.3681 13.0244 12.7121 12.8134 12.8956 12.4969L11.6296 12.0107L12.9185 11.497C12.7442 11.153 12.3864 10.919 11.9782 10.919C11.3957 10.919 10.9232 11.3915 10.9232 11.974C10.9232 12.5519 11.3957 13.0244 11.9782 13.0244Z" fill="black"/>
<path fill-rule="evenodd" clip-rule="evenodd" d="M21.1202 11.0153C20.9184 11.0291 20.7853 11.1208 20.4688 11.474C20.1432 11.8318 20.0514 11.7033 19.1754 11.7079C18.7259 11.7125 18.2809 11.7033 17.8268 11.7079C17.3819 11.7079 16.9324 11.6987 16.4783 11.7033L15.1986 11.6345L14.8179 11.0933L12.5382 12.0061L14.7903 12.873L15.1756 12.3226C15.2444 12.2216 18.9414 12.3134 19.3818 12.3134C20.3542 12.3226 20.1707 12.2262 20.5698 12.6666C20.8266 12.9509 20.8266 13.006 21.1982 12.9968C21.5789 12.9877 22.2944 12.9188 22.455 12.8822L22.0742 12.2262L22.7944 12.1666V11.6162L22.0146 11.6712L22.4274 11.0933C22.0651 11.0474 21.4688 10.9878 21.1202 11.0153Z" fill="black"/>
</svg>
