<svg width="24" height="24" viewBox="0 0 24 24" fill="none" xmlns="http://www.w3.org/2000/svg">
<path d="M12.0131 8.67185C13.1168 10.5096 14.9151 12.1798 16.4769 13.0125L17.9747 11.0318C18.2309 10.687 18.6054 10.4406 19.0192 10.3371L19.6597 10.1746C20.3889 9.99226 21.0393 9.55869 21.4925 8.95761L21.7093 8.66692C22.4336 7.70617 22.2365 6.33649 21.2758 5.61223C20.315 4.88797 18.9453 5.08505 18.2211 6.0458L18.0043 6.33648C17.551 6.93757 17.3194 7.68154 17.3441 8.43535L17.3687 9.09556C17.3835 9.5242 17.2505 9.95285 16.9893 10.2928L16.2404 11.2979C15.5112 10.7806 14.7722 10.1007 14.1366 9.34191C13.4518 8.52896 12.9296 7.69139 12.6142 6.91293L12.0131 8.67185ZM18.9946 7.08045L19.2114 6.78976C19.3986 6.54342 19.6844 6.41039 19.9701 6.41039C20.1672 6.41039 20.3692 6.47444 20.5367 6.60254C20.9555 6.91786 21.0393 7.51402 20.7239 7.93281L20.5071 8.2235C20.2214 8.60287 19.8125 8.87385 19.3592 8.98717L18.7187 9.14976C18.6793 9.15961 18.6399 9.16947 18.6004 9.18425C18.6004 9.14483 18.6004 9.10049 18.6004 9.06107L18.5758 8.40087C18.561 7.92788 18.7088 7.45982 18.9946 7.08045Z" fill="black"/>
<path d="M9.05676 14.9832C8.89417 14.9487 8.72665 14.9143 8.55914 14.8896L7.74619 14.7566C7.41116 16.2199 6.76081 17.3777 5.81976 18.2104C4.8196 19.0874 3.48933 19.5998 1.85359 19.7279V21.0631C3.82929 20.9202 5.45519 20.2994 6.69677 19.2105C7.86938 18.1759 8.66261 16.7569 9.05676 14.9832Z" fill="black"/>
<path d="M21.4627 13.8254C21.4627 13.3918 21.108 13.0371 20.6744 13.0371C20.2408 13.0371 19.8861 13.3918 19.8861 13.8254C19.8861 14.259 20.2408 14.6137 20.6744 14.6137C21.108 14.6137 21.4627 14.259 21.4627 13.8254Z" fill="black"/>
<path d="M7.12057 8.66205C8.01727 8.03633 9.0322 7.67666 10.0915 7.60769L7.91872 13.9339L8.69718 14.062C10.6088 14.3773 12.0869 15.1163 13.0772 16.2594C14.0872 17.4221 14.5996 19.0086 14.5996 20.9695H15.9299C15.9299 16.6781 13.7177 13.8402 9.67764 12.9041L11.9243 6.36117L11.0966 6.2922C9.41157 6.15425 7.75614 6.59274 6.3569 7.5732C5.05619 8.48468 4.04615 9.79031 3.43029 11.3669H4.87882C5.40107 10.2485 6.16967 9.32225 7.12057 8.66205Z" fill="black"/>
<path d="M12.0033 5.20333C12.629 5.20333 13.1365 4.69586 13.1365 4.07014C13.1365 3.44442 12.629 2.93695 12.0033 2.93695C11.3776 2.93695 10.8701 3.44442 10.8701 4.07014C10.8701 4.69586 11.3776 5.20333 12.0033 5.20333Z" fill="black"/>
</svg>
