<svg width="24" height="24" viewBox="0 0 24 24" fill="none" xmlns="http://www.w3.org/2000/svg">
<path d="M11.4667 15.4639C11.3089 14.7237 11.1783 13.9727 11.0749 13.2272C9.36062 15.9863 8.10351 18.9195 7.33074 21.9616H8.84907C9.44769 19.7195 10.3239 17.5427 11.4667 15.4639Z" fill="black"/>
<path d="M19.9345 9.38514C19.9345 8.90624 19.5426 8.51442 19.0637 8.51442C18.5848 8.51442 18.193 8.90624 18.193 9.38514C18.193 9.86404 18.5848 10.2559 19.0637 10.2559C19.5426 10.2559 19.9345 9.86404 19.9345 9.38514Z" fill="black"/>
<path d="M11.3193 3.29004C11.3193 3.98118 11.8799 4.5417 12.571 4.5417C13.2621 4.5417 13.8227 3.98118 13.8227 3.29004C13.8227 2.5989 13.2621 2.03838 12.571 2.03838C11.8799 2.03838 11.3193 2.5989 11.3193 3.29004Z" fill="black"/>
<path d="M5.53488 10.0709V9.14029C7.67903 9.27634 9.83407 8.90629 11.7551 8.0791C11.581 12.2858 12.3265 16.4272 13.9809 20.3944L14.6285 21.9508H16.2176L15.3359 19.8284C13.6108 15.6762 12.9251 11.3334 13.3006 6.91995L13.4204 5.53768L12.2122 6.21793C10.2368 7.3281 7.87494 7.83421 5.53488 7.66551V2.1473H4.06553V11.3171L4.72402 11.3824C5.42059 11.4531 6.08452 11.4912 6.7158 11.4912C8.22868 11.4912 9.57829 11.2844 10.8463 10.8545C10.8191 10.3756 10.8082 9.89673 10.8028 9.41784C9.12661 9.95115 7.3253 10.1743 5.53488 10.0709Z" fill="black"/>
</svg>
