<svg width="24" height="24" viewBox="0 0 24 24" fill="none" xmlns="http://www.w3.org/2000/svg">
<path d="M18.249 10.1315L19.2421 9.08741C18.6634 8.92429 18.0772 8.72776 17.4731 8.48127C15.6607 7.74855 14.0202 6.75929 13.1107 5.84182L13.0976 7.52263C14.5426 8.62787 16.4436 9.54987 18.249 10.1315Z" fill="black"/>
<path d="M10.6873 3.89159C11.1242 4.3071 11.8161 4.28916 12.2323 3.85152C12.6485 3.41388 12.6318 2.72196 12.1949 2.30646C11.758 1.89095 11.0661 1.9089 10.6499 2.34653C10.2337 2.78417 10.2504 3.47609 10.6873 3.89159Z" fill="black"/>
<path d="M5.81023 9.28148L5.20548 10.2618L10.1789 10.2403L10.1748 8.95653L7.65445 8.96814C8.61392 7.92489 9.93692 7.04361 11.0054 6.75374L10.9609 12.9726L5.98589 16.1524L10.2596 21.2274L11.2616 20.4129L7.67755 16.403L11.4495 14.1161H12.1632L21.5199 14.142L21.5044 12.9255L12.2428 12.8923L12.2926 5.3659L11.6408 5.37608C10.6866 5.38738 9.52461 5.83764 8.37464 6.6472C7.3238 7.38698 6.38581 8.34566 5.81023 9.28148Z" fill="black"/>
</svg>
