<svg width="24" height="24" viewBox="0 0 24 24" fill="none" xmlns="http://www.w3.org/2000/svg">
<path d="M15.1975 6.0341C15.8041 6.0341 16.2961 5.54211 16.2961 4.93549C16.2961 4.32886 15.8041 3.83688 15.1975 3.83688C14.5909 3.83688 14.0989 4.32886 14.0989 4.93549C14.0989 5.54211 14.5909 6.0341 15.1975 6.0341Z" fill="black"/>
<path d="M15.8238 8.65165C16.077 8.67076 16.3253 8.68031 16.5833 8.68031C18.5178 8.68031 20.3233 8.1119 21.8375 7.1327V5.54688C20.395 6.69804 18.5703 7.39064 16.5833 7.39064C16.4734 7.39064 16.3636 7.39064 16.2537 7.38586C16.2537 7.38586 15.9528 8.34595 15.8238 8.65165Z" fill="black"/>
<path d="M10.5169 20.6934H12.953C14.2235 20.6934 15.2792 19.7619 15.475 18.5487H14.1519C13.9799 19.0454 13.507 19.4037 12.953 19.4037H10.5169V20.6934Z" fill="black"/>
<path d="M11.448 12.7499V18.5869H12.7377V12.1911C12.3317 12.4251 11.9018 12.6114 11.448 12.7499Z" fill="black"/>
<path d="M9.30814 12.2627C9.48487 12.2627 9.66638 12.2532 9.84311 12.2388C12.1215 12.0525 13.9844 10.7008 15.0114 8.55132C15.1976 8.16441 15.3553 7.75363 15.4842 7.31896C15.4317 7.31418 15.3744 7.30463 15.3218 7.29508C15.2693 7.28552 15.2215 7.28075 15.169 7.27119C15.1642 7.27119 15.1594 7.27119 15.1547 7.27119C15.0496 7.25209 14.9445 7.23298 14.8442 7.2091C14.7916 7.19955 14.7391 7.18522 14.6866 7.17566C14.634 7.16611 14.5815 7.15178 14.5289 7.13745C14.4812 7.1279 14.4334 7.11357 14.3856 7.09924C14.3761 7.09446 14.3665 7.09446 14.357 7.08969C14.314 7.07536 14.2662 7.0658 14.2232 7.05147C12.1789 6.44963 10.4545 5.09308 9.37501 3.30664H7.90382C9.08364 5.65671 11.1853 7.46226 13.736 8.25039C13.3921 8.90001 12.9479 9.44931 12.4177 9.88398C11.663 10.5002 10.7411 10.8727 9.75235 10.9539C9.60906 10.9635 9.46576 10.973 9.32246 10.973C7.83695 10.973 6.43741 10.333 5.52031 9.2678L4.60799 10.1801C5.74959 11.4889 7.47393 12.2627 9.30814 12.2627Z" fill="black"/>
<path d="M3.66233 11.5749C3.46171 11.3552 3.35663 11.0686 3.35663 10.7724C3.35663 10.4524 3.48082 10.1467 3.71009 9.92218L5.48221 8.15008L4.63675 7.30462L2.86464 9.07195C2.41087 9.52573 2.16249 10.1276 2.16249 10.7676C2.16249 11.0447 2.21025 11.3169 2.301 11.5701H3.66233V11.5749Z" fill="black"/>
</svg>
