<svg width="24" height="24" viewBox="0 0 24 24" fill="none" xmlns="http://www.w3.org/2000/svg">
<path fill-rule="evenodd" clip-rule="evenodd" d="M17.9624 11.7129C18.6011 11.3658 19.181 10.9879 19.9377 11.1858C20.3776 11.3009 20.7783 11.6509 21.052 12.0049C21.5828 12.6918 21.8427 13.3317 21.9863 14.277C22.0613 14.7709 21.8143 15.2328 21.5942 15.6135C21.3026 16.118 20.4003 16.7777 19.8379 17.0807C17.8902 18.1297 16.5306 18.356 14.3887 18.6816C12.9232 18.9042 11.8628 18.6358 10.9131 17.4452C10.5299 16.9647 10.214 16.4164 9.88389 15.8439C9.71358 15.5486 9.58179 15.2818 9.40093 15C9.21602 14.7121 9.05625 14.4838 8.87052 14.2206C8.35999 13.4972 8.29876 13.4684 7.74605 12.7904C7.63859 12.6586 7.55546 12.5803 7.44679 12.4473C5.64349 10.3521 3.82114 8.27707 2 6.19803L2.85846 5.45352C5.29273 8.23247 7.03479 10.2227 7.17915 10.3938C7.3304 10.5735 7.45246 10.7194 7.60899 10.893C8.00679 11.3354 8.49421 11.9777 8.94554 12.3273C9.27644 12.5836 9.02218 12.4222 9.46216 12.7085C11.5611 14.0746 15.9069 12.8289 17.9628 11.7125M18.9977 13.6703C19.0978 13.5961 19.1976 13.5499 19.3095 13.4708L20.1704 12.7859C20.1242 12.5921 19.6996 12.1793 19.4089 12.2831L18.4365 12.7669L18.7175 13.2182C18.8055 13.3553 18.9316 13.5041 18.9977 13.6707M12.7642 15.4302L12.192 14.5831C12.1024 14.429 12.1231 14.3946 11.9382 14.3865L11.1466 14.3783C11.0023 14.3727 10.4589 14.3382 10.3685 14.3102L10.6929 14.9525C10.7561 15.0633 10.808 15.1614 10.8644 15.2611C10.9419 15.3982 10.952 15.4225 11.1268 15.4461C11.5136 15.4984 12.3137 15.4984 12.7642 15.4298M16.6851 14.7283C16.9409 14.6894 17.8623 14.3147 18.0192 14.2076C17.9061 14.0548 17.8286 13.914 17.7138 13.7474C17.6275 13.6213 17.4709 13.4076 17.4178 13.2746C17.2171 13.3098 16.4868 13.6634 16.0784 13.7608C16.1839 14.0247 16.5752 14.4534 16.6847 14.7287M14.0521 15.3053C14.7759 15.2615 14.8347 15.2145 15.5699 15.0669L14.9256 14.0775C14.6235 14.1233 14.4377 14.187 14.1709 14.2275C13.9041 14.2681 13.7082 14.2624 13.4061 14.3086L14.0521 15.3057V15.3053ZM20.7178 13.8333C20.4754 14.013 19.9202 14.4842 19.6331 14.5989L20.1891 15.4684C20.7649 14.9416 21.0268 14.6075 20.7178 13.8333ZM18.0014 16.6484C18.2224 16.6099 19.0719 16.2141 19.2268 16.1091C19.1323 15.8722 18.7021 15.3467 18.6603 15.1707C18.4425 15.2575 18.2649 15.3516 18.0443 15.4534C17.8619 15.5377 17.5577 15.6748 17.3659 15.7206C17.5869 16.019 17.7803 16.3499 18.0014 16.6484ZM14.1811 17.547L13.8457 17.0446C13.7176 16.8637 13.6198 16.6889 13.4953 16.5206C12.6008 16.6565 12.4597 16.5965 11.7476 16.6447C11.894 16.8049 11.9937 16.9667 12.1584 17.1281C12.688 17.6467 13.3769 17.669 14.1811 17.547ZM15.4933 17.3475L16.2131 17.2027C16.4547 17.1626 16.649 17.0843 16.859 17.034C16.8169 16.8568 16.3376 16.2782 16.2528 16.0661C15.8866 16.2121 15.2516 16.2887 14.7784 16.3609C14.8652 16.5778 15.1571 16.9241 15.2796 17.1378C15.3315 17.2283 15.3806 17.3645 15.4933 17.3475Z" fill="black"/>
<path d="M11.1738 6.61855C11.6783 6.29008 12.308 6.15424 12.9439 6.28887C13.5793 6.42309 14.1004 6.80265 14.4288 7.3071C14.7573 7.81155 14.8931 8.44171 14.7585 9.07714C14.6239 9.71257 14.2447 10.2337 13.7403 10.5621C13.2358 10.8906 12.6057 11.0264 11.9702 10.8918C11.3348 10.7572 10.8137 10.378 10.4853 9.87356C10.1568 9.36911 10.021 8.73935 10.1556 8.10352C10.2902 7.46809 10.6694 6.94701 11.1738 6.61855ZM13.1486 5.32011C12.2456 5.12911 11.3506 5.32214 10.6337 5.78888C9.91673 6.25562 9.37781 6.99567 9.18682 7.89873C8.99583 8.8018 9.18885 9.69676 9.65559 10.4137C10.1223 11.1306 10.8624 11.6696 11.7654 11.8605C12.6685 12.0515 13.5635 11.8585 14.2804 11.3918C14.9973 10.925 15.5363 10.185 15.7273 9.28192C15.9183 8.37886 15.7252 7.4839 15.2585 6.76696C14.7918 6.05002 14.0517 5.5111 13.1486 5.32011Z" fill="black"/>
<path fill-rule="evenodd" clip-rule="evenodd" d="M11.205 7.56744C10.875 7.49769 10.5505 7.70855 10.4804 8.03904C10.4106 8.36912 10.6215 8.69353 10.952 8.76328C11.2821 8.83303 11.6065 8.62216 11.6766 8.29167C11.7464 7.96159 11.5355 7.63718 11.205 7.56703" fill="black"/>
<path fill-rule="evenodd" clip-rule="evenodd" d="M14.0156 8.16191C13.6855 8.09216 13.3611 8.30303 13.291 8.63352C13.2212 8.9636 13.4321 9.28801 13.7626 9.35775C14.0927 9.4275 14.4171 9.21664 14.4868 8.88615C14.5566 8.55606 14.3457 8.23166 14.0152 8.1615" fill="black"/>
<path fill-rule="evenodd" clip-rule="evenodd" d="M13.379 7.18382C13.4487 6.85374 13.2378 6.52933 12.9074 6.45959C12.5773 6.38984 12.2529 6.6007 12.1831 6.93119C12.1134 7.26128 12.3242 7.58568 12.6547 7.65584C12.9848 7.72558 13.3092 7.51472 13.3794 7.18423" fill="black"/>
<path fill-rule="evenodd" clip-rule="evenodd" d="M12.7845 9.99481C12.8542 9.66472 12.6434 9.34032 12.3129 9.27016C11.9828 9.20042 11.6584 9.41128 11.5886 9.74177C11.5189 10.0719 11.7298 10.3963 12.0603 10.4664C12.3903 10.5362 12.7147 10.3253 12.7849 9.99481" fill="black"/>
</svg>
