<svg width="24" height="24" viewBox="0 0 24 24" fill="none" xmlns="http://www.w3.org/2000/svg">
<path d="M10.3477 15.7579C11.1359 14.8957 11.7148 13.8917 12.0267 12.8468C12.1631 12.383 12.2519 11.9145 12.2801 11.4447L10.9788 10.7017C11.0773 12.1428 10.5172 13.6322 9.38442 14.8728L8.73024 15.5882L9.8967 16.2543L10.3477 15.7579Z" fill="black"/>
<path d="M16.8711 13.1168L17.5858 5.68466L16.6157 5.94601C14.984 6.38801 13.4047 7.02186 11.9241 7.83493L13.2759 8.6068C14.187 8.15541 15.1312 7.77317 16.1019 7.4619L15.7643 10.977L6.47463 5.67252L5.82539 6.80952L16.8711 13.1168Z" fill="black"/>
<path d="M17.2032 20.7854L16.2351 20.2325C16.0319 20.4727 15.7033 20.5522 15.447 20.4059L4.64113 14.2356L4.03209 15.3022L14.838 21.4725C15.6246 21.9217 16.6604 21.6121 17.2032 20.7854Z" fill="black"/>
<path d="M2.6043 12.4494L3.56234 12.9964C3.45826 13.2932 3.55455 13.6153 3.80815 13.7601L14.5015 19.8662L13.8924 20.9328L3.1991 14.8268C2.4207 14.3823 2.16764 13.3368 2.6043 12.4494Z" fill="black"/>
<path d="M19.2324 6.17277C19.7673 6.47816 20.4487 6.29209 20.7541 5.75728C21.0594 5.22246 20.8734 4.54105 20.3386 4.23566C19.8037 3.93028 19.1223 4.11635 18.8169 4.65116C18.5116 5.18598 18.6976 5.86739 19.2324 6.17277Z" fill="black"/>
</svg>
