<svg width="24" height="24" viewBox="0 0 24 24" fill="none" xmlns="http://www.w3.org/2000/svg">
<path d="M14.7381 3.35397C12.8289 3.54347 9.9628 4.35831 7.16302 7.1581C4.36323 9.95788 3.5484 12.824 3.35891 14.7331C3.35891 14.7568 3.35417 14.7805 3.35417 14.8042C3.53419 14.8374 3.71421 14.88 3.88949 14.9274C4.96487 15.2211 5.96446 15.7611 6.80771 16.5002C6.81245 16.5049 6.82192 16.5097 6.82666 16.5144C6.87403 16.557 6.92141 16.5997 6.96878 16.6423C6.98299 16.6518 6.99247 16.666 7.00668 16.6755C7.05879 16.7228 7.1109 16.775 7.15827 16.8223L7.16302 16.8271C7.6936 17.3577 8.13418 17.9546 8.47527 18.5941C8.69792 18.5894 8.93006 18.5704 9.1764 18.542C9.38011 18.5183 9.59802 18.4851 9.82542 18.4425C9.39905 17.514 8.80688 16.6613 8.06785 15.9175C8.00627 15.8559 7.94468 15.7943 7.87836 15.7375C7.86415 15.7233 7.84993 15.7138 7.83572 15.6996C7.77887 15.6475 7.72203 15.5954 7.66518 15.5432C7.66044 15.5385 7.65096 15.529 7.64623 15.5243C7.00668 14.9653 6.30081 14.5057 5.54283 14.1552C5.54283 14.1552 5.54283 14.1552 5.54283 14.1599C5.29649 14.0462 5.04067 13.942 4.78012 13.852C5.11647 12.2271 5.98341 10.1237 8.06312 8.04397C10.5976 5.50948 13.1605 4.77518 14.8612 4.60938C16.003 4.49568 16.8794 4.62361 17.4147 4.74678C18.1063 4.90785 18.5327 5.1447 18.6843 5.30104C18.8359 5.45263 19.0728 5.87901 19.2338 6.57067C19.3144 6.90228 19.3902 7.37126 19.4091 7.94922C19.8213 8.12924 20.2524 8.27138 20.6929 8.36612C20.7166 6.43328 20.1718 4.98837 19.5844 4.39619C18.9117 3.7377 17.1068 3.1171 14.7381 3.35397Z" fill="black"/>
<path d="M20.12 9.06726C19.0446 8.77355 18.045 8.2335 17.2018 7.49447C17.197 7.48973 17.1875 7.48498 17.1828 7.4755C17.1354 7.43287 17.0881 7.39024 17.0407 7.34761C17.0265 7.33813 17.017 7.32391 17.0028 7.31444C16.9507 7.26706 16.8986 7.21497 16.8465 7.16285C16.8465 7.16285 16.8465 7.16285 16.8417 7.15811C16.3111 6.62753 15.8706 6.0306 15.5295 5.39106C15.3068 5.3958 15.0747 5.41475 14.8283 5.44317C14.6246 5.46686 14.4067 5.50003 14.1793 5.54266C14.6057 6.47119 15.1979 7.32391 15.9369 8.06767C15.9985 8.12926 16.0601 8.19086 16.1264 8.24771C16.1406 8.26192 16.1548 8.27612 16.169 8.2856C16.2259 8.33771 16.2827 8.38983 16.3396 8.4372C16.3443 8.44194 16.3538 8.45141 16.3585 8.45615C16.9981 9.01516 17.7039 9.47467 18.4619 9.8205C18.4619 9.8205 18.4619 9.82052 18.4619 9.81578C18.7082 9.92948 18.9641 10.0337 19.2199 10.1237C18.8835 11.7486 18.0166 13.852 15.9369 15.9317C13.4024 18.4662 10.8395 19.2005 9.13875 19.371C7.99705 19.4847 7.12063 19.3568 6.58531 19.2337C5.89365 19.0726 5.46729 18.8357 5.3157 18.6841C5.1641 18.5325 4.92723 18.1062 4.76616 17.4145C4.68562 17.0829 4.60983 16.6139 4.59088 16.0359C4.17873 15.8559 3.74763 15.7138 3.30705 15.6238C3.28336 17.5566 3.82816 19.0015 4.4156 19.589C4.98882 20.1622 6.38634 20.6975 8.25287 20.6975C8.57501 20.6975 8.91609 20.6833 9.26666 20.6454C11.1758 20.4559 14.0419 19.6411 16.8417 16.8413C19.6415 14.0415 20.4563 11.1754 20.6458 9.26624C20.6506 9.24256 20.6506 9.21887 20.6506 9.19518C20.4753 9.15728 20.2953 9.11464 20.12 9.06726Z" fill="black"/>
<path d="M9.80388 11.8478L8.89944 12.7523L11.2443 15.0971L12.1487 14.1927L9.80388 11.8478Z" fill="black"/>
<path d="M11.2782 10.3745L10.3738 11.279L12.7186 13.6238L13.6231 12.7194L11.2782 10.3745Z" fill="black"/>
<path d="M12.7521 8.90142L11.8477 9.80586L14.1925 12.1507L15.097 11.2463L12.7521 8.90142Z" fill="black"/>
</svg>
