<svg width="24" height="24" viewBox="0 0 24 24" fill="none" xmlns="http://www.w3.org/2000/svg">
<path d="M12.4856 21.6691H13.9782C13.9782 18.1927 12.1835 13.3694 9.07285 11.8167C9.75646 10.211 11.1926 8.44101 12.6234 7.43944L17.2815 14.4504C17.7372 15.1393 18.5056 15.5527 19.3323 15.5527H21.7859V14.1219H19.3323C18.9878 14.1219 18.6646 13.947 18.4738 13.6608L13.0632 5.52109L12.4856 5.83905C10.3977 6.9943 8.20376 9.68635 7.48305 11.9756L7.29227 12.5904L7.88578 12.8447C10.8799 14.1325 12.4856 18.5531 12.4856 21.6691Z" fill="black"/>
<path d="M14.7431 4.76864C15.4161 4.76864 15.962 4.22282 15.962 3.5498C15.962 2.87679 15.4161 2.33096 14.7431 2.33096C14.0701 2.33096 13.5243 2.87679 13.5243 3.5498C13.5243 4.22282 14.0701 4.76864 14.7431 4.76864Z" fill="black"/>
<path d="M8.33787 14.2573C8.32705 14.2502 8.32164 14.2431 8.31082 14.2361C8.28918 14.2219 8.26755 14.2078 8.2405 14.1865C8.19182 14.1511 8.13773 14.1157 8.08363 14.0803C8.06199 14.0662 8.04034 14.052 8.0187 14.0379C7.9592 14.0025 7.90509 13.9671 7.84558 13.9317C7.82935 13.9246 7.81313 13.9105 7.7969 13.9034C7.72116 13.8538 7.64003 13.8114 7.56429 13.7689L7.00708 13.4504C6.22809 16.3453 4.4375 18.2564 2.21413 18.4617V19.977C3.78293 19.8567 5.24638 19.2623 6.40405 17.882C7.2696 16.8628 7.91591 15.7649 8.33787 14.2573Z" fill="black"/>
<path d="M19.2961 17.7311C19.2961 18.4041 19.842 18.9499 20.515 18.9499C21.188 18.9499 21.7338 18.4041 21.7338 17.7311C21.7338 17.0581 21.188 16.5123 20.515 16.5123C19.842 16.5123 19.2961 17.0581 19.2961 17.7311Z" fill="black"/>
</svg>
