<svg width="24" height="24" viewBox="0 0 24 24" fill="none" xmlns="http://www.w3.org/2000/svg">
<path d="M17.5603 18.7523H16.2054C16.0625 19.2499 15.5994 19.6145 15.0574 19.6145H12.4462V20.9448H15.0574C16.3384 20.9448 17.3977 19.989 17.5603 18.7523Z" fill="black"/>
<path d="M13.3574 18.8016H14.6877C14.6877 15.5695 13.2194 13.1997 10.3273 11.7561C10.9629 10.2632 12.2981 8.61764 13.6284 7.68645L17.9591 14.2048C18.3828 14.8453 19.0972 15.2296 19.8658 15.2296H22.147V13.8993H19.8658C19.5456 13.8993 19.245 13.7367 19.0677 13.4707L14.0373 5.90291L13.5003 6.19852C11.5591 7.27259 9.51931 9.77547 8.84925 11.9039L8.67188 12.4754L9.22368 12.7119C12.0074 13.9092 13.3574 15.9046 13.3574 18.8016Z" fill="black"/>
<path d="M15.5991 5.2033C16.2248 5.2033 16.7323 4.69583 16.7323 4.07011C16.7323 3.44439 16.2248 2.93692 15.5991 2.93692C14.9734 2.93692 14.4659 3.44439 14.4659 4.07011C14.4659 4.69583 14.9734 5.2033 15.5991 5.2033Z" fill="black"/>
<path d="M4.0701 21.0631V19.7131C3.5577 19.5751 3.18325 19.112 3.18325 18.5552V15.944H1.85298V18.5552C1.85298 19.8461 2.82359 20.9103 4.0701 21.0631Z" fill="black"/>
<path d="M9.59863 13.8205C9.58878 13.8155 9.58385 13.8106 9.574 13.8057C9.55429 13.7958 9.53459 13.786 9.50996 13.7712C9.46561 13.7466 9.41635 13.7219 9.36708 13.6973C9.34737 13.6874 9.32765 13.6776 9.30795 13.6677C9.25375 13.6431 9.20447 13.6185 9.15028 13.5938C9.13549 13.5889 9.12072 13.579 9.10594 13.5741C9.03696 13.5396 8.96307 13.5101 8.89409 13.4805L8.3866 13.2588C7.67713 15.2739 6.04633 16.6042 4.02137 16.7471V18.0822C5.45018 17.9985 6.76565 17.4516 7.82001 16.4908C8.60831 15.7814 9.21433 14.8699 9.59863 13.8205Z" fill="black"/>
<path d="M19.8322 17.1051C19.8322 17.7308 20.3397 18.2382 20.9654 18.2382C21.5912 18.2382 22.0986 17.7308 22.0986 17.1051C22.0986 16.4793 21.5912 15.9719 20.9654 15.9719C20.3397 15.9719 19.8322 16.4793 19.8322 17.1051Z" fill="black"/>
</svg>
