<svg width="24" height="24" viewBox="0 0 24 24" fill="none" xmlns="http://www.w3.org/2000/svg">
<path d="M17.9284 19.2025H16.4831C16.3307 19.7333 15.8367 20.1222 15.2586 20.1222H12.4732V21.5412H15.2586C16.625 21.5412 17.7549 20.5216 17.9284 19.2025Z" fill="black"/>
<path d="M13.4451 19.2551H14.8641C14.8641 15.8075 13.298 13.2796 10.213 11.7398C10.891 10.1474 12.3152 8.39209 13.7342 7.39881L18.3537 14.3518C18.8057 15.035 19.5677 15.4449 20.3876 15.4449H22.8208V14.0259H20.3876C20.0459 14.0259 19.7254 13.8525 19.5362 13.5687L14.1704 5.49634L13.5975 5.81166C11.5269 6.95735 9.35114 9.62711 8.6364 11.8975L8.4472 12.5071L9.03579 12.7594C12.0051 14.0364 13.4451 16.1649 13.4451 19.2551Z" fill="black"/>
<path d="M15.8364 4.75011C16.5038 4.75011 17.0451 4.2088 17.0451 3.54136C17.0451 2.87392 16.5038 2.33261 15.8364 2.33261C15.1689 2.33261 14.6276 2.87392 14.6276 3.54136C14.6276 4.2088 15.1689 4.75011 15.8364 4.75011Z" fill="black"/>
<path d="M22.8264 16.3384H20.2512V17.7574H22.8264V16.3384Z" fill="black"/>
<path d="M3.53859 21.6674V20.2274C2.99203 20.0802 2.59261 19.5862 2.59261 18.9924V16.207H1.17365V18.9924C1.17365 20.3693 2.20897 21.5045 3.53859 21.6674Z" fill="black"/>
<path d="M9.43577 13.9419C9.42526 13.9366 9.42 13.9314 9.40949 13.9261C9.38847 13.9156 9.36746 13.9051 9.34118 13.8893C9.29388 13.863 9.24134 13.8368 9.18878 13.8105C9.16776 13.8 9.14673 13.7895 9.1257 13.779C9.06789 13.7527 9.01533 13.7264 8.95752 13.7001C8.94175 13.6949 8.92599 13.6844 8.91023 13.6791C8.83665 13.6423 8.75783 13.6108 8.68425 13.5792L8.14293 13.3428C7.38614 15.4922 5.64661 16.9112 3.48662 17.0636V18.4878C5.0107 18.3985 6.41389 17.8151 7.53855 16.7903C8.37942 16.0335 9.02585 15.0613 9.43577 13.9419Z" fill="black"/>
</svg>
