<svg width="24" height="24" viewBox="0 0 24 24" fill="none" xmlns="http://www.w3.org/2000/svg">
<path d="M2 14.2919L2.40417 11.1544C3.32292 11.1381 3.85458 11.1273 4.77167 11.1194L4.55375 12.0948C4.55375 12.0948 3.435 12.1269 3.26708 12.1302L2.98292 14.4319L2 14.2919ZM7.55542 14.0406H15.1746C15.1608 14.1419 15.1538 14.2456 15.1538 14.3506C15.1538 14.3614 15.1538 14.3727 15.1538 14.3835C15.1538 14.3898 15.1538 14.396 15.1538 14.4019C15.1538 14.6206 15.185 14.8331 15.2429 15.0352H7.48833C7.54917 14.8294 7.58167 14.6119 7.58167 14.3885C7.58167 14.2702 7.5725 14.1544 7.55542 14.0406ZM19.2167 14.4252C19.2167 13.5573 18.5875 12.8335 17.7617 12.6856V13.7185C18.0325 13.8389 18.2221 14.1102 18.2221 14.4252C18.2221 14.8519 17.875 15.1989 17.4483 15.1989C17.0217 15.1989 16.6746 14.8519 16.6746 14.4252C16.6746 14.1102 16.8642 13.8389 17.135 13.7185V12.6856C16.3092 12.8339 15.68 13.5573 15.68 14.4252C15.68 15.4002 16.4733 16.1935 17.4483 16.1935C18.4233 16.1935 19.2167 15.4002 19.2167 14.4252ZM7.02667 14.7435C7.18292 13.8898 6.69417 13.0648 5.90833 12.7706L5.7225 13.7869C5.96708 13.9539 6.105 14.2548 6.04833 14.5648C5.97167 14.9844 5.56792 15.2635 5.14833 15.1864C4.72875 15.1098 4.44958 14.706 4.52625 14.2864C4.58292 13.9764 4.81833 13.7439 5.10625 13.6739L5.29208 12.6577C4.45292 12.6552 3.70375 13.2535 3.54792 14.1077C3.3725 15.0669 4.01 15.9898 4.96917 16.1652C5.92833 16.3406 6.85125 15.7027 7.02667 14.7435ZM5.89375 8.75561L6.08417 7.80603L11.5846 8.12686L11.8642 10.5177L18.3404 10.711C19.5604 11.021 20.78 11.331 22 11.6414L21.2125 14.6152L19.6492 15.0502C19.71 14.8439 19.7425 14.6264 19.7425 14.4023C19.7425 14.396 19.7425 14.3898 19.7425 14.3839C19.7425 14.3731 19.7425 14.3619 19.7425 14.351C19.7425 14.2327 19.7333 14.116 19.7163 14.0023L20.3988 13.8123L20.7838 12.3581L18.1883 11.6985L11.3533 11.4948L10.3063 12.8848L6.77625 12.7439L6.98208 11.791L9.8225 11.8727L10.8621 10.4989L10.695 9.06978L7.20708 8.86645L6.88542 8.83978L6.19583 12.2823C5.91708 12.1619 5.61 12.0948 5.2875 12.0948C5.26458 12.0948 5.24208 12.0952 5.21958 12.096L5.895 8.75603L5.89375 8.75561Z" fill="black"/>
</svg>
