<svg width="24" height="24" viewBox="0 0 24 24" fill="none" xmlns="http://www.w3.org/2000/svg">
<path d="M10.7861 5.34813C10.7861 6.0227 11.3331 6.5698 12.0077 6.5698C12.6823 6.5698 13.2294 6.0227 13.2294 5.34813C13.2294 4.67356 12.6823 4.12646 12.0077 4.12646C11.3331 4.12646 10.7861 4.67356 10.7861 5.34813Z" fill="black"/>
<path d="M11.4252 8.85562C11.9041 8.79004 12.1906 8.79327 12.7033 8.85562V13.7126H11.4252V8.85562Z" fill="black"/>
<path d="M5.03406 14.3775H6.31221V19.8735H5.03406V14.3775Z" fill="black"/>
<path d="M6.31202 7.96092H7.59017V12.6901L6.31202 12.9457V7.96092Z" fill="black"/>
<path d="M16.4099 7.96092H17.688V13.0096L16.4099 12.6901V7.96092Z" fill="black"/>
<path d="M17.6878 14.3775H18.9659V19.8735H17.6878V14.3775Z" fill="black"/>
<path d="M5.03406 15.6556V14.3775C10.5383 13.1463 13.737 13.1541 18.9659 14.3775V15.6556C13.5488 14.4641 10.4559 14.4875 5.03406 15.6556Z" fill="black"/>
<path d="M6.31202 9.23907V7.97589C10.8063 6.75911 13.4181 6.76688 17.6876 7.97589V9.23907C13.2644 8.06148 10.739 8.08463 6.31202 9.23907Z" fill="black"/>
</svg>
