<svg width="24" height="24" viewBox="0 0 24 24" fill="none" xmlns="http://www.w3.org/2000/svg">
<path d="M12.7969 9.95965L13.7989 9.39287C13.0029 8.77408 12.6986 8.46632 12.3414 8.02122L12.3151 9.52972L12.7969 9.95965Z" fill="black"/>
<path d="M9.89613 3.57663C9.98641 4.18443 10.555 4.60573 11.1685 4.5146C11.782 4.42347 12.2036 3.85508 12.1133 3.24728C12.023 2.63947 11.4544 2.21817 10.8409 2.3093C10.2274 2.40043 9.80584 2.96882 9.89613 3.57663Z" fill="black"/>
<path d="M11.4059 15.3645L12.7434 14.735C12.081 12.0901 11.8444 9.76332 11.9141 7.04821C12.8693 8.19362 13.3268 8.46001 14.1026 9.18067L15.2686 8.58952C13.8353 7.38142 13.2778 6.86951 11.9777 5.56764L10.7726 5.69498C10.7349 5.70058 10.7026 5.70537 10.6649 5.71097C10.3293 9.04281 10.5566 12.1647 11.4059 15.3645Z" fill="black"/>
<path d="M10.0089 13.3674C9.87527 12.5791 9.76938 11.7922 9.70037 10.9943C8.39535 12.7989 7.73103 14.8437 7.62456 17.3114C8.11003 17.0249 8.62481 16.7505 9.15892 16.4952C9.29191 15.354 9.56705 14.3181 10.0089 13.3674Z" fill="black"/>
<path d="M1.1297 19.6693L0.792389 19.5714V21.1049C2.15798 21.5019 3.38755 21.7031 4.61713 21.7031C5.86846 21.7031 7.1198 21.4964 8.51803 21.0832C9.78024 20.7079 10.8901 20.5231 12 20.5231C13.1099 20.5231 14.2198 20.7079 15.482 21.0832C16.8802 21.4964 18.1315 21.7031 19.3829 21.7031C20.6125 21.7031 21.8366 21.5019 23.2076 21.1049V19.5714L22.8703 19.6693C21.6679 20.0228 20.5254 20.2022 19.3883 20.2022C18.2458 20.2022 17.1033 20.0228 15.9064 19.6693C14.5081 19.2561 13.2568 19.0494 12.0055 19.0494C10.7541 19.0494 9.50278 19.2561 8.10455 19.6693C6.90218 20.0228 5.75966 20.2022 4.62257 20.2022C3.47461 20.2022 2.33207 20.0228 1.1297 19.6693Z" fill="black"/>
<path d="M12.9113 10.1514L20.4706 5.94796V7.0228L13.6081 10.8261L12.9113 10.1514Z" fill="black"/>
<path d="M4.00906 19.6924L15.5687 13.8027L16.1264 14.917L7.02673 19.4016C6.0423 19.5397 5.03177 19.6924 4.00906 19.6924Z" fill="black"/>
<path d="M8.90869 18.9806L17.5639 14.664L18.0664 15.7408L12.1803 18.5402C11.3189 18.612 10.1702 18.6839 8.90869 18.9806Z" fill="black"/>
</svg>
