<svg width="24" height="24" viewBox="0 0 24 24" fill="none" xmlns="http://www.w3.org/2000/svg">
<path d="M16.1547 3.7998C16.1547 3.24891 15.7077 2.80212 15.1565 2.80212C14.6053 2.80212 14.1583 3.24891 14.1583 3.7998C14.1583 4.35069 14.6053 4.79747 15.1565 4.79747C15.7077 4.79747 16.1547 4.35069 16.1547 3.7998Z" fill="black"/>
<path d="M6.30276 18.765C8.69407 18.765 10.6427 16.8173 10.6427 14.4272C10.6427 12.0372 8.69407 10.0895 6.30276 10.0895C3.91146 10.0895 1.96282 12.0372 1.96282 14.4272C1.96282 16.8173 3.91146 18.765 6.30276 18.765ZM6.30276 11.2607C8.05176 11.2607 9.47092 12.6791 9.47092 14.4272C9.47092 16.1753 8.05176 17.5938 6.30276 17.5938C4.55377 17.5938 3.13461 16.1753 3.13461 14.4272C3.13461 12.6791 4.55811 11.2607 6.30276 11.2607Z" fill="black"/>
<path d="M17.629 18.765C20.0203 18.765 21.9689 16.8173 21.9689 14.4272C21.9689 12.0372 20.0203 10.0895 17.629 10.0895C15.2377 10.0895 13.2891 12.0372 13.2891 14.4272C13.2891 16.8173 15.2377 18.765 17.629 18.765ZM17.629 11.2607C19.378 11.2607 20.7972 12.6791 20.7972 14.4272C20.7972 16.1753 19.378 17.5938 17.629 17.5938C15.88 17.5938 14.4608 16.1753 14.4608 14.4272C14.4608 12.6791 15.8843 11.2607 17.629 11.2607Z" fill="black"/>
<path d="M18.2379 9.43445V8.26327C16.055 8.26327 14.5316 7.25258 13.7027 5.26591L13.3859 4.51114L8.68573 8.65366C8.68139 8.64932 8.67272 8.64932 8.66838 8.64499L7.65716 9.53422C9.80109 10.1285 11.3808 12.0978 11.3808 14.4272V15.555H12.5526V14.4272C12.5526 12.2713 11.4546 10.3671 9.78807 9.24359L12.9692 6.44142C14.0499 8.40641 15.8553 9.43445 18.2379 9.43445Z" fill="black"/>
<path d="M1.38129 20.3005H22.6187V21.1979H1.38129V20.3005Z" fill="black"/>
<path d="M1.38129 4.1481H12.1495L11.1026 5.04546H1.38129V4.1481Z" fill="black"/>
<path d="M17.0351 4.1481H22.6187V5.04546H16.412C16.7859 4.74634 16.8542 4.5884 17.0351 4.1481Z" fill="black"/>
</svg>
