<svg width="24" height="24" viewBox="0 0 24 24" fill="none" xmlns="http://www.w3.org/2000/svg">
<path d="M10.8732 16.5866C9.65171 18.9176 8.19181 21.7449 7.91443 22.5527L6.6151 22.105C6.91681 21.234 8.31348 18.5088 9.53007 16.1924C9.91938 16.3773 10.3865 16.5087 10.8732 16.5866Z" fill="black"/>
<path d="M13.5157 16.4746C13.8515 18.6742 13.9683 20.8982 14.1435 23.1172L12.7566 23.1367L12.1483 16.6644C12.6398 16.6498 13.1118 16.5865 13.5157 16.4746ZM18.1096 10.4695C17.8371 10.4403 17.4283 10.4014 16.9514 10.3625C15.9051 10.27 14.5377 10.1532 13.1216 9.93422C12.6155 9.85636 12.1045 9.7639 11.6032 9.6617C11.8612 10.2797 12.1629 11.0243 12.3673 11.5791C12.2748 11.7056 11.4281 11.7105 10.8684 11.5207C10.5667 10.7518 10.3234 10.0267 10.0703 9.27726L10.0217 9.26266C7.90967 8.51811 5.34997 7.51077 5.78308 4.68827C5.85608 4.2065 6.39623 3.34029 7.15538 2.1091C7.40357 1.70519 7.67609 1.26235 7.91941 0.863312L9.09221 1.57379C8.7905 2.07503 8.5423 2.46921 8.32331 2.82932C7.65175 3.91452 7.17486 4.67854 7.14566 4.89266C6.75149 7.4621 11.5351 8.29913 13.326 8.57651C14.6934 8.78576 16.0414 8.90255 17.0682 8.99501C17.5208 9.03394 17.9149 9.06801 18.2653 9.10694L18.1096 10.4695Z" fill="black"/>
<path d="M10.6837 6.73703C11.3017 6.73703 11.8029 6.23579 11.8029 5.61776C11.8029 4.99973 11.3017 4.4985 10.6837 4.4985C10.0656 4.4985 9.5644 4.99973 9.5644 5.61776C9.5644 6.23579 10.0656 6.73703 10.6837 6.73703Z" fill="black"/>
<path d="M11.8807 4.39624C12.3576 4.03126 12.9659 3.75388 13.4671 3.70035C13.7299 3.67115 13.9684 3.70522 14.1679 3.81228C14.3917 3.93394 14.5523 4.13346 14.6107 4.4303C14.674 4.74662 14.6107 5.18947 14.3674 5.7783C14.3626 5.7929 14.3577 5.80749 14.3528 5.82209C14.3139 5.93888 14.3333 6.03621 14.3869 6.1092C14.455 6.20653 14.5718 6.28926 14.7032 6.34279C14.7275 6.35252 14.7567 6.36226 14.7859 6.37199L14.5767 7.02895C14.5329 7.01435 14.4891 6.99976 14.4453 6.98029C14.1971 6.8781 13.9684 6.7175 13.8224 6.49851C13.6569 6.25519 13.5937 5.95835 13.7007 5.61283C13.7104 5.58364 13.7202 5.54957 13.7348 5.51551C13.9197 5.06293 13.9732 4.75636 13.9343 4.56171C13.9197 4.48384 13.8856 4.44005 13.8418 4.41571C13.7737 4.37678 13.6667 4.36704 13.5353 4.38164C13.1606 4.42057 12.6837 4.64443 12.2992 4.93641L11.8807 4.39624Z" fill="black"/>
<path d="M14.6691 13.3845C15.0536 13.5256 15.4721 13.6375 15.9052 13.7105L16.5427 13.8176L16.0999 14.2847C15.4916 14.9271 14.8005 15.3699 14.09 15.6473C12.416 16.3092 8.9414 15.949 8.63482 14.2361C8.63482 14.2361 8.90735 13.9684 9.25773 13.6229C9.28206 13.6473 9.3064 13.6716 9.3356 13.6959C9.35993 13.7202 9.38912 13.7397 9.41831 13.764C10.7809 14.8687 13.5937 14.9174 14.6691 13.3845ZM12.562 12.1971C12.854 12.4599 13.3114 12.7713 13.8759 13.0487C13.2044 14.1242 10.1142 13.8224 9.84657 13.0487C10.3235 12.5864 10.776 12.1484 10.8588 12.0851C11.1653 12.2603 12.1289 12.3528 12.562 12.1971Z" fill="black"/>
</svg>
