<svg width="24" height="24" viewBox="0 0 24 24" fill="none" xmlns="http://www.w3.org/2000/svg">
<path d="M11.9666 18.4151C12.2376 17.2139 12.2427 15.9922 11.982 14.8727C11.8644 14.3769 11.7008 13.9015 11.481 13.4568H9.90151C10.7449 14.7245 11.0108 16.3807 10.6223 18.1084L10.3974 19.1052H11.8133L11.9666 18.4151Z" fill="black"/>
<path d="M16.5574 12.5877L13.3267 5.41088L12.5753 6.15719C11.3127 7.41468 10.1984 8.82041 9.26804 10.3386H10.9089C11.507 9.44915 12.1715 8.60571 12.8974 7.81339L14.4258 11.2076H3.14929V12.5877H16.5574Z" fill="black"/>
<path d="M20.8507 19.366H19.4603C19.3888 19.7136 19.0821 19.9743 18.714 19.9743H3.19483V21.3545H18.714C19.8437 21.3545 20.7741 20.4753 20.8507 19.366Z" fill="black"/>
<path d="M15.0897 4.99687C15.7389 4.99687 16.2654 4.47036 16.2654 3.82117C16.2654 3.17199 15.7389 2.64548 15.0897 2.64548C14.4405 2.64548 13.914 3.17199 13.914 3.82117C13.914 4.47036 14.4405 4.99687 15.0897 4.99687Z" fill="black"/>
</svg>
