<svg width="24" height="24" viewBox="0 0 24 24" fill="none" xmlns="http://www.w3.org/2000/svg">
<path fill-rule="evenodd" clip-rule="evenodd" d="M6.62061 4.58188L3.47671 11.87L6.62061 19.1582H17.2258L20.5126 11.87L17.2258 4.58188H6.62061ZM18.1017 3.22595H5.72881L2 11.87L5.72881 20.5141H18.1017L22 11.87L18.1017 3.22595Z" fill="black"/>
<path d="M15.767 9.55569C16.3462 9.51949 16.7852 9.01716 16.749 8.43792C16.7128 7.85868 16.2105 7.41973 15.6312 7.45593C15.052 7.49214 14.613 7.99444 14.6492 8.57368C14.6854 9.15292 15.1878 9.59189 15.767 9.55569Z" fill="black"/>
<path d="M13.7079 10.3432C13.011 10.5649 12.192 10.7504 11.3774 10.9315C9.53558 11.3433 7.71639 11.7505 7.79332 12.452C7.84762 12.9724 7.94715 13.4792 8.03766 13.9544C8.28655 15.2441 8.49475 16.3121 7.825 17.0633C6.63937 18.3983 4.52148 19.8735 3.31774 20.7152L3.23178 20.7741L2.50318 19.7242L2.58918 19.6654C3.74314 18.8599 5.77502 17.4434 6.86562 16.217C7.11452 15.9365 6.96516 15.1446 6.77962 14.1942C6.68007 13.6919 6.57599 13.1489 6.51716 12.5832C6.40403 11.5243 7.14618 10.8998 8.25036 10.4608C10.0017 9.76392 11.9702 9.52859 13.7848 8.9765L14.0835 9.2978L13.7079 10.3432Z" fill="black"/>
<path d="M9.71149 11.9812C10.7704 12.5152 12.8883 14.1534 12.3272 15.5472C11.852 16.7283 9.58027 17.1582 8.43083 17.3573C8.81548 16.941 8.89695 16.6876 8.98293 16.0767C9.40379 16.0042 11.1234 15.5879 11.1325 15.0992C11.146 14.6783 10.5713 14.1715 10.2545 13.9181C9.52595 13.3298 9.07346 13.0718 8.32225 12.7188C8.37655 12.2618 9.42187 11.9495 9.71149 11.9812Z" fill="black"/>
<path d="M19.4907 10.6734C19.3594 11.0445 19.201 11.488 18.9612 11.9179C18.6942 12.3931 18.3322 12.832 17.8163 13.1216C17.2235 13.4565 16.6623 13.461 16.1283 13.2438C15.6668 13.0538 15.2549 12.7008 14.8658 12.2528C14.3137 11.6192 13.7932 10.9359 13.2638 10.248C12.6664 9.46516 12.06 8.67776 11.3948 7.94465C11.2138 7.74554 11.0509 7.60073 10.897 7.5419C10.7703 7.49665 10.6029 7.51023 10.3721 7.60978C10.3223 7.63241 10.0282 7.8994 9.66613 8.24333C9.06878 8.809 8.3583 9.53304 8.12751 9.79098L7.17719 8.93117C7.41703 8.66417 8.15921 7.90845 8.78824 7.31111C9.2453 6.87667 9.67068 6.51464 9.87432 6.42414C10.4309 6.18882 10.897 6.17976 11.3224 6.3291C11.7207 6.46938 12.0374 6.73638 12.3451 7.07578C13.033 7.83151 13.6575 8.65061 14.2775 9.46064C14.7888 10.1259 15.2911 10.7866 15.8296 11.402C16.0966 11.7097 16.3591 11.9451 16.608 12.0491C16.7845 12.1216 16.9791 12.117 17.1872 11.9994C17.4678 11.841 17.676 11.5785 17.8434 11.2798C18.0335 10.9404 18.1693 10.5603 18.2824 10.239L19.4907 10.6734Z" fill="black"/>
</svg>
