<svg width="24" height="24" viewBox="0 0 24 24" fill="none" xmlns="http://www.w3.org/2000/svg">
<path d="M4.24634 11.6603V9.28251L6.90477 11.6702V9.88311L2.91712 6.29915V11.6505L4.24634 11.6603Z" fill="black"/>
<path d="M2.47385 4.12317C2.47385 4.74839 2.98092 5.25547 3.60614 5.25547C4.23137 5.25547 4.73844 4.74839 4.73844 4.12317C4.73844 3.49795 4.23137 2.99088 3.60614 2.99088C2.98092 2.99088 2.47385 3.49795 2.47385 4.12317Z" fill="black"/>
<path d="M8.97244 19.6799H2.91712V21.0091H8.97244V19.6799Z" fill="black"/>
<path d="M20.3205 19.3599H18.9912C18.9912 19.5371 18.8485 19.6799 18.6712 19.6799H13.9944V21.0091H18.6712C19.582 21.0091 20.3205 20.2706 20.3205 19.3599Z" fill="black"/>
<path d="M7.74171 11.6751L9.07093 11.68V9.28251L11.754 11.6899L13.7527 11.6997L7.74171 6.29915V11.6751Z" fill="black"/>
<path d="M7.29902 4.12317C7.29902 4.74839 7.80609 5.25547 8.43131 5.25547C9.05654 5.25547 9.56361 4.74839 9.56361 4.12317C9.56361 3.49795 9.05654 2.99088 8.43131 2.99088C7.80609 2.99088 7.29902 3.49795 7.29902 4.12317Z" fill="black"/>
<path d="M17.7354 12.2954C19.0942 12.2954 20.1969 13.3982 20.1969 14.7569C20.1969 16.1157 19.0942 17.2184 17.7354 17.2184H4.24634V13.8265L14.4813 13.8708L14.4862 13.2997L14.4912 12.5416L2.91712 12.4874V18.5477H17.7354C19.8277 18.5477 21.5261 16.8492 21.5261 14.7569C21.5261 12.6646 19.8277 10.9662 17.7354 10.9662H14.4862V12.2954H17.7354Z" fill="black"/>
</svg>
