<svg width="24" height="24" viewBox="0 0 24 24" fill="none" xmlns="http://www.w3.org/2000/svg">
<path d="M4.12389 8.54871C4.12389 9.13521 3.64844 9.61066 3.06195 9.61066C2.47545 9.61066 2 9.13521 2 8.54871C2 7.96221 2.47545 7.48676 3.06195 7.48676C3.64844 7.48676 4.12389 7.96221 4.12389 8.54871Z" fill="black"/>
<path d="M15.0973 8.54871C15.0973 9.13521 14.6219 9.61066 14.0354 9.61066C13.4489 9.61066 12.9734 9.13521 12.9734 8.54871C12.9734 7.96221 13.4489 7.48676 14.0354 7.48676C14.6219 7.48676 15.0973 7.96221 15.0973 8.54871Z" fill="black"/>
<path d="M4.12389 10.8495C4.12389 11.436 3.64844 11.9115 3.06195 11.9115C2.47545 11.9115 2 11.436 2 10.8495C2 10.263 2.47545 9.78757 3.06195 9.78757C3.64844 9.78757 4.12389 10.263 4.12389 10.8495Z" fill="black"/>
<path d="M15.0973 10.8495C15.0973 11.436 14.6219 11.9115 14.0354 11.9115C13.4489 11.9115 12.9734 11.436 12.9734 10.8495C12.9734 10.263 13.4489 9.78757 14.0354 9.78757C14.6219 9.78757 15.0973 10.263 15.0973 10.8495Z" fill="black"/>
<path d="M4.12389 13.1505C4.12389 13.737 3.64844 14.2124 3.06195 14.2124C2.47545 14.2124 2 13.737 2 13.1505C2 12.564 2.47545 12.0885 3.06195 12.0885C3.64844 12.0885 4.12389 12.564 4.12389 13.1505Z" fill="black"/>
<path d="M15.0973 13.1505C15.0973 13.737 14.6219 14.2124 14.0354 14.2124C13.4489 14.2124 12.9734 13.737 12.9734 13.1505C12.9734 12.564 13.4489 12.0885 14.0354 12.0885C14.6219 12.0885 15.0973 12.564 15.0973 13.1505Z" fill="black"/>
<path d="M4.12389 15.4514C4.12389 16.0379 3.64844 16.5133 3.06195 16.5133C2.47545 16.5133 2 16.0379 2 15.4514C2 14.8649 2.47545 14.3894 3.06195 14.3894C3.64844 14.3894 4.12389 14.8649 4.12389 15.4514Z" fill="black"/>
<path d="M15.0973 15.4514C15.0973 16.0379 14.6219 16.5133 14.0354 16.5133C13.4489 16.5133 12.9734 16.0379 12.9734 15.4514C12.9734 14.8649 13.4489 14.3894 14.0354 14.3894C14.6219 14.3894 15.0973 14.8649 15.0973 15.4514Z" fill="black"/>
<path d="M6.33629 17.5752C6.33629 18.1617 5.86084 18.6371 5.27434 18.6371C4.68785 18.6371 4.2124 18.1617 4.2124 17.5752C4.2124 16.9887 4.68785 16.5132 5.27434 16.5132C5.86084 16.5132 6.33629 16.9887 6.33629 17.5752Z" fill="black"/>
<path d="M17.3097 17.5752C17.3097 18.1617 16.8343 18.6371 16.2478 18.6371C15.6613 18.6371 15.1859 18.1617 15.1859 17.5752C15.1859 16.9887 15.6613 16.5132 16.2478 16.5132C16.8343 16.5132 17.3097 16.9887 17.3097 17.5752Z" fill="black"/>
<path d="M11.0265 8.54871C11.0265 9.13521 10.5511 9.61066 9.96456 9.61066C9.37806 9.61066 8.90261 9.13521 8.90261 8.54871C8.90261 7.96221 9.37806 7.48676 9.96456 7.48676C10.5511 7.48676 11.0265 7.96221 11.0265 8.54871Z" fill="black"/>
<path d="M22 8.54871C22 9.13521 21.5246 9.61066 20.9381 9.61066C20.3516 9.61066 19.8761 9.13521 19.8761 8.54871C19.8761 7.96221 20.3516 7.48676 20.9381 7.48676C21.5246 7.48676 22 7.96221 22 8.54871Z" fill="black"/>
<path d="M6.33629 6.4248C6.33629 7.0113 5.86084 7.48675 5.27434 7.48675C4.68785 7.48675 4.2124 7.0113 4.2124 6.4248C4.2124 5.8383 4.68785 5.36285 5.27434 5.36285C5.86084 5.36285 6.33629 5.8383 6.33629 6.4248Z" fill="black"/>
<path d="M17.3097 6.4248C17.3097 7.0113 16.8343 7.48675 16.2478 7.48675C15.6613 7.48675 15.1859 7.0113 15.1859 6.4248C15.1859 5.8383 15.6613 5.36285 16.2478 5.36285C16.8343 5.36285 17.3097 5.8383 17.3097 6.4248Z" fill="black"/>
<path d="M8.63713 6.4248C8.63713 7.0113 8.16168 7.48675 7.57519 7.48675C6.98869 7.48675 6.51324 7.0113 6.51324 6.4248C6.51324 5.8383 6.98869 5.36285 7.57519 5.36285C8.16168 5.36285 8.63713 5.8383 8.63713 6.4248Z" fill="black"/>
<path d="M19.6106 6.4248C19.6106 7.0113 19.1352 7.48675 18.5487 7.48675C17.9622 7.48675 17.4867 7.0113 17.4867 6.4248C17.4867 5.8383 17.9622 5.36285 18.5487 5.36285C19.1352 5.36285 19.6106 5.8383 19.6106 6.4248Z" fill="black"/>
<path d="M8.63713 17.5752C8.63713 18.1617 8.16168 18.6371 7.57519 18.6371C6.98869 18.6371 6.51324 18.1617 6.51324 17.5752C6.51324 16.9887 6.98869 16.5132 7.57519 16.5132C8.16168 16.5132 8.63713 16.9887 8.63713 17.5752Z" fill="black"/>
<path d="M19.6106 17.5752C19.6106 18.1617 19.1352 18.6371 18.5487 18.6371C17.9622 18.6371 17.4867 18.1617 17.4867 17.5752C17.4867 16.9887 17.9622 16.5132 18.5487 16.5132C19.1352 16.5132 19.6106 16.9887 19.6106 17.5752Z" fill="black"/>
<path d="M11.0265 15.4514C11.0265 16.0379 10.5511 16.5133 9.96456 16.5133C9.37806 16.5133 8.90261 16.0379 8.90261 15.4514C8.90261 14.8649 9.37806 14.3894 9.96456 14.3894C10.5511 14.3894 11.0265 14.8649 11.0265 15.4514Z" fill="black"/>
<path d="M22 15.4514C22 16.0379 21.5246 16.5133 20.9381 16.5133C20.3516 16.5133 19.8761 16.0379 19.8761 15.4514C19.8761 14.8649 20.3516 14.3894 20.9381 14.3894C21.5246 14.3894 22 14.8649 22 15.4514Z" fill="black"/>
<path d="M11.0265 13.1505C11.0265 13.737 10.5511 14.2124 9.96456 14.2124C9.37806 14.2124 8.90261 13.737 8.90261 13.1505C8.90261 12.564 9.37806 12.0885 9.96456 12.0885C10.5511 12.0885 11.0265 12.564 11.0265 13.1505Z" fill="black"/>
<path d="M22 13.1505C22 13.737 21.5246 14.2124 20.9381 14.2124C20.3516 14.2124 19.8761 13.737 19.8761 13.1505C19.8761 12.564 20.3516 12.0885 20.9381 12.0885C21.5246 12.0885 22 12.564 22 13.1505Z" fill="black"/>
<path d="M8.63713 13.1505C8.63713 13.737 8.16168 14.2124 7.57519 14.2124C6.98869 14.2124 6.51324 13.737 6.51324 13.1505C6.51324 12.564 6.98869 12.0885 7.57519 12.0885C8.16168 12.0885 8.63713 12.564 8.63713 13.1505Z" fill="black"/>
<path d="M22 10.8495C22 11.436 21.5246 11.9115 20.9381 11.9115C20.3516 11.9115 19.8761 11.436 19.8761 10.8495C19.8761 10.263 20.3516 9.78757 20.9381 9.78757C21.5246 9.78757 22 10.263 22 10.8495Z" fill="black"/>
</svg>
