<svg width="24" height="24" viewBox="0 0 24 24" fill="none" xmlns="http://www.w3.org/2000/svg">
<path d="M12.1286 12.8404C12.108 12.8559 12.0874 12.8714 12.0668 12.8868V21.384H13.4589V11.6855C13.0516 12.1083 12.6082 12.4898 12.1286 12.8404Z" fill="black"/>
<path d="M10.7934 11.0049C9.58171 11.8866 8.08644 12.428 6.47776 12.5775C5.03922 12.7064 3.54913 12.5156 2.2034 12.031V13.5004C3.29133 13.8356 4.44629 14.0109 5.59093 14.0109C5.93123 14.0109 6.26635 13.9954 6.6015 13.9645C8.46283 13.7943 10.1953 13.1601 11.608 12.1341C12.9125 11.1854 13.9128 9.94793 14.6037 8.43721H14.6089C14.7687 8.00925 14.8873 7.55037 14.9698 7.05023C14.9543 7.05023 14.9388 7.05023 14.9234 7.05023C12.2422 7.05023 9.99419 5.14249 9.47343 2.61603H8.05551C8.45253 5.03421 10.1076 7.03991 12.3196 7.93707C12.5928 8.04534 12.8764 8.14331 13.1652 8.21549C12.5877 9.34467 11.7937 10.2779 10.7934 11.0049Z" fill="black"/>
<path d="M14.9284 5.91587C15.5832 5.91587 16.1143 5.38479 16.1143 4.72998C16.1143 4.07516 15.5832 3.54409 14.9284 3.54409C14.2736 3.54409 13.7425 4.07516 13.7425 4.72998C13.7374 5.38479 14.2685 5.91587 14.9284 5.91587Z" fill="black"/>
<path d="M15.8723 6.96773C15.8001 7.47818 15.6918 7.96285 15.5475 8.41143C15.5578 8.41143 15.5629 8.41143 15.5733 8.41143C18.7339 8.11753 21.2862 5.70966 21.7966 2.61603H20.3787C19.9147 4.84344 18.1204 6.58103 15.8723 6.96773Z" fill="black"/>
</svg>
