<svg width="24" height="24" viewBox="0 0 24 24" fill="none" xmlns="http://www.w3.org/2000/svg">
<path d="M16.5287 4.44503C16.5287 3.84908 16.0454 3.36575 15.4495 3.36575C14.8535 3.36575 14.3702 3.84908 14.3702 4.44503C14.3702 5.04099 14.8535 5.52432 15.4495 5.52432C16.0454 5.52432 16.5287 5.04099 16.5287 4.44503Z" fill="black"/>
<path d="M5.87647 20.6342C8.46205 20.6342 10.569 18.5273 10.569 15.9417C10.569 13.3561 8.46205 11.2492 5.87647 11.2492C3.29088 11.2492 1.18394 13.3561 1.18394 15.9417C1.18394 18.5273 3.29088 20.6342 5.87647 20.6342ZM5.87647 12.5162C7.76755 12.5162 9.30201 14.0506 9.30201 15.9417C9.30201 17.8328 7.76755 19.3673 5.87647 19.3673C3.98538 19.3673 2.45092 17.8328 2.45092 15.9417C2.45092 14.0506 3.99007 12.5162 5.87647 12.5162Z" fill="black"/>
<path d="M18.1235 20.6342C20.7091 20.6342 22.8161 18.5273 22.8161 15.9417C22.8161 13.3561 20.7091 11.2492 18.1235 11.2492C15.538 11.2492 13.431 13.3561 13.431 15.9417C13.431 18.5273 15.538 20.6342 18.1235 20.6342ZM18.1235 12.5162C20.0146 12.5162 21.5491 14.0506 21.5491 15.9417C21.5491 17.8328 20.0146 19.3673 18.1235 19.3673C16.2324 19.3673 14.698 17.8328 14.698 15.9417C14.698 14.0506 16.2371 12.5162 18.1235 12.5162Z" fill="black"/>
<path d="M18.781 10.5406V9.27361C16.4207 9.27361 14.7736 8.18026 13.8773 6.03108L13.5348 5.21457L8.45276 9.69594C8.44807 9.69124 8.43869 9.69125 8.43399 9.68655L7.34062 10.6485C9.65873 11.2914 11.3668 13.4218 11.3668 15.9417V17.1618H12.6338V15.9417C12.6338 13.6095 11.4466 11.5495 9.64466 10.3341L13.0843 7.30275C14.2527 9.42846 16.2048 10.5406 18.781 10.5406Z" fill="black"/>
</svg>
