<svg width="24" height="24" viewBox="0 0 24 24" fill="none" xmlns="http://www.w3.org/2000/svg">
<path d="M9.66764 12.0922C10.7464 12.6361 12.9039 14.3049 12.3322 15.7248C11.8482 16.928 9.53395 17.366 8.36302 17.5688C8.75487 17.1447 8.83786 16.8865 8.92544 16.2642C9.35417 16.1904 11.106 15.7663 11.1152 15.2684C11.129 14.8397 10.5435 14.3234 10.2208 14.0652C9.47863 13.4659 9.01766 13.2032 8.25241 12.8436C8.30772 12.378 9.3726 12.0599 9.66764 12.0922Z" fill="black"/>
<path d="M19.6298 10.7599C19.4961 11.1379 19.3347 11.5897 19.0904 12.0276C18.8184 12.5117 18.4496 12.9589 17.9241 13.2539C17.3202 13.595 16.7486 13.5997 16.2046 13.3784C15.7344 13.1848 15.3148 12.8252 14.9184 12.3688C14.356 11.7234 13.8258 11.0273 13.2864 10.3266C12.6779 9.52902 12.0602 8.72689 11.3825 7.98007C11.1981 7.77723 11.0321 7.62972 10.8754 7.56979C10.7463 7.52369 10.5758 7.53752 10.3407 7.63894C10.29 7.66199 9.99028 7.93398 9.62148 8.28434C9.01296 8.86059 8.2892 9.59817 8.05409 9.86094L7.08599 8.98504C7.33032 8.71305 8.08638 7.94319 8.72717 7.33468C9.19278 6.89212 9.62612 6.52331 9.83357 6.43111C10.4006 6.19139 10.8754 6.18217 11.3088 6.3343C11.7144 6.47721 12.0371 6.7492 12.3506 7.09495C13.0513 7.86482 13.6875 8.69923 14.3191 9.52442C14.84 10.2021 15.3517 10.8751 15.9003 11.5021C16.1723 11.8156 16.4397 12.0553 16.6932 12.1613C16.873 12.2351 17.0712 12.2305 17.2833 12.1106C17.5691 11.9493 17.7812 11.6819 17.9517 11.3776C18.1454 11.0319 18.2837 10.6447 18.3989 10.3173L19.6298 10.7599Z" fill="black"/>
<path d="M15.8364 9.62126C16.4265 9.58438 16.8736 9.07266 16.8368 8.48258C16.7999 7.89251 16.2882 7.44535 15.6981 7.48223C15.108 7.51911 14.6609 8.0308 14.6977 8.62088C14.7346 9.21096 15.2463 9.65814 15.8364 9.62126Z" fill="black"/>
<path d="M13.7388 10.4234C13.0289 10.6493 12.1945 10.8383 11.3647 11.0227C9.48844 11.4423 7.63522 11.8572 7.71359 12.5717C7.76891 13.1018 7.8703 13.6182 7.9625 14.1022C8.21605 15.416 8.42814 16.504 7.74586 17.2693C6.53805 18.6292 4.38055 20.1321 3.15429 20.9895L3.06673 21.0495L2.32449 19.9799L2.4121 19.92C3.58765 19.0994 5.65753 17.6565 6.76854 16.4072C7.02209 16.1214 6.86994 15.3146 6.68093 14.3465C6.57951 13.8348 6.47349 13.2816 6.41356 12.7054C6.29831 11.6266 7.05434 10.9905 8.17918 10.5433C9.96324 9.83337 11.9686 9.59364 13.8172 9.03122L14.1215 9.35853L13.7388 10.4234Z" fill="black"/>
<path d="M12.3826 2.58641L22.1881 9.70884L18.2972 21.6902H5.70737L5.24173 20.2611L6.34813 19.4497L6.65241 20.381H17.3522L20.6575 10.2113L12 3.92331L3.34704 10.2113L5.47223 16.7575L4.39352 17.6518L1.81193 9.70884L12 2.30981L12.3826 2.58641Z" fill="black"/>
</svg>
