<svg width="24" height="24" viewBox="0 0 24 24" fill="none" xmlns="http://www.w3.org/2000/svg">
<path d="M12.0001 10.3437C12.6188 10.3437 13.1206 9.84198 13.1206 9.2233C13.1206 8.60463 12.6188 8.10287 12.0001 8.10287C11.3815 8.10287 10.8797 8.60463 10.8797 9.2233C10.8797 9.84198 11.3815 10.3437 12.0001 10.3437Z" fill="black"/>
<path d="M9.1161 7.0068H7.70338C8.96022 10.1196 9.67632 13.3933 9.79323 16.5889H11.1085C10.9916 13.3933 10.3145 10.1245 9.1161 7.0068Z" fill="black"/>
<path d="M12.8964 16.5841H14.2117C14.3286 13.3884 15.0447 10.1148 16.3015 7.00195H14.8888C13.6855 10.1245 13.0084 13.3933 12.8964 16.5841Z" fill="black"/>
<path d="M16.5061 4.86333H7.4939V6.17862H16.5061V4.86333Z" fill="black"/>
<path d="M18.6495 3.13397H17.3342V7.85927H18.6495V3.13397Z" fill="black"/>
<path d="M20.7929 3.13397H19.4776V7.85927H20.7929V3.13397Z" fill="black"/>
<path d="M6.6658 3.13397H5.35051V7.90798H6.6658V3.13397Z" fill="black"/>
<path d="M4.5224 3.13397H3.20711V7.90798H4.5224V3.13397Z" fill="black"/>
<path d="M6.91928 17.417L8.45866 20.866H9.89573L8.9458 18.7323H15.0546L14.1047 20.866H15.5417L17.0811 17.417H6.91928Z" fill="black"/>
</svg>
