<svg width="24" height="24" fill="none" xmlns="http://www.w3.org/2000/svg"><path d="M18.214 22H5.786c-1.144 0-2.071-.895-2.071-2V4c0-1.104.927-2 2.071-2h7.25a.112.112 0 0 1 .028 0h.006a.16.16 0 0 0 .03.007c.091.006.182.023.268.05h.044a.44.44 0 0 1 .054.044c.113.048.215.116.303.2l6.214 6a.987.987 0 0 1 .207.293.74.74 0 0 1 .024.066l.01.028a.91.91 0 0 1 .051.258c.001.01.004.02.007.029v.006a.104.104 0 0 1 .004.02v11c0 .53-.219 1.038-.607 1.413a2.11 2.11 0 0 1-1.465.586ZM13.036 4v5h5.178l-5.178-5Z" fill="#000"/></svg>