<svg width="24" height="24" fill="none" xmlns="http://www.w3.org/2000/svg"><path d="M2.765 4.926c.199.187 9.207 7.582 9.238 7.582.035 0 9.148-7.38 9.336-7.563l.098-.093H12.06c-9.187 0-9.37 0-9.296.074Z" fill="#000"/><path d="M2.003 12.367c0 5.328.008 6.293.055 6.383.074.14.254.305.386.355.078.032 2.98.043 9.563.043 7.851 0 9.473-.007 9.578-.054.145-.059.367-.297.398-.426.012-.047.016-2.871.012-6.273l-.012-6.188-4.707 3.824c-2.59 2.106-4.777 3.88-4.859 3.942-.137.101-.188.117-.414.117-.227 0-.277-.016-.414-.117-.082-.063-2.254-1.844-4.82-3.961-2.567-2.114-4.692-3.86-4.715-3.883-.04-.027-.051 1.223-.051 6.238Z" fill="#000"/></svg>