<svg width="24" height="24" fill="none" xmlns="http://www.w3.org/2000/svg"><path d="M20.889 22H3.11A1.111 1.111 0 0 1 2 20.889V3.11C2 2.497 2.497 2 3.111 2H20.89c.613 0 1.11.497 1.11 1.111V20.89a1.11 1.11 0 0 1-1.111 1.111Zm-10-11.111A1.11 1.11 0 0 0 9.778 12v.556c0 .306.248.555.555.555.307 0 .556.249.556.556v2.222c0 .92.746 1.667 1.667 1.667h.555c.614 0 1.111-.498 1.111-1.112v-.555a.556.556 0 0 0-.555-.556.556.556 0 0 1-.556-.555v-2.222c0-.92-.746-1.667-1.667-1.667h-.555ZM12 6.444a1.111 1.111 0 0 0 0 2.222 1.111 1.111 0 0 0 0-2.222Z" fill="#000"/></svg>