<svg width="24" height="24" fill="none" xmlns="http://www.w3.org/2000/svg"><path d="M18.834 2.596a2.254 2.254 0 0 0-.914.312c-.34.203-3.093 2.743-3.289 3.028a2.347 2.347 0 0 0-.367 1.566c.078.563.27.95.703 1.422l.258.285 2.969-2.707c1.629-1.492 2.969-2.734 2.976-2.762.008-.027-.14-.207-.332-.394-.597-.602-1.234-.84-2.004-.75Zm.176 4.453-2.457 2.25-.156.14.156.133c.082.07.305.204.492.293.29.145.336.18.317.246-.055.196-.543 1.157-.82 1.621a12.153 12.153 0 0 1-2.708 3.137c-.75.602-1.882 1.29-2.836 1.719-.417.191-1.234.512-1.375.543-.03.008-.093-.098-.16-.281-.117-.309-.312-.668-.375-.692-.039-.011-4.91 4.414-4.933 4.48-.016.044.488.372.754.493.257.113.554.195.918.254.328.05 1.55.05 2.03-.004 3.395-.375 6.7-2.09 9.762-5.059 2.489-2.414 4.012-5.152 4.34-7.793.098-.796.016-2.046-.171-2.699-.07-.242-.38-.863-.438-.879-.02-.008-1.07.938-2.34 2.098Zm-12.7 6.793c-.315.082-.67.25-.882.418-.281.226-2.68 2.434-2.875 2.648a2.398 2.398 0 0 0-.512.989c-.062.293-.054.851.016 1.113.066.25.234.601.387.808.136.18.492.547.531.547.05 0 5.938-5.39 5.938-5.437 0-.024-.153-.196-.336-.387-.653-.664-1.454-.914-2.266-.7Z" fill="#000"/></svg>