<svg width="24" height="24" fill="none" xmlns="http://www.w3.org/2000/svg"><path d="M5.727 15.682a7.5 7.5 0 0 1-.75-1.773 6.997 6.997 0 0 1-.25-1.864c0-2.03.705-3.757 2.114-5.181C8.25 5.439 9.969 4.727 12 4.727h.159l-1.455-1.454L11.977 2l3.636 3.636-3.636 3.637L10.704 8l1.455-1.455h-.16c-1.514 0-2.802.535-3.863 1.603-1.06 1.068-1.59 2.367-1.59 3.898 0 .393.045.78.136 1.159.09.378.227.75.409 1.113l-1.364 1.364ZM12.023 22l-3.637-3.636 3.637-3.637L13.295 16l-1.454 1.454H12c1.515 0 2.803-.534 3.863-1.602 1.061-1.068 1.591-2.367 1.591-3.898 0-.393-.045-.78-.136-1.159a5.199 5.199 0 0 0-.41-1.113l1.364-1.364c.334.576.584 1.167.75 1.773.167.606.25 1.227.25 1.864 0 2.03-.704 3.757-2.113 5.181-1.41 1.425-3.129 2.137-5.16 2.137h-.158l1.454 1.454L12.023 22Z" fill="#000"/></svg>