<svg width="24" height="24" fill="none" xmlns="http://www.w3.org/2000/svg"><path d="M11.167 13.54c.703 0 1.296-.222 1.777-.667a2.15 2.15 0 0 0 .723-1.643c0-.65-.241-1.199-.723-1.644-.481-.445-1.074-.667-1.777-.667-.704 0-1.297.222-1.778.667a2.15 2.15 0 0 0-.722 1.644c0 .65.24 1.198.722 1.643.481.445 1.074.668 1.778.668Zm5.36 4.11-2.916-2.697a4.26 4.26 0 0 1-1.18.488 5.263 5.263 0 0 1-1.264.154c-1.315 0-2.43-.424-3.348-1.271-.916-.848-1.375-1.879-1.375-3.094 0-1.216.459-2.247 1.375-3.095.917-.847 2.033-1.27 3.348-1.27s2.43.423 3.347 1.27c.917.848 1.375 1.88 1.375 3.095a3.895 3.895 0 0 1-.722 2.26l2.944 2.721-1.583 1.438ZM4.223 21.243a2.23 2.23 0 0 1-1.57-.603C2.219 20.238 2 19.755 2 19.19v-4.11h2.222v4.109h4.445v2.054H4.222Zm11.111 0V19.19h4.445v-4.11H22v4.109c0 .565-.218 1.048-.653 1.45a2.23 2.23 0 0 1-1.57.604h-4.444ZM2 8.919V4.81c0-.565.218-1.048.653-1.45a2.23 2.23 0 0 1 1.57-.604h4.444V4.81H4.222v4.11H2Zm17.778 0V4.81h-4.445V2.756h4.445a2.23 2.23 0 0 1 1.57.603c.434.403.652.886.652 1.451v4.11h-2.222Z" fill="#000"/></svg>