<svg width="234" height="91" viewBox="0 0 234 91" fill="none" xmlns="http://www.w3.org/2000/svg">
<path d="M213.442 63.7751L211.599 61.0771L209.623 63.7751H205.709L209.623 58.6261L205.823 53.4771H209.889L211.713 56.0801L213.613 53.4771H217.432L213.632 58.4931L217.565 63.7751H213.442Z" fill="#272B37"/>
<path d="M199.49 53.3061C201.2 53.3061 202.505 53.6988 203.404 54.4841C204.304 55.2568 204.753 56.4475 204.753 58.0561V63.7751H201.39V62.4451C200.871 63.4458 199.858 63.9461 198.35 63.9461C197.552 63.9461 196.862 63.8068 196.279 63.5281C195.697 63.2495 195.253 62.8758 194.949 62.4071C194.658 61.9258 194.512 61.3811 194.512 60.7731C194.512 59.7978 194.886 59.0441 195.633 58.5121C196.381 57.9675 197.533 57.6951 199.091 57.6951H201.143C201.08 56.6058 200.352 56.0611 198.958 56.0611C198.464 56.0611 197.964 56.1435 197.457 56.3081C196.951 56.4601 196.52 56.6755 196.165 56.9541L194.949 54.5031C195.519 54.1231 196.21 53.8318 197.02 53.6291C197.844 53.4138 198.667 53.3061 199.49 53.3061ZM199.357 61.6661C199.775 61.6661 200.143 61.5648 200.459 61.3621C200.776 61.1595 201.004 60.8618 201.143 60.4691V59.5761H199.585C198.534 59.5761 198.008 59.9245 198.008 60.6211C198.008 60.9378 198.129 61.1911 198.369 61.3811C198.61 61.5711 198.939 61.6661 199.357 61.6661Z" fill="#272B37"/>
<path d="M193.892 56.3461H190.586V63.7751H186.995V56.3461H183.67V53.4771H193.892V56.3461Z" fill="#272B37"/>
<path d="M176.887 60.1081H175.671V63.7751H172.061V53.4771H175.671V57.2771H176.963L179.49 53.4771H183.309L179.851 58.4171L183.537 63.7751H179.281L176.887 60.1081Z" fill="#272B37"/>
<path d="M170.153 58.6451C170.153 58.6705 170.134 58.9681 170.096 59.5381H162.61C162.762 60.0701 163.053 60.4818 163.484 60.7731C163.927 61.0518 164.478 61.1911 165.137 61.1911C165.631 61.1911 166.055 61.1215 166.41 60.9821C166.777 60.8428 167.145 60.6148 167.512 60.2981L169.412 62.2741C168.411 63.3888 166.948 63.9461 165.023 63.9461C163.82 63.9461 162.762 63.7181 161.85 63.2621C160.938 62.8061 160.229 62.1728 159.722 61.3621C159.228 60.5515 158.981 59.6331 158.981 58.6071C158.981 57.5938 159.222 56.6881 159.703 55.8901C160.197 55.0795 160.875 54.4461 161.736 53.9901C162.597 53.5341 163.566 53.3061 164.643 53.3061C165.669 53.3061 166.6 53.5215 167.436 53.9521C168.272 54.3701 168.931 54.9845 169.412 55.7951C169.906 56.5931 170.153 57.5431 170.153 58.6451ZM164.662 55.8711C164.105 55.8711 163.636 56.0295 163.256 56.3461C162.889 56.6628 162.654 57.0935 162.553 57.6381H166.771C166.67 57.0935 166.429 56.6628 166.049 56.3461C165.682 56.0295 165.219 55.8711 164.662 55.8711Z" fill="#272B37"/>
<path d="M153.982 56.6691C155.338 56.6691 156.376 56.9731 157.098 57.5811C157.82 58.1765 158.181 59.0188 158.181 60.1081C158.181 61.2608 157.77 62.1601 156.946 62.8061C156.123 63.4521 154.977 63.7751 153.507 63.7751H148.168V56.3461H145.299V53.4771H151.759V56.6691H153.982ZM153.279 61.2861C153.685 61.2861 153.989 61.1785 154.191 60.9631C154.407 60.7478 154.514 60.4375 154.514 60.0321C154.514 59.2595 154.103 58.8731 153.279 58.8731H151.759V61.2861H153.279Z" fill="#272B37"/>
<path d="M140.166 54.3891C141.167 54.3891 142.034 54.5854 142.769 54.9781C143.504 55.3581 144.061 55.9091 144.441 56.6311C144.834 57.3404 145.03 58.1701 145.03 59.1201C145.03 60.0954 144.777 60.9568 144.27 61.7041C143.776 62.4388 143.086 63.0151 142.199 63.4331C141.325 63.8384 140.337 64.0411 139.235 64.0411C137.424 64.0411 135.98 63.4774 134.903 62.3501C133.826 61.2228 133.288 59.5318 133.288 57.2771C133.288 53.0464 135.163 50.5764 138.912 49.8671L143.909 48.9171L144.403 51.9381L140.071 52.7551C138.969 52.9578 138.158 53.2871 137.639 53.7431C137.132 54.1864 136.828 54.8324 136.727 55.6811C137.652 54.8198 138.798 54.3891 140.166 54.3891ZM139.254 61.3051C139.9 61.3051 140.407 61.0961 140.774 60.6781C141.154 60.2601 141.344 59.7408 141.344 59.1201C141.344 58.4614 141.154 57.9484 140.774 57.5811C140.394 57.2011 139.887 57.0111 139.254 57.0111C138.608 57.0111 138.089 57.2011 137.696 57.5811C137.316 57.9611 137.126 58.4804 137.126 59.1391C137.126 59.7724 137.322 60.2918 137.715 60.6971C138.108 61.1024 138.621 61.3051 139.254 61.3051Z" fill="#272B37"/>
<path d="M126.294 63.9461C125.192 63.9461 124.198 63.7181 123.311 63.2621C122.424 62.8061 121.728 62.1728 121.221 61.3621C120.727 60.5515 120.48 59.6331 120.48 58.6071C120.48 57.5938 120.727 56.6818 121.221 55.8711C121.728 55.0605 122.418 54.4335 123.292 53.9901C124.179 53.5341 125.179 53.3061 126.294 53.3061C127.409 53.3061 128.409 53.5341 129.296 53.9901C130.183 54.4335 130.873 55.0605 131.367 55.8711C131.861 56.6691 132.108 57.5811 132.108 58.6071C132.108 59.6331 131.861 60.5515 131.367 61.3621C130.873 62.1728 130.183 62.8061 129.296 63.2621C128.409 63.7181 127.409 63.9461 126.294 63.9461ZM126.294 61.0771C126.927 61.0771 127.447 60.8618 127.852 60.4311C128.257 59.9878 128.46 59.3798 128.46 58.6071C128.46 57.8471 128.257 57.2518 127.852 56.8211C127.447 56.3905 126.927 56.1751 126.294 56.1751C125.661 56.1751 125.141 56.3905 124.736 56.8211C124.331 57.2518 124.128 57.8471 124.128 58.6071C124.128 59.3798 124.331 59.9878 124.736 60.4311C125.141 60.8618 125.661 61.0771 126.294 61.0771Z" fill="#272B37"/>
<path d="M109.161 54.3891C110.162 54.3891 111.03 54.5854 111.764 54.9781C112.499 55.3581 113.056 55.9091 113.436 56.6311C113.829 57.3404 114.025 58.1701 114.025 59.1201C114.025 60.0954 113.772 60.9568 113.265 61.7041C112.771 62.4388 112.081 63.0151 111.194 63.4331C110.32 63.8384 109.332 64.0411 108.23 64.0411C106.419 64.0411 104.975 63.4774 103.898 62.3501C102.822 61.2228 102.283 59.5318 102.283 57.2771C102.283 53.0464 104.158 50.5764 107.907 49.8671L112.904 48.9171L113.398 51.9381L109.066 52.7551C107.964 52.9578 107.154 53.2871 106.634 53.7431C106.128 54.1864 105.824 54.8324 105.722 55.6811C106.647 54.8198 107.793 54.3891 109.161 54.3891ZM108.249 61.3051C108.895 61.3051 109.402 61.0961 109.769 60.6781C110.149 60.2601 110.339 59.7408 110.339 59.1201C110.339 58.4614 110.149 57.9484 109.769 57.5811C109.389 57.2011 108.883 57.0111 108.249 57.0111C107.603 57.0111 107.084 57.2011 106.691 57.5811C106.311 57.9611 106.121 58.4804 106.121 59.1391C106.121 59.7724 106.318 60.2918 106.71 60.6971C107.103 61.1024 107.616 61.3051 108.249 61.3051Z" fill="#272B37"/>
<path d="M95.2891 63.9461C94.1871 63.9461 93.1928 63.7181 92.3061 63.2621C91.4194 62.8061 90.7228 62.1728 90.2161 61.3621C89.7221 60.5515 89.4751 59.6331 89.4751 58.6071C89.4751 57.5938 89.7221 56.6818 90.2161 55.8711C90.7228 55.0605 91.4131 54.4335 92.2871 53.9901C93.1738 53.5341 94.1744 53.3061 95.2891 53.3061C96.4038 53.3061 97.4044 53.5341 98.2911 53.9901C99.1778 54.4335 99.8681 55.0605 100.362 55.8711C100.856 56.6691 101.103 57.5811 101.103 58.6071C101.103 59.6331 100.856 60.5515 100.362 61.3621C99.8681 62.1728 99.1778 62.8061 98.2911 63.2621C97.4044 63.7181 96.4038 63.9461 95.2891 63.9461ZM95.2891 61.0771C95.9224 61.0771 96.4418 60.8618 96.8471 60.4311C97.2524 59.9878 97.4551 59.3798 97.4551 58.6071C97.4551 57.8471 97.2524 57.2518 96.8471 56.8211C96.4418 56.3905 95.9224 56.1751 95.2891 56.1751C94.6558 56.1751 94.1364 56.3905 93.7311 56.8211C93.3258 57.2518 93.1231 57.8471 93.1231 58.6071C93.1231 59.3798 93.3258 59.9878 93.7311 60.4311C94.1364 60.8618 94.6558 61.0771 95.2891 61.0771Z" fill="#272B37"/>
<path d="M219.398 40.7751L217.555 38.0771L215.579 40.7751H211.665L215.579 35.6261L211.779 30.4771H215.845L217.669 33.0801L219.569 30.4771H223.388L219.588 35.4931L223.521 40.7751H219.398Z" fill="#272B37"/>
<path d="M201.886 33.6691C203.241 33.6818 204.261 33.9858 204.945 34.5811C205.629 35.1765 205.971 36.0251 205.971 37.1271C205.971 38.2798 205.572 39.1791 204.774 39.8251C203.989 40.4711 202.874 40.7878 201.43 40.7751H195.996V30.4771H199.587V33.6691H201.886ZM206.845 30.4771H210.436V40.7751H206.845V30.4771ZM201.069 38.3051C201.981 38.3051 202.437 37.8935 202.437 37.0701C202.437 36.6648 202.323 36.3671 202.095 36.1771C201.867 35.9871 201.525 35.8858 201.069 35.8731H199.587V38.2861L201.069 38.3051Z" fill="#272B37"/>
<path d="M182.655 30.4771H186.246V34.2961H189.951V30.4771H193.561V40.7751H189.951V37.1651H186.246V40.7751H182.655V30.4771Z" fill="#272B37"/>
<path d="M169.314 30.4771H172.905V34.2961H176.61V30.4771H180.22V40.7751H176.61V37.1651H172.905V40.7751H169.314V30.4771Z" fill="#272B37"/>
<path d="M161.88 30.3061C163.59 30.3061 164.895 30.6988 165.794 31.4841C166.693 32.2568 167.143 33.4475 167.143 35.0561V40.7751H163.78V39.4451C163.261 40.4458 162.247 40.9461 160.74 40.9461C159.942 40.9461 159.252 40.8068 158.669 40.5281C158.086 40.2495 157.643 39.8758 157.339 39.4071C157.048 38.9258 156.902 38.3811 156.902 37.7731C156.902 36.7978 157.276 36.0441 158.023 35.5121C158.77 34.9675 159.923 34.6951 161.481 34.6951H163.533C163.47 33.6058 162.741 33.0611 161.348 33.0611C160.854 33.0611 160.354 33.1435 159.847 33.3081C159.34 33.4601 158.91 33.6755 158.555 33.9541L157.339 31.5031C157.909 31.1231 158.599 30.8318 159.41 30.6291C160.233 30.4138 161.057 30.3061 161.88 30.3061ZM161.747 38.6661C162.165 38.6661 162.532 38.5648 162.849 38.3621C163.166 38.1595 163.394 37.8618 163.533 37.4691V36.5761H161.975C160.924 36.5761 160.398 36.9245 160.398 37.6211C160.398 37.9378 160.518 38.1911 160.759 38.3811C161 38.5711 161.329 38.6661 161.747 38.6661Z" fill="#272B37"/>
<path d="M156.129 37.8871V42.9031H152.785V40.7751H146.306V42.9031H142.943V37.8871H143.323C143.944 37.8745 144.375 37.5388 144.615 36.8801C144.856 36.2088 145.002 35.2715 145.052 34.0681L145.185 30.4771H154.704V37.8871H156.129ZM148.301 34.3341C148.263 35.2588 148.194 35.9998 148.092 36.5571C147.991 37.1145 147.801 37.5578 147.522 37.8871H151.094V33.3461H148.339L148.301 34.3341Z" fill="#272B37"/>
<path d="M130.986 30.3061C132.696 30.3061 134.001 30.6988 134.9 31.4841C135.8 32.2568 136.249 33.4475 136.249 35.0561V40.7751H132.886V39.4451C132.367 40.4458 131.354 40.9461 129.846 40.9461C129.048 40.9461 128.358 40.8068 127.775 40.5281C127.193 40.2495 126.749 39.8758 126.445 39.4071C126.154 38.9258 126.008 38.3811 126.008 37.7731C126.008 36.7978 126.382 36.0441 127.129 35.5121C127.877 34.9675 129.029 34.6951 130.587 34.6951H132.639C132.576 33.6058 131.848 33.0611 130.454 33.0611C129.96 33.0611 129.46 33.1435 128.953 33.3081C128.447 33.4601 128.016 33.6755 127.661 33.9541L126.445 31.5031C127.015 31.1231 127.706 30.8318 128.516 30.6291C129.34 30.4138 130.163 30.3061 130.986 30.3061ZM130.853 38.6661C131.271 38.6661 131.639 38.5648 131.955 38.3621C132.272 38.1595 132.5 37.8618 132.639 37.4691V36.5761H131.081C130.03 36.5761 129.504 36.9245 129.504 37.6211C129.504 37.9378 129.625 38.1911 129.865 38.3811C130.106 38.5711 130.435 38.6661 130.853 38.6661Z" fill="#272B37"/>
<path d="M123.154 35.4361C123.749 35.6261 124.205 35.9174 124.522 36.3101C124.851 36.6901 125.016 37.1461 125.016 37.6781C125.016 38.3621 124.775 38.9574 124.294 39.4641C123.825 39.9581 123.179 40.3381 122.356 40.6041C121.545 40.8574 120.633 40.9841 119.62 40.9841C117.872 40.9841 116.314 40.6864 114.946 40.0911L115.877 37.6591C116.966 38.1151 118.176 38.3431 119.506 38.3431C120.076 38.3431 120.525 38.2608 120.855 38.0961C121.197 37.9314 121.368 37.6971 121.368 37.3931C121.368 37.1144 121.266 36.9118 121.064 36.7851C120.861 36.6584 120.551 36.5951 120.133 36.5951H117.91V34.4861H119.81C120.658 34.4861 121.083 34.2264 121.083 33.7071C121.083 33.1624 120.519 32.8901 119.392 32.8901C118.416 32.8901 117.327 33.1181 116.124 33.5741L115.269 31.1991C116.763 30.5784 118.239 30.2681 119.696 30.2681C121.152 30.2681 122.356 30.5278 123.306 31.0471C124.256 31.5538 124.731 32.2694 124.731 33.1941C124.731 33.6628 124.591 34.0934 124.313 34.4861C124.034 34.8788 123.648 35.1954 123.154 35.4361Z" fill="#272B37"/>
<path d="M108.498 30.3061C110.208 30.3061 111.513 30.6988 112.412 31.4841C113.311 32.2568 113.761 33.4475 113.761 35.0561V40.7751H110.398V39.4451C109.879 40.4458 108.865 40.9461 107.358 40.9461C106.56 40.9461 105.87 40.8068 105.287 40.5281C104.704 40.2495 104.261 39.8758 103.957 39.4071C103.666 38.9258 103.52 38.3811 103.52 37.7731C103.52 36.7978 103.894 36.0441 104.641 35.5121C105.388 34.9675 106.541 34.6951 108.099 34.6951H110.151C110.088 33.6058 109.359 33.0611 107.966 33.0611C107.472 33.0611 106.972 33.1435 106.465 33.3081C105.958 33.4601 105.528 33.6755 105.173 33.9541L103.957 31.5031C104.527 31.1231 105.217 30.8318 106.028 30.6291C106.851 30.4138 107.675 30.3061 108.498 30.3061ZM108.365 38.6661C108.783 38.6661 109.15 38.5648 109.467 38.3621C109.784 38.1595 110.012 37.8618 110.151 37.4691V36.5761H108.593C107.542 36.5761 107.016 36.9245 107.016 37.6211C107.016 37.9378 107.136 38.1911 107.377 38.3811C107.618 38.5711 107.947 38.6661 108.365 38.6661Z" fill="#272B37"/>
<path d="M90.4248 27.4751H101.54V30.3821H94.1298V32.5291H97.5688C99.1775 32.5291 100.412 32.8711 101.274 33.5551C102.135 34.2391 102.566 35.2208 102.566 36.5001C102.566 37.8428 102.084 38.8941 101.122 39.6541C100.159 40.4015 98.8101 40.7751 97.0748 40.7751H90.4248V27.4751ZM96.8278 38.0771C97.4611 38.0771 97.9425 37.9505 98.2718 37.6971C98.6011 37.4438 98.7658 37.0828 98.7658 36.6141C98.7658 35.6768 98.1198 35.2081 96.8278 35.2081H94.1298V38.0771H96.8278Z" fill="#272B37"/>
<path fill-rule="evenodd" clip-rule="evenodd" d="M44.4666 62.9261C45.7266 64.3765 47.0852 65.7619 48.5273 67.068C55.275 73.1655 63.9202 77.5455 73.5674 79.4072V73.9304C65.5521 72.1625 58.3718 68.4174 52.7019 63.2941C50.8423 61.6128 49.1422 59.78 47.6317 57.8244L44.4666 62.9261Z" fill="#E22B36"/>
<path fill-rule="evenodd" clip-rule="evenodd" d="M23.543 57.2251C29.858 51.5173 33.7822 43.6376 33.7822 34.9785V11H39.6873V34.9785C39.6873 39.1926 40.4312 44.1355 41.7822 47.9671C43.1409 44.1355 43.8771 39.1926 43.8771 34.9785V11H49.7823V34.9785C49.7823 43.6376 53.7064 51.5101 60.0214 57.2251C63.7937 60.631 68.4086 63.2648 73.5623 64.8379V70.4302C66.7843 68.6912 60.7045 65.3935 55.8468 60.9991C52.1959 57.6942 49.2282 53.7759 47.1637 49.4319C45.6228 53.1986 43.9226 56.7633 41.7974 59.4765L41.7822 59.4981L41.767 59.4765C39.6418 56.7633 37.9416 53.1914 36.4008 49.4319C34.3362 53.7759 31.3685 57.7014 27.7176 60.9991C22.8599 65.3935 16.7802 68.6912 10.0021 70.4302V64.8379C15.1483 63.2648 19.7707 60.631 23.543 57.2251Z" fill="#E22B36"/>
<path fill-rule="evenodd" clip-rule="evenodd" d="M59.2287 34.4801C59.2287 40.7869 62.0826 46.5307 66.6899 50.6871C68.6861 52.4911 71.0011 53.992 73.559 55.1249V60.9409C69.3768 59.5049 65.6197 57.2752 62.5153 54.4682C56.8454 49.3449 53.3236 42.2661 53.3236 34.4801V29.0754H59.2287V34.4801Z" fill="#E22B36"/>
<path fill-rule="evenodd" clip-rule="evenodd" d="M24.3303 29.0754H30.2354V34.4801C30.2354 42.2661 26.7136 49.3377 21.0437 54.4682C17.9317 57.2824 14.1746 59.5049 10 60.9409V55.1249C12.5579 53.992 14.8729 52.4911 16.8691 50.6871C21.4688 46.5235 24.3303 40.7869 24.3303 34.4801V29.0754Z" fill="#E22B36"/>
<path fill-rule="evenodd" clip-rule="evenodd" d="M35.9356 57.8244C34.4252 59.78 32.7326 61.6128 30.8654 63.2941C25.1955 68.4102 18.0152 72.1625 10 73.9304V79.4072C19.6471 77.5455 28.2923 73.1655 35.04 67.068C36.4821 65.7619 37.8408 64.3837 39.1008 62.9261L35.9356 57.8244Z" fill="#E22B36"/>
</svg>
