<svg width="234" height="91" fill="none" xmlns="http://www.w3.org/2000/svg"><path d="m213.442 63.775-1.843-2.698-1.976 2.698h-3.914l3.914-5.149-3.8-5.149h4.066l1.824 2.603 1.9-2.603h3.819l-3.8 5.016 3.933 5.282h-4.123ZM199.49 53.306c1.71 0 3.015.393 3.914 1.178.9.773 1.349 1.963 1.349 3.572v5.72h-3.363v-1.33c-.519 1-1.532 1.5-3.04 1.5-.798 0-1.488-.14-2.071-.418-.582-.279-1.026-.652-1.33-1.12a3.096 3.096 0 0 1-.437-1.635c0-.975.374-1.729 1.121-2.26.748-.545 1.9-.818 3.458-.818h2.052c-.063-1.09-.791-1.634-2.185-1.634a4.84 4.84 0 0 0-1.501.247 3.875 3.875 0 0 0-1.292.646l-1.216-2.45c.57-.38 1.261-.672 2.071-.875a9.734 9.734 0 0 1 2.47-.323Zm-.133 8.36c.418 0 .786-.101 1.102-.304.317-.203.545-.5.684-.893v-.893h-1.558c-1.051 0-1.577.349-1.577 1.045 0 .317.121.57.361.76.241.19.57.285.988.285Zm-5.465-5.32h-3.306v7.43h-3.591v-7.43h-3.325v-2.869h10.222v2.87Zm-17.005 3.762h-1.216v3.667h-3.61V53.477h3.61v3.8h1.292l2.527-3.8h3.819l-3.458 4.94 3.686 5.358h-4.256l-2.394-3.667Zm-6.734-1.463c0 .025-.019.323-.057.893h-7.486c.152.532.443.944.874 1.235.443.279.994.418 1.653.418.494 0 .918-.07 1.273-.209.367-.14.735-.367 1.102-.684l1.9 1.976c-1.001 1.115-2.464 1.672-4.389 1.672-1.203 0-2.261-.228-3.173-.684-.912-.456-1.621-1.09-2.128-1.9-.494-.81-.741-1.729-.741-2.755 0-1.013.241-1.919.722-2.717a5.16 5.16 0 0 1 2.033-1.9c.861-.456 1.83-.684 2.907-.684 1.026 0 1.957.216 2.793.646a4.698 4.698 0 0 1 1.976 1.843c.494.798.741 1.748.741 2.85Zm-5.491-2.774c-.557 0-1.026.158-1.406.475-.367.317-.602.748-.703 1.292h4.218c-.101-.544-.342-.975-.722-1.292-.367-.316-.83-.475-1.387-.475Zm-10.68.799c1.356 0 2.394.303 3.116.911.722.595 1.083 1.438 1.083 2.527 0 1.153-.411 2.052-1.235 2.698-.823.646-1.969.97-3.439.97h-5.339v-7.43h-2.869v-2.869h6.46v3.192h2.223Zm-.703 4.616c.406 0 .71-.108.912-.323.216-.215.323-.526.323-.93 0-.773-.411-1.16-1.235-1.16h-1.52v2.413h1.52Zm-13.113-6.896c1.001 0 1.868.195 2.603.588.735.38 1.292.931 1.672 1.653.393.71.589 1.54.589 2.49 0 .974-.253 1.836-.76 2.583-.494.735-1.184 1.311-2.071 1.73-.874.404-1.862.607-2.964.607-1.811 0-3.255-.564-4.332-1.69-1.077-1.128-1.615-2.82-1.615-5.074 0-4.23 1.875-6.7 5.624-7.41l4.997-.95.494 3.021-4.332.817c-1.102.203-1.913.532-2.432.988-.507.443-.811 1.09-.912 1.938.925-.861 2.071-1.292 3.439-1.292Zm-.912 6.915c.646 0 1.153-.209 1.52-.627.38-.418.57-.937.57-1.558 0-.659-.19-1.172-.57-1.539-.38-.38-.887-.57-1.52-.57-.646 0-1.165.19-1.558.57-.38.38-.57.9-.57 1.558 0 .633.196 1.153.589 1.558.393.405.906.608 1.539.608Zm-12.96 2.641c-1.102 0-2.096-.228-2.983-.684a5.23 5.23 0 0 1-2.09-1.9c-.494-.81-.741-1.729-.741-2.755 0-1.013.247-1.925.741-2.736a5.128 5.128 0 0 1 2.071-1.88c.887-.457 1.887-.685 3.002-.685 1.115 0 2.115.228 3.002.684a4.967 4.967 0 0 1 2.071 1.881c.494.798.741 1.71.741 2.736 0 1.026-.247 1.944-.741 2.755-.494.81-1.184 1.444-2.071 1.9-.887.456-1.887.684-3.002.684Zm0-2.869c.633 0 1.153-.215 1.558-.646.405-.443.608-1.051.608-1.824 0-.76-.203-1.355-.608-1.786-.405-.43-.925-.646-1.558-.646s-1.153.216-1.558.646c-.405.43-.608 1.026-.608 1.786 0 .773.203 1.38.608 1.824.405.43.925.646 1.558.646Zm-17.133-6.687c1.001 0 1.869.195 2.603.588.735.38 1.292.931 1.672 1.653.393.71.589 1.54.589 2.49 0 .974-.253 1.836-.76 2.583-.494.735-1.184 1.311-2.071 1.73-.874.404-1.862.607-2.964.607-1.811 0-3.255-.564-4.332-1.69-1.076-1.128-1.615-2.82-1.615-5.074 0-4.23 1.875-6.7 5.624-7.41l4.997-.95.494 3.021-4.332.817c-1.102.203-1.912.532-2.432.988-.506.443-.81 1.09-.912 1.938.925-.861 2.071-1.292 3.439-1.292Zm-.912 6.915c.646 0 1.153-.209 1.52-.627.38-.418.57-.937.57-1.558 0-.659-.19-1.172-.57-1.539-.38-.38-.886-.57-1.52-.57-.646 0-1.165.19-1.558.57-.38.38-.57.9-.57 1.558 0 .633.197 1.153.589 1.558.393.405.906.608 1.539.608ZM95.29 63.946c-1.103 0-2.097-.228-2.984-.684a5.23 5.23 0 0 1-2.09-1.9c-.494-.81-.74-1.729-.74-2.755 0-1.013.246-1.925.74-2.736a5.126 5.126 0 0 1 2.071-1.88c.887-.457 1.887-.685 3.002-.685 1.115 0 2.115.228 3.002.684.887.444 1.577 1.07 2.071 1.881.494.798.741 1.71.741 2.736 0 1.026-.247 1.944-.741 2.755-.494.81-1.184 1.444-2.07 1.9-.888.456-1.888.684-3.003.684Zm0-2.869c.632 0 1.152-.215 1.557-.646.405-.443.608-1.051.608-1.824 0-.76-.203-1.355-.608-1.786-.405-.43-.925-.646-1.558-.646s-1.153.216-1.558.646c-.405.43-.608 1.026-.608 1.786 0 .773.203 1.38.608 1.824.405.43.925.646 1.558.646Zm124.108-20.302-1.843-2.698-1.976 2.698h-3.914l3.914-5.149-3.8-5.149h4.066l1.824 2.603 1.9-2.603h3.819l-3.8 5.016 3.933 5.282h-4.123Zm-17.512-7.105c1.355.012 2.375.316 3.059.911.684.595 1.026 1.444 1.026 2.546 0 1.153-.399 2.052-1.197 2.698-.785.646-1.9.963-3.344.95h-5.434V30.477h3.591v3.192h2.299Zm4.959-3.193h3.591v10.298h-3.591V30.477Zm-5.776 7.828c.912 0 1.368-.411 1.368-1.235 0-.405-.114-.703-.342-.893-.228-.19-.57-.291-1.026-.304h-1.482v2.413l1.482.02Zm-18.414-7.828h3.591v3.82h3.705v-3.82h3.61v10.298h-3.61v-3.61h-3.705v3.61h-3.591V30.477Zm-13.341 0h3.591v3.82h3.705v-3.82h3.61v10.298h-3.61v-3.61h-3.705v3.61h-3.591V30.477Zm-7.434-.171c1.71 0 3.015.393 3.914 1.178.899.773 1.349 1.963 1.349 3.572v5.72h-3.363v-1.33c-.519 1-1.533 1.5-3.04 1.5-.798 0-1.488-.14-2.071-.418-.583-.279-1.026-.652-1.33-1.12a3.096 3.096 0 0 1-.437-1.635c0-.975.374-1.729 1.121-2.26.747-.545 1.9-.818 3.458-.818h2.052c-.063-1.09-.792-1.634-2.185-1.634a4.84 4.84 0 0 0-1.501.247 3.866 3.866 0 0 0-1.292.646l-1.216-2.45c.57-.38 1.26-.672 2.071-.875a9.728 9.728 0 0 1 2.47-.323Zm-.133 8.36a2 2 0 0 0 1.102-.304c.317-.203.545-.5.684-.893v-.893h-1.558c-1.051 0-1.577.349-1.577 1.045 0 .317.12.57.361.76.241.19.57.285.988.285Zm-5.618-.779v5.016h-3.344v-2.128h-6.479v2.128h-3.363v-5.016h.38c.621-.013 1.052-.348 1.292-1.007.241-.671.387-1.608.437-2.812l.133-3.59h9.519v7.41h1.425Zm-7.828-3.553c-.038.925-.107 1.666-.209 2.223-.101.557-.291 1-.57 1.33h3.572v-4.54h-2.755l-.038.987Zm-17.315-4.028c1.71 0 3.015.393 3.914 1.178.9.773 1.349 1.963 1.349 3.572v5.72h-3.363v-1.33c-.519 1-1.532 1.5-3.04 1.5-.798 0-1.488-.14-2.071-.418-.582-.279-1.026-.652-1.33-1.12a3.096 3.096 0 0 1-.437-1.635c0-.975.374-1.729 1.121-2.26.748-.545 1.9-.818 3.458-.818h2.052c-.063-1.09-.791-1.634-2.185-1.634a4.84 4.84 0 0 0-1.501.247 3.875 3.875 0 0 0-1.292.646l-1.216-2.45c.57-.38 1.261-.672 2.071-.875a9.734 9.734 0 0 1 2.47-.323Zm-.133 8.36c.418 0 .786-.101 1.102-.304.317-.203.545-.5.684-.893v-.893h-1.558c-1.051 0-1.577.349-1.577 1.045 0 .317.121.57.361.76.241.19.57.285.988.285Zm-7.699-3.23c.595.19 1.051.481 1.368.874.329.38.494.836.494 1.368a2.51 2.51 0 0 1-.722 1.786c-.469.494-1.115.874-1.938 1.14-.811.253-1.723.38-2.736.38-1.748 0-3.306-.298-4.674-.893l.931-2.432c1.089.456 2.299.684 3.629.684.57 0 1.019-.082 1.349-.247.342-.165.513-.399.513-.703 0-.279-.102-.481-.304-.608-.203-.127-.513-.19-.931-.19h-2.223v-2.109h1.9c.848 0 1.273-.26 1.273-.779 0-.545-.564-.817-1.691-.817-.976 0-2.065.228-3.268.684l-.855-2.375c1.494-.62 2.97-.93 4.427-.93 1.456 0 2.66.259 3.61.778.95.507 1.425 1.222 1.425 2.147 0 .469-.14.9-.418 1.292-.279.393-.665.71-1.159.95Zm-14.656-5.13c1.71 0 3.015.393 3.914 1.178.899.773 1.349 1.963 1.349 3.572v5.72h-3.363v-1.33c-.519 1-1.533 1.5-3.04 1.5-.798 0-1.488-.14-2.071-.418-.583-.279-1.026-.652-1.33-1.12a3.096 3.096 0 0 1-.437-1.635c0-.975.374-1.729 1.121-2.26.747-.545 1.9-.818 3.458-.818h2.052c-.063-1.09-.792-1.634-2.185-1.634a4.84 4.84 0 0 0-1.501.247 3.866 3.866 0 0 0-1.292.646l-1.216-2.45c.57-.38 1.26-.672 2.071-.875a9.728 9.728 0 0 1 2.47-.323Zm-.133 8.36a2 2 0 0 0 1.102-.304c.317-.203.545-.5.684-.893v-.893h-1.558c-1.051 0-1.577.349-1.577 1.045 0 .317.12.57.361.76.241.19.57.285.988.285Zm-17.94-11.191h11.115v2.907h-7.41v2.147h3.439c1.608 0 2.843.342 3.705 1.026.861.684 1.292 1.666 1.292 2.945 0 1.343-.482 2.394-1.444 3.154-.963.747-2.312 1.121-4.047 1.121h-6.65v-13.3Zm6.403 10.602c.633 0 1.114-.127 1.444-.38.33-.253.494-.614.494-1.083 0-.937-.646-1.406-1.938-1.406H94.13v2.87h2.698Z" fill="#272B37"/><path fill-rule="evenodd" clip-rule="evenodd" d="M44.467 62.926a48.581 48.581 0 0 0 4.06 4.142c6.748 6.097 15.393 10.478 25.04 12.34V73.93c-8.015-1.768-15.195-5.513-20.865-10.636a41.984 41.984 0 0 1-5.07-5.47l-3.165 5.102Z" fill="#E22B36"/><path fill-rule="evenodd" clip-rule="evenodd" d="M23.543 57.225c6.315-5.708 10.24-13.587 10.24-22.247V11h5.904v23.978c0 4.215.744 9.157 2.095 12.99 1.359-3.833 2.095-8.775 2.095-12.99V11h5.905v23.978c0 8.66 3.924 16.532 10.24 22.247 3.772 3.406 8.387 6.04 13.54 7.613v5.592c-6.778-1.739-12.857-5.037-17.715-9.43-3.651-3.306-6.619-7.224-8.683-11.568-1.541 3.767-3.241 7.331-5.367 10.044l-.015.022-.015-.021c-2.125-2.714-3.825-6.286-5.366-10.045-2.065 4.344-5.033 8.27-8.683 11.567-4.858 4.395-10.938 7.692-17.716 9.431v-5.592c5.146-1.573 9.769-4.207 13.541-7.613Z" fill="#E22B36"/><path fill-rule="evenodd" clip-rule="evenodd" d="M59.229 34.48c0 6.307 2.854 12.05 7.46 16.207a25.829 25.829 0 0 0 6.87 4.438v5.816c-4.182-1.436-7.94-3.666-11.044-6.473-5.67-5.123-9.191-12.202-9.191-19.988v-5.405h5.905v5.405ZM24.33 29.075h5.905v5.405c0 7.786-3.521 14.858-9.191 19.988-3.112 2.814-6.87 5.037-11.044 6.473v-5.816a25.829 25.829 0 0 0 6.87-4.438c4.599-4.163 7.46-9.9 7.46-16.207v-5.405Zm11.606 28.749a41.457 41.457 0 0 1-5.07 5.47C25.195 68.41 18.015 72.162 10 73.93v5.477c9.647-1.861 18.292-6.242 25.04-12.339a47.547 47.547 0 0 0 4.06-4.142l-3.164-5.102Z" fill="#E22B36"/></svg>