<?xml version="1.0" encoding="utf-8"?><svg viewBox="0 0 24 24" xmlns="http://www.w3.org/2000/svg" xmlns:xlink="http://www.w3.org/1999/xlink"><style>:root>svg{display:none}:root>svg:target{display:block}</style><svg fill="none" viewBox="0 0 24 24" id="arrow-down" xmlns="http://www.w3.org/2000/svg"><path d="M20.764 8.585 12 17.516l-8.764-8.93L4.792 7 12 14.346 19.208 7l1.556 1.585Z" fill="#000"/></svg><svg fill="none" viewBox="0 0 24 24" id="arrow-left" xmlns="http://www.w3.org/2000/svg"><path d="M14.067 7.066 9.143 12l4.924 4.934-1.516 1.516L6.101 12l6.45-6.45 1.516 1.516Z" fill="#000"/></svg><svg fill="none" viewBox="0 0 24 24" id="arrow-right" xmlns="http://www.w3.org/2000/svg"><path d="M10.018 7.066 14.941 12l-4.923 4.934 1.516 1.516 6.45-6.45-6.45-6.45-1.516 1.516Z" fill="#000"/></svg><svg fill="none" viewBox="0 0 24 24" id="building" xmlns="http://www.w3.org/2000/svg"><path d="M2 20.846V3.154h10v3.931h10v13.761H2Zm2-1.966h2v-1.965H4v1.965Zm0-3.931h2v-1.966H4v1.966Zm0-3.932h2V9.051H4v1.966Zm0-3.932h2V5.12H4v1.965ZM8 18.88h2v-1.965H8v1.965Zm0-3.931h2v-1.966H8v1.966Zm0-3.932h2V9.051H8v1.966Zm0-3.932h2V5.12H8v1.965Zm4 11.795h8V9.051h-8v1.966h2v1.966h-2v1.966h2v1.966h-2v1.965Zm4-5.897v-1.966h2v1.966h-2Zm0 3.931V14.95h2v1.966h-2Z" fill="#000"/></svg><svg fill="none" viewBox="0 0 24 24" id="calendar" xmlns="http://www.w3.org/2000/svg"><path d="M5 22c-.55 0-1.02-.196-1.413-.587A1.926 1.926 0 0 1 3 20V6c0-.55.196-1.02.587-1.412A1.926 1.926 0 0 1 5 4h1V2h2v2h8V2h2v2h1c.55 0 1.02.196 1.413.588.391.391.587.862.587 1.412v14c0 .55-.196 1.02-.587 1.413A1.926 1.926 0 0 1 19 22H5Zm0-2h14V10H5v10ZM5 8h14V6H5v2Zm7 6a.968.968 0 0 1-.713-.287A.968.968 0 0 1 11 13c0-.283.096-.52.287-.713A.968.968 0 0 1 12 12c.283 0 .52.096.713.287.191.192.287.43.287.713s-.096.52-.287.713A.968.968 0 0 1 12 14Zm-4 0a.967.967 0 0 1-.713-.287A.968.968 0 0 1 7 13c0-.283.096-.52.287-.713A.967.967 0 0 1 8 12c.283 0 .52.096.713.287.191.192.287.43.287.713s-.096.52-.287.713A.967.967 0 0 1 8 14Zm8 0a.968.968 0 0 1-.713-.287A.968.968 0 0 1 15 13c0-.283.096-.52.287-.713A.968.968 0 0 1 16 12a.97.97 0 0 1 .712.287c.192.192.288.43.288.713s-.096.52-.288.713A.968.968 0 0 1 16 14Zm-4 4a.968.968 0 0 1-.713-.288A.968.968 0 0 1 11 17a.97.97 0 0 1 .287-.712A.968.968 0 0 1 12 16a.97.97 0 0 1 .713.288c.191.191.287.429.287.712s-.096.52-.287.712A.968.968 0 0 1 12 18Zm-4 0a.967.967 0 0 1-.713-.288A.968.968 0 0 1 7 17a.97.97 0 0 1 .287-.712A.967.967 0 0 1 8 16a.97.97 0 0 1 .713.288c.191.191.287.429.287.712s-.096.52-.287.712A.967.967 0 0 1 8 18Zm8 0a.968.968 0 0 1-.713-.288A.968.968 0 0 1 15 17a.97.97 0 0 1 .287-.712A.968.968 0 0 1 16 16c.283 0 .52.096.712.288.192.191.288.429.288.712s-.096.52-.288.712A.968.968 0 0 1 16 18Z" fill="#000"/></svg><svg fill="none" viewBox="0 0 24 24" id="checkbox-in-box" xmlns="http://www.w3.org/2000/svg"><path fill-rule="evenodd" clip-rule="evenodd" d="M7 2a5 5 0 0 0-5 5v10a5 5 0 0 0 5 5h10a5 5 0 0 0 5-5V7a5 5 0 0 0-5-5H7Zm-.816 10.227 4.067 4.135 7.565-7.69L16.8 7.638l-6.548 6.656-3.05-3.101-1.017 1.034Z" fill="#000"/></svg><svg fill="none" viewBox="0 0 24 24" id="close" xmlns="http://www.w3.org/2000/svg"><path d="M5.6 19.97 4 18.376 10.4 12 4 5.624 5.6 4.03l6.4 6.376 6.4-6.376L20 5.624 13.6 12l6.4 6.376-1.6 1.594-6.4-6.376-6.4 6.376Z" fill="#000"/></svg><svg fill="none" viewBox="0 0 24 24" id="copy" xmlns="http://www.w3.org/2000/svg"><path d="M18.818 18.364h-10c-.5 0-.928-.178-1.284-.535A1.75 1.75 0 0 1 7 16.546V3.819c0-.5.178-.928.534-1.284A1.75 1.75 0 0 1 8.818 2h6.364l5.454 5.455v9.09c0 .5-.178.928-.534 1.284a1.75 1.75 0 0 1-1.284.535Zm-4.546-10V3.818H8.818v12.728h10V8.364h-4.546ZM5.182 22c-.5 0-.929-.178-1.285-.534a1.75 1.75 0 0 1-.534-1.284V7.455h1.818v12.727h10V22h-10Z" fill="#000"/></svg><svg fill="none" viewBox="0 0 24 24" id="document" xmlns="http://www.w3.org/2000/svg"><path d="M18.214 22H5.786c-1.144 0-2.071-.895-2.071-2V4c0-1.104.927-2 2.071-2h7.25a.112.112 0 0 1 .028 0h.006a.16.16 0 0 0 .03.007c.091.006.182.023.268.05h.044a.44.44 0 0 1 .054.044c.113.048.215.116.303.2l6.214 6a.987.987 0 0 1 .207.293.74.74 0 0 1 .024.066l.01.028a.91.91 0 0 1 .051.258c.001.01.004.02.007.029v.006a.104.104 0 0 1 .004.02v11c0 .53-.219 1.038-.607 1.413a2.11 2.11 0 0 1-1.465.586ZM13.036 4v5h5.178l-5.178-5Z" fill="#000"/></svg><svg fill="none" viewBox="0 0 24 24" id="drop-down" xmlns="http://www.w3.org/2000/svg"><path d="M12 21.694 2.707 5.598h18.586L12 21.694Z" fill="#000"/></svg><svg fill="none" viewBox="0 0 24 24" id="envelope" xmlns="http://www.w3.org/2000/svg"><path d="M2.765 4.926c.199.187 9.207 7.582 9.238 7.582.035 0 9.148-7.38 9.336-7.563l.098-.093H12.06c-9.187 0-9.37 0-9.296.074Z" fill="#000"/><path d="M2.003 12.367c0 5.328.008 6.293.055 6.383.074.14.254.305.386.355.078.032 2.98.043 9.563.043 7.851 0 9.473-.007 9.578-.054.145-.059.367-.297.398-.426.012-.047.016-2.871.012-6.273l-.012-6.188-4.707 3.824c-2.59 2.106-4.777 3.88-4.859 3.942-.137.101-.188.117-.414.117-.227 0-.277-.016-.414-.117-.082-.063-2.254-1.844-4.82-3.961-2.567-2.114-4.692-3.86-4.715-3.883-.04-.027-.051 1.223-.051 6.238Z" fill="#000"/></svg><svg fill="none" viewBox="0 0 24 24" id="exit" xmlns="http://www.w3.org/2000/svg"><path d="M18.333 12.98H6.762v-1.96h11.571l-1.476-1.519 1.334-1.42L22 12l-3.81 3.92-1.333-1.421 1.476-1.52ZM13.43 9.06V5.14H3.905v13.72h9.524v-3.92h1.904v3.92c0 .539-.186 1-.56 1.384a1.809 1.809 0 0 1-1.344.576H3.905c-.524 0-.972-.192-1.345-.576A1.915 1.915 0 0 1 2 18.86V5.141c0-.539.187-1 .56-1.384a1.809 1.809 0 0 1 1.345-.576h9.524c.523 0 .972.192 1.345.576.373.384.56.845.56 1.384v3.92h-1.905Z" fill="#000"/></svg><svg fill="none" viewBox="0 0 24 24" id="filter" xmlns="http://www.w3.org/2000/svg"><path d="M10.753 21.974c-.353 0-.65-.12-.888-.358a1.206 1.206 0 0 1-.359-.888v-7.481L2.275 4.02c-.312-.416-.358-.852-.14-1.31.218-.457.597-.685 1.137-.685h17.456c.54 0 .919.228 1.137.685.218.458.172.894-.14 1.31l-7.231 9.226v7.48c0 .354-.12.65-.359.889a1.206 1.206 0 0 1-.888.358h-2.494Zm1.247-9.6 6.172-7.855H5.828L12 12.374Z" fill="#000"/></svg><svg fill="none" viewBox="0 0 24 24" id="image" xmlns="http://www.w3.org/2000/svg"><path d="M22 19.778V4.222A2.222 2.222 0 0 0 19.778 2H4.222A2.222 2.222 0 0 0 2 4.222v15.556A2.22 2.22 0 0 0 4.222 22h15.556A2.222 2.222 0 0 0 22 19.778ZM8.111 13.667l2.778 3.339L14.778 12l5 6.667H4.222l3.89-5Z" fill="#000"/></svg><svg fill="none" viewBox="0 0 24 24" id="info-rectangle" xmlns="http://www.w3.org/2000/svg"><path d="M20.889 22H3.11A1.111 1.111 0 0 1 2 20.889V3.11C2 2.497 2.497 2 3.111 2H20.89c.613 0 1.11.497 1.11 1.111V20.89a1.11 1.11 0 0 1-1.111 1.111Zm-10-11.111A1.11 1.11 0 0 0 9.778 12v.556c0 .306.248.555.555.555.307 0 .556.249.556.556v2.222c0 .92.746 1.667 1.667 1.667h.555c.614 0 1.111-.498 1.111-1.112v-.555a.556.556 0 0 0-.555-.556.556.556 0 0 1-.556-.555v-2.222c0-.92-.746-1.667-1.667-1.667h-.555ZM12 6.444a1.111 1.111 0 0 0 0 2.222 1.111 1.111 0 0 0 0-2.222Z" fill="#000"/></svg><svg fill="none" viewBox="0 0 24 24" id="location-in-map" xmlns="http://www.w3.org/2000/svg"><path d="M16.95 11.95a6.996 6.996 0 0 0 1.858-6.582l2.495-1.07a.5.5 0 0 1 .697.46V19l-7 3-6-3-6.303 2.7A.5.5 0 0 1 2 21.24V7l3.129-1.341a6.993 6.993 0 0 0 1.921 6.29l4.95 4.95 4.95-4.95Zm-1.414-1.414L12 14.07l-3.536-3.535a5 5 0 1 1 7.072 0Z" fill="#000"/></svg><svg fill="none" viewBox="0 0 24 24" id="phone" xmlns="http://www.w3.org/2000/svg"><path d="M18.834 2.596a2.254 2.254 0 0 0-.914.312c-.34.203-3.093 2.743-3.289 3.028a2.347 2.347 0 0 0-.367 1.566c.078.563.27.95.703 1.422l.258.285 2.969-2.707c1.629-1.492 2.969-2.734 2.976-2.762.008-.027-.14-.207-.332-.394-.597-.602-1.234-.84-2.004-.75Zm.176 4.453-2.457 2.25-.156.14.156.133c.082.07.305.204.492.293.29.145.336.18.317.246-.055.196-.543 1.157-.82 1.621a12.153 12.153 0 0 1-2.708 3.137c-.75.602-1.882 1.29-2.836 1.719-.417.191-1.234.512-1.375.543-.03.008-.093-.098-.16-.281-.117-.309-.312-.668-.375-.692-.039-.011-4.91 4.414-4.933 4.48-.016.044.488.372.754.493.257.113.554.195.918.254.328.05 1.55.05 2.03-.004 3.395-.375 6.7-2.09 9.762-5.059 2.489-2.414 4.012-5.152 4.34-7.793.098-.796.016-2.046-.171-2.699-.07-.242-.38-.863-.438-.879-.02-.008-1.07.938-2.34 2.098Zm-12.7 6.793c-.315.082-.67.25-.882.418-.281.226-2.68 2.434-2.875 2.648a2.398 2.398 0 0 0-.512.989c-.062.293-.054.851.016 1.113.066.25.234.601.387.808.136.18.492.547.531.547.05 0 5.938-5.39 5.938-5.437 0-.024-.153-.196-.336-.387-.653-.664-1.454-.914-2.266-.7Z" fill="#000"/></svg><svg fill="none" viewBox="0 0 24 24" id="rating" xmlns="http://www.w3.org/2000/svg"><path d="m12 1.5 2.245 6.91h7.266l-5.878 4.27 2.245 6.91L12 15.32l-5.878 4.27 2.246-6.91L2.49 8.41h7.265L12 1.5Z" fill="#000"/></svg><svg fill="none" viewBox="0 0 24 24" id="refresh" xmlns="http://www.w3.org/2000/svg"><path d="M5.727 15.682a7.5 7.5 0 0 1-.75-1.773 6.997 6.997 0 0 1-.25-1.864c0-2.03.705-3.757 2.114-5.181C8.25 5.439 9.969 4.727 12 4.727h.159l-1.455-1.454L11.977 2l3.636 3.636-3.636 3.637L10.704 8l1.455-1.455h-.16c-1.514 0-2.802.535-3.863 1.603-1.06 1.068-1.59 2.367-1.59 3.898 0 .393.045.78.136 1.159.09.378.227.75.409 1.113l-1.364 1.364ZM12.023 22l-3.637-3.636 3.637-3.637L13.295 16l-1.454 1.454H12c1.515 0 2.803-.534 3.863-1.602 1.061-1.068 1.591-2.367 1.591-3.898 0-.393-.045-.78-.136-1.159a5.199 5.199 0 0 0-.41-1.113l1.364-1.364c.334.576.584 1.167.75 1.773.167.606.25 1.227.25 1.864 0 2.03-.704 3.757-2.113 5.181-1.41 1.425-3.129 2.137-5.16 2.137h-.158l1.454 1.454L12.023 22Z" fill="#000"/></svg><svg fill="none" viewBox="0 0 24 24" id="search" xmlns="http://www.w3.org/2000/svg"><path d="M16.294 14.579h-.904l-.32-.31a7.4 7.4 0 0 0 1.796-4.836 7.433 7.433 0 1 0-7.433 7.433 7.4 7.4 0 0 0 4.837-1.796l.309.32v.904L20.296 22 22 20.296l-5.706-5.717Zm-6.861 0a5.139 5.139 0 0 1-5.146-5.146 5.139 5.139 0 0 1 5.146-5.146 5.139 5.139 0 0 1 5.146 5.146 5.139 5.139 0 0 1-5.146 5.146Z" fill="#000"/></svg><svg fill="none" viewBox="0 0 24 24" id="search-in-box" xmlns="http://www.w3.org/2000/svg"><path d="M11.167 13.54c.703 0 1.296-.222 1.777-.667a2.15 2.15 0 0 0 .723-1.643c0-.65-.241-1.199-.723-1.644-.481-.445-1.074-.667-1.777-.667-.704 0-1.297.222-1.778.667a2.15 2.15 0 0 0-.722 1.644c0 .65.24 1.198.722 1.643.481.445 1.074.668 1.778.668Zm5.36 4.11-2.916-2.697a4.26 4.26 0 0 1-1.18.488 5.263 5.263 0 0 1-1.264.154c-1.315 0-2.43-.424-3.348-1.271-.916-.848-1.375-1.879-1.375-3.094 0-1.216.459-2.247 1.375-3.095.917-.847 2.033-1.27 3.348-1.27s2.43.423 3.347 1.27c.917.848 1.375 1.88 1.375 3.095a3.895 3.895 0 0 1-.722 2.26l2.944 2.721-1.583 1.438ZM4.223 21.243a2.23 2.23 0 0 1-1.57-.603C2.219 20.238 2 19.755 2 19.19v-4.11h2.222v4.109h4.445v2.054H4.222Zm11.111 0V19.19h4.445v-4.11H22v4.109c0 .565-.218 1.048-.653 1.45a2.23 2.23 0 0 1-1.57.604h-4.444ZM2 8.919V4.81c0-.565.218-1.048.653-1.45a2.23 2.23 0 0 1 1.57-.604h4.444V4.81H4.222v4.11H2Zm17.778 0V4.81h-4.445V2.756h4.445a2.23 2.23 0 0 1 1.57.603c.434.403.652.886.652 1.451v4.11h-2.222Z" fill="#000"/></svg><svg fill="none" viewBox="0 0 24 24" id="settings" xmlns="http://www.w3.org/2000/svg"><path fill-rule="evenodd" clip-rule="evenodd" d="M10 20a2 2 0 1 0 4 0v-1.29c.466-.138.91-.324 1.33-.551l.913.912a2 2 0 0 0 2.828-2.828l-.912-.913c.227-.42.413-.864.551-1.33H20a2 2 0 1 0 0-4h-1.29a6.952 6.952 0 0 0-.551-1.33l.912-.913a2 2 0 0 0-2.828-2.828l-.913.912A6.957 6.957 0 0 0 14 5.29V4a2 2 0 1 0-4 0v1.29c-.466.138-.91.324-1.33.551l-.913-.912A2 2 0 1 0 4.93 7.757l.912.913c-.227.42-.413.864-.551 1.33H4a2 2 0 1 0 0 4h1.29c.138.466.324.91.551 1.33l-.912.913a2 2 0 0 0 2.828 2.828l.913-.912c.42.227.864.413 1.33.551V20Zm2-5a3 3 0 1 0 0-6 3 3 0 0 0 0 6Z" fill="#000"/></svg><svg fill="none" viewBox="0 0 24 24" id="sort" xmlns="http://www.w3.org/2000/svg"><path fill-rule="evenodd" clip-rule="evenodd" d="m9.33 14.527-3.648 6.32-3.648-6.32H5.05V3.155h1.264v11.373H9.33Zm5.34-5.055 3.649-6.318 3.648 6.318H18.95v11.374h-1.263V9.472H14.67Z" fill="#000"/></svg><svg fill="none" viewBox="0 0 24 24" id="structure" xmlns="http://www.w3.org/2000/svg"><path d="M15 21v-3h-4V8H9v3H2V3h7v3h6V3h7v8h-7V8h-2v8h2v-3h7v8h-7Zm2-12h3V5h-3v4Zm0 10h3v-4h-3v4ZM4 9h3V5H4v4Z" fill="#000"/></svg><svg fill="none" viewBox="0 0 24 24" id="user" xmlns="http://www.w3.org/2000/svg"><path d="M19.619 22H4.381v-1.905a4.762 4.762 0 0 1 4.762-4.762h5.714a4.762 4.762 0 0 1 4.762 4.762V22Zm-7.62-8.571A5.714 5.714 0 1 1 12 2a5.714 5.714 0 0 1 0 11.428Z" fill="#000"/></svg><svg fill="none" viewBox="0 0 24 24" id="wrench" xmlns="http://www.w3.org/2000/svg"><path d="m21.727 18.316-8.323-8.323a5.889 5.889 0 0 0-1.319-6.276c-1.819-1.82-4.548-2.183-6.73-1.137L9.31 6.537 6.537 9.31 2.58 5.354c-1.046 2.183-.682 4.912 1.137 6.731a5.889 5.889 0 0 0 6.276 1.32l8.323 8.322c.364.364.955.364 1.274 0l2.137-2.137c.364-.319.364-.91 0-1.274Z" fill="#000"/></svg></svg>