<svg width="260" height="100" fill="none" xmlns="http://www.w3.org/2000/svg"><path d="M102.452 26.557V14.375h-3.51c-.128 1.698-.548 3.749-1.278 6.134-.72 2.385-1.57 4.401-2.53 6.048h7.318Zm3.74 5.645h-1.707v-4.015H93.769v4.015h-1.707v-5.645h1.193c1.08-1.819 2.007-4.032 2.78-6.649.771-2.608 1.192-4.993 1.278-7.146h6.932v13.795h1.947v5.645Zm6.743-14.327c-.926 0-1.664.3-2.222.91-.549.608-.875 1.44-.978 2.513h6.048c0-1.107-.248-1.947-.737-2.53-.489-.593-1.193-.884-2.111-.884m.481 10.518c-1.708 0-3.063-.524-4.05-1.562-.986-1.038-1.484-2.488-1.484-4.332 0-1.845.463-3.346 1.373-4.444.918-1.098 2.153-1.648 3.697-1.648 1.45 0 2.6.48 3.441 1.433.84.953 1.269 2.205 1.269 3.775v1.107h-7.961c.034 1.355.377 2.385 1.029 3.088.652.704 1.562 1.056 2.746 1.056a9.293 9.293 0 0 0 3.697-.781v1.561a9.075 9.075 0 0 1-1.758.575c-.55.12-1.219.172-1.999.172Zm8.982-.215h-1.75V16.622h9.703v11.565h-1.767V18.141h-6.186v10.046Zm14.816-1.235c1.09 0 1.948-.3 2.565-.893.627-.6.935-1.44.935-2.513v-1.047l-1.75.077c-1.39.052-2.393.266-3.011.644-.618.386-.927.978-.927 1.784 0 .635.189 1.116.575 1.45.386.326.918.498 1.613.498Zm3.955 1.235-.352-1.647h-.085c-.575.72-1.15 1.218-1.725 1.467-.575.257-1.287.386-2.145.386-1.149 0-2.05-.3-2.694-.884-.652-.591-.978-1.432-.978-2.522 0-2.333 1.871-3.56 5.603-3.672l1.964-.068v-.721c0-.91-.197-1.579-.583-2.008-.395-.429-1.012-.643-1.87-.643-.961 0-2.059.292-3.269.884l-.541-1.339a8.576 8.576 0 0 1 1.871-.729 8.332 8.332 0 0 1 2.042-.266c1.381 0 2.393.309 3.062.918.67.61.996 1.587.996 2.943v7.893h-1.296v.008ZM151.208 17.9c-1.184 0-2.034.327-2.566.979-.532.652-.798 1.698-.815 3.123v.394c0 1.622.275 2.788.815 3.492.541.703 1.407 1.047 2.608 1.047.996 0 1.776-.404 2.343-1.21.566-.806.849-1.922.849-3.346 0-1.424-.283-2.548-.849-3.312-.567-.772-1.365-1.158-2.394-1.158m.257 10.493c-.755 0-1.441-.138-2.059-.42-.626-.275-1.141-.704-1.57-1.288h-.128c.085.678.128 1.322.128 1.922v4.762h-1.75V16.63h1.424l.24 1.578h.086c.446-.634.978-1.089 1.57-1.372.601-.283 1.287-.42 2.059-.42 1.536 0 2.72.523 3.552 1.578.832 1.047 1.253 2.514 1.253 4.41 0 1.896-.429 3.371-1.27 4.427-.849 1.046-2.025 1.578-3.526 1.578m15.648-10.285h-3.757v10.063h-1.751V18.124h-3.714v-1.502h9.222v1.502Zm5.447 8.828c1.09 0 1.948-.3 2.566-.893.626-.6.935-1.44.935-2.513v-1.047l-1.75.077c-1.39.052-2.394.266-3.012.644-.617.386-.926.978-.926 1.784 0 .635.188 1.116.575 1.45.386.326.918.498 1.604.498m3.955 1.235-.352-1.647h-.086c-.574.72-1.149 1.218-1.724 1.467-.575.257-1.287.386-2.145.386-1.15 0-2.05-.3-2.694-.884-.652-.591-.978-1.432-.978-2.522 0-2.333 1.87-3.56 5.602-3.672l1.965-.068v-.721c0-.91-.197-1.579-.583-2.008-.395-.429-1.013-.643-1.871-.643-.96 0-2.05.292-3.268.884l-.541-1.339a8.587 8.587 0 0 1 1.87-.729 8.344 8.344 0 0 1 2.042-.266c1.382 0 2.394.309 3.063.918.669.61.995 1.587.995 2.943v7.893h-1.295v.008Zm10.913-1.69.326-.978.455-1.244 3.131-7.627h2.222v11.54h-1.553v-9.55l-.214.618-.609 1.613-2.986 7.318h-1.467l-2.985-7.344c-.378-.943-.627-1.672-.773-2.204v9.548h-1.561V16.648h2.145l3.028 7.335c.301.773.584 1.613.832 2.523m14.294-8.631c-.926 0-1.664.3-2.222.91-.549.608-.875 1.44-.978 2.513h6.049c0-1.107-.249-1.947-.738-2.53-.489-.593-1.193-.884-2.111-.884m.481 10.518c-1.707 0-3.063-.524-4.05-1.562-.986-1.038-1.484-2.488-1.484-4.332 0-1.845.463-3.346 1.373-4.444.918-1.098 2.153-1.648 3.698-1.648 1.449 0 2.599.48 3.44 1.433.841.953 1.27 2.205 1.27 3.775v1.107h-7.962c.034 1.355.377 2.385 1.029 3.088.653.704 1.562 1.056 2.746 1.056a9.293 9.293 0 0 0 3.697-.781v1.561a9.075 9.075 0 0 1-1.758.575c-.549.12-1.218.172-1.999.172Zm8.982-11.78v4.848h6.478v-4.848h1.75v11.565h-1.75v-5.216h-6.478v5.216h-1.758V16.622h1.758Zm19.733 1.502h-3.758v10.063h-1.75V18.124h-3.715v-1.502h9.223v1.502ZM98.393 53.6c-1.673 0-2.969-.516-3.886-1.545-.919-1.03-1.373-2.488-1.373-4.376 0-1.887.463-3.431 1.398-4.478.935-1.055 2.257-1.587 3.981-1.587.558 0 1.115.06 1.664.18.558.12.996.258 1.313.42l-.54 1.485a8.229 8.229 0 0 0-1.27-.386 5.55 5.55 0 0 0-1.21-.155c-2.35 0-3.526 1.502-3.526 4.496 0 1.415.283 2.513.858 3.268.575.764 1.424 1.142 2.548 1.142.96 0 1.947-.206 2.968-.627v1.553c-.772.403-1.75.6-2.916.6m7.402-.197h-1.75V41.828h9.703v11.565h-1.767V43.347h-6.186v10.046Zm12.836-5.799c0 1.475.292 2.6.884 3.38.592.772 1.459 1.158 2.608 1.158 1.15 0 2.016-.386 2.608-1.158.601-.772.892-1.896.892-3.38 0-1.485-.291-2.583-.892-3.346-.592-.764-1.467-1.141-2.634-1.141-1.166 0-2.016.377-2.599 1.132-.583.755-.875 1.879-.875 3.363m8.811 0c0 1.888-.472 3.355-1.424 4.419-.953 1.055-2.257 1.587-3.93 1.587-1.038 0-1.947-.24-2.754-.73-.806-.48-1.424-1.175-1.861-2.084-.438-.901-.652-1.965-.652-3.183 0-1.879.471-3.346 1.415-4.401.944-1.047 2.248-1.579 3.921-1.579 1.673 0 2.908.54 3.852 1.613.952 1.081 1.433 2.53 1.433 4.367m8.202-4.504c-1.184 0-2.034.326-2.566.978-.532.652-.797 1.69-.815 3.123v.394c0 1.622.275 2.788.815 3.492.541.703 1.407 1.047 2.609 1.047.995 0 1.775-.404 2.342-1.21.566-.807.849-1.922.849-3.346 0-1.424-.283-2.548-.849-3.32-.567-.772-1.364-1.158-2.394-1.158m.257 10.492c-.755 0-1.441-.137-2.059-.42a3.793 3.793 0 0 1-1.57-1.287h-.128c.085.677.128 1.321.128 1.921v4.753h-1.75V41.82h1.424l.241 1.578h.085c.446-.635.97-1.09 1.57-1.372.601-.284 1.287-.42 2.059-.42 1.536 0 2.72.523 3.552 1.578.832 1.047 1.253 2.514 1.253 4.41 0 1.896-.429 3.371-1.27 4.426-.849 1.047-2.025 1.579-3.526 1.579m15.657-10.269h-3.757v10.063h-1.751V43.33h-3.714v-1.502h9.222v1.502Zm5.439 8.828c1.089 0 1.947-.3 2.565-.892.626-.6.935-1.433.935-2.514v-1.047l-1.75.077c-1.39.052-2.394.266-3.011.644-.618.386-.927.978-.927 1.784 0 .635.189 1.116.575 1.45.386.326.918.498 1.613.498Zm3.955 1.235-.352-1.647h-.086c-.575.72-1.149 1.21-1.724 1.467-.575.258-1.287.386-2.145.386-1.15 0-2.05-.3-2.694-.892-.652-.592-.978-1.433-.978-2.522 0-2.334 1.87-3.56 5.602-3.672l1.965-.069v-.72c0-.91-.197-1.58-.583-2.008-.395-.43-1.013-.652-1.871-.652-.961 0-2.05.291-3.268.883l-.541-1.338a8.582 8.582 0 0 1 1.87-.73 8.344 8.344 0 0 1 2.042-.265c1.382 0 2.394.309 3.063.918.669.61.995 1.587.995 2.943v7.892h-1.295v.026Zm-60.218 15.134h-5.216V78.59h-1.75V67.034h6.966v1.493Zm3.458 4.273c0 1.475.291 2.599.883 3.38.592.772 1.459 1.158 2.608 1.158 1.15 0 2.016-.386 2.608-1.158.601-.773.893-1.897.893-3.38 0-1.485-.292-2.583-.893-3.347-.592-.763-1.467-1.15-2.633-1.15-1.167 0-2.017.378-2.6 1.125-.583.755-.875 1.879-.875 3.363m8.811 0c0 1.887-.472 3.354-1.424 4.418-.953 1.055-2.257 1.587-3.93 1.587-1.038 0-1.947-.24-2.754-.729-.806-.48-1.424-1.175-1.861-2.085-.438-.91-.652-1.964-.652-3.183 0-1.879.472-3.354 1.415-4.4.944-1.047 2.248-1.58 3.921-1.58 1.673 0 2.908.541 3.852 1.614.952 1.072 1.433 2.53 1.433 4.366m8.202-4.495c-1.184 0-2.034.326-2.565.978-.532.652-.798 1.69-.815 3.123v.394c0 1.622.274 2.789.815 3.492.54.704 1.407 1.047 2.608 1.047.995 0 1.776-.403 2.342-1.21.566-.806.849-1.922.849-3.346 0-1.424-.283-2.548-.849-3.32-.566-.772-1.364-1.158-2.394-1.158m.258 10.492c-.755 0-1.442-.137-2.059-.42-.627-.275-1.141-.704-1.57-1.287h-.129c.086.678.129 1.321.129 1.922v4.753h-1.751V67.017h1.425l.24 1.579h.086c.446-.635.969-1.09 1.57-1.373.6-.283 1.286-.42 2.059-.42 1.535 0 2.719.523 3.551 1.578.833 1.047 1.253 2.514 1.253 4.41 0 1.896-.429 3.371-1.27 4.427-.849 1.046-2.024 1.578-3.526 1.578m9.026-5.996c0 1.475.292 2.599.884 3.38.592.772 1.458 1.158 2.608 1.158 1.15 0 2.016-.386 2.608-1.158.601-.773.892-1.897.892-3.38 0-1.485-.291-2.583-.892-3.347-.592-.763-1.467-1.15-2.634-1.15-1.167 0-2.016.378-2.599 1.125-.584.755-.875 1.879-.875 3.363m8.802 0c0 1.887-.472 3.354-1.424 4.418-.953 1.055-2.257 1.587-3.93 1.587-1.038 0-1.947-.24-2.753-.729-.798-.48-1.416-1.175-1.862-2.085-.438-.91-.652-1.964-.652-3.183 0-1.879.472-3.354 1.415-4.4.944-1.047 2.248-1.58 3.921-1.58 1.673 0 2.908.541 3.852 1.614.952 1.072 1.433 2.53 1.433 4.366m9.779 4.281v-8.665h-2.599a19.14 19.14 0 0 1-.901 4.736c-.515 1.604-1.141 2.908-1.905 3.93h5.405Zm3.346 5.508h-1.698V78.59h-8.082v3.998h-1.69V77.08h.909c.944-1.278 1.682-2.78 2.214-4.504.532-1.724.806-3.577.832-5.55h5.851V77.08h1.656v5.508h.008Zm5.465-5.233c1.09 0 1.948-.3 2.565-.892.627-.6.936-1.442.936-2.514v-1.047l-1.751.078c-1.389.051-2.393.266-3.011.643-.618.386-.926.978-.926 1.784 0 .635.188 1.116.574 1.45.386.335.918.498 1.605.498m3.955 1.235-.352-1.647h-.086c-.575.72-1.149 1.21-1.724 1.467-.575.258-1.287.386-2.145.386-1.15 0-2.051-.3-2.694-.883-.652-.592-.978-1.433-.978-2.523 0-2.333 1.87-3.56 5.602-3.672l1.965-.068v-.72c0-.91-.197-1.58-.584-2.009-.394-.428-1.012-.652-1.87-.652-.961 0-2.05.292-3.268.884l-.541-1.338a8.582 8.582 0 0 1 1.87-.73 7.948 7.948 0 0 1 2.042-.265c1.381 0 2.394.308 3.063.918.669.609.995 1.587.995 2.942v7.893h-1.295v.017Zm17.614 0-5.234-13.666h-.085c.103 1.08.145 2.367.145 3.86V78.6h-1.655V63.173h2.702l4.882 12.723h.086l4.924-12.723h2.677V78.6h-1.793v-9.935c0-1.141.051-2.376.146-3.706h-.086l-5.277 13.65h-1.449l.017-.018Zm13.58-5.79c0 1.475.291 2.599.883 3.38.592.772 1.459 1.158 2.608 1.158 1.15 0 2.016-.386 2.608-1.158.601-.773.893-1.897.893-3.38 0-1.485-.292-2.583-.893-3.347-.592-.763-1.467-1.15-2.633-1.15-1.167 0-2.017.378-2.6 1.125-.583.755-.875 1.879-.875 3.363m8.811 0c0 1.887-.472 3.354-1.424 4.418-.953 1.055-2.257 1.587-3.93 1.587-1.038 0-1.947-.24-2.754-.729-.806-.48-1.424-1.175-1.861-2.085-.438-.91-.652-1.964-.652-3.183 0-1.879.472-3.354 1.415-4.4.944-1.047 2.248-1.58 3.921-1.58 1.673 0 2.908.541 3.852 1.614.952 1.072 1.433 2.53 1.433 4.366m7.706 6.006c-1.673 0-2.969-.515-3.887-1.545-.918-1.029-1.372-2.487-1.372-4.375 0-1.887.463-3.432 1.398-4.478.935-1.055 2.256-1.587 3.981-1.587.558 0 1.115.06 1.664.18.558.12.995.257 1.313.42l-.541 1.484a8.343 8.343 0 0 0-1.261-.386 5.545 5.545 0 0 0-1.209-.154c-2.351 0-3.518 1.501-3.518 4.495 0 1.416.283 2.514.858 3.27.575.763 1.424 1.14 2.548 1.14.961 0 1.948-.206 2.968-.626v1.553c-.772.403-1.75.6-2.925.6m12.38-11.762h1.922l-4.985 5.577 5.396 5.98h-2.041l-5.277-5.852v5.851h-1.75V67.034h1.75v5.62l4.985-5.62Zm12.473 8.073c0-.626-.241-1.08-.713-1.364-.471-.283-1.261-.429-2.359-.429h-3.174v3.81h3.217c2.016 0 3.029-.67 3.029-2.017Zm-.326-5.01c0-.566-.215-.961-.652-1.201-.429-.232-1.09-.352-1.965-.352h-3.303v3.26h2.96c1.081 0 1.844-.137 2.29-.403.446-.266.67-.704.67-1.304Zm1.707-.172c0 .755-.215 1.321-.652 1.707-.429.395-1.038.652-1.819.79v.094c.987.137 1.707.42 2.153.867.455.446.687 1.055.687 1.836 0 1.08-.395 1.904-1.184 2.488-.79.583-1.948.875-3.466.875h-5.096V67.025h5.079c2.874 0 4.306.97 4.306 2.9m15.821 8.665h-1.75V67.034h1.75V78.59Zm-11.17-5.276v3.81h2.96c1.861 0 2.788-.653 2.788-1.948 0-.644-.214-1.115-.643-1.416-.429-.291-1.167-.446-2.197-.446h-2.908Zm0-1.51h3.157c1.467 0 2.557.275 3.26.815.704.54 1.064 1.356 1.064 2.445 0 1.158-.377 2.034-1.124 2.634-.746.592-1.853.892-3.303.892h-4.804V67.034h1.75v4.779-.009Z" fill="#E22B36"/><path fill-rule="evenodd" clip-rule="evenodd" d="M23.593 66.76c.506-1.888 1.664-2.858 3.577-3.175 1.853-.317 3.895-1.347 6.126-2.385.943-.695 1.063-.378.377.97l-1.064 1.226c-.566.627-.695 1.287.095 1.913 1.072.532 1.51 1.039 1.347 1.476-1.159-.317-2.231-.154-3.14.695-.661-.189-1.442-.094-2.548.438-.567-.318-1.193-.344-1.948-.13-.189-.471-.72-.6-1.63-.437-.249-.283-.66-.472-1.192-.592Zm20.35-41.644c0-.223.815-.781 1.887-1.51.472-.378.91-.507 1.321-.507.129.035.318.06.566.035.25.154.155.283-.128.343-.129-.094-.25-.129-.378-.06-.283.06-.317.249-.506.317l-.129-.188c-.377.248-.626.943-.91 1.287l-.06-.344c-.188.035-.317.438-.591.661.034-.249-.034-.377-.129-.377-.472.317-.815.471-.944.343ZM31.477 41.57c.283 0 .532.094.532.188 0 .13-.249.224-.532.224-.318 0-.566-.095-.566-.224 0-.094.248-.188.566-.188Zm2.136-.438c.189-.283.412-.412.472-.343.06.094-.034.377-.189.626-.188.283-.412.438-.472.343-.06-.06.035-.343.19-.626Zm-.686.378c.128-.223.283-.344.343-.284.06.06 0 .284-.129.507-.154.223-.317.343-.377.283-.06-.06 0-.283.154-.506m-.626.128c.129-.188.249-.283.283-.248.06.06 0 .248-.094.437-.13.154-.25.249-.318.223-.034-.06 0-.249.129-.412Zm-10.458-2.23-.129.343c.155.034.283-.189.438-.283l-.13.566c.19.034.627-.438.945-.66l-.223.566c.283 0 .471-.412.686-.627l-.129.592c.343-.034.566-.471.85-.72l-.06.566c.248-.034.437-.378.694-.592l.13.412c.222.034.342-.283.531-.412l.094.377.472-.471.095.411.532-.188.154.223.438-.223-.035.471.592-.248.06.317.438-.249v.412l.506-.129.034.378.755-.318-.248.567.66-.412-.094.437.72-.317-.412.66c.472.035.627-.317.944-.471l-.223.6c.472-.094.875-.472 1.287-.97.094.155.034.413-.317.945.506-.224.755-.567.943-.944l-.154.66c.317-.034.626-.283.91-.72l-.035.626c.249-.189.438-.438.566-.755.318.129.66-.06.79-.566.188-.472.06-.626-.344-.472-1.346.944-3.14 1.193-5.782.412-1.699-.472-3.457-.532-5.216-.592-.79-.034-1.442.094-1.759.815m3.99-6.752c.128-.223.377-.412.686-.592l.06.283.755-.249.06.25.815-.438c-.472.592-.566.849-.412.849.129 0 .72-.686.91-.506-.412.626-.035.437.66-.129.189.06-.249.506-.189.566.06.06.318-.128.815-.472.129-.094.412-.411.472-.248.035.188-.154.283-.249.412-.506.591-.377.506.507-.06.128-.06.317-.224.437-.155-.6.79-.343.626.532.094.129-.06.283-.283.438-.128-1.099.978-.91 1.098.506.411-.66.755-.506.79.532.13.094-.035.223 0 .343-.06-.472.471-.532.814-.318.694.344-.154.79-.343 1.004-.283-.437.437-.412.626.155.532.188.06 0 .283-.567.66-.094.155-.188 0-.283-.377-.06.223-.154.223-.248.094l-.13.815-.188-.034v-.472c-.094-.129-.189-.129-.283 0l-.154.626-.284-.154c-.094.223-.223.438-.437.592-.189-.249-.318-.189-.378.034-.128.035-.188-.06-.317-.034-.095.283-.189.343-.343.154a3.777 3.777 0 0 0-.72.567l-.13-.318c-.223.318-.411.506-.532.438l-.223-.223-.343.566-.566.154c0 .155.223.155.592.095.506-.06 1.476-.283 2.102-.472.626-.189 1.321-.283 2.076-.6.592-.284 1.287-.79 1.982-1.133.154.129.034.437-1.287 1.476l-.626-.19.343.473c-.154.154-.283.223-.438.188l-.566-.283.189.592c-.412 0-.6-.506-.97-.283l.155.472-.85-.249.155.566-.72-.317-.155.317c-.223 0-.343.06-.378.155 1.665.283 3.483-.318 5.37-1.227.095-.034.13.034.13.189-.155.755-.695 1.415-1.536 2.007l.249-1.004c-.567.25-1.193 1.476-1.665 1.63l.506-1.32-1.475 1.226c-.129-.154.06-.506.377-.944-.437 0-1.192 1.038-1.32.97-.318-.154.248-.472.377-.695-.412-.034-.695.343-1.038.532-.035-.189.188-.412.566-.755l-1.227.566c0-.223.472-.412.566-.72-.566.377-1.064.626-1.192.592l.377-.593-1.064.567.661-.695-1.133.532.318-.592-.815.532.343-.66c-.412.342-.79.565-1.004.565.223-.283.378-.506.343-.66-.377.317-.755.532-.909.532l.154-.532a2.67 2.67 0 0 1-1.038.66l.378-.626c.06-.094.034-.223-.095-.129l-.849.695c.189-.343.283-.566.155-.66l-.592.317.06-.343-.687.755c-.094-.034.035-.223.129-.566l-.72.471c.377-.755 1.003-1.252 1.852-1.51 1.004-.317 1.794-.343 2.42-.437 1.098-.154 1.793-.249 2.668-.66.412-.155.875-.344 1.381-.756.25-.188.155-.248-.128-.223l-1.133.06v-.506l-.437.592-.095-.592-.377 1.038-.155-1.192-.283 1.287-.154-1.253-.472 1.441-.129-1.51-.283 1.536-.283-1.57-.189 1.57-.317-1.475-.129 1.415-.412-1.441-.034 1.51-.472-1.442-.094 1.287-.318-1.252-.128 1.132-.25-1.038-.154 1.133c-.471-.884-.66-1.605-.343-2.008.472-.532 1.098-.66 1.725-.566m3.577-3.423c.095 0 .189.128.249.343.06.223.06.412.034.412-.094.034-.188-.129-.248-.344-.06-.188-.06-.377-.035-.411Zm-3.2-.378c.472-.72.85-.944 1.098-.377.318-1.004.66-1.098 1.098-.223.592 0 .721.91.627 2.265l-.567-1.51v.978c-.377-1.665-2.796-.695-2.264-1.133m10.423-5.465c.687.06 1.382.318 2.042.687.035.094.06.154-.06.094-.249-.189-.472-.283-.66-.283.06.283.034.412-.095.377-.249-.437-.472-.506-.66-.411-.06.034-.095.06-.155.034-.189-.412-.283-.412-.377-.249-.19-.154-.19-.249-.035-.249Zm-3.551.189c-.155.094-.155.154-.035.189.223-.189.438-.223.72.06 0-.412.155-.378.507.128-.129-.506 0-.626.532.13 0-.413.034-.473.377.222.095.129.19.129.224.06-.19-.72-.095-.695.317.06.129.155.189.155.189.06-.035-.506.188-.411.66.284.129.154.189.223.223.06-.094-.412.095-.378.507.128.317-.034.755.223 1.32.72.06.095.13.13.19.095-.318-.566.06-.343.566 0 .317-.154.343-.248.154-.317-1.072-.378-1.947-.79-2.574-1.253-.72-.566-1.038-.412-1.887-.944-.72-.317-1.381-.154-1.982.318m-1.536 1.004c-.377.128-.377.283-.034.343a.835.835 0 0 0 .412 0c.223-.034.317 0 .412.189.154.317.343.437.506.343.094-.095-.6-.6-.249-.6h.189c.532.505 1.038.789 1.004.694l-.223-.566c-.06-.189.223-.094.343.034l.72.627c.095.128 0-.095-.128-.507-.06-.128.128-.128.248 0 .438.438.978 1.193.978.91v-.283c0-.129.155-.129.25 0 .248.317.591.592.566.471l-.06-.248c-.035-.155.094-.155.283 0l.755.626c.154.129.283.06.223-.034l-.129-.189c-.094-.154-.034-.189.154-.06l.661.472c.129.094.129-.035-.06-.318h.377c.06.223.224.284.601.438.094.06.129-.06.317-.129l.91-.283c.283-.094.249-.283 0-.223-1.321.343-2.703-.317-4.178-1.132-1.948-1.038-3.518-1.038-4.839-.592m12.938.72c.06.06 0 .155-.095.283-.094.095-.223.13-.283.095-.034-.06 0-.189.094-.283.13-.095.223-.13.283-.095Zm1.003.249c-.223-.154-.317.223.06.094l.532-.471c.25-.438.095.128.25.094.188-.06.47-.626.41-.85l.438-.223c.25-.223.19-.317-.154-.283-.412.318-.815.661-1.158 1.133l-.378.506ZM68.11 61.089l.318-.661c.154-.223.283-.223.377-.034l.755.695c-.154.154-.506.154-.755.223l.249.411-.249.13-.094.342c-.472-.377-.755-.72-.592-1.098m.66-2.265c.095 0 .19.283.19.6 0 .318-.095.601-.19.601-.128 0-.188-.283-.188-.6 0-.318.06-.6.189-.6Zm-.437-2.54c.06-.06.223.06.317.224.129.189.155.377.095.412-.06.034-.223-.06-.318-.25-.128-.188-.154-.342-.094-.377m2.008-3.08c-.095-.094-.19-.06-.284.035-.343.411-.411.72-.223 1.003l.687.532c.223.19.471.095.343-.094l-.249-.343c.154.06.283.223.438.223.128 0 .154-.189 0-.318-.25-.248-.318-.343-.155-.506.06-.06.06-.129-.034-.188l-.532-.344h.009Zm0-2.917c-.318-.377-.25-.592.154-.566-.378-.6.034-.72.412-.094.188.283.223.85.154 1.51-.034.188-.249.248-.317 0-.129-.378-.25-.627-.412-.85m.249 2.48.154-.72c.034-.19.094-.155.189 0 .249.316.472.625.532 1.157.06.223.034.344-.129.378-.189.034-.343-.06-.506-.223-.223-.25-.283-.412-.249-.6m-11.119-8.04c.035-1.32.19-2.385.19-3.363 0-.411.282-.411.282.06.06 1.038-.06 2.102-.188 3.2 0 .155-.284.438-.284.095m1.82 5.242c.06 0 .094.06.094.129 0 .068-.035.128-.095.128s-.094-.06-.094-.128c0-.07.034-.13.094-.13Zm-3.106-4.65.128-.095s.095-.034.129.035l.472.592s.034.094 0 .128l-.129.095s-.094.034-.129-.035l-.506-.6s-.034-.094.035-.129m4.52 3.363.19-1.227-.224.438c-.188 0-.223-.189-.248-.566-.035-.438 0-.6.248-.506l.155.411.129-.283c.223-.128.248 0 .154.378l-.06 1.347c-.129.189-.223.532-.343 0m3.328-3.86c-.188-.25-.223-.567 0-.79a.504.504 0 0 1 .695-.095c.19.095.25.224.25.318l-.378.129.472.128c.248.223.034.627-.19.283-.188-.188-.402-.223-.625-.094 0 .283-.06.343-.224.129M61.47 47.01c.06-.034.189.094.283.249.06.154.094.317 0 .343-.06.06-.189-.06-.249-.223-.094-.155-.094-.343-.034-.378m-2.891-.248c.06-.035.188.06.283.223.094.188.094.343.034.377-.06.034-.189-.06-.283-.249-.094-.154-.094-.317-.034-.343m.85-1.536c.222-.034.505.224.565.567.095.377-.06.686-.283.755-.249.034-.506-.19-.592-.567-.06-.377.06-.694.318-.755m.412 2.077c-.13-.592.06-.687.283-.13.343.816.532 1.854.506 3.107 0 .471-.378.506-.412.06-.129-1.099-.154-2.137-.377-3.046m3.646.978c.034-.6.154-1.227.377-1.819.095-.283.223-.317.378-.154.566-.91.437-.412.188.283l.155.094c.686-1.286.412-.248.343.318-.506.626-.85.755-1.004.317l-.154.815c-.129.378-.223.438-.283.155M48.009 74.155a1.553 1.553 0 0 0-.189-.472c.035.189.06.377.095.566l.094-.094Zm-3.483-7.095c.094-.035.189.188.283.471.06.284.06.532 0 .532-.06.035-.189-.188-.249-.471-.06-.284-.094-.532-.034-.532Zm.66-.155c.06 0 .155.283.155.626 0 .344-.06.627-.154.627-.06 0-.155-.283-.155-.627 0-.343.06-.626.155-.626Zm.532.189c.06 0 .13.249.13.532 0 .317-.06.532-.13.532-.094 0-.128-.223-.128-.532 0-.283.034-.532.128-.532Zm.532-.154c.06 0 .129.283.129.626s-.06.626-.129.626c-.068 0-.128-.283-.128-.626s.06-.626.128-.626Zm.567-.155c.094.034.128.318.094.72-.06.344-.129.661-.223.661-.06 0-.095-.317-.06-.694.034-.378.094-.695.189-.695m.755-.035c.094 0 .094.318.034.695-.06.378-.155.66-.249.66-.06 0-.094-.317-.034-.694.06-.378.188-.66.248-.66Zm.6-.343c.095 0 .249.472.189.91-.094.471-.223.849-.318.815-.094-.035-.034-.412.035-.85.06-.472.034-.91.094-.875Zm-3.2 3.552s.094.094.154.223c.06.154.06.317.06.317-.034.035-.128-.094-.154-.223-.06-.154-.094-.317-.06-.317Zm.438-.155c.06 0 .154.155.223.344.06.188.06.283-.035.317-.128.06-.094-.06-.154-.249-.06-.154-.06-.377-.034-.412Zm3.929-.626c-.155.815-.189 1.073-.506 1.356.128-.507.06-.884.06-.978-.095.034-.155.06-.223.06v.094c.034.317.034.72-.343 1.227-.035-.438.154-.85.154-1.287-.094.034-.154.06-.249.094v.438a4.04 4.04 0 0 1-.249.695c.035 0 .155-.91.06-1.098-.06.034-.154.034-.223.06v.128c-.034.095-.034.19-.094.19-.034 0-.06-.06-.06-.155-.034-.035-.034-.095-.06-.129-.035 0-.095 0-.155.034v.035c.035.094.035.154 0 .189-.034 0-.094-.095-.154-.19-.06 0-.129.035-.154.035.034.154.034.223-.095.283-.154.06-.154-.094-.189-.249-.094.035-.188.035-.283.06.035.13 0 .224-.034.224-.034.034-.094-.06-.154-.19h-.25c.035.13.035.19 0 .224-.033 0-.094-.06-.154-.189l-.034.034s0-.034.034-.034c-.034-.034-.034-.094-.06-.154-.094-.19-.128-.378-.094-.412.06-.034.154.094.249.317a.51.51 0 0 1 .06.223.51.51 0 0 1 .223-.06c0-.06 0-.094-.034-.128-.06-.25-.06-.472 0-.507.06-.034.154.155.223.412 0 .034.034.095.034.155.094-.035.154-.06.249-.095-.035-.154-.035-.223-.035-.317 0-.129 0-.189.035-.189.034-.034.188.189.248.438.06-.035.095-.035.155-.06l-.034-.06c-.06-.19-.06-.25-.06-.378-.035-.094-.035-.129 0-.154.034-.035.188.223.248.437 0 .034 0 .06.035.094.06-.034.094-.034.154-.06v-.506c0-.128.034-.188.06-.188.026 0 .06.06.095.154.034.129.06.283.094.438.06 0 .129-.035.189-.06v-.25c.034-.094.034-.154.06-.154.034-.034.094.155.128.318.095-.035.155-.06.25-.095v-.343c0-.094.033-.189.06-.189.034-.034.06.035.06.129.034.094.06.189.06.317.06-.034.128-.034.188-.094 0-.189.034-.377.034-.506.035-.129.06-.223.095-.223.034-.034.06.034.06.154.034.129.034.283.034.472a.405.405 0 0 1 .189-.06c.223-.875.506-2.076.506-3.14-.06-.129-.129-.223-.189-.343-.06 1.192-.154 2.196-.532 2.857a7.755 7.755 0 0 0-.034-3.2h-.094c.034 1.287.034 2.359-.318 3.08.129-1.038.095-2.136-.317-3.363a.406.406 0 0 0-.189-.06c.283.248.223 1.252.094 1.415-.188-.6-.034-.79-.566-1.192h-.154c.283.317.317.789.249 1.158-.155-.343-.412-.755-.66-1.004h-.284c.412.472.412.566.343.944-.154-.412-.79-.695-1.038-.884-.129 0-.154.034-.283.034.317.155.755.721.6.91-.223-.249-.694-.506-.883-.85-.129 0-.06.06-.189.06.06.19 0 .318.034.532-.283-.06-.437-.094-.78-.471-.06 0-.19-.035-.19 0 .035.094.155.317.19.411-.06-.094-.721-.437-.79-.531-.034-.035.129-.035-.248-.06.034.094.248.591.283.686-.06-.095-.532-.592-.592-.66-.155-.035-.283-.035-.438-.06l-.283-.473c1.416.095 2.986.035 4.864-.317l1.76-.343c.591-.19 1.003.128 1.132 1.038l.094 1.004c.378.531.532 1.192.154 2.101.155.661.532 1.227 1.099 1.7.506.471.566 1.132-.035 2.075-.532 1.382-1.287 2.23-1.947 3.14 0 .035-.06.06-.06.095a.415.415 0 0 0-.095.128c.035-.06.06-.094.095-.154-.035-.154-.06-.317-.095-.472a.806.806 0 0 1 .155.343c.094-.154.189-.317.283-.472-.034-.154-.06-.317-.094-.506.06.129.128.223.188.343.06-.128.155-.248.223-.377-.06-.154-.094-.343-.154-.532.094.129.154.249.223.377.094-.154.189-.317.249-.471-.035-.155-.095-.318-.129-.472.06.094.129.188.189.317a5.3 5.3 0 0 0 .189-.695l-3.235 2.008c.283-.249.6-.472.875-.72l-.034.034c-.034-.19-.06-.412-.094-.601.094.154.154.343.223.506.06-.06.154-.129.223-.189-.035-.248-.06-.506-.095-.755.13.224.19.438.25.627.093-.06.188-.155.282-.223-.034-.318-.06-.661-.128-1.004.154.283.248.566.317.85a1.87 1.87 0 0 1 .249-.224 30.812 30.812 0 0 0-.155-1.415c.223.437.378.849.378 1.192.06-.06.129-.094.189-.154a14.127 14.127 0 0 0-.19-1.536c.25.472.413.944.438 1.321 0-.034.06-.06.095-.094 0-.506-.095-1.193-.189-1.819.318.6.472 1.158.412 1.57l.189-.189c-.035-.91-.344-1.724-.627-2.574-.128.438-.128.601-.248.567.06-.507.034-.721-.06-.79-.06.687-.224 1.133-.438 1.347l.129-1.132h-.19v-.026Zm-2.823 1.982h-.188c-.035.154-.06.317.06.343.128 0 .128-.154.128-.343Zm.343-.343c-.06 0-.094.06-.154.283-.06.189-.094.377.094.412.155 0 .155-.155.155-.378s-.035-.283-.095-.317Zm.438.06h-.189c-.06.283-.06.532.06.566.129.034.129-.223.129-.566Zm-.06-.438s-.06.06-.094.155h.154c-.034-.095-.034-.155-.06-.155Zm.438-.06c-.095 0-.13.095-.224.343-.06.284-.128.532.095.567.223.034.223-.223.223-.507 0-.283-.034-.411-.094-.411m-2.171-9.017c.79.189 1.604.85 2.42 1.536.128.223.06.283-.13.188-.566-.188-1.38-1.132-2.29-1.724Zm3.02 2.042c.154.094.223.189.189.223-.035.06-.155.034-.318-.06-.129-.095-.223-.223-.189-.25.035-.033.155 0 .318.095m8.888-2.736c-.189.283-.249 1.347.695 2.642.343.438-.06.755.437.815.19-.034.318-.189.344-.472l-.318-.154h.438l-.472-.318c.154-.034.532.06.506-.094-.034-.189-.472-.223-.695-.318l.532-.128c.034-.155-.283-.283-.79-.438l.507-.129-.566-.343.437-.128-.686-.343.377-.19-.412-.128.378-.189c-.317-.128-.438-.411-.72-.094m-.756.815c-.188-.412-.223-.755-.128-1.072.223-.567.437-.721.626-.721.377.412-.249.66-.377.97-.095.06-.13.282-.13.814m-.154-1.947c-.154.189-.248.377-.188.438.06.06.248-.06.412-.224.154-.188.248-.343.188-.411-.06-.069-.249.034-.412.188m-.154 2.008c.094 0 .189.094.189.223a.203.203 0 0 1-.189.189c-.129 0-.223-.095-.223-.19 0-.128.094-.222.223-.222Zm.412.626c.128.035.154.189.06.343-.06.155-.189.25-.283.19-.129-.035-.155-.19-.06-.344.06-.154.188-.249.283-.189Zm.437.66c.155.06.19.224.06.413a.516.516 0 0 1-.471.223c-.155-.06-.19-.25-.095-.412.095-.155.318-.283.506-.223Zm.472.721c.094.13.035.25-.129.318-.128.06-.317.034-.411-.095-.06-.094-.035-.223.128-.283.155-.06.318-.034.412.06Zm2.265.378c.06-.094.06-.249-.094-.283-.155-.034-.25-.034-.343-.189-.13-.377.06-.566.377-.66.249 0 .343.094.283.248l-.154.129c.283.094.472.189.566.343-.154 0-.249.034-.283.154.532-.094.506.755.034.601-.317-.094-.472.034-.317.566.128.627.566.79.532.129-.06-.317 1.003-.377 1.132.317l-.412-.154c.095.506.507.283.566.72l-.343.035c.412.283.721.626.875 1.038-.437-.06-.471-.532-.875-.532.532.72 1.159.566 1.476 1.287-.438-.034-.97-.377-1.57-.944.532.755.875 1.382.755 1.699-.79-.343-.944-1.51-1.253-1.853 0 .592.438.944.284 1.604-.318-.377-.472-.978-.472-1.913.317.06.437-.154.437-.695-.06-.566-.343-.532-.283 0 0 .412-.283.532-1.132.034-.13.13.06.284.531.567l-.034.472.249-.412.094 1.32c-.034.344-.128.284-.223-.06l-.094-.66c0 .472-.06.695-.223.66l-.129-1.226-.343.438-.094-.687-.318.25v-.85c-.223.128-.472.034-.72-.344.343.095.566.035.849-.128-.154-.626.129-.944.66-1.004m-7.472 3.835c.034-.283.094-.377-.189-.755-.129-.129-.223-.154-.188 0 .06.249.317.506.377.755Zm-.506-1.913c.317.283.437.755.695 1.038.154.189.188.034.128-.189-.223-.592-.411-.626-.815-.85m.06-1.226c.378.472.472 1.133.79 1.57.189.283.283.094.223-.249-.249-.875-.472-.944-1.004-1.321m.249-.875c.6.189 1.038.91 1.038 1.536 0 .343-.154.566-.249.248-.129-.437-.343-1.347-.79-1.793m.25-.471c.531.223.875.6 1.063 1.158.035.317 0 .471-.223.223-.128-.472-.437-.944-.849-1.382m3.706 15.546c.129-.317.6-.626 1.159-.377.248.06.223.377.223.592-.155-.155-.318-.344-.472-.155-.438-.343-.6-.154-.91-.06Zm-1.698.129c.128 0 .223.06.223.189 0 .094-.095.154-.223.154-.095 0-.19-.06-.19-.154 0-.13.095-.19.19-.19Zm-1.099 0c.06-.034.155.094.224.249.034.154.034.317-.035.317-.06.034-.154-.06-.223-.249-.034-.154-.034-.317.034-.317Zm.378-.06s.094.06.129.189c.034.094.034.188-.035.222-.034 0-.094-.06-.128-.188-.035-.095-.035-.189.034-.223Zm.094-4.05s-.06.06-.06.095c-.129.128-.249.223-.283.154-.06-.034-.034-.189.06-.317l.129-.129c-.035-.034-.035-.06-.06-.094-.034.034-.034.06-.06.094-.129.154-.283.249-.343.189-.06-.035-.035-.223.094-.378.034-.06.094-.094.129-.128-.035-.035-.035-.06-.06-.06-.13.154-.284.223-.344.188-.06-.06-.034-.223.095-.377 0-.035.034-.06.06-.06-.06-.06-.06-.095-.095-.129-.094.06-.154.094-.223.06-.034-.034 0-.154.095-.283-.06-.129-.095-.249 0-.317.188-.155.283.06.472.471.06.155 0 .25.094.344.06.128.249.188.318.283.222.343.188.626.154.66-.06.035-.034-.034-.154-.283m0 .318c-.06-.06-.25.034-.412.223-.129.188-.19.377-.095.437.06.06.223-.034.378-.223.154-.189.223-.377.129-.437Zm3.86-1.853s0 .188-.06.377-.189.317-.249.283c-.034 0 0-.189.06-.377.095-.19.19-.318.25-.284Zm-.472-.19c.06.035.035.284-.094.567-.154.249-.318.472-.412.438-.094-.035-.06-.284.094-.567.13-.283.318-.472.412-.437Zm-1.098-.437c.06.035.034.223-.06.472-.094.223-.223.377-.283.343-.06-.034-.034-.223.06-.437.094-.25.223-.412.283-.378ZM42.527 48.52c-.249.189-.343.412.154.377-.343.318-.377.532-.094.627-.626.789-.626 1.003-.034.66-.687.875-.6 1.004-.129.85-.6.72-.506.815-.317.849-.412.566-.412.85-.035.815-.317.129-.532.377-.6.884-.129.506-1.476 1.063-.343 1.535.343.19.626.66.849 1.476.094.438.283.472.66.317.318-.094.627-.128.944-.154.6.06.627-.592-.034-.686.06-.25-.155-.378-.506-.223.283-.472-.06-.344-.189-.412.189-.095.154-.318-.343-.035l-.06-.154c.283-.094.377-.249.411-.438l-.849.284c.249-.224.378-.378.343-.532l-.592.128c.627-.437.876-.755.85-.909l-.66.189c.471-.378.788-.687.754-.875l-.566.223c0-.19.249-.378.72-.507.378-.188.567-.437.507-.789l-.85.412c.695-.626 1.253-1.193 1.416-1.57-.06-.223-.755.249-1.664 1.004v-.155c.875-.6 1.535-1.286 2.041-2.076l-1.664 1.287 1.51-1.793c-.094-.223-.532.034-1.381.91l.06-.19.79-.849a2.975 2.975 0 0 0 1.226-1.32c.154-.413-.378.128-1.193.849-.188.188-.411.283-.626.506l1.913-2.008.035-.249c-.19-.188-1.416 1.253-2.454 1.759m-2.265 7.756c-.343-.223.034-.721.283-.507l.944.695c.283.224 0 .592-.223.438l-1.004-.626Zm.377-.6c-.343-.224.06-.661.284-.473l.506.507c.283.248.094.471-.155.343l-.626-.378h-.009Zm2.008 1.887c-.249-.13-.377.06-.223.188.412.343.85.627 1.321.85.472.248.97.283 1.442.283.343 0 .506-.223.06-.318-.816-.223-1.63-.471-2.608-1.003m.248-.035c-.154-.189-.128-.343.095-.472l1.132-.094c.223 0 .412.129.6.377l.533.601c.223.283.034.506-.19.438a13.564 13.564 0 0 1-2.17-.85Zm1.133-2.985c.188-.343.472-.6.875-.755 1.072-.155 2.136-.378 3.14-.755.317-.223.437-.155.412.189-.095.969-.223 1.793-.507 2.041v-1.698l-.128.034c-.095.85-.223 1.476-.438 1.724l.06-1.57h-.154l-.343 1.536.094-1.347c0-.189-.06-.223-.154-.129-.223 1.57-.507 2.231-.815 2.446.317-1.004.317-1.7.248-2.291l-.094-.06c-.094.815-.223 1.604-.506 2.196-.318-.472.283-1.287.154-2.076h-.06l-.566 1.947c-.189 0-.129-.248.06-.755l.06-1.098-.094.06c-.155.6-.318 1.038-.532 1.416l.094-1.441-.412 1.038.035-.85-.438.19.009.008Zm4.65-1.193c.034-.343.411-.249.248.095l-.188.437h-.095l.035-.532Zm-.095 1.287s.06.094.06.223-.034.223-.06.223c-.025 0-.06-.094-.06-.223s.035-.223.06-.223Zm.155-.472c.06 0 .094.035.094.129 0 .06-.034.129-.094.129s-.129-.06-.129-.13c0-.093.06-.128.129-.128Zm-.035-1.913c.095 0 .155.129.19.283.034.155.034.318-.06.318-.035.034-.13-.095-.155-.25-.035-.154 0-.317.034-.342m-.472-.91c.283.283.318.532.283.755-.034.318-.283.532-.283.318-.034-.284 0-.592-.223-.97-.129-.154.094-.223.223-.094m-2.29-.567c.034-.317.283-.06.283.13l-.095.505c-.094.095-.129.035-.223-.154l.035-.472v-.009Zm-1.099 1.63 1.536-.317c.249-.094.343-.249.283-.472l-.129-2.076c-.094-.412.19-.249.284-.034.223 0 .248.154.06.377.531.06.694.223.411.438l-.437.094.566.06c.249.095.189.283.034.318l-.532.094.661.095c.318 0 .318.094-.06.283l-.283.188.472.06c.223-.034.283.06.189.318.154.755 0 1.227-.627 1.227l-2.102.471c-.128-.094-.188-.094-.128-.128 0-.035-.035-.06-.035-.06 0-.06.06-.129.129-.129.034 0 .094.034.094.094.13-.034.224-.034.318-.06v-.626l-.283.06v.094c0 .13-.06.224-.129.224s-.129-.095-.129-.224v-.034l-.128.035c-.284-.095-.284-.224-.035-.378m1.193-.815c-.06 0-.129.06-.129.154 0 .095.06.155.129.155.094 0 .154-.06.154-.155 0-.094-.06-.154-.154-.154Zm1.252.66s-.06.035-.06.06c0 .06.035.095.06.095.026 0 .06-.034.06-.094 0-.035-.034-.06-.06-.06Zm-.128-.411c-.129.034-.223.129-.189.154.034.095.129.129.249.095.129-.035.223-.095.188-.19-.034-.06-.128-.093-.248-.06Zm-1.442 1.347h.06v-.627l-.154.06.094.567Zm.344-.095c.06 0 .094-.034.154-.034v-.592l-.283.06.129.566Zm.377-.128s.06-.035.094-.06v-.507l-.128.035.034.532Zm.283-.129s.06 0 .095-.034c.223-.25.223-.378-.035-.438h-.06v.472Zm0-5.808a33.712 33.712 0 0 0 3.483 4.77c.155.189.035-.378.155-.154.283.591.72 1.158.91 1.346.188-.154-.413-.686-.507-1.32l1.793 2.075c.155-.283-.875-1.51-1.724-2.573l.128-.13 2.042 2.67.095-.035c-.318-.875-1.253-1.948-1.888-2.917l.06-.223c.378.472.875 1.192 1.287 1.793.6.85 1.133 1.604 1.287 1.664.755.189-1.793-2.48-2.951-4.71l.034-.128c1.381 2.101 2.608 4.023 3.955 4.898.154.095.283-.094.129-.283-1.227-1.441-2.668-3.011-3.552-4.427l.06-.129c1.321 1.57 2.008 3.364 4.521 4.865.155.094.25.249.412.129.566-.438-2.17-1.099-4.272-4.65l.034-.25c.79 1.073.91 1.382 1.63 2.137 1.004 1.098 2.574 2.385 2.823 2.196.248-.223-2.265-1.947-3.612-4.049l.06-.06c1.064 1.476 2.574 3.269 4.77 4.393.317.154.189.128.566.128.978.06-2.162-1.535-3.8-3.328l.034-.155c.472.412 1.072.944 1.724 1.476.79.566 1.605 1.063 2.265 1.441.6.317 1.072.506 1.287.412.566-.283-2.17-1.253-2.857-1.982.412.223.815.378 1.158.532 1.193.592 2.042 1.004 2.23.79.13-.155-.505-.507-1.603-.91-.13-.129-.035-.155.283-.095 1.252.507 1.982.85 2.136.755.412-.128-.249-.411-1.004-.875.944.412 1.759.79 2.197.66.154-.033-.532-.41-1.133-.943.85.532 2.857 1.253.944-.094l.128-.06c.721.532 1.63.755.532-.129h.155c.626.506.97.875.506-.154.626.91 1.253 1.252.412-.06l.97.755c-.344.154-.318.248 0 .437.814.532.874.438.72 0 .094-.85-.223-1.415-.78-1.759-.627-.411-.601.06.128 1.193a2.852 2.852 0 0 1-.66-.72.81.81 0 0 0-.721-.413c-1.476.035-2.917.318-4.307.507-1.064.154-1.888 0-2.265-.25-.378-.317-.506-.437-.318-.788.13-.284 0-.507-.188-.592l-1.004-2.008c.129.223.283.317.412.506.412.66.695 1.193.789 1.158-.154-.437-.695-1.415-1.098-2.513.79 1.38 1.475 2.573 1.664 2.419-.094-.532-.72-1.57-1.347-2.634.189.189.25.249.378.412.249.317.472.6.6.532-.506-1.038-1.038-1.699-1.604-1.887-.875-.318-1.416-.438-1.287.128l-.437-.506-.472-.06c-.155.06.06.317.377.85l-.094.06-.532-.85c-.155-.094-.378-.189-.412 0l.283.566-.6-.66c-.283-.155-.592-.224-.592-.095l.875 1.442c-.155-.224-.412-.438-.627-.755-.343-.472-.626-.816-1.038-.876-.411-.034.412.627.97 1.982l-1.347-1.947c-.129-.095-.66-.189-.686 0l1.57 2.265c-.721-.815-1.442-1.51-1.853-2.29-.095-.095-.19-.095-.284-.095-.06-.035-.128 0-.188.06l1.913 2.48a10.066 10.066 0 0 1-1.038-1.073c-.412-.566-.79-.944-1.099-1.442-.128-.154-.377-.094-.411-.034-.155.223 1.441 1.853 2.136 2.823a16.12 16.12 0 0 1-2.42-2.823c-.317-.154-.531-.154-.626 0-.094.189 1.948 2.136 2.728 3.363-1.063-1.132-2.101-2.196-2.95-3.363-.13-.154-.507-.154-.507 0 0 .317 1.759 1.913 3.174 3.86-1.038-1.132-2.29-2.633-2.822-2.95-.249-.035.626 1.072 2.634 3.363a27.65 27.65 0 0 1-2.763-2.917c-.249.223.85 1.604 2.454 3.363l-2.514-2.634c-.343-.223-.412-.189-.223.129m10.681-.592c.532.789 1.038 1.51 1.441 2.419.155.343.378.249.224-.129-.344-.815-.815-1.535-1.322-2.385-.248-.377-.566-.223-.343.095Zm-.97-.318c.756 1.004 1.536 2.076 2.137 3.295.283.566.566.411.283-.224-.506-1.038-1.132-2.041-1.853-3.045-.317-.438-.72-.283-.566-.034M20.77 70.157c.695.343 1.038-.095.755-.79l.283-.128v-.506l.317-.035-.034-.377.249-.223c.094-.506-.189-.815-.249-.567-.343.816-.626 1.416-1.064 1.7.378-.567.755-1.159.97-2.008.189.128.377.188.532 0l1.038-1.699c.094-.472 0-.6-.223-.532l-1.004 1.476c.377-.755.66-1.416.6-1.665.627-.412.721-1.226.755-2.196.13.472.318.66.532.532l.13-.72.282.754c.189-.317.318-.695.412-1.158l.06 1.038c.223-.034.377-.343.532-.875-.034.343 0 .66.189.79.248-.284.154-.97.506-1.159-.034.566.034.815.249.687l.377-1.004c.129-.155.129.094.035.755.188.034.317-.129.317-.566l.317-.592c-.094.411-.06.72.06.909.095-.06.318-.506.567-1.133-.155.695-.095 1.004.188.944l.318-1.158c-.06.532-.034.91.154.944.095-.532.343-.97.72-1.347l-.093.66c.034.532.377-.06.875-1.158l.094.687c.249-.19.438-.627.566-1.099l.223.343.223-.6c-.154-.129-.412-.06-.66.06-1.193.532-2.36.343-3.2.91l-.25-.13c.533-.471.91-1.252 1.193-2.17l.06.189-.411 1.536c.411-.507.626-1.038.849-1.82.094-.282.189-.342.343-.154l-.343.91c-.378.695-.506.97-.412 1.064.627-.661.97-1.442 1.321-2.548-.034.566-.128 1.132-.789 2.29l.155-.034c.471-.283.755-1.193 1.132-2.48l.189-.034-.592 1.759c-.223.438-.189.532.094.472l.944-2.574-.283 1.416h.223l.566-1.665-.223 1.665.66-2.42.13.035-.155 1.51c.128.343.566.06.223-.13l.472-2.727.188-.155c-.034.97-.154 1.948-.377 2.917.343-.437.592-1.699.79-3.234.034-.223.154-.318.317-.343-.155 1.098-.412 2.136-.567 2.89-.06.378.224.438.284.035l.66-3.577-.154 2.89.154-.128c.412-1.476.506-3.106.532-4.77l.189-1.724c.094-.378 0-.627-.318-.661-.943-.189-1.913.154-2.985.875v-.129c.944-.72 1.947-1.158 3.14-.97l.129-.248c-1.7-.377-3.046.283-4.213 1.476l-.189-.06c1.227-1.287 2.634-1.853 4.273-1.699l.189-.154c-1.064 0-2.042-.06-2.857.283-2.325.943-3.578 3.517-3.895 7l-.095.095c.318-4.582 1.913-5.937 3.612-7.095l.06-.223c-2.007 1.132-2.453 1.664-3.174 3.08-1.038 2.041-1.253 4.958-1.038 7.85 0 .532-.095.97-.283 1.346l-.129.06c.129-.248.189-.531.223-.874-.154-2.386-.129-4.676.318-6.658.411-1.724 1.286-3.046 2.325-4.084l.034-.223c-.223.223-.506.283-.755.532-.189.189-.343.506-.532.755-.532.72-1.064 1.724-1.416 3.389-.317 1.51-.317 3.706-.411 6.28l-.095.223c-.128-1.064-.034-2.076 0-3.046.035-4.367 1.158-7.567 3.895-9.23l.095-.284c-3.046 1.227-5.028 4.333-4.676 11.428.034 1.63-.506 3.08-2.042 3.929-.72.412-1.287.815-1.347 1.724-.223 2.548-1.347 4.427-2.514 6.315-.472.755.472 1.192.695.343m-5.525-14.07c.155-.6.566-.944.97-1.665.248-.411.343-.128.317.25-.532.789-.944 1.192-1.287 1.415Zm12.843-10.14c-1.63.153-3.011.471-3.929 1.063l-.06-.189c.472-.437 1.227-.755 2.042-1.038l-.189-.034c-1.192.283-2.42.875-3.646 2.196l-.189.034c1.004-1.535 2.325-2.196 3.706-2.573l-.591.034c-.91.223-1.888.85-2.703 1.699-1.476 1.475-2.634 3.766-3.2 7.035-.06.154-.154-.13-.189.06.155-1.382.438-2.729.97-3.955.506-1.287 1.535-2.797 2.608-3.801.66-.626 1.227-.79 2.076-1.347h-.154c-.721.223-1.133.472-1.665.91-1.158.969-2.196 2.419-2.857 3.74-.626 1.193-1.004 2.574-1.192 4.401-.129.875-.567 1.63-.85 2.008-.506.626-.909.223-1.604 2.076l-.154.06c.094-.377.283-.91.471-1.193.224-.317.438-.471.721-.815.506-.626.97-1.38 1.158-2.633.155-.97.343-2.231.627-3.046.317-.944.6-1.441.97-1.948 1.097-1.51 1.535-2.479 4.083-3.835l-.223.035c-1.853.72-3.012 2.007-4.521 4.487-1.159 1.887-.85 4.238-1.76 5.997-.282.592-1.037 1.475-1.415 1.853l-.154.034c.223-.72 1.003-1.287 1.381-2.007.249-.472.343-1.253.438-1.82.506-3.362 1.475-4.932 2.916-6.597h-.223c-3.01 3.295-2.573 5.62-3.234 7.885-.472 1.475-.97 1.287-2.076 3.363-.034-.318.094-.6.154-.755.095-.318.412-.592.91-1.253.472-.66.875-1.759 1.064-3.457.06-.79.317-1.476.566-2.076.248-.661.437-1.099.72-1.57 1.159-1.854 2.197-3.046 3.647-3.835v-.129c-1.476.626-2.763 2.136-3.767 3.8-.566.944-.875 1.665-1.192 2.729-.223.815-.343 1.913-.627 3.02-.188.815-.626 1.32-1.003 1.793-.283.343-.507.755-.687.875.155-.532.095-1.064.97-1.725.249-.223.412-.506.506-.815.129-2.573.91-4.804 2.29-7-.506.154-.909.686-1.38 1.51.814-2.454 2.17-5.028 4.958-5.654 1.476-.317 3.458.626 5.465 2.42M15.545 59.69a1.513 1.513 0 0 1-.223-.79c.034-.377.318-.342.378-.094.06.472-.155.507-.155.876m3.646 3.363.318-.344c.154-.094.343-.128.472-.06-.035.155-.378.318-.79.412m-.283.97.412-.438c.223-.154.472-.189.66-.094-.06.188-.506.412-1.072.532Zm.035.506.471-.412c.223-.129.507-.155.695-.034-.06.154-.6.343-1.158.437m.129.438.437-.378a.7.7 0 0 1 .661-.034c-.094.189-.566.343-1.098.412Zm.223.472.283-.318c.154-.094.343-.128.472-.06-.034.129-.378.283-.755.378Zm1.604-5.028.249-.154c.129-.06.283-.035.343.034-.034.094-.317.129-.6.129m-.412.532.532-.25c.248-.033.506 0 .626.155-.129.155-.592.189-1.158.095Zm.317-1.287.412-.318c.189-.094.412-.094.566 0-.094.155-.506.25-.97.318m.318-.755.412-.095c.189 0 .378.095.438.224-.095.094-.472.034-.85-.13Zm-.875 8.45.283-.154a.533.533 0 0 1 .343.034c-.034.095-.317.155-.626.129m.875-.97c-.506.438-1.003.755-1.227.695.035-.223.25-.471.532-.6l.695-.094Zm-.317-.317c-.412.283-.85.472-1.004.412.034-.189.223-.343.472-.412h.532Zm2.454 2.574c.566-.343 1.003-.79 1.003-1.004a.883.883 0 0 0-.686.343l-.317.66Zm1.415-.66c.129.034.223.034.318.06-.035.034-.095.06-.13.128l-.222.438c.283-.19.532-.378.66-.532h.19c-.095.06-.155.128-.224.188l-.283.532c.472-.249.85-.592.875-.78h.034c-.128-.155-.377-.25-.66-.25l-.566.224.008-.009Zm2.737.094c.189-.095.85.06.755.283-.034.188-.438.532-.875.85l.249-.567c.06-.095.128-.129.188-.189h-.223a3.01 3.01 0 0 1-.626.532l.189-.472s.094-.06.128-.094c-.06 0-.128-.035-.154-.035-.094.13-.283.25-.472.378l.129-.317c.223-.284.377-.25.72-.378m4.05-.094c.094-.318.343-.472.626-.592l-.094.506.223-.532c.094-.034.223-.06.343-.094l-.094.154-.318.66.438-.566.188-.283h.25l-.155.249-.378.592.472-.532.283-.283c.06 0 .129.034.19.034l-.155.25-.378.625.472-.531.283-.284c.155.035.318.095.412.129l-.094.343-.224.695.344-.626.154-.378h.094c.318-.411-.789-.592-1.698-.471-.79.094-1.193.411-1.193.943m-2.951.566.034.661c.095-.317.223-.626.318-.875l.094.626c.06-.189.095-.412.155-.592v.06l.437.91c0-.378 0-.755-.034-1.098.06 0 .094 0 .154-.035l.318.687c-.035-.25-.035-.507-.035-.755h.129l.223.471c0-.188-.034-.377-.034-.531.128-.035.189-.095.189-.13.094-.437-.567-.342-1.099-.093l-.789.506h-.06v.188Zm-1.57 3.2c-.129-.317-.283-.6 0-1.32.249-.661.566-.85.755-.816.223.25-.06.755.06 1.382l-.506-.438.154.85-.377-.412-.095.754h.009Zm4.461.816c-.06-.13-.154-.19-.189-.19-.06.035 0 .155.06.284.095.129.19.189.224.189.034-.035 0-.155-.095-.284Zm0 .566c.129.189.155.343.129.377-.06.035-.189-.06-.317-.248-.13-.19-.19-.344-.13-.378.06-.034.19.06.318.249Zm-.283.532c-.094-.155-.189-.25-.223-.25-.06.035-.034.19.034.344.095.129.19.249.223.223.06 0 .035-.154-.034-.317Zm-.283.532c.094.248.094.472 0 .506-.06 0-.189-.189-.249-.412-.094-.249-.094-.472-.034-.506.06-.035.223.154.283.412Zm-3.672-.223c.189.034.317.094.317.154-.034.034-.188.06-.343.034-.154-.034-.317-.094-.283-.128 0-.06.155-.095.318-.06m-.155-.412c.223.034.378.128.378.188s-.189.095-.412.06c-.223-.06-.378-.128-.378-.188s.19-.095.412-.06Zm-.094-.506c.249.06.437.154.437.223-.034.094-.248.128-.506.06-.249-.035-.472-.129-.437-.223 0-.06.223-.095.506-.06Zm8.167-5.337c-.188-.626.506-.85 1.227-.532.566.223 1.253.318 2.17.129a4.13 4.13 0 0 1 1.382-.034c.472.248.438.472-.094.566-1.004.944-1.76 1.913-1.888 2.857-.343-.472.378-1.665 1.51-3.14-.695.532-1.321 1.227-1.913 2.007.129-.506.532-1.192 1.098-1.947-1.227.91-2.076 2.265-1.947 4.77-.472-1.51-.155-2.951.815-4.367l-1.347 1.416 1.227-1.888-.756.25.06-.284-.471.223v-.317l-.627.506.13-.532c-.224-.129-.378.06-.567.317m.566 3.552c-.06.378-.034.815.283 1.253.095.094.223-.035.155-.25-.223-.188-.343-.565-.438-1.003Zm1.57.189c-.06 0-.129.154-.129.377s.06.412.13.412c.068 0 .128-.189.128-.412 0-.223-.06-.377-.129-.377Zm1.441-1.605c-.06-.034-.154.095-.248.284-.06.154-.095.343-.035.343.06.034.155-.095.25-.283.06-.155.06-.318.033-.344Zm.344-.754s-.155.06-.25.223c-.094.128-.128.283-.094.317.035.034.155-.06.25-.223.094-.129.154-.249.094-.317Zm2.89-4.393c.06 0 .155 0 .25.034l.248.412c-.094 0-.188-.034-.283-.06l-.223-.377.009-.01Zm-.505 2.728c.06.035.154.189.188.343.035.155 0 .25-.06.223-.06-.034-.154-.154-.188-.317-.035-.155 0-.249.06-.249Zm.471-.034s.13.094.155.249c.06.154.094.283.06.317-.06 0-.129-.094-.189-.249-.06-.189-.094-.317-.034-.317m.566-.095s-.034.223 0 .412c.034.223 0 .318.129.283.154 0 .129-.094.094-.283-.034-.223-.154-.412-.223-.412Zm.532-.188c-.06.034-.034.223.034.472.095.248.19.411.25.377.06 0 .034-.223-.035-.438-.095-.248-.223-.411-.249-.411Zm.566 0c-.06 0-.06.223 0 .506.035.249.155.472.223.472.06-.035.095-.25.035-.532-.06-.249-.155-.472-.25-.438m.627.095c-.06 0-.06.317-.034.566.06.283 0 .412.223.377.189-.034.154-.154.094-.411-.034-.25-.223-.567-.283-.532Zm-3.517-2.634c.283.06.223.094.377.154.155.06.343.035.412.155.506 1.072.129.06.223.06l.034.034-.188-.317c-.284-.035-.567-.06-.85-.095m-3.93 13.564c.155 0 .318.06.318.129 0 .034-.094.094-.248.094-.19 0-.318-.034-.318-.094-.034-.06.094-.129.249-.129Zm.413.79c.248-.06.532-.095.566-.035.06.06-.129.154-.377.249-.25.06-.507.06-.567 0-.034-.06.129-.155.378-.223m.248.249c-.317.06-.506.188-.437.248.06.06.317.06.626-.034.283-.06.472-.189.438-.249-.06-.06-.343-.034-.627.035Zm.378.283c.189-.06.377-.06.412 0 .034.034-.094.128-.283.188-.223.035-.412.035-.438-.034-.034-.034.129-.129.318-.154m.248.249c.19 0 .318.06.318.128.034.06-.094.095-.249.095-.154 0-.317-.035-.317-.095s.094-.129.248-.129Zm3.364-1.253c.248-.094.506-.094.531.034.06.095-.128.283-.377.378-.249.094-.506.094-.532-.035-.034-.094.129-.248.377-.377Zm-.438-.283c-.189.06-.343.189-.283.283.034.06.223.094.412 0 .188-.06.317-.189.283-.283-.035-.095-.223-.095-.412 0Zm-.412-.566c.155-.06.283-.035.318 0 .034.094-.06.188-.224.223-.154.06-.283.06-.317 0-.034-.06.06-.155.223-.223Zm-4.556-2.608c-.034-.155-.188-.155-.248-.035-.035.223.034.506.248.626.25.13.318-.128.19-.223-.13-.128-.155-.223-.19-.377m-.437-.223c.034-.189-.129-.283-.249-.129-.154.223-.223.566-.034.79.223.283.412.034.343-.13-.094-.222-.129-.342-.06-.531Zm-4.495-16.738-.13.411-.128-.06.06-.343h.189l.009-.008Zm-9.738 13.847c.412-.155.506.034.626.506.343.317.567.566.567.815.72.6.591.85-.378.755-.317-.095-.506-.318-.506-.755l-.318-1.321h.009Zm.154 2.419c-.248.377-.188.85.13 1.227a.773.773 0 0 0 .625.283l-.128-.343.377.249c0-.19-.154-.412-.506-.661l.472.129c0-.25-.223-.472-.6-.661h.317c-.155-.438-.438-.566-.687-.223Zm1.227.223c.129-.034.223.129.25.317.033.19-.035.344-.155.378-.095.034-.223-.129-.25-.317 0-.19.06-.378.155-.378Zm8.64-27.35c-.378.154-.412-.155-.13-.378.601-.506 1.254-.695 2.008-.695h1.322c.506 0 .437.506-.035.472h-.943c-.85-.035-1.536.223-2.231.6m2.857-.471c.343 0 .626.06.626.128 0 .095-.283.129-.626.129s-.626-.034-.626-.129c0-.06.283-.128.626-.128Zm.532 15.957c-.129-.129.094-.249.154-.189l.378.343c.094.095-.129.25-.223.19l-.318-.344h.009Zm.283-.249.317.318c.06.06.25-.06.155-.155l-.318-.317c-.06-.06-.223.06-.154.154Zm.189-.283.343.343c.06.095.317-.06.223-.154l-.378-.378c-.094-.094-.317.06-.188.189Zm.154-.472c-.129-.154.155-.377.318-.283l.566.566c.154.155-.223.412-.318.283l-.566-.566Zm.6-.506c-.188-.189.06-.438.224-.283l.686.592c.189.154-.094.437-.249.317l-.66-.626Zm.413-.318.566.532c.128.095.377-.128.223-.283l-.6-.506c-.155-.128-.344.095-.19.249m.532-.189.472.472c.095.094.318-.129.189-.249l-.506-.437c-.129-.095-.283.094-.155.223m-2.513-3.552-.06.566c0 .095-.284.155-.284.034l.06-.566c.035-.128.284-.188.284-.034Zm-.815.79.06.437c.034.129-.283.249-.283.034l-.06-.437c0-.155.248-.283.283-.035Zm-.944.6v.412c0 .128-.249.223-.223 0l.034-.412c0-.155.155-.223.189 0Zm1.192-.79c.06 0 .13.06.13.155 0 .094-.061.154-.13.154-.034 0-.094-.06-.094-.154s.06-.155.094-.155Zm-.875.567c.095 0 .155.094.155.188 0 .13-.06.19-.155.19-.094 0-.154-.06-.154-.19 0-.094.06-.188.154-.188Zm-.789.566.034.378c0 .128-.283.154-.283-.035v-.377c0-.155.249-.155.249.034Zm3.93-12.534c.188 0 .317.06.377.248l-.378.224.472.128-.06.129-.66.154.283.223-.223.19.437-.06-.034.188-.472.189c.343.034.506.128.412.223l-.412.248.343.13-.437.188.377.249-.472.154c.318.095.438.249.472.343l-.506.223c.283.129.343.19.343.343l-.472.19.378.282-.378.13c.318.128.343.282.378.41l-.438.13c.343.128.506.223.438.343l-.532.248.506.06v.13l-.506.154c.377.154.506.283.506.411l-.472.284.506.094-.472.343c.283-.034.438.035.438.189l-.438.223c.344.06.721.129 1.073.223l.128.154.095-.154a.806.806 0 0 1 .66 0l.224.318.154-.378.223.412.189-.506.249.694.188-.72.223.592.19-.66.154.531.154-.626.283.6.223-.755.283.627.189-.507.249.438.154-.532.189.378c.154.317-.189.6-.532.66l-4.676.755c-.283.035-.566-.188-.694-.815-.224-1.158-.13-2.29.034-3.423.283-2.548.686-3.8 1.098-4.616m.72.661.095-.034c-.412 2.23-.6 4.367-.283 6.28-.155-2.986.223-6.152.79-6.692l.093.223c-.66 2.385-.72 4.521-.283 6.434-.283-3.268-.034-5.147.532-6.16v.318c-.437 2.29-.472 4.144-.06 5.654l.129-.095c-.283-2.385-.129-4.238.249-6.091l.223.034c-.438 2.42-.438 4.299-.129 6.032l.129-.13c-.249-2.479-.223-4.203.154-5.773l.189.034c-.343 2.385-.377 4.273-.06 5.809l.129-.035c-.25-2.608-.13-4.461.223-5.842l.128.128c-.248 2.077-.223 3.895 0 5.62l.129-.06c-.06-2.265-.189-4.05.094-5.37l.155-.19c-.223 1.665-.223 3.518.06 5.594h.129c-.224-2.454-.155-4.298.094-5.808l.129.094a37.813 37.813 0 0 0 .034 5.748l.129-.034c-.129-2.702-.035-4.556.248-5.654.25-.094.25.223.035.567-.155 1.63-.223 3.268 0 5.053l.189.034c-.19-2.608-.035-4.11.248-5.594.155-.154.318.035.129.412-.223 1.819-.343 3.106-.154 5.182h.223c.248.094.283.189.034.283-1.536.318-3.011.6-4.427.695-.283.034-.377-.129-.377-.532-.095-2.23.154-4.272.686-6.125m5.182 1.287.188-.944c.224-.129.318-.06.284.188l-.412.781-.06-.034v.009Zm-.343-1.004c.128-.25.377-.189.283.06-.25 1.381-.506 2.548-.532 4.367l-.129-.283c.155-1.63.155-2.574.378-4.144Zm-.472-.06c.094-.129.248-.095.223.06-.249 1.347-.412 2.951-.438 4.77h-.094c-.094-1.759-.034-3.329.317-4.839m-6.529 10.27c.344-.284.661-.755.876-1.63 0 .471.128.754.377.789.189-.129.249-.472.378-.875h.188a1.771 1.771 0 0 0-.06 1.44c.189-.222.318-.685.438-1.475l.094.095c-.06.437-.094.875-.034 1.347.189-.095.412-.661.592-1.476-.035.506-.035.97.094 1.158.223-.223.412-.72.627-1.347-.095.85-.13 1.382.034 1.347.412-.566.249-1.098.72-1.535-.06.506-.411 1.158-.188 1.51.506-.13.377-.91.695-1.665-.035.815 0 1.347.154 1.227.189-.317.249-.695.317-1.098.035-.283 0-.412-.223-.378l-4.212.627c-.377.034-.592.154-.66.377a4.054 4.054 0 0 0-.224 1.57m-7.884-10.93 1.227-.223-.06.249-1.158-.035-.009.01Zm10.02-6.469c-.06-.06-.223.155-.437.438-.189.249-.317.506-.283.506.034.034.223-.154.412-.438.223-.248.343-.506.317-.506m-2.196 2.17c.154-.222.343-.377.532-.437v.412l.815-1.072-.438 1.252c.378-.72.695-1.132.97-1.098l-.567 1.098c-.034.129.035.189.19.155.377-1.004.72-1.57.969-1.605l-.507 1.51c.224-.471.378-.66.472-.566l-.128.472c.248-.506.437-.72.566-.626l-.06.437a.981.981 0 0 1 .377-.412l.155.344a1.17 1.17 0 0 1 .412-.661l.128.317a2.93 2.93 0 0 1 .85-.969l-.19.626.756-.377c.377-.129.437-.035.154.317l-1.535.72c-1.227.696-2.454 1.099-3.707.721-.317-.128-.377-.283-.223-.566m4.401-7.13c.095 0 .155.095.155.224s-.06.249-.155.249c-.06 0-.128-.129-.128-.249s.06-.223.128-.223Zm.378.593c-.06 0-.094-.155-.094-.343 0-.223.034-.378.094-.378s.129.155.129.378c0 .188-.06.343-.13.343Zm.6-.155c.155 0 .284.06.284.13 0 .034-.13.094-.284.094-.128 0-.248-.06-.248-.095 0-.06.128-.129.248-.129Zm.318.532c.06 0 .129.06.129.13 0 .093-.06.154-.13.154-.033 0-.093-.06-.093-.155 0-.06.06-.129.094-.129Zm.506-.034h1.158c.378 0 .438.189.189.532.129.626-.66 1.038-.626.034-.06-.188-.283-.283-.72-.283-.19-.06-.19-.249 0-.283Zm-1.819 7.378c.095 0 .155.06.155.155 0 .094-.06.188-.155.188-.06 0-.128-.094-.128-.188 0-.095.06-.155.128-.155Zm-.506.155c.095 0 .189.094.189.223a.203.203 0 0 1-.189.188c-.129 0-.189-.094-.189-.188 0-.129.06-.223.19-.223Zm.626.343c-.437.283-.72.6-.695.695.095.094.472-.06.91-.343.437-.318.72-.627.66-.721-.06-.094-.471.094-.875.377m1.51-.97c-.248.19-.437.413-.377.473.034.06.283-.095.532-.283.249-.223.437-.438.377-.506-.034-.035-.283.094-.532.317Zm-.97 2.386c.095-.223.19-.438.318-.626l-.06-.035c.06-.377.343-.66.72-.849l.061.034a1.75 1.75 0 0 1 .472-.317c-.094.154-.155.317-.249.438l.094.06c.223-.224.507-.412.815-.507a3.793 3.793 0 0 1-.6.627l.189.128c.283-.248.626-.437.909-.566-.223.223-.438.472-.695.695l.223.129c.283-.223.627-.378.944-.438-.154.129-.318.249-.438.378.223-.06.472-.06.781-.095-.412.189-.66.25-.97.378l.25.154a1.91 1.91 0 0 1 .943-.283c-.223.129-.472.283-.72.412l.222.129c.284-.155.627-.224.91-.19a4.202 4.202 0 0 0-.686.318l.128.095a2.03 2.03 0 0 1 .85-.19c-.25.095-.438.224-.661.318l.189.095a1.41 1.41 0 0 1 .72-.06c-.188.06-.377.094-.566.188l.66.412-.128.06-1.004-.343c-.06 0-.094.034-.128.06 0-.034.034-.06.06-.094l-.25-.06c-.128.06-.282.154-.437.223.095-.129.155-.223.25-.283l-.25-.095c-.128.06-.283.155-.437.223a2.01 2.01 0 0 1 .249-.317l-.25-.094c-.188.128-.342.248-.531.343a2.11 2.11 0 0 1 .317-.412l-.343-.129c-.154.155-.317.283-.472.412a1.1 1.1 0 0 1 .25-.472l-.318-.129a7.4 7.4 0 0 1-.532.472c.094-.188.188-.377.317-.532l-.506-.188a3.226 3.226 0 0 1-.592.532M22.966 15.258a142.365 142.365 0 0 1 2.823 3.578c0 .223-.095.343-.343.343-1.038-1.476-1.82-2.668-2.609-3.8-.154-.224.035-.25.13-.13m4.744 8.074c.094.248-.095.377-.284.128-.411-.472-.317-1.072.13-1.604.471-.566 1.063-.566 1.604-.155.317.25.223.284-.155.284-1.064 0-1.476.532-1.287 1.347m1.098-.507c-.437-.154-.566.035-.472.507 6.28 8.853 15.795 21.79 27.008 37.053l-.06.224.944.531-.318-1.252-.189.129c-8.639-12.063-18.65-26.253-26.913-37.183m-2.951-3.2c.094-.438.378-.66.695-.695l.686.129c.25.188.223.248-.06.283-.566-.095-.875.034-1.038.412-.223.317-.317.343-.283-.13Zm2.196 1.321c-.094 0-.154.06-.154.189 0 .094.06.189.154.189.06 0 .155-.095.155-.19 0-.128-.095-.188-.155-.188Zm-2.29-.626c-.223.283-.155.6.223.978l.506.626c.437.318.66.249.592-.223-.06-.317.034-.437.317-.437a.575.575 0 0 0 .412-.284c.06-.248.034-.377-.189-.437-.412.283-.755.412-1.038.472.378-.249.66-.438.755-.6.095-.095.223-.13.412-.06 0-.155-.06-.318-.283-.378-.438 0-.875.317-1.287.755.249-.532.626-.85 1.193-.85.034-.154 0-.283-.155-.412a1.359 1.359 0 0 0-.978.284l-.472.566h-.008Zm2.54 3.895.06 1.098.222-.472c-.094.592-.154 1.098.06 1.725.06-.944.189-1.253.378-1.099-.095.601-.189 1.227 0 1.7l.317-.876c-.034.91-.06 1.724.223 2.008-.034-1.004 0-1.725.155-1.605l.188 1.158.224-.815.317 1.888c.094.189.129-.412.094-1.321l.378 1.32v-1.157a13.58 13.58 0 0 0-2.608-3.552m6.434 3.74c.035-.223.06-.377.189-.531a1.509 1.509 0 0 1-.223-.155c-.155.343-.378.626-.695 1.038.223-.66.437-1.158.91-1.664-.06.223-.13.412-.19.566.06.06.155.129.224.189a.746.746 0 0 0 .154-.189c0 .094 0 .189-.034.283h.034l-.034.095-.035-.035c-.06.155-.154.249-.317.412m-.378.566a.719.719 0 0 1 .224-.437c-.035.223-.06.283-.224.437Zm1.665.249c.034-.129.06-.249.094-.343l.06-.06s.035-.095.06-.129c.06-.06.129-.154.19-.223-.035.377-.13.506-.413.755m-.06.91c-.094-.318 0-.532.378-.721 0 .472-.035.6-.378.72Zm.755-.284c.318-.755.343-1.098.249-2.042.343.875.283 1.133-.249 2.042Zm5.122 2.857c.154-.66.223-1.287.189-1.947-.06.034-.095.034-.155.06a4.944 4.944 0 0 1-.317 1.252c.094-.412.154-.815.129-1.226a.406.406 0 0 1-.19.06c-.033.283-.128.591-.248 1.003.06-.343.094-.66.094-.97-.094 0-.188.035-.283.035-.034.412-.094.85-.188 1.416 0-.472-.035-.944-.035-1.381h-.317c0 .471-.06.943-.155 1.604-.034-.566-.034-1.098-.06-1.63-.094-.035-.188-.035-.317-.06 0 .506-.06 1.003-.154 1.698a29.732 29.732 0 0 1-.06-1.724c-.095-.034-.19-.06-.284-.094-.034.471-.128.943-.248 1.57 0-.567 0-1.064.034-1.63-.095-.035-.189-.06-.283-.095-.035.627-.095 1.193-.129 1.853-.094-.815-.154-1.381-.094-1.947-.095-.035-.19-.06-.25-.129-.154.755-.222 1.416-.154 2.17-.223-.969-.248-1.535-.034-2.23-.06-.06-.129-.094-.189-.129a5.767 5.767 0 0 1-.437.85c.154-.318.223-.627.317-.91-.094-.06-.223-.128-.317-.188-.06.411-.249.815-.566 1.38.411-1.003.437-1.947.471-3.14.095.473.155.85.155 1.193.129.06.223.095.343.155.06-.532.094-1.038.094-1.63.155.686.223 1.192.13 1.664.093.034.188.094.282.094a7.4 7.4 0 0 1 .155-.248c-.035.094-.06.188-.095.283.06 0 .155.034.223.034.06-.189.095-.412.19-.66 0 .248-.035.471-.035.72.094 0 .154.034.249.034 0-.154.034-.343.034-.532.06.224.06.378.094.567.095 0 .223.034.318.034v-.72c.06.282.128.506.154.72.129.034.249.034.378.034 0-.248 0-.471.034-.755.06.284.094.532.154.755h.318v-1.132c.129.438.188.79.223 1.098.094 0 .189-.034.283-.034 0-.249-.06-.532-.094-.815.128.283.223.532.248.789.06 0 .13-.034.19-.034-.035-.283-.095-.566-.13-.875.13.317.224.566.284.815.06 0 .128 0 .188-.035-.06-.437-.094-.91-.188-1.441.72 1.793.72 2.608.06 4.427m.875-2.076-.06-1.253.188-.128-.06-.378c.155.094.25.189.318.283.06-.249 0-.506-.129-.755.318.155.506.438.532.85.094-.25.094-.532-.06-.876.283.095.472.344.72.755l-.06.627c.06.188.06.343-.034.471-.128-.154-.249-.223-.412-.128l-.034.506c-.094-.223-.223-.249-.343-.094l-.438.411-.128-.283v-.008Zm2.89-2.23c0 .094 0 .154-.06.154s-.128-.06-.222-.155h.283Zm-.188-.533c.06.155.129.283.129.378h-.343c-.06-.095-.129-.189-.19-.318-.033 0-.033-.034-.033-.06h.437Zm-.566-.6c.094 0 .317.188.472.471h-.412c-.129-.248-.154-.471-.06-.471Zm-.189 1.098s.155.094.283.283c.095.189.129.343.095.377-.035.035-.155-.094-.25-.283-.128-.188-.154-.377-.128-.377Zm-.592-.129s.189.129.343.343c.13.25.19.438.13.472-.035.035-.19-.128-.344-.343-.129-.249-.189-.438-.129-.472Zm-10.14-1.227c.094.06.154.129.223.155l.154-.155c-.034.223-.094.283-.249.438.035-.095.06-.189.095-.249-.06-.06-.13-.129-.224-.189Zm2.076-11.213c.343.249.815.318 1.287.318l.034.248c.755 0 1.536-.343 2.325-.875-.034-.034-.189-.06-.343 0-.567.283-.507.095.566-.437.154-.095.283.034.532-.06l.686-.155a27.106 27.106 0 0 1-1.758 1.476c-.876.506-1.665.626-2.386.377a6.591 6.591 0 0 1-1.192-.72c-.095-.155-.189-.249.249-.155m4.332.155c-.06 0-.128.06-.128.128 0 .07.06.13.128.13.095 0 .155-.06.155-.13 0-.068-.06-.128-.155-.128Zm.944 1.887c.06-.094.129-.129.189-.06.06.035.06.129 0 .189-.06.094-.155.129-.19.094-.06-.034-.06-.128 0-.223Zm2.23-.85c.095-.033.19-.033.224.035.034.06 0 .189-.13.223-.093.06-.188.06-.222-.034-.06-.06 0-.154.129-.223Zm-.506-.342c.095-.06.19-.095.223-.035.06.035.035.155-.034.223-.094.06-.189.095-.223.035-.034-.035-.034-.129.034-.223Zm-3.423.66c.095-.034.189 0 .223.06 0 .06-.06.155-.154.155-.094.034-.189 0-.223-.06 0-.06.06-.129.154-.155Zm1.227 2.325c.129-.06.283-.06.318 0 .034.06-.035.155-.19.223-.128.035-.282.035-.317-.034-.034-.06.035-.154.19-.189Zm-4.024-2.136c-.317.034-.437.223-.094.317.695.19 1.098-.06 1.381-.248.283-.223.695-.378 1.004-.695.283-.283.223-.318-.129-.155l-.72.344c-.627.283-1.098.411-1.442.437Zm2.197-.317c-.25.248-.155.343.154.188 1.038-.506 2.076-1.038 2.608-.695-.343.035-.72.095-1.072.318a3.51 3.51 0 0 0-.438.317c-.472.318-.411.378.155.223.437-.128.875-.248 1.287-.566.154-.094.317-.154.437-.283.412-.377.06-.85-.317-.506-.532 0-1.064.06-1.605.283-.566.249-.815.343-1.226.72m2.822-1.63v.19c.129 0 .189 0 .318.034.283.094.471.377.566.875.188-.06.317-.223.412-.507-.035-.283-.224-.506-.627-.626-.248 0-.437-.034-.66.035m-.472.128c.129-.06.154-.094.283-.128v.188a5.225 5.225 0 0 1-.249.06c-.129.035-.249-.06-.034-.128m-.566-.318c-.13.189-.095.249.128.155.318-.223.85.034.875-.283.438-.155.815-.19 1.133 0 .506.188.815-.06.034-.344a5.602 5.602 0 0 0-1.192-.034c-.378.034-.695.249-.978.506Zm2.29.095c.25 0 .438.034.472.248.034.284-.034.507-.223.627.094-.6-.189-.532-.249-.875Zm.695-.155c-.094-.506.189-.566.472-.094-.154.154-.189.377-.189.85a.768.768 0 0 1-.377.694c-.155.06-.223 0-.155-.223l.25-.472c.094-.412.06-.66 0-.755Zm-2.007 2.763c0-.532.317-.884.789-1.004-.094.377.189.66.034 1.038-.094.343-.815.283-.815-.034m-.189.815c.155-.283.412-.378.79-.343.283 0 .437.06.437.343 0 .283.035.592-.034.85-.094.248-.129.222-.438.248-.343 0-.471-.155-.849.06.223-.532-.034-.755.094-1.158Zm1.347-1.227c.155.283-.034.472.13.66.154.19.41 0 .377-.223 0-.223-.13-.437-.318-.6-.154-.189-.343-.095-.189.154m.155 1.193c-.094-.318.034-.343.412-.189.248.223.283.378.154.506.249.25.249.6.034 1.004-.154-.129-.343-.06-.471-.249-.035-.128-.13-.06-.06-.532.034-.188.034-.343-.06-.532m.437 2.574c.154 0 .249.095.249.189s-.129.154-.249.129c-.155 0-.249-.095-.249-.19 0-.06.129-.128.249-.128Zm-1.948-.283c.155 0 .284.095.25.189 0 .094-.13.189-.284.154-.154 0-.283-.094-.249-.188 0-.095.13-.19.283-.155Zm2.386-.343v.189l-1.004.317.06-.626c-.283-.095-.472-.035-.566.223l-.035.223c-.128-.06-.223-.154-.343-.283-.129-.129-.343-.06-.79-.034-.094 0-.222-.035-.282-.035l.188.283a1.22 1.22 0 0 0-.343.438c.129 0 .249 0 .378.06.317.223.66.189.97.094v.85l-.19.034c-.154.06-.188.249-.06.317l.532.25c.223.093.318-.19.318-.378l.128-.97.438.189c.154.034.283 0 .472-.06v.755l-.155.223c0 .223-.06.377-.248.472 0 .283-.035.472-.13.506-.316.343-.41.592-.788.875-.223.034-.412.034-.592-.06-.25-.154-.472-.317-.6-.506l-.19-.06.06-.249-.188-.034.06-.25-.25-.034.095-.248-.188-.129.154-.412-.189-.06.223-.317h-.343l.249-.189-.283-.06c-.06-.755.06-1.321.412-1.699.626-.154 1.227-.283 1.664-.223.695.095 1.158.318 1.347.627m-2.325 2.573c.283-.06.6-.06.875 0 .506.129.532.318.06.6-.283 0-.6 0-.91-.094.095-.154.19-.223-.034-.506m.378.223c.129-.094.317-.094.506 0 .094.06.06.155-.034.223a.585.585 0 0 1-.343 0c-.095-.094-.035-.154-.13-.223Zm.094-.97s-.094.035-.094.095c0 .035.06.06.094.06.06 0 .095-.034.095-.06 0-.06-.035-.094-.095-.094Zm.506-1.44h.223c.035-.095.035-.19.035-.318 0-.154-.06-.06-.223.095 0 .094-.035.154-.035.223Zm-.188 1.535c.06.129.128.189.188.06.13-.6.155-.978.19-1.32h-.224c-.06.505-.129.848-.154 1.252m-2.42-2.17c-.034-.25.223-.224.25 0 .06.437 0 .788-.224 1.003-.154.094-.377 0-.249-.189.223-.317.283-.532.223-.815Zm-.188 1.792c-.06-.283.128-.377.188-.06.223.85.6 1.665 1.442 2.454.343.283-.035.532-.343.249-.85-.721-1.099-1.725-1.287-2.634m3.14 2.573c-.035-.248.06-.506.343-.72.188-.129.249.094.154.223-.189.223-.343.223-.506.506m12.654-.815c-.094-.06-.317-.154-.034-.223-.317-.189-.189-.438.034-.472.85-.034 1.51-.506 2.48.035l.437.506c.283.66.035.978-.343.506-.189-.283-.034-.532-.506-.755.249.472.438.944.438 1.476.72.686.06.849-.13.411l-.282-1.287c.06.627.094 1.099 0 1.099-.223 0-.095-.438-.189-.979-.06-.223-.129-.626-.249-.66-.532-.189-1.038-.034-1.441 0 .686-.034 1.158 0 1.321.189a1.1 1.1 0 0 1 .154.978c-.154.248-.248.188-.248-.129l-.095-.412c-.034-.223-.283-.249-.626-.223-.223.034-.472.095-.72-.06Zm-3.363-1.287c-.223-.283-.06-.437.318-.412.97.19 1.819.318 2.35.755.318.223.06.438-.154.284l-.66-.344c.034.283-.224.155-.601-.154-.249.249-.566.129-.91-.249l.224.626c.034.13-.095.13-.155.035l-.412-.532v-.009Zm1.347.506c.129-.094.318.095.343.284.06.188-.094.248-.223.128-.094-.094-.248-.317-.128-.412m-1.853.378c-2.608-.223-3.861.626-4.556 1.51a4.44 4.44 0 0 0-.97 2.548c.06.154.344-.189.755-.72l-.248-.095c.06-.189.154-.343.283-.532.06-.095.06-.249.223-.343.189-.095.317-.283.317-.343h-.223c.72-.875 1.725-1.099 2.857-1.073.318.035.6.06.884.095.154.034.317-.035.412-.095.094-.06.128-.154-.035-.154a7.943 7.943 0 0 0-2.985.128c.72-.471 1.758-.506 3.234-.437.6.034.626-.412.06-.472m-4.555 16.773c.094.06.128.248.06.471-.06.19-.223.343-.318.318-.128-.034-.154-.249-.094-.438.094-.223.223-.377.343-.343m-2.265.91a.7.7 0 0 0 .094.317c0 .189-.06.317-.094.317-.06 0-.094-.128-.094-.317 0-.155.034-.318.094-.318Zm.189 1.098c.094-.601.377-1.133.875-1.476.437-.318.532-.223.189.223-.318.412-.507.91-.755 1.347-.095.189-.378.412-.318-.094m1.321-2.385c.378-.095.25.128.13.223-.318.248-.661.437-.945.755-.283.283-.343.248-.188-.13a1.783 1.783 0 0 1 1.003-.848Zm-2.702 2.101c.154-.283.472-.531.66-.789.155-.249.155-.472.344-.66.437-.601.91-1.099 1.475-1.51.627-.412 1.099-1.159 1.51-2.197l.06.19c-.154 1.475-.626 2.358-1.44 2.547l-1.065.944c-.343.189-.755.79-1.347 1.698-.377.155-.412.06-.188-.223m-.25-.66c.627-1.227 1.537-2.008 2.386-2.703.755-.592 1.227-1.604 1.63-2.728.189-.472.472-.249.223.506-.412 1.287-1.416 2.265-2.102 2.797-.755.627-1.253 1.321-1.982 2.325-.189.283-.343.155-.154-.189m-.095-1.038-.437.19c.154-.722.566-1.348 1.158-1.854.66-.506 1.381-.72 2.23-1.287.25-.154.318-.06.155.283-.377.412-.79.6-1.227.66-.695.155-1.158.756-1.63 1.51l1.381-1.003c.318-.094.378 0 .19.249-1.476.755-1.288 1.698-1.888 1.913-.129-.154-.095-.377.06-.66m-.095-1.82c.25-.531.944-.883 1.914-1.192.66-.223 1.192-.695 1.664-1.253.506-.317.412-.034.249.318-.189.317-.318.412-.627.592-.377.317-.943.6-1.38.79-.533.188-1.039.505-1.51 1.072-.284.223-.413.128-.318-.318m1.475-1.793c.472-.283.876-.566 1.193-1.038.438-.626.626-.66.506 0-.129.532-.506 1.098-1.287 1.381-.66.249-.85-.06-.412-.343Zm1.982-1.441.223-1.133a2.11 2.11 0 0 1 .472-1.192l.343-.944c.095-.377.25-.343.25.129l-.224.6c.189.095.094.283-.034.472-.035.223-.035.472-.249.532-.06.85-.154 1.536-.412 1.759-.377.472-.506.412-.377-.223m-1.51-.155.506-1.227c.129-.437.343-.694.626-.72l.687-.66c.154-.19.248.06.154.222l-.506.815c-.095.66-.343 1.253-.944 1.948-.129.129-.343.129-.223-.06l.6-1.193-.754 1.038c-.223.283-.25.06-.155-.154m-.875.506c.283-.755.378-1.158.66-1.416.344-.343.438-.317.224.095-.155.317-.378.755-.378 1.536 0 .626-.789.506-.506-.223m-.06-1.004c.034-.695.223-1.004.506-1.193 0-.249.06-.437.249-.566.695-.317 1.158-.97 1.759-1.158.188-.472.566-.72 1.072-1.381.343-.344.438-.25.283.283-.188.626-.506 1.132-1.158 1.441-.532.72-.875.978-1.064.695-.411.506-.85.815-1.158 1.098l-.283.79c-.129.188-.154.248-.189 0m.06-1.536c.06-.095.189-.13.25-.095.06.06.06.189-.035.283-.06.13-.189.155-.283.095-.035-.06-.035-.189.06-.283m3.483-5.371c.437-.532.97-.91 1.476-1.132.592-.25.566.223.154.223-.318 0-.755.283-1.476 1.192-.188.249-.412.034-.154-.283Zm-4.144 6.409c-.094-1.133.154-1.793.695-2.17 1.441-.876 1.947-2.171 2.42-2.137.471-.815 1.192-1.664 2.041-2.454.627-.437.755-.343.412.343-.91 1.287-1.819 2.823-2.634 3.27-.377.034-.66.248-.875.591l.566-.283c.283-.034.318.06.129.249-.472.249-1.252 1.475-1.441.695-.318.592-.85.506-.875 1.098l-.06.79c-.13.222-.224.222-.344 0m5.594-8.228c-.85.248-1.699.909-2.48 2.196-.154.189-.222.154-.188-.094.06-.19-.189-.25-.223 0-.06.343-.06.411-.249.411-.343 0-1.072 1.51-1.441 2.54-.06.566.06.66.377.317.506-.506.755-.85.6-1.072l.696-.875c.472-.06.755-.283.755-.755.317-.189.437-.438.377-.72.627-.756 1.287-1.288 1.982-1.57.223-.25.094-.344-.189-.378m-2.102.317c-.094.249-.06.343.035.249.789-.72 1.32-.91 1.758-.815l-.034.06c-.79.06-1.536.66-2.17 1.793-.095.223-.06.283.128.189.506-.781 1.073-1.347 1.699-1.699.317-.189.686-.223 1.038-.317.283-.06.592-.19.875-.155.343.035.412-.343.034-.377-1.818-.035-2.797.412-3.363 1.064m.695-.97c-.188.129-.249.283.06.129.85-.412 1.699-.438 2.574-.318.318.035.318-.317-.249-.377-.91-.129-1.698.128-2.385.566Zm4.204.034c.129.06.223.412.412.85.189.377.472.815.472.91-.6-.473-.91-1.193-.884-1.76Zm1.948 19.595c-.155-.128-.155-.283-.532-.909-.378-.66-1.004-1.193-1.038-1.416 1.003.755 1.51 1.416 1.57 2.325Zm-.035-.943c-.128-.095-.223-.438-.532-.944-.317-.532-.849-1.072-.875-1.227.815.6 1.347 1.441 1.416 2.17m-.129-1.192c-.094-.094-.189-.343-.412-.72-.248-.412-.66-.816-.695-.944.661.437 1.073 1.064 1.099 1.664m-.13-1.227c-.06-.06-.128-.223-.282-.472-.189-.283-.438-.532-.472-.626.437.249.755.695.755 1.098Zm-.471-17.21c.094.06.129.472.223.875.129.438.318.91.283 1.038-.506-.626-.66-1.38-.506-1.913Zm-5.56 20.222c-.471.034-.566-.06-.6-.532.223.223.412.317.6.532Zm-.626-.815c-.034-.19-.06-.412-.094-.601.532.532 1.004.85 1.51 1.381a.421.421 0 0 1-.472.06c-.317-.343-.626-.532-.944-.849m-.128-.875c0-.249 0-.532.06-.815.72.91 1.381 1.604 2.102 2.514-.095.094-.223.094-.412 0-.592-.627-1.098-1.039-1.759-1.7m.129-1.003c0-.06 0-.094.034-.154.06-.129.094-.25.154-.412.944 1.158 1.982 2.325 2.797 3.389-.094.094-.283.094-.532-.035-.849-1.038-1.63-1.853-2.445-2.796m.223-.79c.06-.154.095-.317.13-.472 1.037 1.253 1.57 1.854 2.479 2.986.128.154.875 1.064 1.003 1.193a.45.45 0 0 1-.437-.035 202.82 202.82 0 0 0-3.175-3.672Zm.19-.66c.033-.19.093-.378.128-.6 1.004 1.252 2.668 3.268 3.672 4.495.317.412.094.223.317.472.249.223-.283.223-.437-.095-.129-.154-.79-.815-.91-1.004-1.227-1.44-1.63-2.007-2.762-3.268m.154-.755c.035-.189.06-.343.095-.506.943 1.192 2.796 3.423 3.86 4.744.566.686.532.66.85 1.004 0 .154-.13.094-.344.034-.283-.318-.248-.283-.532-.66-1.32-1.536-2.762-3.33-3.929-4.616Zm.095-.66c1.226 1.32 2.728 3.2 4.143 4.863.507.601.627.661.97 1.133.188.094.755.317.626-.189-.472-.789-1.064-1.287-1.132-1.57.789.755 1.063 1.073 1.535 1.888.129.154.283.223.412.223l1.098.188s.06-.06.035-.094c-.97-1.227-.627-1.132.343-.189.128.13.223.223.317.412l.566.095c-.815-1.287-.72-1.287.318.06.189.154.343.154.472.034-1.193-1.57-1.064-1.664-.06-.438.154.155.154.318.317.507.318.248.318.283.283-.223-1.57-2.008-1.57-2.077.06-.224.223.095.155-.034.035-.248-1.382-1.82-1.347-2.042.06-.283.188.188.223.128.034-.25-1.441-2.075-1.098-1.724.06-.317.094.035.094 0 0-.223-1.253-1.887-1.227-2.102.06-.343.249.094.223-.06.034-.377-1.819-2.454-1.38-2.102.035-.507.317.155.223-.094.034-.377-1.287-1.759-1.381-1.982-.249-.91.06.035.189.095.223.035.06-.129-.034-.249-.094-.412-1.665-1.724-1.604-2.008-.034-.85.06.035.128-.06.06-.128-1.099-1.132-1.982-1.947-.344-.72.224-.035.155-.224-.128-.507-1.63-1.63-1.004-1.132-.06-.343.094-.06.06-.249-.223-.686-1.159-1.004-1.227-1.159-.155-.507.155-.06.06-.223-.154-.411-.875-.66-1.004-.91-.815-.875.06.034.249.154.377.223.06 0 .189.06.155-.06-.035-.19-.19-.378-.318-.472-.755-.506-.72-.566-.06-.472-1.064-.85-1.004-.85-.343-.695.034-.094 0-.189-.129-.283-.532-.506-.592-.686-.317-.66-.189-.19-.506-.567-.223-.661-.249-.532-.627-1.038-.875-1.51l.91.471c.093-.471-1.193-.531-1.416-2.136.06.06.223-2.007.283-2.007.343.094-.19 1.793.317 2.42.06.033.034-1.7.06-1.7.06.035.223 1.82.283 1.854.472.283-.128-1.51.095-1.725.094-.094.377 1.699.377 1.853-.034.129.223.129.223.035-.223-.661-.223-2.197-.129-1.665l.378 1.888c.06.188.412.248.378.128l-.284-1.51c-.094-.412.378.85.507 1.57.034.25.283.223.283.06l-.223-1.098c.377.155.223.695.437 1.064.155.317.249-.412.472.249.189.412.283.437.317.094-.06-.789-.034-.789.155.035 0 .283.094.248.189.06.06-.472.188-.438.377.094.06.154.094.154.223.094.343-.437.223-.128.189.035.034.188.06.188.189.06.188-.189.154.034.248.06.13 0 .13-.095.19-.095.094-.034.06.19.154.19.128.06.343-.06.317.034.06.154.189.283.223.128.154-.412.412-.592.97-.506-.035.094.094.06.094.129.034.343.094.566.438.532l-.035.471c-.034.25.155.472.472.695.343.223.566.06.66-.283.095-.377.035-.592-.034-.626-.471-.06-.154.686-.437.626l-.155-.154c-.411-1.51.567-.944.627-1.133.094-.437-.223-.626-.944-.66l.034-.095c.438 0 .223-.343-.283-.248-.129-.284-.472-.25-.506-.472-.6 0-.66-.06-.189-.189.095-.094.035-.154-.034-.249-.506 0-.566-.094-.155-.189.035-.094-.034-.223-.223-.317-.789-.06-.815-.154-.154-.189.129-.128 0-.283-.318-.437-.754-.035-.72-.095-.317-.155.094-.094.094-.223-.06-.283l-.592-.094.506-.095c.318-.06.223-.094-.317-.411-.129-.284-.249-.284-.378 0-.128.377-.471.223-.91-.318.284 0 .344-.094.155-.223l-.849-.034c.343-.438 1.098-.129 1.158-.472.034-.189-.472-.223-.592-.532.532.283.815.318.85.06-.721-.377-1.322-.506-1.888-.506l.155-.189c.06-.094.094-.154-.13-.249l-.66-.06.189-.154c.283-.034.189-.094.154-.154l-.506-.224h.223c.223 0 .284-.094.129-.283-.438-.283-.85-.317-1.193-.128.095.343.155.66.035.815-.129-.129-.223-.378-.283-.627l-.06-.034c-.035.412-.035.91.248 1.287-.317-.034-.532-.755-.532-1.416l-.343-.094c0 .378.035.815.25 1.158-.284-.06-.507-.66-.533-1.287l-.248-.06v.472c.034.532.188 1.158.128 1.287-.317-.626-.412-1.287-.317-1.819l-.06-.034c-2.797.472-4.71 3.14-5.242 7.661.223.378.377 1.073 1.072 2.23.72 1.228 2.454 2.703 2.574 3.106-1.793-1.44-3.294-3.551-3.646-5.181-.035.188-.035.411-.06.6v.095c.188.437.377 1.098.978 2.101.815 1.322 2.702 2.797 2.822 3.27-1.758-1.382-3.328-3.364-3.835-4.994-.034.189-.034.343-.034.532.189.438.438 1.038.97 1.947.815 1.382 2.822 3.012 3.01 3.484-1.758-1.347-3.422-3.364-4.023-5.028-.034.129-.034.318-.034.472.154.438.412 1.038.875 1.819.875 1.475 3.045 3.269 3.234 3.8-1.724-1.415-3.483-3.577-4.178-5.216v.438c.155.437.438 1.004.85 1.724.943 1.536 3.2 3.518 3.388 4.05-1.664-1.442-3.483-3.647-4.298-5.277v.318c.189.437.438.97.85 1.664.969 1.604 2.985 3.234 3.174 3.8-1.759-1.51-3.235-3.268-4.084-4.958v.283c.154.438.438.978.815 1.63 1.038 1.665 2.986 3.235 3.2 3.8-1.887-1.63-3.234-3.234-4.084-4.958-.034.223-.034.377-.06.566.155.343.378.755.627 1.193 1.227 1.63 3.234 3.363 3.363 3.989-1.605-1.476-3.046-3.14-4.05-4.71-.034.223-.034.472-.094.686m3.8-13.186c.095.06.224.472.472.944.25.506.627.97.661 1.132-.755-.6-1.158-1.415-1.132-2.076Zm-.471.506c.128.129.223.532.506 1.098.317.567.815 1.133.815 1.322-.815-.695-1.321-1.63-1.321-2.42Zm-.438.566c.155.13.249.592.6 1.227.352.635.944 1.287.97 1.476-.97-.755-1.57-1.819-1.57-2.703Zm-.377.567c.154.154.248.66.66 1.347.378.72 1.098 1.44 1.133 1.664-1.064-.85-1.759-2.042-1.793-3.011Zm-.343.6c.154.155.283.695.72 1.476.438.79 1.253 1.604 1.321 1.853-1.226-.97-1.981-2.265-2.041-3.329Zm-.318.6c.189.19.283.756.78 1.605.473.875 1.416 1.724 1.476 2.008-1.32-1.038-2.17-2.445-2.264-3.612m-.318.592c.223.223.343.815.85 1.724.566.944 1.604 1.888 1.664 2.197-1.416-1.133-2.385-2.634-2.514-3.93m-.249.6c.223.25.343.876.91 1.888.6 1.004 1.724 2.008 1.819 2.36-1.536-1.227-2.609-2.857-2.729-4.239m-.223.627c.223.248.318.909.944 1.981.66 1.099 1.887 2.197 2.008 2.574-1.665-1.321-2.823-3.08-2.952-4.555Zm-.249.592c.25.317.378.978 1.039 2.136.686 1.158 2.136 2.453 2.264 2.857-1.758-1.416-3.08-3.423-3.294-4.993m4.144-6.186c.094.034.223.377.343.72.129.318.317.661.317.755-.506-.411-.72-1.003-.66-1.475Zm8.193 8.288.626.626c.129.129-.317.249-.72-.129-.472-.438-.25-.85.094-.506m-2.548-3.895c.06.034.129.094.129.223.034.283.154.592.283.944.034.06-.035.034-.155-.129-.128-.154-.188-.283-.188-.472-.035-.189-.13-.566-.06-.566m-.438-.472s.094.094.129.249c0 .343.128.695.248 1.132.035.06-.034 0-.154-.154a.993.993 0 0 1-.189-.566c0-.223-.094-.66-.034-.66Zm-.472-.472c.094.035.129.095.129.283 0 .412.154.815.249 1.287.034.095-.035.034-.155-.154-.154-.223-.189-.438-.189-.695 0-.258-.094-.755-.034-.72Zm-.437-.472c.06.035.128.095.128.318 0 .437.129.91.223 1.475.035.095-.034.035-.188-.188-.13-.284-.19-.506-.155-.79 0-.283-.06-.875 0-.815m-.437-.506c.06.06.128.155.128.378-.034.506.095 1.038.189 1.664.034.094-.06.034-.189-.249-.128-.283-.188-.532-.154-.85.034-.317-.034-.977.034-.943m-.472-.472c.095.06.155.155.129.412-.034.566.094 1.158.189 1.853 0 .095-.06.034-.189-.283a1.67 1.67 0 0 1-.154-.944c.034-.377-.035-1.098.034-1.038m-.412.035c.06.06.129.128.095.343-.035.437.06.91.128 1.475 0 .095-.06.035-.154-.223-.129-.248-.155-.506-.129-.789.034-.283.034-.875.06-.815m-.343 0c.034.06.094.129.06.283-.06.343 0 .72.034 1.158 0 .06-.034.035-.128-.188a.993.993 0 0 1-.06-.6c.034-.224.034-.687.094-.662m-18.814 40.23c.437.531.909.566 1.347.283.471-.095 1.32-.155 2.325-.189 0-1.321-.85-2.265-2.42-2.891-.472-.378-.343-.506.343-.378 2.137.6 4.178.97 5.997.91.755-.344.79-.687.035-1.038.72-1.038.471-2.077-.438-3.106.944 0 2.36.755 4.238 2.17.97.567 1.699.695 2.197.344.531-.378 1.252-.378 2.196-.412 1.819.128 2.325 1.192 1.793 3.294-.035 1.347-.283 2.454-.378 3.767-.154 2.453 1.322 2.856 3.175 1.853.943-.507 1.51-1.287 1.947-2.137-.437-.06-.566-.343-.66-.875-.06-.188-.19-.412-.19-.626l-.694-1.415a2.205 2.205 0 0 1-.72-1.442l-.85-1.227c-.412-.789-.343-1.038.154-.789.815.79.532.223.412-.154-.283.034-.412-.25-.223-.532-.343-.129-.532-.283-.249-.507l-1.57-1.192.592-.223-2.076-2.728c-.223-.378-.592-.472-1.098-.318-2.668 1.476-5.997 2.23-9.514 2.668-.876.13-1.665.318-2.54.378-1.321 1.759-2.385 2.917-3.106 3.423-1.286.875-1.158 1.913-.034 3.08m17.81 10.14c-.531.284-.66.601-.154.91.343.223.532.249.6.094.627-.128-.248-.471-.437-1.003m-16.42-1.382c-.344.25-.507.532-.318.91l.695.592c.283-.249.223-.626-.094-.875-.155-.129-.25-.343-.284-.627Zm-8.04-3.294c.507.223.507.686-.128.97-.472-.19-.438-.601.129-.97Zm-9.17-18.651c2.264 2.608 2.668 5.56.814 8.982-.686 1.665-.591 2.728.318 3.235.249-.567.472-1.442.6-2.36.19-1.415 1.099-1.252 2.291-2.48 1.287-1.32.91-2.702.79-4.898-.224-4.71.754-7.438 2.136-8.982-3.518-.97-5.654 1.63-6.94 6.503m2.23-38.976c-.412.06-.567.343-.506.815l2.796 3.955c.095.189.283.378.25.532-.224.532-.318.875.153 1.347l.944.91c.095.66.223 1.192.438 1.38-.223.438.06.85.437 1.253.095.129.129.283.284.412l.154 1.347c-1.321 1.098-1.982 1.913-2.102 2.42-.06.283-.129.506.06.66l1.853-.189c.155.095.343.129.412.249.283.66-.094 1.699-1.098 1.819-2.29.566-3.955 1.347-3.295 2.891.85 1.098.412 2.076-1.038 2.951-.343.318-.506.721-.437 1.253-.412.343-.72.875-1.004 1.476-.223.626-.223.909.223.849 3.2-1.073 6.34-1.51 8.57.343 1.099.91.91 1.381 2.643 1.476-.189.72 0 1.132.626 1.252l.095.815c-.695.155-1.476.155-2.17.343-.79.19-1.537.507-2.231.507-.592-.472-1.287-.755-1.854-1.099-2.89-1.793-5.31-1.887-7.412.567-1.098 1.287-2.102 3.045-2.917 5.748-.154.472-.532.66-1.287.223-1.51-1.227-1.793-2.325-1.038-3.046 1.064-1.004 1.476-.412.91.129l.034.129c.815 0 1.132.566 1.441 1.158.695-1.793.318-3.011-.66-3.99l-.223-.034.094 1.536c-1.665-.343-2.574.944-2.703 2.136-.094 1.158.438 2.196 1.948 3.08.85.283 1.098 1.253.437 2.23-1.63 2.386-1.38 4.934.095 8.194l.188-.095c.318-3.577 1.073-5.404 2.265-5.748.378-.128.721-.377 1.039-.789.343-.532.531-.472.789.094.66 1.51.592 2.952-.318 4.393-2.076 3.363-2.17 5.937.79 7.979l.094.248-.79 1.004c-.248.412-.06.91.627 1.476.506.6.755 1.57.91 2.797-.25.377-.284.85-.13 1.381.438.626 1.51.978 3.012.815.154-.034.129-.154.129-.317.128-.695-.343-1.193-.85-2.042-1.475-1.322-1.793-2.574-1.32-3.8l.222-.344c1.159.412 2.634.875 3.99 1.072-.567 1.159-.507 2.609 0 3.458.943 1.63 1.947 2.385 3.86 2.23 2.548-.223 3.8-2.325 2.857-5.181.91-.507 1.51-.472 1.819.094-.034 1.287.532.875.566 2.136-1.51 1.321-2.076 2.454-.437 3.174.849.85.377 1.159-.721 1.227-1.158-.283-2.007-.223-2.17.721-1.073.06-1.382.695-1.348 1.699.318-.755.91-.815 1.227-.627.567-.034 1.159.13 1.665-.094.472-.223 1.004-.223 1.604.034.318 0 .532.129.695.378.755.79.66-.095 2.325.91.412.034 1.098 0 1.227.66l.154-.6c.129-.224.06-.473-.189-.696-.531-.626.318-.66 1.794-.377.789.343 1.51.506 2.076.412.66-.66.815-.25.943.626.472-1.287.155-1.982-1.132-2.042.223-.695.317.343.79-.506.411-.189.814 0 1.226.412.095-.627-.283-1.004-1.098-1.193-.189-.532-.6-.566-1.158-.034-2.385-.626-2.634-2.076-1.287-2.35.72-.19 1.004.565 1.57.78.437.154.66.094 1.252.154.661.035 1.253.155 1.665.438l.472.154c.248-.188.506-.154.815.129.343.506.686.566 1.004.154.943-.755 2.359-.755 2.264-.283-.034.695.095.944.344.875.223.035.317.318.317.815-.91-.034-1.536.13-1.536.79-.849.249-.815.849-.437 1.63-.095-1.51 1.192-.283 2.453-1.098l.876-.095c.094.438.506.627 1.286.592.284-.128.721-.128 1.004-.188 1.536-.412 2.763-.318 3.672.943.189-.377.154-.79-.094-1.158 1.064-.72 2.23-.438 1.535.72.627-.317 1.253-1.913.438-1.887.343-.944 1.759-.154 1.347.532.592-.317.686-.79-.034-1.381-.095-.532-.532-.695-1.322-.472-.437-.755-1.003-.79-1.758-.129-.755.344-1.347.378-1.725-.128-.412-.661-.317-.978.249-.755.283.094.412-.25.755-.91.129-.283.378-.506.566-.875.815-.129 1.476-.85 2.325-2.29.592-.284.875-1.442.91-3.27.248.13.566.035.978-.222-.284-.035-.412-.129-.412-.85h.78c.318-.128.438-.248.412-.411 0-.13-.317-.095-.532-.438-.094-.438-.343-.875-.815-1.321l-.755-1.227c-.531-1.699-1.158-2.668-1.947-2.042l-.223-.129c-.6-.66-1.038-1.535-1.381-2.513.034-1.193-1.227-1.253-1.888-.129l-.189-.944-.317.507-1.982-2.857c.223-.035.592-.25.815-.284 2.42-.188 4.839-.909 7.318-2.29l1.76-.532c.788-.318 1.037-.06 1.44.343l1.793 1.853c.344.378.344.72.155 1.098-.189.378.249.875.883 1.416.567.626.627 1.475.13 2.548-.284.695-.224 1.132.188 1.347l1.227.875c.815.66 1.227.438 1.192-.72-.06-.601-.249-1.159-.6-1.76-.412-.72-.687-1.415-.72-2.136-.035-1.441-.224-2.196-.816-2.702a9.986 9.986 0 0 1-1.759-2.23c-.154-.473-.283-.756-.532-.876-.06-1.51-1.158-2.265-1.853-1.853-.592.129-1.158.189-1.793.094v-.343c.781-.437 2.137-1.819 3.483-3.328.507-.627.755-.378 1.253.128l1.948 2.042c-.06 1.004.094 1.664.78 1.604.472.815.695 1.605.249 1.948-.438.377-.79.626-.79 1.158.095.79 1.005 1.604 2.008 1.982.095.034.249-.034.318-.154.283-.695.317-1.51.034-2.325l-.343-1.159c-.06-.472 0-.85.034-1.192.094-.91.129-1.416-.85-2.102-1.226-1.253-2.264-2.548-3.105-3.895.034-1.793-1.51-2.265-2.48-.318l-1.887 1.322c-.472.317-.789-.19-.789-.687-.189-2.359-1.793-4.238-3.552-6.065-.944-2.857-2.23-5.242-2.702-7.438 1.793.188 3.14.532 3.672 1.063.789.85 1.793 1.287 2.041.695.095-.188-.471-.532-.754-.815.317 0 .72.283 1.158.72.789 0 1.038-.6.815-1.415.094-.66.06-1.158-.223-1.38l-.66-.378c-1.1-1.193-2.009-2.385-2.763-3.707a.763.763 0 0 1-.13-.412c0-.531-.154-1.003-.686-1.475l.25-.129-.035-.189.566.13-.566-.945c-.317-1.158-1.381-1.346-2.986-.875-.223.06-.506-.188-.789-.506-1.004-.97-2.076-1.51-1.699-.79.06.13.378.473.035.438l-1.725-.283c-.377-.06-.437.06-.343.25.318.342.626.66.755 1.037l-2.196.129c-.438.034-.815.223-1.227.189-1.193-1.004-2.668-.25-4.212.91l-.223-.095-.035-1.793h.189l-.154-1.159h.128c.129-1.758-.223-2.89-.875-3.671-.129-.532.412-.472.532-.627.506-.626.472-1.347.472-1.724-.095-.755-.343-1.004-.72-.755h-.438c-.472-.06-.85-.223-1.038-.438-.507-.343-.97-.343-1.442-.034-2.265.566-2.668 2.325-5.43 1.132-.318-.034-.378.095-.25.344.473.626 1.133 1.038 1.854 1.347-.249.188-.755.223-1.57.154.472.626 1.381.944 2.797.91.532.317 1.158.188 1.853-.095.377-.223.412-.094.154.412-.72.6-1.227 1.759-1.32 3.86-.284.438-.438.91-.533 1.442-1.038-.283-1.947-.472-2.325-.155l-.412-.034c-.909-.686-1.793-.66-2.513-.189l-1.605 1.227c-.592.412-1.098.438-1.192-.06l-.66-1.416c.034-1.003-.344-1.475-1.039-1.535-.317-.283-.532-.627-.592-1.004l-.472-.6c.155-.532-.06-.721-.437-.721-.412 0-.79-.06-1.004-.223l-3.269-4.024.035.06Z" fill="#E22B36"/><path d="M8.406 9.776v63.075c0 7.524 5.148 12.2 13.427 12.2h7.79c5.001 0 8.974 1.518 12.14 4.658l.514.515.515-.515c3.209-3.174 7.07-4.658 12.14-4.658h7.79c8.261 0 13.392-4.676 13.392-12.2V9.776H8.406ZM75.05 10.84v62.01c0 6.976-4.607 11.137-12.328 11.137h-7.79c-5.25 0-9.283 1.51-12.655 4.736-3.337-3.183-7.481-4.736-12.654-4.736h-7.79c-7.739 0-12.354-4.161-12.354-11.136V10.84h65.57Z" fill="#E22B36"/></svg>