<svg width="24" height="24" viewBox="0 0 24 24" fill="none" xmlns="http://www.w3.org/2000/svg">
<path d="M2 20.8461V3.15381H12V7.08543H22V20.8461H2ZM4 18.8803H6V16.9145H4V18.8803ZM4 14.9487H6V12.9829H4V14.9487ZM4 11.0171H6V9.05124H4V11.0171ZM4 7.08543H6V5.11962H4V7.08543ZM8 18.8803H10V16.9145H8V18.8803ZM8 14.9487H10V12.9829H8V14.9487ZM8 11.0171H10V9.05124H8V11.0171ZM8 7.08543H10V5.11962H8V7.08543ZM12 18.8803H20V9.05124H12V11.0171H14V12.9829H12V14.9487H14V16.9145H12V18.8803ZM16 12.9829V11.0171H18V12.9829H16ZM16 16.9145V14.9487H18V16.9145H16Z" fill="black"/>
</svg>
