<svg width="24" height="24" viewBox="0 0 24 24" fill="none" xmlns="http://www.w3.org/2000/svg">
<path d="M18.8178 18.3636H8.81783C8.31783 18.3636 7.8898 18.1856 7.53374 17.8295C7.17768 17.4735 6.99964 17.0455 6.99964 16.5455V3.81818C6.99964 3.31818 7.17768 2.89015 7.53374 2.53409C7.8898 2.17803 8.31783 2 8.81783 2H15.1815L20.636 7.45455V16.5455C20.636 17.0455 20.458 17.4735 20.1019 17.8295C19.7459 18.1856 19.3178 18.3636 18.8178 18.3636ZM14.2724 8.36364V3.81818H8.81783V16.5455H18.8178V8.36364H14.2724ZM5.18146 22C4.68146 22 4.25343 21.822 3.89737 21.4659C3.54131 21.1098 3.36328 20.6818 3.36328 20.1818V7.45455H5.18146V20.1818H15.1815V22H5.18146Z" fill="black"/>
</svg>
