<svg width="24" height="24" viewBox="0 0 24 24" fill="none" xmlns="http://www.w3.org/2000/svg">
<path d="M18.2142 22H5.78618C4.64221 22 3.71484 21.1046 3.71484 20.0001V4.00078C3.71484 2.89626 4.64221 2.00087 5.78618 2.00087H13.0359C13.0451 1.99971 13.0545 1.99971 13.0638 2.00087H13.07C13.0798 2.00383 13.0899 2.00584 13.1001 2.00687C13.1914 2.01252 13.2816 2.02967 13.3683 2.05787H13.3839H13.3994H13.4118C13.4309 2.07079 13.4489 2.08517 13.4657 2.10087C13.5785 2.14929 13.6813 2.21705 13.7691 2.30086L19.9831 8.3006C20.0699 8.38538 20.1401 8.48464 20.1903 8.59358C20.1996 8.61558 20.2068 8.63658 20.2141 8.65958L20.2244 8.68758C20.2534 8.77097 20.2704 8.85775 20.2752 8.94557C20.2761 8.95553 20.2785 8.96531 20.2824 8.97457V8.98057C20.2841 8.98712 20.2852 8.99382 20.2856 9.00057V20.0001C20.2856 20.5305 20.0673 21.0392 19.6789 21.4142C19.2904 21.7893 18.7636 22 18.2142 22ZM13.0359 4.00078V9.00057H18.2142L13.0359 4.00078Z" fill="black"/>
</svg>
