<svg width="24" height="24" viewBox="0 0 24 24" fill="none" xmlns="http://www.w3.org/2000/svg">
<path d="M2.76465 4.92578C2.96387 5.11328 11.9717 12.5078 12.0029 12.5078C12.0381 12.5078 21.1514 5.12891 21.3389 4.94531L21.4365 4.85156H12.0615C2.87402 4.85156 2.69043 4.85156 2.76465 4.92578Z" fill="black"/>
<path d="M2.00293 12.3672C2.00293 17.6953 2.01074 18.6602 2.05762 18.75C2.13184 18.8906 2.31152 19.0547 2.44434 19.1055C2.52246 19.1367 5.4248 19.1484 12.0068 19.1484C19.8584 19.1484 21.4795 19.1406 21.585 19.0938C21.7295 19.0352 21.9521 18.7969 21.9834 18.668C21.9951 18.6211 21.999 15.7969 21.9951 12.3945L21.9834 6.20703L17.2764 10.0312C14.6865 12.1367 12.499 13.9102 12.417 13.9727C12.2803 14.0742 12.2295 14.0898 12.0029 14.0898C11.7764 14.0898 11.7256 14.0742 11.5889 13.9727C11.5068 13.9102 9.33496 12.1289 6.76855 10.0117C4.20215 7.89844 2.07715 6.15234 2.05371 6.12891C2.01465 6.10156 2.00293 7.35156 2.00293 12.3672Z" fill="black"/>
</svg>
