<svg width="24" height="24" viewBox="0 0 24 24" fill="none" xmlns="http://www.w3.org/2000/svg">
<path d="M18.3333 12.9798H6.7619V11.0201H18.3333L16.8571 9.5013L18.1905 8.08049L22 12L18.1905 15.9194L16.8571 14.4986L18.3333 12.9798ZM13.4286 9.06035V5.14089H3.90476V18.859H13.4286V14.9396H15.3333V18.859C15.3333 19.398 15.1468 19.8593 14.7738 20.2431C14.4008 20.6269 13.9524 20.8188 13.4286 20.8188H3.90476C3.38095 20.8188 2.93254 20.6269 2.55952 20.2431C2.18651 19.8593 2 19.398 2 18.859V5.14089C2 4.60196 2.18651 4.14061 2.55952 3.75682C2.93254 3.37304 3.38095 3.18115 3.90476 3.18115H13.4286C13.9524 3.18115 14.4008 3.37304 14.7738 3.75682C15.1468 4.14061 15.3333 4.60196 15.3333 5.14089V9.06035H13.4286Z" fill="black"/>
</svg>
