<svg width="24" height="24" viewBox="0 0 24 24" fill="none" xmlns="http://www.w3.org/2000/svg">
<path d="M10.7532 21.9744C10.4 21.9744 10.1038 21.8549 9.86487 21.6159C9.6259 21.3769 9.50642 21.0808 9.50642 20.7276V13.2468L2.27503 4.02056C1.96333 3.60496 1.91658 3.16859 2.13476 2.71143C2.35295 2.25427 2.73218 2.0257 3.27246 2.0257H20.7275C21.2678 2.0257 21.647 2.25427 21.8652 2.71143C22.0834 3.16859 22.0367 3.60496 21.725 4.02056L14.4936 13.2468V20.7276C14.4936 21.0808 14.3741 21.3769 14.1351 21.6159C13.8962 21.8549 13.6 21.9744 13.2468 21.9744H10.7532ZM12 12.3741L18.1716 4.51928H5.82838L12 12.3741Z" fill="black"/>
</svg>
