<svg width="24" height="24" viewBox="0 0 24 24" fill="none" xmlns="http://www.w3.org/2000/svg">
<path d="M20.8889 22H3.11111C2.49746 22 2 21.5025 2 20.8889V3.11111C2 2.49746 2.49746 2 3.11111 2H20.8889C21.5025 2 22 2.49746 22 3.11111V20.8889C22 21.5025 21.5025 22 20.8889 22ZM10.8889 10.8889C10.2752 10.8889 9.77778 11.3864 9.77778 12V12.5556C9.77778 12.8624 10.0265 13.1111 10.3333 13.1111V13.1111C10.6402 13.1111 10.8889 13.3598 10.8889 13.6667V15.8889C10.8889 16.8094 11.6351 17.5556 12.5556 17.5556H13.1111C13.7248 17.5556 14.2222 17.0581 14.2222 16.4444V15.8889C14.2222 15.5821 13.9735 15.3333 13.6667 15.3333V15.3333C13.3598 15.3333 13.1111 15.0846 13.1111 14.7778V12.5556C13.1111 11.6351 12.3649 10.8889 11.4444 10.8889H10.8889ZM12 6.44444C11.3864 6.44444 10.8889 6.94191 10.8889 7.55556V7.55556C10.8889 8.16921 11.3864 8.66667 12 8.66667V8.66667C12.6137 8.66667 13.1111 8.16921 13.1111 7.55556V7.55556C13.1111 6.94191 12.6137 6.44444 12 6.44444V6.44444Z" fill="black"/>
</svg>
