<svg width="24" height="24" viewBox="0 0 24 24" fill="none" xmlns="http://www.w3.org/2000/svg">
<path d="M11.1486 18.264V10.0864H13.5198V18.264H11.1486ZM12.3342 8.94643C11.8984 8.94643 11.5438 8.81977 11.2702 8.56643C10.9966 8.3131 10.8598 7.99897 10.8598 7.62403C10.8598 7.2491 10.9966 6.93497 11.2702 6.68163C11.5438 6.4283 11.8984 6.30163 12.3342 6.30163C12.7699 6.30163 13.1246 6.42323 13.3982 6.66643C13.6718 6.8995 13.8086 7.2035 13.8086 7.57843C13.8086 7.97363 13.6718 8.30297 13.3982 8.56643C13.1347 8.81977 12.78 8.94643 12.3342 8.94643Z" fill="black"/>
<path fill-rule="evenodd" clip-rule="evenodd" d="M22.6399 12C22.6399 17.8763 17.8762 22.64 11.9999 22.64C6.12355 22.64 1.35986 17.8763 1.35986 12C1.35986 6.12368 6.12355 1.35999 11.9999 1.35999C17.8762 1.35999 22.6399 6.12368 22.6399 12ZM11.9999 21.5C17.2466 21.5 21.4999 17.2467 21.4999 12C21.4999 6.75328 17.2466 2.49999 11.9999 2.49999C6.75316 2.49999 2.49986 6.75328 2.49986 12C2.49986 17.2467 6.75316 21.5 11.9999 21.5Z" fill="black"/>
</svg>
