<svg width="24" height="24" viewBox="0 0 24 24" fill="none" xmlns="http://www.w3.org/2000/svg">
<path d="M16.9499 11.9499C17.7971 11.1035 18.4127 10.0539 18.7381 8.90144C19.0634 7.749 19.0874 6.53234 18.8079 5.36793L21.3029 4.29794C21.379 4.26532 21.462 4.25211 21.5445 4.25948C21.6269 4.26685 21.7063 4.29458 21.7753 4.34018C21.8444 4.38578 21.9011 4.44782 21.9403 4.52073C21.9795 4.59365 22 4.67515 21.9999 4.75794V18.9999L15 21.9999L8.99998 18.9999L2.697 21.7009C2.62091 21.7335 2.53792 21.7467 2.45546 21.7393C2.37301 21.732 2.29368 21.7042 2.22459 21.6586C2.15549 21.613 2.09881 21.551 2.05961 21.4781C2.02041 21.4052 1.99993 21.3237 2 21.2409V6.99993L5.12899 5.65893C4.90883 6.78451 4.9689 7.94696 5.30389 9.04385C5.63889 10.1407 6.23853 11.1384 7.04998 11.9489L12 16.8999L16.9499 11.9499ZM15.536 10.5359L12 14.0699L8.46398 10.5349C7.76485 9.8356 7.28878 8.94469 7.09596 7.97482C6.90314 7.00496 7.00223 5.9997 7.38071 5.08615C7.75919 4.1726 8.40005 3.39178 9.22226 2.84244C10.0445 2.29309 11.0111 1.99988 12 1.99988C12.9888 1.99988 13.9555 2.29309 14.7777 2.84244C15.5999 3.39178 16.2407 4.1726 16.6192 5.08615C16.9977 5.9997 17.0968 7.00496 16.904 7.97482C16.7112 8.94469 16.2351 9.8356 15.536 10.5349V10.5359Z" fill="black"/>
</svg>
