<svg width="24" height="24" viewBox="0 0 24 24" fill="none" xmlns="http://www.w3.org/2000/svg">
<path d="M18.8344 2.59581C18.5102 2.63488 18.1898 2.74035 17.9203 2.90831C17.5805 3.11144 14.8266 5.6505 14.6312 5.93566C14.3344 6.37316 14.1898 6.98644 14.2641 7.50206C14.3422 8.06456 14.5336 8.45128 14.9672 8.92394L15.225 9.2091L18.1937 6.50206C19.8227 5.00988 21.1625 3.76769 21.1703 3.74035C21.1781 3.713 21.0297 3.53331 20.8383 3.34581C20.2406 2.74425 19.6039 2.50597 18.8344 2.59581Z" fill="black"/>
<path d="M19.0102 7.04894C17.7445 8.2091 16.6352 9.22472 16.5531 9.29894L16.3969 9.43956L16.5531 9.57238C16.6352 9.64269 16.8578 9.7755 17.0453 9.86535C17.3344 10.0099 17.3812 10.045 17.3617 10.1114C17.307 10.3068 16.8187 11.2677 16.5414 11.7325C15.8383 12.9122 14.8539 14.0489 13.8344 14.8693C13.0844 15.4708 11.9516 16.1583 10.9984 16.588C10.5805 16.7794 9.76406 17.0997 9.62343 17.131C9.59218 17.1388 9.52968 17.0333 9.46328 16.8497C9.34609 16.5411 9.15078 16.1818 9.08828 16.1583C9.04922 16.1466 4.17812 20.5724 4.15468 20.6388C4.13906 20.6818 4.64297 21.0099 4.90859 21.131C5.1664 21.2443 5.46328 21.3263 5.82656 21.3849C6.15468 21.4357 7.37734 21.4357 7.85781 21.381C11.2523 21.006 14.557 19.2911 17.6195 16.3224C20.1078 13.9083 21.6312 11.17 21.9594 8.52941C22.057 7.73253 21.975 6.48253 21.7875 5.83019C21.7172 5.588 21.4086 4.96691 21.35 4.95128C21.3305 4.94347 20.2797 5.88878 19.0102 7.04894Z" fill="black"/>
<path d="M6.31093 13.8419C5.99453 13.9239 5.63906 14.0919 5.42812 14.2599C5.14687 14.4864 2.74843 16.6935 2.55312 16.9083C2.32656 17.1544 2.10781 17.5802 2.0414 17.8966C1.9789 18.1896 1.98672 18.7482 2.05703 19.0099C2.12343 19.2599 2.2914 19.6114 2.44375 19.8185C2.58047 19.9982 2.93593 20.3653 2.975 20.3653C3.02578 20.3653 8.9125 14.9747 8.9125 14.9278C8.9125 14.9044 8.76015 14.7325 8.57656 14.5411C7.92422 13.8771 7.12343 13.6271 6.31093 13.8419Z" fill="black"/>
</svg>
