<svg width="24" height="24" viewBox="0 0 24 24" fill="none" xmlns="http://www.w3.org/2000/svg">
<path d="M5.72705 15.6818C5.39372 15.1061 5.14372 14.5152 4.97705 13.9091C4.81038 13.303 4.72705 12.6818 4.72705 12.0455C4.72705 10.0152 5.4316 8.28788 6.84069 6.86364C8.24978 5.43939 9.96948 4.72727 11.9998 4.72727H12.1589L10.7043 3.27273L11.9771 2L15.6134 5.63636L11.9771 9.27273L10.7043 8L12.1589 6.54545H11.9998C10.4846 6.54545 9.19675 7.07955 8.13614 8.14773C7.07554 9.21591 6.54523 10.5152 6.54523 12.0455C6.54523 12.4394 6.59069 12.8258 6.6816 13.2045C6.77251 13.5833 6.90887 13.9545 7.09069 14.3182L5.72705 15.6818ZM12.0225 22L8.38614 18.3636L12.0225 14.7273L13.2952 16L11.8407 17.4545H11.9998C13.5149 17.4545 14.8028 16.9205 15.8634 15.8523C16.924 14.7841 17.4543 13.4848 17.4543 11.9545C17.4543 11.5606 17.4089 11.1742 17.318 10.7955C17.2271 10.4167 17.0907 10.0455 16.9089 9.68182L18.2725 8.31818C18.6058 8.89394 18.8558 9.48485 19.0225 10.0909C19.1892 10.697 19.2725 11.3182 19.2725 11.9545C19.2725 13.9848 18.568 15.7121 17.1589 17.1364C15.7498 18.5606 14.0301 19.2727 11.9998 19.2727H11.8407L13.2952 20.7273L12.0225 22Z" fill="black"/>
</svg>
