<svg width="24" height="24" viewBox="0 0 24 24" fill="none" xmlns="http://www.w3.org/2000/svg">
<path d="M11.1667 13.5407C11.8704 13.5407 12.463 13.3181 12.9444 12.873C13.4259 12.428 13.6667 11.8802 13.6667 11.2297C13.6667 10.5792 13.4259 10.0314 12.9444 9.58628C12.463 9.1412 11.8704 8.91866 11.1667 8.91866C10.463 8.91866 9.87037 9.1412 9.38889 9.58628C8.90741 10.0314 8.66667 10.5792 8.66667 11.2297C8.66667 11.8802 8.90741 12.428 9.38889 12.873C9.87037 13.3181 10.463 13.5407 11.1667 13.5407ZM16.5278 17.6491L13.6111 14.953C13.2407 15.1755 12.8472 15.3381 12.4306 15.4408C12.0139 15.5435 11.5926 15.5949 11.1667 15.5949C9.85185 15.5949 8.73611 15.1712 7.81944 14.3238C6.90278 13.4765 6.44444 12.4451 6.44444 11.2297C6.44444 10.0142 6.90278 8.98286 7.81944 8.13549C8.73611 7.28812 9.85185 6.86443 11.1667 6.86443C12.4815 6.86443 13.5972 7.28812 14.5139 8.13549C15.4306 8.98286 15.8889 10.0142 15.8889 11.2297C15.8889 11.6234 15.8287 12.0128 15.7083 12.398C15.588 12.7832 15.4074 13.1469 15.1667 13.4893L18.1111 16.2112L16.5278 17.6491ZM4.22222 21.244C3.61111 21.244 3.08796 21.0429 2.65278 20.6406C2.21759 20.2383 2 19.7547 2 19.1898V15.0813H4.22222V19.1898H8.66667V21.244H4.22222ZM15.3333 21.244V19.1898H19.7778V15.0813H22V19.1898C22 19.7547 21.7824 20.2383 21.3472 20.6406C20.912 21.0429 20.3889 21.244 19.7778 21.244H15.3333ZM2 8.91866V4.81021C2 4.2453 2.21759 3.7617 2.65278 3.35941C3.08796 2.95712 3.61111 2.75598 4.22222 2.75598H8.66667V4.81021H4.22222V8.91866H2ZM19.7778 8.91866V4.81021H15.3333V2.75598H19.7778C20.3889 2.75598 20.912 2.95712 21.3472 3.35941C21.7824 3.7617 22 4.2453 22 4.81021V8.91866H19.7778Z" fill="black"/>
</svg>
