<svg width="24" height="24" viewBox="0 0 24 24" fill="none" xmlns="http://www.w3.org/2000/svg">
<path d="M19.619 22H4.38086V20.0952C4.38086 18.8323 4.88256 17.6211 5.77559 16.7281C6.66862 15.835 7.87983 15.3333 9.14276 15.3333H14.857C16.12 15.3333 17.3312 15.835 18.2242 16.7281C19.1173 17.6211 19.619 18.8323 19.619 20.0952V22ZM11.9999 13.4286C11.2495 13.4286 10.5064 13.2808 9.81314 12.9936C9.11986 12.7064 8.48992 12.2855 7.9593 11.7549C7.42868 11.2243 7.00777 10.5943 6.7206 9.90105C6.43343 9.20776 6.28562 8.4647 6.28562 7.71429C6.28562 6.96388 6.43343 6.22081 6.7206 5.52752C7.00777 4.83423 7.42868 4.2043 7.9593 3.67368C8.48992 3.14306 9.11986 2.72214 9.81314 2.43497C10.5064 2.1478 11.2495 2 11.9999 2C13.5154 2 14.9689 2.60204 16.0405 3.67368C17.1122 4.74531 17.7142 6.19876 17.7142 7.71429C17.7142 9.22981 17.1122 10.6833 16.0405 11.7549C14.9689 12.8265 13.5154 13.4286 11.9999 13.4286V13.4286Z" fill="black"/>
</svg>
