<svg width="513" height="513" viewBox="0 0 513 513" fill="none" xmlns="http://www.w3.org/2000/svg">
<path fill-rule="evenodd" clip-rule="evenodd" d="M275.149 375.451C283.672 385.268 292.862 394.645 302.617 403.485C348.262 444.754 406.742 474.399 472 487V449.931C417.781 437.965 369.21 412.618 330.856 377.942C318.277 366.562 306.776 354.157 296.559 340.921L275.149 375.451Z" fill="#E22B36"/>
<path fill-rule="evenodd" clip-rule="evenodd" d="M133.611 336.865C176.329 298.233 202.874 244.901 202.874 186.293V24H242.819V186.293C242.819 214.815 247.851 248.27 256.99 274.204C266.181 248.27 271.161 214.815 271.161 186.293V24H311.106V186.293C311.106 244.901 337.651 298.184 380.369 336.865C405.887 359.917 437.104 377.744 471.966 388.391V426.241C426.116 414.471 384.99 392.151 352.13 362.408C327.434 340.04 307.358 313.52 293.393 284.119C282.97 309.613 271.469 333.739 257.093 352.103L256.99 352.249L256.887 352.103C242.511 333.739 231.01 309.564 220.587 284.119C206.622 313.52 186.547 340.088 161.85 362.408C128.99 392.151 87.8642 414.471 42.0144 426.241V388.391C76.8253 377.744 108.094 359.917 133.611 336.865Z" fill="#E22B36"/>
<path fill-rule="evenodd" clip-rule="evenodd" d="M375.007 182.92C375.007 225.606 394.312 264.482 425.477 292.614C438.981 304.824 454.641 314.982 471.943 322.65V362.014C443.653 352.295 418.238 337.204 397.238 318.206C358.885 283.53 335.061 235.618 335.061 182.92V146.34H375.007V182.92Z" fill="#E22B36"/>
<path fill-rule="evenodd" clip-rule="evenodd" d="M138.937 146.34H178.882V182.92C178.882 235.618 155.059 283.481 116.705 318.206C95.6541 337.253 70.239 352.295 42 362.014V322.65C59.3028 314.982 74.9626 304.824 88.466 292.614C119.58 264.433 138.937 225.606 138.937 182.92V146.34Z" fill="#E22B36"/>
<path fill-rule="evenodd" clip-rule="evenodd" d="M217.441 340.921C207.224 354.157 195.774 366.562 183.144 377.942C144.79 412.569 96.2189 437.965 42 449.931V487C107.258 474.399 165.738 444.754 211.383 403.485C221.138 394.645 230.328 385.316 238.851 375.451L217.441 340.921Z" fill="#E22B36"/>
</svg>
